<svg width="122" height="225" viewBox="0 0 122 225" fill="none" xmlns="http://www.w3.org/2000/svg">
<g clip-path="url(#clip0_775_11330)">
<g clip-path="url(#clip1_775_11330)">
<path d="M23.8701 157.71L24.6701 157.93C24.6701 157.93 24.7201 157.94 24.7501 157.95C25.0201 157.98 25.2801 157.81 25.3501 157.54L25.5601 156.75C25.6401 156.45 25.4601 156.15 25.1701 156.07L24.3701 155.86C24.0801 155.78 23.7801 155.95 23.7001 156.25L23.4901 157.04C23.4201 157.3 23.5501 157.57 23.7801 157.68C23.8101 157.69 23.8401 157.71 23.8701 157.71Z" fill="#4F4F4F"/>
<path d="M23.8699 157.71L23.9399 157.46C23.9399 157.46 23.9299 157.41 23.9099 157.4C23.8799 157.4 23.8599 157.4 23.8499 157.43L23.7799 157.67C23.7799 157.67 23.8399 157.7 23.8699 157.7V157.71Z" fill="black"/>
<path d="M23.9499 157.73L24.0399 157.76L24.1099 157.51C24.1099 157.51 24.1099 157.46 24.0799 157.45C24.0599 157.45 24.0299 157.45 24.0199 157.48L23.9499 157.73Z" fill="black"/>
<path d="M24.1198 157.78L24.2098 157.81L24.2798 157.56C24.2798 157.56 24.2698 157.51 24.2498 157.5C24.2198 157.5 24.1998 157.5 24.1898 157.53L24.1198 157.78Z" fill="black"/>
<path d="M24.3002 157.83L24.4002 157.86L24.4702 157.61C24.4702 157.61 24.4602 157.56 24.4302 157.55C24.4102 157.55 24.3802 157.55 24.3702 157.58L24.3002 157.83Z" fill="black"/>
<path d="M24.4699 157.87L24.5599 157.9L24.6299 157.65C24.6299 157.65 24.6299 157.6 24.5999 157.59C24.5699 157.58 24.5499 157.59 24.5399 157.62L24.4699 157.87Z" fill="black"/>
<path d="M24.6401 157.92H24.6601C24.6601 157.92 24.7101 157.94 24.7401 157.94L24.8101 157.69C24.8101 157.69 24.8001 157.64 24.7801 157.63C24.7501 157.63 24.7201 157.63 24.7201 157.66L24.6501 157.91L24.6401 157.92Z" fill="black"/>
<path d="M20.6722 153.622L20.6751 153.613C20.7828 153.253 21.1618 153.049 21.5215 153.156L29.5206 155.552C29.8804 155.659 30.0847 156.038 29.977 156.398L29.9741 156.408C29.8664 156.767 29.4874 156.972 29.1276 156.864L21.1285 154.469C20.7688 154.361 20.5645 153.982 20.6722 153.622Z" fill="#FFEED2"/>
<path d="M24.7876 152.043L27.0563 152.655C27.7655 152.847 28.1851 153.577 27.9936 154.286L27.3211 156.777C27.1296 157.486 26.3995 157.906 25.6904 157.714L23.4216 157.102C22.7125 156.91 22.2928 156.18 22.4843 155.471L23.1568 152.98C23.3483 152.271 24.0784 151.851 24.7876 152.043Z" fill="black"/>
</g>
</g>
<defs>
<clipPath id="clip0_775_11330">
<rect width="10" height="6" fill="white" transform="matrix(-1 0 0 1 30 152)"/>
</clipPath>
<clipPath id="clip1_775_11330">
<rect width="9.36" height="5.95" fill="white" transform="matrix(-1 0 0 1 30 152)"/>
</clipPath>
</defs>
</svg>
