<svg width="21" height="25" viewBox="0 0 21 25" fill="none" xmlns="http://www.w3.org/2000/svg">
<g clip-path="url(#clip0_775_11064)">
<path d="M5.3097 0H15.6904C16.8836 0 17.858 0.971837 17.858 2.16184V12.1975H3.14209V2.16184C3.14209 0.971837 4.11652 0 5.3097 0Z" fill="#AFAFAF"/>
<path d="M6.02552 1.3685C6.19576 1.3685 6.33376 1.23086 6.33376 1.06108C6.33376 0.891298 6.19576 0.753662 6.02552 0.753662C5.85529 0.753662 5.71729 0.891298 5.71729 1.06108C5.71729 1.23086 5.85529 1.3685 6.02552 1.3685Z" fill="#848484"/>
<path d="M7.51722 1.3685C7.68746 1.3685 7.82546 1.23086 7.82546 1.06108C7.82546 0.891298 7.68746 0.753662 7.51722 0.753662C7.34699 0.753662 7.20898 0.891298 7.20898 1.06108C7.20898 1.23086 7.34699 1.3685 7.51722 1.3685Z" fill="#848484"/>
<path d="M9.00843 1.3685C9.17867 1.3685 9.31667 1.23086 9.31667 1.06108C9.31667 0.891298 9.17867 0.753662 9.00843 0.753662C8.8382 0.753662 8.7002 0.891298 8.7002 1.06108C8.7002 1.23086 8.8382 1.3685 9.00843 1.3685Z" fill="#848484"/>
<path d="M10.5001 1.3685C10.6704 1.3685 10.8084 1.23086 10.8084 1.06108C10.8084 0.891298 10.6704 0.753662 10.5001 0.753662C10.3299 0.753662 10.1919 0.891298 10.1919 1.06108C10.1919 1.23086 10.3299 1.3685 10.5001 1.3685Z" fill="#848484"/>
<path d="M11.9913 1.3685C12.1616 1.3685 12.2996 1.23086 12.2996 1.06108C12.2996 0.891298 12.1616 0.753662 11.9913 0.753662C11.8211 0.753662 11.6831 0.891298 11.6831 1.06108C11.6831 1.23086 11.8211 1.3685 11.9913 1.3685Z" fill="#848484"/>
<path d="M13.4728 1.3685C13.643 1.3685 13.781 1.23086 13.781 1.06108C13.781 0.891298 13.643 0.753662 13.4728 0.753662C13.3026 0.753662 13.1646 0.891298 13.1646 1.06108C13.1646 1.23086 13.3026 1.3685 13.4728 1.3685Z" fill="#848484"/>
<path d="M14.9645 1.3685C15.1347 1.3685 15.2727 1.23086 15.2727 1.06108C15.2727 0.891298 15.1347 0.753662 14.9645 0.753662C14.7943 0.753662 14.6562 0.891298 14.6562 1.06108C14.6562 1.23086 14.7943 1.3685 14.9645 1.3685Z" fill="#848484"/>
<path d="M6.02552 2.82626C6.19576 2.82626 6.33376 2.68863 6.33376 2.51884C6.33376 2.34906 6.19576 2.21143 6.02552 2.21143C5.85529 2.21143 5.71729 2.34906 5.71729 2.51884C5.71729 2.68863 5.85529 2.82626 6.02552 2.82626Z" fill="#848484"/>
<path d="M7.51722 2.82626C7.68746 2.82626 7.82546 2.68863 7.82546 2.51884C7.82546 2.34906 7.68746 2.21143 7.51722 2.21143C7.34699 2.21143 7.20898 2.34906 7.20898 2.51884C7.20898 2.68863 7.34699 2.82626 7.51722 2.82626Z" fill="#848484"/>
<path d="M9.00843 2.82626C9.17867 2.82626 9.31667 2.68863 9.31667 2.51884C9.31667 2.34906 9.17867 2.21143 9.00843 2.21143C8.8382 2.21143 8.7002 2.34906 8.7002 2.51884C8.7002 2.68863 8.8382 2.82626 9.00843 2.82626Z" fill="#848484"/>
<path d="M10.5001 2.82626C10.6704 2.82626 10.8084 2.68863 10.8084 2.51884C10.8084 2.34906 10.6704 2.21143 10.5001 2.21143C10.3299 2.21143 10.1919 2.34906 10.1919 2.51884C10.1919 2.68863 10.3299 2.82626 10.5001 2.82626Z" fill="#848484"/>
<path d="M11.9913 2.82626C12.1616 2.82626 12.2996 2.68863 12.2996 2.51884C12.2996 2.34906 12.1616 2.21143 11.9913 2.21143C11.8211 2.21143 11.6831 2.34906 11.6831 2.51884C11.6831 2.68863 11.8211 2.82626 11.9913 2.82626Z" fill="#848484"/>
<path d="M13.4728 2.82626C13.643 2.82626 13.781 2.68863 13.781 2.51884C13.781 2.34906 13.643 2.21143 13.4728 2.21143C13.3026 2.21143 13.1646 2.34906 13.1646 2.51884C13.1646 2.68863 13.3026 2.82626 13.4728 2.82626Z" fill="#848484"/>
<path d="M14.9645 2.82626C15.1347 2.82626 15.2727 2.68863 15.2727 2.51884C15.2727 2.34906 15.1347 2.21143 14.9645 2.21143C14.7943 2.21143 14.6562 2.34906 14.6562 2.51884C14.6562 2.68863 14.7943 2.82626 14.9645 2.82626Z" fill="#848484"/>
<path d="M16.8735 24.5041H4.11639C3.21156 24.5041 2.48571 23.7702 2.48571 22.8777L0.49707 5.54333C0.49707 4.64091 1.23287 3.91699 2.12775 3.91699H18.8621C19.767 3.91699 20.4928 4.65083 20.4928 5.54333L18.5042 22.8678C18.5042 23.7702 17.7684 24.4941 16.8735 24.4941V24.5041Z" fill="#C1C1C1"/>
<path d="M16.8736 24.9999H4.11648C2.94318 24.9999 1.98864 24.0479 1.98864 22.8777L0 5.60282C0 4.37315 0.954546 3.42114 2.12784 3.42114H18.8622C20.0355 3.42114 20.9901 4.37315 20.9901 5.54332L19.0014 22.9273C19.0014 24.038 18.0469 24.9999 16.8736 24.9999ZM2.12784 4.41281C1.50142 4.41281 0.994318 4.91856 0.994318 5.54332L2.98295 22.8182C2.98295 23.5025 3.5 24.0082 4.12642 24.0082H16.8835C17.5099 24.0082 18.017 23.5025 18.017 22.8777L20.0057 5.49373C20.0057 4.92848 19.4886 4.41281 18.8622 4.41281H2.12784Z" fill="#3F3F3F"/>
<path d="M12.1205 9.9563H8.8691C8.10029 9.9563 7.47705 10.5779 7.47705 11.3446V17.0765C7.47705 17.8432 8.10029 18.4648 8.8691 18.4648H12.1205C12.8893 18.4648 13.5126 17.8432 13.5126 17.0765V11.3446C13.5126 10.5779 12.8893 9.9563 12.1205 9.9563Z" fill="white"/>
<path d="M12.1209 18.9607H8.87944C7.8354 18.9607 6.99023 18.1178 6.99023 17.0766V11.3546C6.99023 10.3134 7.8354 9.47046 8.87944 9.47046H12.1209C13.1649 9.47046 14.0101 10.3134 14.0101 11.3546V17.0766C14.0101 18.1178 13.1649 18.9607 12.1209 18.9607ZM8.87944 10.4522C8.38228 10.4522 7.98455 10.8489 7.98455 11.3447V17.0667C7.98455 17.5625 8.38228 17.9592 8.87944 17.9592H12.1209C12.6181 17.9592 13.0158 17.5625 13.0158 17.0667V11.3447C13.0158 10.8489 12.6181 10.4522 12.1209 10.4522H8.87944Z" fill="#3F3F3F"/>
<path d="M11.6733 12.3462C11.6733 11.6999 11.1479 11.176 10.5 11.176C9.85196 11.176 9.32666 11.6999 9.32666 12.3462V13.4172C9.32666 14.0635 9.85196 14.5874 10.5 14.5874C11.1479 14.5874 11.6733 14.0635 11.6733 13.4172V12.3462Z" fill="#40C632"/>
</g>
<defs>
<clipPath id="clip0_775_11064">
<rect width="21" height="25" fill="white"/>
</clipPath>
</defs>
</svg>
