<svg width="122" height="225" viewBox="0 0 122 225" fill="none" xmlns="http://www.w3.org/2000/svg">
<g clip-path="url(#clip0_775_8166)">
<path d="M103.488 23.88H18.5117C18.5117 21.64 19.0851 19.49 20.1396 17.44C20.8358 16.09 21.747 14.81 22.8527 13.57C23.1086 13.28 23.3748 13 23.6512 12.72C24.6239 11.74 25.7091 10.8 26.9274 9.90999C34.6674 4.19999 47.0453 0.48999 60.9998 0.48999C77.7391 0.48999 92.2158 5.81999 99.147 13.57C100.253 14.81 101.164 16.09 101.86 17.44C102.915 19.49 103.488 21.65 103.488 23.88Z" fill="#F7CA66"/>
<path d="M104 24.38H18V23.89C18 21.64 18.5631 19.39 19.6893 17.23C20.3855 15.88 21.3274 14.54 22.474 13.26C22.7402 12.97 23.0064 12.67 23.2931 12.39C24.2964 11.38 25.4226 10.41 26.6205 9.53C34.8212 3.47 47.3424 0 61 0C77.4629 0 92.2262 5.08 99.5362 13.25C100.683 14.54 101.625 15.87 102.321 17.22C103.437 19.39 104 21.63 104 23.88V24.37V24.38ZM19.034 23.39H102.966C102.894 21.46 102.362 19.53 101.4 17.66C100.734 16.38 99.8433 15.12 98.7479 13.89C91.6324 5.93 77.166 0.99 61 0.99C47.7724 0.99 35.1488 4.47 27.245 10.3C26.0881 11.15 25.0029 12.08 24.0302 13.06C23.764 13.33 23.4979 13.61 23.2521 13.89C22.1567 15.11 21.266 16.38 20.6005 17.66C19.6381 19.53 19.1057 21.45 19.034 23.39Z" fill="#C49A4E"/>
<path d="M58.6843 26.1984C60.2753 22.7552 56.8439 17.8828 51.0201 15.3156C45.1963 12.7484 39.1855 13.4585 37.5945 16.9017C36.0036 20.345 39.435 25.2174 45.2588 27.7845C51.0826 30.3517 57.0934 29.6416 58.6843 26.1984Z" fill="white"/>
<path d="M51.3251 14.8999C46.1651 12.5899 40.8004 12.8099 38.2306 15.1899C37.7802 15.6199 37.4218 16.0899 37.1659 16.6399C36.8997 17.1899 36.7563 17.7699 36.7154 18.3699C36.6028 20.2199 37.514 22.2699 39.193 24.1199C40.6059 25.6899 42.5921 27.1399 44.9571 28.1999C50.7723 30.7899 56.8435 30.1799 58.8809 26.8899C58.973 26.7499 59.0549 26.6199 59.1266 26.4599C59.1982 26.2999 59.2597 26.1499 59.3109 25.9799C59.5259 25.3899 59.6078 24.7499 59.5566 24.1099C59.3928 20.8199 56.178 17.0599 51.3354 14.8899L51.3251 14.8999ZM58.1847 26.0399C56.6694 29.2099 50.9259 29.7799 45.3768 27.2999C43.4725 26.4499 41.814 25.3399 40.5547 24.1199C38.1487 21.8199 37.0737 19.1299 38.0771 17.0499C39.6025 13.8799 45.3461 13.3199 50.8952 15.7999C55.3999 17.8099 58.3997 21.1999 58.5532 24.1099C58.5942 24.7799 58.4713 25.4399 58.1847 26.0299V26.0399Z" fill="#FCAA1A"/>
<path d="M79.6949 39.76L76.8589 36.51L79.4696 34.39L79.1625 30.14L79.6949 29.23L79.9611 28.79C78.8758 27.93 77.5961 27.17 76.1627 26.53C70.3577 23.93 64.3172 24.6 62.6792 28.02C61.0411 31.44 64.4094 36.32 70.2144 38.92C73.767 40.5 77.3811 40.87 80.043 40.15L79.6846 39.74L79.6949 39.76Z" fill="white"/>
<path d="M80.0532 40.1701L79.6949 39.7601C77.1763 40.3601 73.7671 39.9801 70.4397 38.4801C64.8906 36.0101 61.6349 31.4101 63.1502 28.2501C64.6654 25.0801 70.409 24.5201 75.958 26.9901C77.3709 27.6201 78.6302 28.4001 79.7052 29.2401L79.9713 28.8001L80.2171 28.3701C79.1113 27.5101 77.8316 26.7301 76.388 26.0801C70.583 23.4901 64.5016 24.1001 62.4642 27.3901C62.3721 27.5301 62.2902 27.6801 62.2185 27.8301C62.1468 27.9801 62.0854 28.1301 62.0342 28.3001C60.7647 31.9201 64.2047 36.7901 70.0097 39.3901C73.7363 41.0501 77.5756 41.4001 80.4013 40.5701L80.0635 40.1701H80.0532Z" fill="#FCAA1A"/>
<path d="M62.464 28.5L58.4404 26.7001L58.8704 25.8L62.894 27.6L62.464 28.5Z" fill="#FCAA1A"/>
<path d="M38.3023 15.03L38.2307 15.19L36.7154 18.37L36.6335 18.54L24.1226 12.96C25.0952 11.98 26.1804 11.04 27.3987 10.15L38.3228 15.04L38.3023 15.03Z" fill="#FCAA1A"/>
</g>
<defs>
<clipPath id="clip0_775_8166">
<rect width="86" height="41" fill="white" transform="translate(18)"/>
</clipPath>
</defs>
</svg>
