<svg width="122" height="225" viewBox="0 0 122 225" fill="none" xmlns="http://www.w3.org/2000/svg">
<g clip-path="url(#clip0_775_11183)">
<path d="M23.7723 158.19L24.2615 158.41C24.2615 158.41 24.2921 158.42 24.3125 158.43C24.4857 158.48 24.6692 158.4 24.7406 158.24L24.9648 157.76C25.0463 157.58 24.9648 157.37 24.7915 157.29L24.3023 157.07C24.1188 156.99 23.915 157.07 23.8232 157.24L23.599 157.72C23.5276 157.88 23.5786 158.06 23.7111 158.16C23.7315 158.17 23.7417 158.18 23.7621 158.19H23.7723Z" fill="#D3BE94"/>
<path d="M23.7724 158.19L23.8438 158.04C23.8438 158.04 23.8437 158.01 23.8336 158C23.8132 158 23.803 158 23.7928 158.02L23.7214 158.17C23.7214 158.17 23.752 158.19 23.7724 158.2V158.19Z" fill="#A39071"/>
<path d="M23.8133 158.21L23.8745 158.24L23.9458 158.09C23.9458 158.09 23.9458 158.06 23.9356 158.05C23.9254 158.05 23.905 158.05 23.8948 158.07L23.8235 158.22L23.8133 158.21Z" fill="#A39071"/>
<path d="M23.9251 158.26L23.9863 158.29L24.0576 158.14C24.0576 158.14 24.0576 158.11 24.0474 158.1C24.027 158.1 24.0168 158.1 24.0067 158.12L23.9353 158.27L23.9251 158.26Z" fill="#A39071"/>
<path d="M24.0272 158.31L24.0883 158.34L24.1597 158.19C24.1597 158.19 24.1597 158.16 24.1393 158.15C24.1291 158.15 24.1087 158.15 24.0985 158.17L24.0272 158.32V158.31Z" fill="#A39071"/>
<path d="M24.1395 158.36L24.2006 158.39L24.272 158.24C24.272 158.24 24.272 158.21 24.2618 158.2C24.2516 158.19 24.2312 158.2 24.221 158.22L24.1497 158.37L24.1395 158.36Z" fill="#A39071"/>
<path d="M24.241 158.41H24.2512C24.2512 158.41 24.2818 158.43 24.3022 158.43L24.3735 158.28C24.3735 158.28 24.3735 158.25 24.3633 158.24C24.343 158.24 24.3226 158.24 24.3226 158.25L24.2512 158.4L24.241 158.41Z" fill="#A39071"/>
<path d="M29.898 157.16C30.1426 156.65 29.9184 156.04 29.3986 155.8L22.4677 152.62C21.9479 152.38 21.3363 152.6 21.0917 153.12C20.8471 153.63 21.0713 154.24 21.5911 154.48L28.5322 157.66C29.052 157.9 29.6636 157.68 29.9082 157.16H29.898Z" fill="#602E0D"/>
<path d="M28.196 156.38C28.8891 154.91 28.247 153.15 26.7589 152.47C25.2708 151.79 23.4973 152.43 22.794 153.9C22.0907 155.37 22.743 157.13 24.2311 157.81C25.7193 158.49 27.4928 157.85 28.196 156.38Z" fill="white"/>
<path d="M22.9772 153.98C22.3248 155.36 22.9262 157 24.3226 157.64C25.7189 158.28 27.3701 157.68 28.0225 156.3C28.6748 154.92 28.0734 153.28 26.677 152.64C25.2807 152 23.6295 152.6 22.9772 153.98ZM22.6306 153.82C23.3645 152.25 25.2603 151.56 26.8401 152.29C28.4302 153.02 29.1131 154.89 28.3792 156.46C27.6351 158.03 25.7495 158.71 24.1595 157.99C22.5695 157.27 21.8866 155.39 22.6306 153.82Z" fill="#BCA175"/>
<path d="M25.5864 155.18C25.5864 155.18 25.5864 155.07 25.5355 155.05L24.1595 154.42C24.1595 154.42 24.0575 154.42 24.027 154.47C23.9964 154.52 24.027 154.58 24.0779 154.6L25.4539 155.23C25.4539 155.23 25.5558 155.23 25.5864 155.18Z" fill="#938367"/>
<path d="M26.1268 156.55C26.1268 156.55 26.137 156.5 26.1268 156.48L25.607 155.07C25.607 155.07 25.5357 154.99 25.4847 155.01C25.4337 155.03 25.4133 155.08 25.4235 155.13L25.9434 156.54C25.9434 156.54 26.0147 156.62 26.0657 156.6C26.086 156.6 26.1064 156.57 26.1166 156.55H26.1268Z" fill="#938367"/>
<path d="M25.4589 155.407C25.3085 155.386 25.2043 155.248 25.2262 155.101C25.2481 154.953 25.3878 154.851 25.5382 154.873C25.6886 154.894 25.7928 155.031 25.7709 155.179C25.749 155.326 25.6093 155.429 25.4589 155.407Z" fill="#D3BE94"/>
<path d="M23.436 154.19C23.436 154.19 23.436 154.14 23.4157 154.13L23.222 154.04C23.222 154.04 23.171 154.04 23.1608 154.06C23.1506 154.08 23.1608 154.11 23.1812 154.12L23.3749 154.21C23.3749 154.21 23.4258 154.21 23.436 154.19Z" fill="#D3BE94"/>
<path d="M23.7622 153.69C23.7622 153.69 23.7622 153.65 23.752 153.63L23.5889 153.49C23.5889 153.49 23.538 153.48 23.5176 153.49C23.4972 153.51 23.5074 153.54 23.5176 153.56L23.6807 153.7C23.6807 153.7 23.7316 153.71 23.752 153.7C23.752 153.7 23.752 153.7 23.752 153.69H23.7622Z" fill="#D3BE94"/>
<path d="M24.2105 153.28C24.2105 153.28 24.2105 153.25 24.2105 153.23L24.0882 153.06C24.0882 153.06 24.0474 153.03 24.0169 153.05C23.9965 153.07 23.9863 153.09 24.0067 153.12L24.129 153.29C24.129 153.29 24.1697 153.32 24.2003 153.3C24.2003 153.3 24.2105 153.29 24.2207 153.28H24.2105Z" fill="#D3BE94"/>
<path d="M24.751 153C24.751 153 24.751 152.98 24.751 152.96L24.6796 152.76C24.6796 152.76 24.6389 152.72 24.6185 152.73C24.5981 152.73 24.5777 152.77 24.5879 152.79L24.6592 152.99C24.6592 152.99 24.7 153.03 24.7204 153.02C24.7306 153.02 24.7408 153.01 24.751 152.99V153Z" fill="#D3BE94"/>
<path d="M25.3418 152.87V152.85L25.3214 152.64C25.3214 152.64 25.2908 152.59 25.2704 152.6C25.2399 152.6 25.2195 152.63 25.2297 152.65L25.2501 152.86C25.2501 152.86 25.2806 152.91 25.301 152.9C25.3214 152.9 25.3316 152.89 25.3418 152.87Z" fill="#D3BE94"/>
<path d="M25.9436 152.9C25.9436 152.9 25.9436 152.9 25.9436 152.89L25.9844 152.68C25.9844 152.68 25.9742 152.63 25.9436 152.62C25.913 152.62 25.8926 152.63 25.8824 152.66L25.8417 152.87C25.8417 152.87 25.8519 152.92 25.8824 152.93C25.9028 152.93 25.9232 152.93 25.9334 152.9H25.9436Z" fill="#D3BE94"/>
<path d="M26.5245 153.08L26.6162 152.89C26.6162 152.89 26.6162 152.84 26.5958 152.83C26.5754 152.82 26.5449 152.83 26.5347 152.85L26.4429 153.04C26.4429 153.04 26.4429 153.09 26.4633 153.1C26.4837 153.11 26.5143 153.1 26.5245 153.08Z" fill="#D3BE94"/>
<path d="M27.1768 153.23C27.1768 153.23 27.1768 153.19 27.1666 153.17C27.1462 153.15 27.1156 153.16 27.0952 153.17L26.9627 153.33C26.9627 153.33 26.9525 153.38 26.9627 153.4C26.9831 153.42 27.0137 153.41 27.0341 153.4L27.1666 153.24C27.1666 153.24 27.1666 153.24 27.1666 153.23H27.1768Z" fill="#D3BE94"/>
<path d="M27.6251 153.72C27.6251 153.72 27.6251 153.69 27.6251 153.67C27.6047 153.65 27.5843 153.64 27.5537 153.66L27.3804 153.78C27.3804 153.78 27.3499 153.82 27.3702 153.85C27.3906 153.87 27.411 153.88 27.4416 153.86L27.6149 153.74C27.6149 153.74 27.6251 153.73 27.6353 153.72H27.6251Z" fill="#D3BE94"/>
<path d="M27.9312 154.3C27.9312 154.3 27.9312 154.28 27.9312 154.26C27.9312 154.24 27.8904 154.22 27.87 154.23L27.6661 154.3C27.6661 154.3 27.6254 154.34 27.6356 154.36C27.6458 154.38 27.6763 154.4 27.6967 154.39L27.9006 154.32C27.9006 154.32 27.921 154.31 27.9312 154.29V154.3Z" fill="#D3BE94"/>
<path d="M28.0737 154.93V154.91C28.0737 154.88 28.0432 154.86 28.0228 154.87L27.8087 154.89C27.8087 154.89 27.768 154.92 27.768 154.94C27.768 154.97 27.7985 154.99 27.8189 154.98L28.033 154.96C28.033 154.96 28.0635 154.95 28.0737 154.93Z" fill="#D3BE94"/>
<path d="M28.043 155.59C28.043 155.59 28.043 155.59 28.043 155.58C28.043 155.55 28.0328 155.53 28.0022 155.52L27.7882 155.48C27.7882 155.48 27.7372 155.49 27.727 155.52C27.727 155.55 27.7372 155.57 27.7678 155.58L27.9818 155.62C27.9818 155.62 28.0226 155.62 28.0328 155.59H28.043Z" fill="#D3BE94"/>
<path d="M27.8394 156.21C27.8394 156.21 27.8394 156.16 27.819 156.15L27.6253 156.06C27.6253 156.06 27.5743 156.06 27.5642 156.08C27.554 156.1 27.5642 156.13 27.5845 156.14L27.7782 156.23C27.7782 156.23 27.8292 156.23 27.8394 156.21Z" fill="#D3BE94"/>
<path d="M27.4824 156.76C27.4824 156.76 27.4824 156.72 27.4722 156.7L27.3091 156.56C27.3091 156.56 27.2582 156.55 27.2378 156.56C27.2174 156.58 27.2276 156.61 27.2378 156.63L27.4009 156.77C27.4009 156.77 27.4518 156.78 27.4722 156.77C27.4722 156.77 27.4722 156.77 27.4722 156.76H27.4824Z" fill="#D3BE94"/>
<path d="M26.9932 157.21C26.9932 157.21 26.9932 157.18 26.9932 157.16L26.8709 156.99C26.8709 156.99 26.8301 156.96 26.7996 156.98C26.7792 157 26.769 157.02 26.7894 157.05L26.9117 157.22C26.9117 157.22 26.9525 157.25 26.983 157.23C26.983 157.23 26.9932 157.22 27.0034 157.21H26.9932Z" fill="#D3BE94"/>
<path d="M26.4121 157.51C26.4121 157.51 26.4121 157.49 26.4121 157.47L26.3408 157.27C26.3408 157.27 26.3 157.23 26.2796 157.24C26.2592 157.25 26.2388 157.28 26.249 157.3L26.3204 157.5C26.3204 157.5 26.3611 157.54 26.3815 157.53C26.3917 157.53 26.4019 157.52 26.4121 157.51Z" fill="#D3BE94"/>
<path d="M25.7598 157.65V157.63L25.7394 157.42C25.7394 157.42 25.7088 157.37 25.6884 157.38C25.6578 157.38 25.6375 157.41 25.6476 157.43L25.668 157.64C25.668 157.64 25.6986 157.69 25.719 157.68C25.7394 157.68 25.7496 157.67 25.7598 157.65Z" fill="#D3BE94"/>
<path d="M25.1077 157.63C25.1077 157.63 25.1077 157.63 25.1077 157.62L25.1484 157.41C25.1484 157.41 25.1382 157.36 25.1077 157.35C25.0771 157.35 25.0567 157.36 25.0465 157.39L25.0057 157.6C25.0057 157.6 25.0159 157.65 25.0465 157.66C25.0669 157.66 25.0873 157.66 25.0975 157.63H25.1077Z" fill="#D3BE94"/>
<path d="M24.4756 157.43L24.5674 157.24C24.5674 157.24 24.5674 157.19 24.547 157.18C24.5266 157.17 24.496 157.18 24.4858 157.2L24.3941 157.39C24.3941 157.39 24.3941 157.44 24.4145 157.45C24.4349 157.46 24.4655 157.45 24.4756 157.43Z" fill="#D3BE94"/>
<path d="M24.0474 156.92C24.0474 156.92 24.0474 156.88 24.0372 156.86C24.0168 156.84 23.9862 156.85 23.9658 156.86L23.8231 157.02C23.8231 157.02 23.8129 157.07 23.8231 157.09C23.8435 157.11 23.8741 157.1 23.8945 157.09L24.0372 156.93C24.0372 156.93 24.0372 156.93 24.0372 156.92H24.0474Z" fill="#D3BE94"/>
<path d="M23.6397 156.48C23.6397 156.48 23.6397 156.45 23.6397 156.43C23.6193 156.41 23.5989 156.4 23.5684 156.42L23.3951 156.54C23.3951 156.54 23.3645 156.58 23.3849 156.61C23.4053 156.63 23.4257 156.64 23.4562 156.62L23.6295 156.5C23.6295 156.5 23.6397 156.49 23.6499 156.48H23.6397Z" fill="#D3BE94"/>
<path d="M23.3647 155.95C23.3647 155.95 23.3647 155.93 23.3647 155.91C23.3647 155.89 23.324 155.87 23.3036 155.88L23.0997 155.95C23.0997 155.95 23.059 155.99 23.0692 156.01C23.0794 156.03 23.1099 156.05 23.1303 156.04L23.3342 155.97C23.3342 155.97 23.3546 155.96 23.3647 155.95Z" fill="#D3BE94"/>
<path d="M23.2319 155.36V155.34C23.2319 155.31 23.2014 155.29 23.181 155.3L22.9669 155.32C22.9669 155.32 22.916 155.35 22.9262 155.37C22.9262 155.4 22.9567 155.42 22.9771 155.41L23.1912 155.39C23.1912 155.39 23.2217 155.38 23.2319 155.36Z" fill="#D3BE94"/>
<path d="M23.2524 154.76C23.2524 154.76 23.2524 154.76 23.2524 154.75C23.2524 154.72 23.2422 154.7 23.2117 154.69L22.9976 154.65C22.9976 154.65 22.9467 154.66 22.9365 154.69C22.9365 154.72 22.9467 154.74 22.9772 154.75L23.1913 154.79C23.1913 154.79 23.2321 154.79 23.2422 154.76H23.2524Z" fill="#D3BE94"/>
</g>
<defs>
<clipPath id="clip0_775_11183">
<rect width="9" height="6.45" fill="white" transform="matrix(-1 0 0 1 30 152)"/>
</clipPath>
</defs>
</svg>
