<svg width="122" height="225" viewBox="0 0 122 225" fill="none" xmlns="http://www.w3.org/2000/svg">
<g clip-path="url(#clip0_775_8006)">
<path d="M56.5869 222.48C55.0965 224 51.5718 224.3 47.4932 224.66C46.5466 224.74 45.6201 224.83 44.7541 224.89C44.5829 224.9 44.4117 224.91 44.2405 224.93C41.3502 225.11 39.034 225.01 37.8457 223.87C38.6312 223.89 41.2395 223.94 44.5426 223.73C44.744 223.72 44.9454 223.7 45.1569 223.69C45.6302 223.66 46.1136 223.62 46.607 223.57C47.4227 223.5 48.2586 223.4 49.1045 223.29C49.9202 223.18 50.7359 223.06 51.5617 222.91C51.6624 222.89 51.7631 222.87 51.8638 222.85C52.4177 222.75 52.9615 222.63 53.5053 222.51C53.7772 222.45 54.0491 222.38 54.311 222.31C54.4721 222.28 54.6332 222.23 54.7943 222.18C55.1569 222.1 55.5295 222 55.882 221.88L56.5869 222.48Z" fill="#A0A0A0"/>
<path d="M54.0364 221.19L55.8823 221.88C52.4181 222.94 48.4906 223.45 45.1572 223.69C45.9528 222.4 47.7252 221.62 47.7453 221.61L56.0001 217.81L53.7645 219.59L54.3284 220.24L54.0364 221.19Z" fill="#D6D6D6"/>
<path d="M56.0001 217.82L47.7453 221.62C47.7453 221.62 45.9528 222.41 45.1572 223.7C44.9457 223.71 44.7443 223.73 44.5429 223.74C41.2398 223.95 38.6315 223.9 37.846 223.88C37.3727 223.44 37.0907 222.83 37.0202 222.02C36.7584 218.97 39.6697 216.12 44 215C43.9799 215.05 43.9799 215.09 43.9799 215.14C43.9799 216.28 46.9397 217.22 50.4845 217.21C52.8913 217.2 53.9961 216.76 55.0837 216.12C55.4261 216.48 55.6778 216.89 55.839 217.35C55.9095 217.5 55.9598 217.66 56.0001 217.83V217.82Z" fill="white"/>
<path d="M42.8508 216.54C42.7098 216.61 42.5386 216.54 42.4681 216.41L42.0855 215.6C42.015 215.46 42.0855 215.28 42.2164 215.22C42.3574 215.15 42.5286 215.22 42.5991 215.35L42.9817 216.16C43.0522 216.3 42.9817 216.48 42.8508 216.54Z" fill="black"/>
<path d="M41.3606 217.26C41.2296 217.35 41.0484 217.31 40.9678 217.18L40.4844 216.43C40.3938 216.3 40.4341 216.12 40.565 216.03C40.6959 215.94 40.8772 215.98 40.9577 216.11L41.4411 216.86C41.5318 216.99 41.4915 217.17 41.3606 217.26Z" fill="black"/>
<path d="M40.1318 218.07C40.011 218.17 39.8297 218.15 39.729 218.03L39.1651 217.34C39.0644 217.22 39.0845 217.04 39.2053 216.93C39.3262 216.83 39.5075 216.85 39.6082 216.97L40.1721 217.66C40.2728 217.78 40.2527 217.96 40.1318 218.07Z" fill="black"/>
<path d="M56.0002 217.82L47.7454 221.62C47.7454 221.62 45.9528 222.41 45.1573 223.7C44.9458 223.71 44.7444 223.73 44.543 223.74C45.3385 222.14 47.4433 221.21 47.554 221.16L55.839 217.35C55.9095 217.5 55.9599 217.66 56.0002 217.83V217.82Z" fill="#A8A8A8"/>
</g>
<g clip-path="url(#clip1_775_8006)">
<path d="M66.1284 221.43C66.8992 223.88 70.911 224.23 75.6936 224.66C76.6225 224.74 77.5316 224.83 78.3814 224.89C78.5494 224.9 78.7174 224.91 78.8853 224.92C81.7213 225.1 83.994 225 85.1699 223.87C84.3992 223.89 81.83 223.94 78.5988 223.73C78.4011 223.72 78.2035 223.7 77.996 223.69C74.2905 223.42 69.8241 222.8 66.1284 221.43Z" fill="#A0A0A0"/>
<path d="M66.0099 220.17C65.9704 220.65 66.0099 221.06 66.1285 221.43C69.8143 222.8 74.2807 223.41 77.9961 223.69C77.2155 222.4 75.4763 221.62 75.4566 221.61L66.3756 217.82C66.1582 218.53 66.0791 219.33 66.0099 220.17Z" fill="#D6D6D6"/>
<path d="M66.3755 217.82L75.4565 221.62C75.4565 221.62 77.2154 222.41 77.996 223.7C78.2036 223.71 78.4012 223.73 78.5988 223.74C81.8399 223.95 84.3992 223.9 85.17 223.88C85.6344 223.44 85.9111 222.83 85.9802 222.02C86.2371 218.98 83.2826 216.14 79.0336 215.01C79.0534 215.06 79.0534 215.1 79.0534 215.15C79.0534 216.29 76.247 217.23 72.7688 217.22C70.4071 217.21 68.3419 216.77 67.2747 216.13C66.9387 216.49 66.6917 216.9 66.5336 217.36C66.4644 217.51 66.415 217.67 66.3755 217.84V217.82Z" fill="white"/>
<path d="M80.2588 216.54C80.3972 216.61 80.5651 216.54 80.6343 216.41L81.0098 215.6C81.079 215.46 81.0098 215.28 80.8813 215.22C80.743 215.15 80.575 215.22 80.5059 215.35L80.1304 216.16C80.0612 216.3 80.1304 216.48 80.2588 216.54Z" fill="black"/>
<path d="M81.7213 217.26C81.8497 217.35 82.0276 217.31 82.1066 217.18L82.5809 216.43C82.6699 216.3 82.6303 216.12 82.5019 216.03C82.3734 215.94 82.1956 215.98 82.1165 216.11L81.6422 216.86C81.5533 216.99 81.5928 217.17 81.7213 217.26Z" fill="black"/>
<path d="M82.927 218.07C83.0456 218.17 83.2235 218.15 83.3223 218.03L83.8756 217.34C83.9744 217.22 83.9547 217.04 83.8361 216.93C83.7175 216.83 83.5397 216.85 83.4408 216.97L82.8875 217.66C82.7887 217.78 82.8084 217.96 82.927 218.07Z" fill="black"/>
<path d="M66.3755 217.82L75.4565 221.62C75.4565 221.62 77.2154 222.41 77.996 223.7C78.2036 223.71 78.4012 223.73 78.5988 223.74C77.8182 222.14 75.753 221.21 75.6443 221.16L66.5336 217.34C66.4644 217.49 66.415 217.65 66.3755 217.82Z" fill="#A8A8A8"/>
</g>
<defs>
<clipPath id="clip0_775_8006">
<rect width="20" height="10" fill="white" transform="translate(37 215)"/>
</clipPath>
<clipPath id="clip1_775_8006">
<rect width="20" height="10" fill="white" transform="translate(66 215)"/>
</clipPath>
</defs>
</svg>
