<svg width="122" height="225" viewBox="0 0 122 225" fill="none" xmlns="http://www.w3.org/2000/svg">
<g clip-path="url(#clip0_775_9186)">
<path d="M66.5052 219.909C67.1996 220.68 68.1322 220.57 68.0925 220.56C73.1323 220.87 77.3983 221 81.0095 221C99.8493 221 100.921 217.448 100.99 216.978V216.898L100.236 213.666L100.127 213.205L99.9485 212.475C99.9187 212.355 99.2044 209.663 94.4126 209.613C93.9662 209.613 93.5396 209.583 93.1229 209.533H93.113C92.6467 209.493 92.2102 209.413 91.7836 209.323C91.1784 209.203 90.603 209.033 90.0673 208.853C89.6506 208.713 89.2538 208.553 88.8867 208.393C88.3311 208.142 87.8252 207.882 87.3688 207.622C86.972 207.402 86.6148 207.182 86.3073 206.972C85.8807 206.702 85.5334 206.451 85.2556 206.251C84.9679 206.041 84.7596 205.891 84.6306 205.831C84.0255 205.511 83.5989 205.961 83.3112 206.251C82.9242 206.651 82.6762 206.862 82.0909 206.641C81.7139 206.481 81.3171 206.221 81.5849 205.461C81.6643 205.251 81.6544 205.041 81.5651 204.84C81.4659 204.64 81.2972 204.48 81.0988 204.41L80.1067 204.05C79.7297 203.92 79.323 204.06 79.1245 204.4C78.6285 205.211 78.4499 205.971 78.4896 206.671L77.7753 207.302C73.7474 210.824 71.5648 209.033 69.9576 207.732C69.3029 207.192 68.7771 206.772 68.2215 206.772H68.1818C66.3861 206.822 66.1579 211.815 66.1381 213.926L66.0488 215.247C66.0488 215.247 66.0389 215.297 66.0389 215.307C65.5627 217.508 65.7214 219.049 66.5052 219.909ZM66.8425 215.847C69.0648 216.107 79.7496 217.198 90.3252 216.027L91.228 215.927C94.244 215.557 97.0119 215.016 99.4723 214.336L100.068 216.888C99.889 217.208 98.6687 218.739 91.7538 219.559L90.851 219.669C86.0989 220.159 78.9063 220.32 68.0628 219.659C68.0429 219.659 67.5369 219.709 67.15 219.279C66.783 218.869 66.4457 217.938 66.8425 215.847Z" fill="black"/>
<path d="M66.5052 219.909C67.1996 220.68 68.1322 220.57 68.0925 220.56C73.1323 220.87 77.3983 221 81.0095 221C99.8493 221 100.921 217.448 100.99 216.978V216.898L100.236 213.666L100.127 213.205L99.9485 212.475C99.9187 212.355 99.2044 209.663 94.4126 209.613C93.9662 209.613 93.5396 209.583 93.1229 209.533H93.113C92.6467 209.493 92.2102 209.413 91.7836 209.323C91.1784 209.203 90.603 209.033 90.0673 208.853C89.6506 208.713 89.2538 208.553 88.8867 208.393C88.3311 208.142 87.8252 207.882 87.3688 207.622C86.972 207.402 86.6148 207.182 86.3073 206.972C85.8807 206.702 85.5334 206.451 85.2556 206.251C84.9679 206.041 84.7596 205.891 84.6306 205.831C84.0255 205.511 83.5989 205.961 83.3112 206.251C82.9242 206.651 82.6762 206.862 82.0909 206.641C81.7139 206.481 81.3171 206.221 81.5849 205.461C81.6643 205.251 81.6544 205.041 81.5651 204.84C81.4659 204.64 81.2972 204.48 81.0988 204.41L80.1067 204.05C79.7297 203.92 79.323 204.06 79.1245 204.4C78.6285 205.211 78.4499 205.971 78.4896 206.671L77.7753 207.302C73.7474 210.824 71.5648 209.033 69.9576 207.732C69.3029 207.192 68.7771 206.772 68.2215 206.772H68.1818C66.3861 206.822 66.1579 211.815 66.1381 213.926L66.0488 215.247C66.0488 215.247 66.0389 215.297 66.0389 215.307C65.5627 217.508 65.7214 219.049 66.5052 219.909ZM99.254 213.455C96.7044 214.166 93.8174 214.706 90.6625 215.076C80.0571 216.307 69.2334 215.197 66.9715 214.946L67.0409 213.976C67.0707 210.754 67.6362 207.692 68.2116 207.682H68.2215C68.4596 207.682 68.9358 208.072 69.3922 208.433C71.0291 209.773 73.7772 212.005 78.3706 207.992L78.6781 207.722C79.065 208.853 79.9281 209.703 80.6127 210.124L81.0889 209.353C80.9698 209.283 78.321 207.552 79.8587 204.93L80.7119 205.241C80.3746 206.261 80.7615 207.092 81.7635 207.482C82.9242 207.942 83.5691 207.282 83.956 206.882C84.0453 206.792 84.1842 206.651 84.2239 206.631C84.3231 206.692 84.5017 206.822 84.7298 206.992C85.0175 207.202 85.3747 207.462 85.8112 207.742C86.1287 207.952 86.4759 208.172 86.8728 208.393C87.3291 208.653 87.8351 208.923 88.3906 209.173C88.7577 209.333 89.1546 209.493 89.5613 209.643C90.097 209.833 90.6625 210.003 91.2677 210.144C91.6844 210.244 92.1209 210.324 92.5773 210.384C93.1626 210.464 93.7678 210.514 94.4027 210.524C98.4504 210.564 99.0457 212.615 99.0754 212.695L99.254 213.455ZM66.8425 215.847C69.0648 216.107 79.7496 217.198 90.3252 216.027L91.228 215.927C94.244 215.557 97.0119 215.016 99.4723 214.336L100.068 216.888C99.889 217.208 98.6687 218.739 91.7538 219.559L90.851 219.669C86.0989 220.159 78.9063 220.32 68.0628 219.659C68.0429 219.659 67.5369 219.709 67.15 219.279C66.783 218.869 66.4457 217.938 66.8425 215.847Z" fill="black"/>
<path d="M85.7515 208.993C86.0392 209.183 86.4162 209.103 86.6047 208.813L87.6563 207.162C87.8448 206.872 87.7655 206.481 87.4778 206.291C87.19 206.101 86.8131 206.181 86.6246 206.471L85.5729 208.122C85.3844 208.413 85.4638 208.803 85.7515 208.993Z" fill="white"/>
<path d="M88.4996 210.154C88.7873 210.344 89.1643 210.264 89.3528 209.973L90.4044 208.323C90.5929 208.032 90.5135 207.642 90.2258 207.452C89.9381 207.262 89.5611 207.342 89.3726 207.632L88.321 209.283C88.1325 209.573 88.2119 209.963 88.4996 210.154Z" fill="white"/>
<path d="M91.3172 211.214C91.6049 211.404 91.9819 211.324 92.1704 211.034L93.222 209.383C93.4105 209.093 93.3311 208.703 93.0434 208.513C92.7557 208.322 92.3787 208.402 92.1902 208.693L91.1386 210.344C90.9501 210.634 91.0295 211.024 91.3172 211.214Z" fill="white"/>
<path d="M67.1499 219.279C67.5368 219.709 68.0428 219.659 68.0626 219.659C78.9061 220.32 86.0988 220.16 90.8509 219.669L91.7537 219.559C98.6685 218.739 99.8888 217.208 100.067 216.888L99.4721 214.336C97.0117 215.017 94.2438 215.557 91.2279 215.927L90.3251 216.027C79.7494 217.198 69.0646 216.107 66.8423 215.847C66.4455 217.938 66.7828 218.869 67.1499 219.279Z" fill="white"/>
<path d="M79.9579 210.384L79.452 211.414C79.4222 211.484 79.3527 211.534 79.2734 211.544L78.1424 211.714C77.9539 211.744 77.8745 211.975 78.0134 212.115L78.8269 212.915C78.8865 212.965 78.9063 213.045 78.8964 213.125L78.7079 214.266C78.6781 214.456 78.8765 214.606 79.0452 214.516L80.0571 213.976C80.1266 213.936 80.2059 213.936 80.2754 213.976L81.2873 214.516C81.456 214.606 81.6544 214.456 81.6246 214.266L81.4361 213.125C81.4262 213.045 81.446 212.975 81.5056 212.915L82.3191 212.115C82.458 211.975 82.3786 211.744 82.1901 211.714L81.0591 211.544C80.9798 211.534 80.9202 211.484 80.8806 211.414L80.3746 210.384C80.2853 210.214 80.0472 210.214 79.9579 210.384Z" fill="white"/>
<path d="M56.9612 215.307C56.9612 215.307 56.9612 215.267 56.9513 215.247L56.862 213.926C56.8421 211.815 56.614 206.822 54.8183 206.772H54.7786C54.223 206.772 53.6972 207.192 53.0424 207.732C51.4353 209.033 49.2527 210.824 45.2248 207.302L44.5105 206.671C44.5502 205.971 44.3716 205.211 43.8755 204.4C43.6771 204.06 43.2704 203.92 42.8934 204.05L41.9013 204.41C41.7029 204.48 41.5342 204.64 41.435 204.84C41.3457 205.041 41.3358 205.251 41.4152 205.461C41.683 206.221 41.2862 206.481 40.9092 206.641C40.3239 206.862 40.0759 206.641 39.6889 206.251C39.4012 205.961 38.9746 205.511 38.3695 205.831C38.2405 205.891 38.0321 206.041 37.7444 206.251C37.4667 206.451 37.1194 206.702 36.6928 206.972C36.3853 207.182 36.0281 207.402 35.6313 207.622C35.1749 207.882 34.669 208.142 34.1134 208.393C33.7463 208.553 33.3495 208.713 32.9328 208.853C32.3971 209.033 31.8217 209.203 31.2165 209.323C30.7899 209.413 30.3534 209.493 29.8871 209.533H29.8772C29.4605 209.583 29.0339 209.613 28.5875 209.613C23.7957 209.663 23.0814 212.355 23.0516 212.475L22.873 213.205L22.7639 213.666L22 216.898V216.978C22.0794 217.448 23.1508 221 41.9906 221C45.6018 221 49.8678 220.87 54.9076 220.56C54.8679 220.57 55.8005 220.68 56.4949 219.909C57.2787 219.049 57.4374 217.508 56.9612 215.307ZM55.8501 219.279C55.4631 219.709 54.9572 219.659 54.9373 219.659C44.0938 220.32 36.9012 220.159 32.1491 219.669L31.2463 219.559C24.3314 218.739 23.1111 217.208 22.9326 216.888L23.5278 214.336C25.9882 215.016 28.7561 215.557 31.7721 215.927L32.6749 216.027C43.2505 217.198 53.9353 216.107 56.1576 215.847C56.5544 217.938 56.2171 218.869 55.8501 219.279Z" fill="black"/>
<path d="M56.9612 215.307C56.9612 215.307 56.9612 215.267 56.9513 215.247L56.862 213.926C56.8421 211.815 56.614 206.822 54.8183 206.772H54.7786C54.223 206.772 53.6972 207.192 53.0424 207.732C51.4353 209.033 49.2527 210.824 45.2248 207.302L44.5105 206.671C44.5502 205.971 44.3716 205.211 43.8755 204.4C43.6771 204.06 43.2704 203.92 42.8934 204.05L41.9013 204.41C41.7029 204.48 41.5342 204.64 41.435 204.84C41.3457 205.041 41.3358 205.251 41.4152 205.461C41.683 206.221 41.2862 206.481 40.9092 206.641C40.3239 206.862 40.0759 206.641 39.6889 206.251C39.4012 205.961 38.9746 205.511 38.3695 205.831C38.2405 205.891 38.0321 206.041 37.7444 206.251C37.4667 206.451 37.1194 206.702 36.6928 206.972C36.3853 207.182 36.0281 207.402 35.6313 207.622C35.1749 207.882 34.669 208.142 34.1134 208.393C33.7463 208.553 33.3495 208.713 32.9328 208.853C32.3971 209.033 31.8217 209.203 31.2165 209.323C30.7899 209.413 30.3534 209.493 29.8871 209.533H29.8772C29.4605 209.583 29.0339 209.613 28.5875 209.613C23.7957 209.663 23.0814 212.355 23.0516 212.475L22.873 213.205L22.7639 213.666L22 216.898V216.978C22.0794 217.448 23.1508 221 41.9906 221C45.6018 221 49.8678 220.87 54.9076 220.56C54.8679 220.57 55.8005 220.68 56.4949 219.909C57.2787 219.049 57.4374 217.508 56.9612 215.307ZM23.9247 212.695C23.9544 212.615 24.5497 210.564 28.5974 210.524C29.2323 210.514 29.8375 210.464 30.4228 210.384C30.8792 210.324 31.3157 210.244 31.7324 210.144C32.3376 210.003 32.9031 209.833 33.4388 209.643C33.8455 209.493 34.2424 209.333 34.6094 209.173C35.165 208.923 35.671 208.653 36.1273 208.393C36.5242 208.172 36.8714 207.952 37.1889 207.742C37.6254 207.462 37.9825 207.202 38.2703 206.992C38.4984 206.822 38.677 206.692 38.7762 206.631C38.8159 206.651 38.9548 206.792 39.0441 206.882C39.431 207.282 40.0759 207.942 41.2366 207.482C42.2386 207.092 42.6255 206.261 42.2882 205.241L43.1414 204.93C44.6791 207.552 42.0303 209.283 41.9112 209.353L42.3874 210.124C43.072 209.703 43.9351 208.853 44.322 207.722L44.6295 207.992C49.2229 212.005 51.971 209.773 53.6079 208.433C54.0643 208.072 54.5405 207.682 54.7786 207.682H54.7885C55.3639 207.692 55.9294 210.754 55.9592 213.976L56.0286 214.946C53.7667 215.197 42.943 216.307 32.3376 215.076C29.1827 214.706 26.2957 214.166 23.7461 213.455L23.9247 212.695ZM55.8501 219.279C55.4631 219.709 54.9572 219.659 54.9373 219.659C44.0938 220.32 36.9012 220.159 32.1491 219.669L31.2463 219.559C24.3314 218.739 23.1111 217.208 22.9326 216.888L23.5278 214.336C25.9882 215.016 28.7561 215.557 31.7721 215.927L32.6749 216.027C43.2505 217.198 53.9353 216.107 56.1576 215.847C56.5544 217.938 56.2171 218.869 55.8501 219.279Z" fill="black"/>
<path d="M37.2485 208.993C36.9608 209.183 36.5838 209.103 36.3953 208.813L35.3437 207.162C35.1552 206.872 35.2346 206.481 35.5223 206.291C35.81 206.101 36.187 206.181 36.3755 206.471L37.4271 208.122C37.6156 208.413 37.5362 208.803 37.2485 208.993Z" fill="white"/>
<path d="M34.5002 210.154C34.2125 210.344 33.8355 210.264 33.647 209.973L32.5954 208.323C32.4069 208.032 32.4863 207.642 32.774 207.452C33.0617 207.262 33.4387 207.342 33.6272 207.632L34.6788 209.283C34.8673 209.573 34.7879 209.963 34.5002 210.154Z" fill="white"/>
<path d="M31.6828 211.214C31.3951 211.404 31.0181 211.324 30.8296 211.034L29.778 209.383C29.5895 209.093 29.6689 208.703 29.9566 208.513C30.2443 208.322 30.6213 208.402 30.8098 208.693L31.8614 210.344C32.0499 210.634 31.9705 211.024 31.6828 211.214Z" fill="white"/>
<path d="M55.8501 219.279C55.4632 219.709 54.9572 219.659 54.9374 219.659C44.0939 220.32 36.9012 220.16 32.1491 219.669L31.2463 219.559C24.3315 218.739 23.1112 217.208 22.9326 216.888L23.5279 214.336C25.9882 215.017 28.7562 215.557 31.7721 215.927L32.6749 216.027C43.2506 217.198 53.9354 216.107 56.1577 215.847C56.5545 217.938 56.2172 218.869 55.8501 219.279Z" fill="white"/>
<path d="M43.0423 210.384L43.5483 211.414C43.578 211.484 43.6475 211.534 43.7269 211.544L44.8578 211.714C45.0463 211.744 45.1257 211.975 44.9868 212.115L44.1733 212.915C44.1138 212.965 44.0939 213.045 44.1039 213.125L44.2923 214.266C44.3221 214.456 44.1237 214.606 43.955 214.516L42.9431 213.976C42.8737 213.936 42.7943 213.936 42.7248 213.976L41.7129 214.516C41.5443 214.606 41.3458 214.456 41.3756 214.266L41.5641 213.125C41.574 213.045 41.5542 212.975 41.4947 212.915L40.6811 212.115C40.5423 211.975 40.6216 211.744 40.8101 211.714L41.9411 211.544C42.0205 211.534 42.08 211.484 42.1197 211.414L42.6256 210.384C42.7149 210.214 42.953 210.214 43.0423 210.384Z" fill="white"/>
</g>
<defs>
<clipPath id="clip0_775_9186">
<rect width="79" height="17" fill="white" transform="translate(22 204)"/>
</clipPath>
</defs>
</svg>
