<svg width="122" height="225" viewBox="0 0 122 225" fill="none" xmlns="http://www.w3.org/2000/svg">
<g clip-path="url(#clip0_775_10925)">
<path d="M47.2058 205.171C46.3599 204.88 45.7328 204.618 45.4641 204.405C45.1854 204.182 44.857 204.104 44.5087 204.191C43.384 204.473 42.1499 206.392 41.4333 208.177C41.2741 208.565 40.9456 209.224 40.2788 210.038L41.0452 206.344C42.2594 206.257 43.4338 203.406 43.7423 202.582C44.8471 203.076 46.2902 204.317 47.1959 205.18L47.2058 205.171Z" fill="white"/>
<path d="M32.5654 221.626C28.7436 221.752 21.6773 221.791 20.3138 220.356L19.856 219.968C19.9256 219.124 20.5128 218.639 20.9906 218.377C21.4185 218.95 22.3441 219.163 22.3839 219.173H22.4138H22.4436C22.4934 219.173 27.0417 218.833 28.9228 220.123C29.5398 220.549 29.9977 220.753 30.3261 220.753C30.4654 220.753 30.5749 220.714 30.6744 220.637C31.0725 220.326 30.7839 219.531 30.6446 219.211C30.555 219.008 30.5252 218.833 30.5749 218.707C31.3015 219.745 32.1872 221.044 32.5654 221.597V221.626Z" fill="#B91A2B"/>
<path d="M34.3569 214.654C34.1578 214.78 33.9389 214.954 33.7199 215.168L32.8341 216.04L30.8137 216.448C30.6744 216.448 30.0474 216.477 29.8185 216.894C29.6592 217.185 29.7488 217.563 30.0773 218.028C30.1569 218.145 30.2465 218.261 30.336 218.397C30.3062 218.435 30.2763 218.474 30.2465 218.523C30.127 218.755 30.1469 219.037 30.2962 219.366C30.5251 219.88 30.545 220.287 30.4355 220.375C30.4057 220.394 30.1668 220.54 29.1318 219.832C27.201 218.503 22.8915 218.785 22.4436 218.814C22.3043 218.775 21.6574 218.591 21.3389 218.222C21.4882 218.164 21.5976 218.135 21.6076 218.135C25.2104 217.902 28.4251 216.642 28.4251 216.632C30.7839 216.06 32.7346 215.381 34.3469 214.654H34.3569Z" fill="white"/>
<path d="M35.74 216.419L30.6941 218.164C30.6941 218.164 30.6642 218.164 30.6443 218.183C30.5547 218.057 30.4652 217.941 30.3955 217.825C30.1566 217.485 30.0671 217.224 30.1566 217.068C30.2761 216.865 30.6841 216.816 30.8334 216.816L33.023 216.38L33.9884 215.43C34.695 214.741 35.0931 214.683 35.3121 214.741C35.4713 214.79 35.5808 214.925 35.6405 215.061C35.7102 215.187 35.7301 215.304 35.7301 215.304C35.7301 215.333 35.7301 215.808 35.7301 216.419H35.74Z" fill="#B91A2B"/>
<path d="M36.2878 221.461L35.0337 221.519C35.0337 221.519 34.2077 221.567 33.0133 221.616C32.7546 221.238 31.6996 219.686 30.8735 218.494L35.7503 216.806C35.7503 217.718 35.7304 218.775 35.6607 219.201C35.5612 219.88 36.0489 220.966 36.2977 221.461H36.2878Z" fill="#B91A2B"/>
<path d="M56.7107 223.836C56.7107 224.312 55.2974 224.593 54.3121 224.641H26.5642C25.0315 224.641 21.2197 223.565 21.1998 223.555C20.2244 223.177 19.6372 222.663 19.4381 222.023C19.2291 221.335 19.5277 220.646 19.7069 220.346L20.0453 220.637C22.0358 222.721 34.5163 221.926 35.0438 221.897L56.7007 220.869C56.7007 221.441 56.7107 223.148 56.7007 223.846L56.7107 223.836Z" fill="white"/>
<path d="M56.7005 220.491L48.4697 220.879C48.828 220.035 50.0422 217.34 51.5749 216.806C53.1773 216.254 55.7351 215.381 56.5214 215.11L56.7105 220.491H56.7005Z" fill="#B91A2B"/>
<path d="M44.1701 210.038V212.336C44.1203 212.501 43.6725 213.694 41.0947 213.432H41.0649H41.035C40.9753 213.442 39.4824 213.82 38.4474 214.848C37.6611 215.633 36.5165 216.128 36.1184 216.293C36.1184 215.74 36.1184 215.333 36.1085 215.274C36.1085 215.245 35.9791 214.567 35.4317 214.402C35.2824 214.353 35.1132 214.353 34.9341 214.402C39.9104 212.026 41.4033 209.292 41.8014 208.312C41.9606 207.925 42.1398 207.517 42.3488 207.139C42.2891 207.294 42.2194 207.449 42.1597 207.624C42.1 207.711 41.9606 207.973 42.0303 208.312C42.1099 208.71 42.4383 209.078 42.9957 209.408C43.2744 209.563 43.6924 209.786 44.1801 210.038H44.1701Z" fill="white"/>
<path d="M56.4813 214.732C55.8245 214.955 53.1174 215.885 51.4453 216.467C49.6339 217.098 48.3202 220.249 48.0614 220.899L36.6956 221.432C36.4368 220.937 35.9392 219.832 36.0188 219.25C36.0884 218.785 36.1084 217.621 36.1084 216.681C36.3174 216.603 37.7406 216.06 38.706 215.1C39.5918 214.227 40.8757 213.849 41.0847 213.791C43.3539 214.014 44.1401 213.161 44.4088 212.695C44.7771 213.054 45.633 213.762 47.0861 214.208C47.7927 214.421 48.6984 214.596 49.8031 214.596C51.4553 214.596 53.5652 214.218 56.133 213.073L56.4714 214.741L56.4813 214.732Z" fill="white"/>
<path d="M55.5361 209.922L44.1404 205.423C44.1404 205.423 43.8916 205.345 43.5631 205.491C43.4238 205.559 43.2944 205.646 43.165 205.772C43.6428 205.132 44.1404 204.657 44.5883 204.55C44.8172 204.492 45.0262 204.54 45.2053 204.686C46.3797 205.646 53.9338 207.381 54.2522 207.459C55.2575 207.701 55.4665 209.253 55.5162 209.922H55.5361Z" fill="black"/>
<path d="M49.1466 214.188C46.2305 213.985 44.7874 212.559 44.5386 212.288V210.232C46.2405 211.115 49.0372 212.608 49.0969 213.238C49.1466 213.723 49.1566 214.023 49.1466 214.188Z" fill="black"/>
<path d="M56.0736 212.705C53.3963 213.907 51.2266 214.266 49.5247 214.208C49.5247 214.014 49.5247 213.694 49.475 213.199C49.3954 212.404 47.156 211.173 44.4688 209.777C43.9314 209.495 43.4636 209.263 43.175 209.088C42.7172 208.826 42.4484 208.536 42.3887 208.245C42.329 207.983 42.4584 207.808 42.4683 207.799L42.4982 207.75C43.1451 205.869 43.812 205.743 43.9811 205.743C44.021 205.743 44.021 205.743 44.021 205.743L55.5759 210.31L56.0736 212.695V212.705Z" fill="#B91A2B"/>
<path d="M43.4038 202.446C42.8862 203.823 41.9109 205.752 41.1445 205.966C41.5128 204.531 41.9606 203.173 42.4085 202.601C42.5279 202.456 42.6872 202.378 42.8962 202.368H42.936C43.0753 202.368 43.2346 202.397 43.4038 202.446Z" fill="#B91A2B"/>
<path d="M57.0887 220.656L56.8797 214.819L55.9242 210.194C55.9242 210.077 55.9143 207.469 54.3617 207.1C52.6896 206.722 49.9925 206.053 47.982 205.423C47.6138 205.054 44.5982 202 42.9261 202H42.8664C42.5479 202.01 42.2891 202.145 42.11 202.378C41.6124 203.008 41.1446 204.444 40.7564 205.946L40.7266 206.082C40.1991 208.186 39.8309 210.358 39.8109 210.513H39.8607C38.1588 212.346 34.8147 214.712 28.3256 216.293C28.2958 216.302 25.1408 217.553 21.5678 217.776C21.5479 217.776 19.5972 218.261 19.4877 219.987C19.3484 220.2 18.791 221.121 19.0896 222.101C19.3185 222.857 19.9854 223.449 21.0901 223.885C21.2493 223.924 24.9816 224.99 26.574 224.99H54.3318C54.7896 224.971 57.0787 224.816 57.0887 223.836C57.0986 222.983 57.0887 220.675 57.0887 220.656ZM56.7105 220.481L48.4797 220.869C48.838 220.026 50.0522 217.33 51.5849 216.797C53.1873 216.244 55.7451 215.371 56.5313 215.1L56.7204 220.481H56.7105ZM56.4915 214.722C55.8346 214.945 53.1275 215.876 51.4555 216.457C49.6441 217.088 48.3304 220.239 48.0716 220.889L36.7057 221.422C36.447 220.927 35.9493 219.822 36.029 219.24C36.0986 218.775 36.1185 217.611 36.1185 216.671C36.3275 216.593 37.7508 216.05 38.7162 215.09C39.6019 214.218 40.8858 213.839 41.0948 213.781C43.364 214.004 44.1503 213.151 44.419 212.685C44.7873 213.044 45.6432 213.752 47.0963 214.198C47.8029 214.411 48.7086 214.586 49.8133 214.586C51.4655 214.586 53.5754 214.208 56.1432 213.064L56.4816 214.731L56.4915 214.722ZM36.2877 221.451L35.0337 221.509C35.0337 221.509 34.2076 221.558 33.0133 221.606C32.7545 221.228 31.6996 219.677 30.8735 218.484L30.6546 218.174C30.565 218.048 30.4754 217.931 30.4057 217.815C30.1669 217.476 30.0773 217.214 30.1669 217.059C30.2863 216.855 30.6944 216.806 30.8436 216.806L33.0332 216.37L33.9986 215.42C34.7053 214.731 35.1034 214.673 35.3223 214.731C35.4816 214.78 35.591 214.916 35.6508 215.051C35.7204 215.177 35.7403 215.294 35.7403 215.294C35.7403 215.323 35.7403 215.798 35.7403 216.409V216.797C35.7403 217.708 35.7204 218.765 35.6508 219.192C35.5512 219.871 36.0389 220.957 36.2877 221.451ZM44.5384 212.278V210.223C46.2403 211.105 49.037 212.598 49.0967 213.228C49.1465 213.713 49.1564 214.014 49.1465 214.179C46.2304 213.975 44.7873 212.55 44.5384 212.278ZM56.0735 212.695C53.3963 213.898 51.2266 214.256 49.5247 214.198C49.5247 214.004 49.5247 213.684 49.4749 213.19C49.3953 212.395 47.156 211.163 44.4688 209.767C43.9313 209.486 43.4636 209.253 43.1749 209.078C42.7171 208.817 42.4484 208.526 42.3887 208.235C42.329 207.973 42.4583 207.798 42.4683 207.789L42.4982 207.74C43.1451 205.859 43.8119 205.733 43.9811 205.733C44.0209 205.733 44.0209 205.733 44.0209 205.733L55.5759 210.3L56.0735 212.685V212.695ZM54.2721 207.449C55.2773 207.692 55.4863 209.243 55.5361 209.912L44.1403 205.413C44.1403 205.413 43.8915 205.336 43.5631 205.481C43.4237 205.549 43.2944 205.636 43.165 205.762C43.6427 205.122 44.1403 204.647 44.5882 204.54C44.8171 204.482 45.0261 204.531 45.2053 204.676C46.3797 205.636 53.9337 207.372 54.2522 207.449H54.2721ZM42.4086 202.591C42.528 202.446 42.6873 202.368 42.8963 202.359H42.9361C43.0754 202.359 43.2346 202.388 43.4038 202.436C42.8863 203.813 41.9109 205.743 41.1446 205.956C41.5128 204.521 41.9607 203.164 42.4086 202.591ZM41.055 206.334C42.2692 206.247 43.4437 203.396 43.7522 202.572C44.8569 203.067 46.3 204.308 47.2057 205.171C46.3598 204.88 45.7327 204.618 45.464 204.405C45.1854 204.182 44.8569 204.104 44.5086 204.191C43.3839 204.473 42.1498 206.392 41.4332 208.177C41.274 208.565 40.9455 209.224 40.2787 210.038L41.0451 206.344L41.055 206.334ZM41.7915 208.303C41.9508 207.915 42.1299 207.508 42.3389 207.129C42.2792 207.285 42.2095 207.44 42.1498 207.614C42.0901 207.702 41.9508 207.963 42.0204 208.303C42.1 208.7 42.4285 209.069 42.9858 209.398C43.2645 209.554 43.6825 209.777 44.1702 210.029V212.327C44.1204 212.492 43.6726 213.684 41.0948 213.422H41.065H41.0351C40.9754 213.432 39.4825 213.81 38.4474 214.838C37.6612 215.624 36.5166 216.118 36.1185 216.283C36.1185 215.73 36.1185 215.323 36.1086 215.265C36.1086 215.236 35.9792 214.557 35.4318 214.392C35.2825 214.344 35.1133 214.344 34.9342 214.392C39.9105 212.016 41.4034 209.282 41.8015 208.303H41.7915ZM21.6176 218.145C25.2204 217.912 28.4351 216.651 28.4351 216.642C30.7939 216.07 32.7446 215.391 34.3569 214.664C34.1579 214.79 33.9389 214.964 33.72 215.177L32.8342 216.05L30.8138 216.457C30.6745 216.457 30.0474 216.487 29.8185 216.903C29.6593 217.194 29.7489 217.573 30.0773 218.038C30.1569 218.154 30.2465 218.271 30.3361 218.406C30.3062 218.445 30.2764 218.484 30.2465 218.532C30.1271 218.765 30.147 219.046 30.2963 219.376C30.5252 219.89 30.5451 220.297 30.4356 220.384C30.4057 220.404 30.1669 220.549 29.1318 219.841C27.201 218.513 22.8915 218.794 22.4437 218.823C22.3043 218.785 21.6574 218.6 21.3389 218.232C21.4882 218.174 21.5977 218.145 21.6076 218.145H21.6176ZM21.0005 218.387C21.4285 218.959 22.3541 219.172 22.3939 219.182H22.4237H22.4536C22.5034 219.182 27.0517 218.843 28.9327 220.132C29.5498 220.559 30.0076 220.763 30.3361 220.763C30.4754 220.763 30.5849 220.724 30.6844 220.646C31.0825 220.336 30.7939 219.541 30.6546 219.221C30.565 219.017 30.5351 218.843 30.5849 218.717C31.3114 219.754 32.1972 221.054 32.5754 221.606C28.7536 221.732 21.6873 221.771 20.3237 220.336L19.8659 219.948C19.9356 219.105 20.5228 218.62 21.0005 218.358V218.387ZM56.7204 223.836C56.7204 224.312 55.3072 224.593 54.3218 224.641H26.564C25.0313 224.641 21.2195 223.565 21.1996 223.555C20.2242 223.177 19.637 222.663 19.438 222.023C19.229 221.335 19.5275 220.646 19.7067 220.346L20.0451 220.637C22.0356 222.721 34.5162 221.926 35.0437 221.897L56.7005 220.869C56.7005 221.441 56.7105 223.148 56.7005 223.846L56.7204 223.836Z" fill="#494949"/>
<path d="M36.2877 221.461L35.0337 221.519C35.0337 221.519 34.2076 221.568 33.0133 221.616C32.7546 221.238 31.6996 219.686 30.8735 218.494L30.6546 218.183C30.565 218.057 30.4754 217.941 30.4057 217.825C30.1669 217.485 30.0773 217.224 30.1669 217.068C30.2863 216.865 30.6944 216.816 30.8437 216.816L33.0332 216.38L33.9986 215.43C34.7053 214.741 35.1034 214.683 35.3223 214.741C35.4816 214.79 35.5911 214.925 35.6508 215.061C35.7204 215.187 35.7403 215.304 35.7403 215.304C35.7403 215.333 35.7403 215.808 35.7403 216.419V216.807C35.7403 217.718 35.7204 218.775 35.6508 219.202C35.5512 219.88 36.0389 220.966 36.2877 221.461Z" fill="#B91A2B"/>
<path d="M43.9713 206.926C44.1472 206.926 44.2898 206.787 44.2898 206.615C44.2898 206.444 44.1472 206.305 43.9713 206.305C43.7954 206.305 43.6528 206.444 43.6528 206.615C43.6528 206.787 43.7954 206.926 43.9713 206.926Z" fill="black"/>
<path d="M43.2941 208.118C43.47 208.118 43.6126 207.979 43.6126 207.808C43.6126 207.637 43.47 207.498 43.2941 207.498C43.1182 207.498 42.9756 207.637 42.9756 207.808C42.9756 207.979 43.1182 208.118 43.2941 208.118Z" fill="black"/>
<path d="M30.8836 217.553C30.8836 217.553 30.8736 217.553 30.8637 217.553C30.6547 217.543 30.4954 217.369 30.5154 217.175L30.6049 215.536C30.6049 215.41 30.6845 215.304 30.7841 215.245C30.8936 215.187 31.0229 215.178 31.1324 215.236L32.5059 215.905L32.6054 214.702C32.6154 214.576 32.695 214.47 32.8045 214.412C32.9239 214.353 33.0533 214.363 33.1627 214.421L34.0983 214.974L34.367 213.82C34.3869 213.723 34.4566 213.636 34.5462 213.587C34.6357 213.539 34.7452 213.529 34.8447 213.558L36.0789 213.946L36.3874 212.618C36.4073 212.521 36.477 212.433 36.5665 212.385C36.6561 212.336 36.7656 212.317 36.8651 212.356L37.8902 212.656L37.9699 211.532C37.9699 211.425 38.0296 211.328 38.1191 211.26C38.2087 211.192 38.3182 211.173 38.4277 211.202L39.622 211.483L39.4827 209.961C39.4827 209.854 39.5125 209.748 39.5921 209.67C39.6718 209.592 39.7912 209.563 39.9007 209.573L41.5329 209.786L40.0201 207.362C39.9405 207.236 39.9504 207.081 40.04 206.965C40.1296 206.848 40.2789 206.79 40.4282 206.819L43.3642 207.469C43.5632 207.517 43.6926 207.711 43.6428 207.905C43.5931 208.099 43.404 208.225 43.195 208.177L41.1149 207.721L42.5779 210.058C42.6476 210.174 42.6476 210.329 42.5779 210.446C42.4983 210.562 42.359 210.63 42.2196 210.61L40.2789 210.358L40.4182 211.939C40.4282 212.055 40.3784 212.172 40.2888 212.249C40.1992 212.327 40.0699 212.356 39.9604 212.327L38.6864 212.026L38.6068 213.18C38.6068 213.287 38.5372 213.393 38.4476 213.452C38.358 213.51 38.2386 213.529 38.1291 213.5L37.0443 213.18L36.7258 214.518C36.7059 214.615 36.6362 214.702 36.5466 214.751C36.4571 214.799 36.3476 214.809 36.2481 214.78L35.0139 214.392L34.7154 215.653C34.6855 215.769 34.6059 215.856 34.4964 215.905C34.3869 215.953 34.2575 215.944 34.158 215.885L33.3021 215.381L33.2125 216.525C33.2125 216.642 33.1329 216.748 33.0234 216.816C32.9139 216.874 32.7845 216.874 32.6751 216.816L31.3116 216.157L31.2518 217.243C31.2419 217.437 31.0727 217.582 30.8836 217.582V217.553Z" fill="black"/>
<path d="M74.8042 205.171C75.6502 204.88 76.2772 204.618 76.5459 204.405C76.8246 204.182 77.153 204.104 77.5014 204.191C78.626 204.473 79.8601 206.392 80.5767 208.177C80.736 208.565 81.0644 209.224 81.7312 210.038L80.9649 206.344C79.7506 206.257 78.5762 203.406 78.2677 202.582C77.163 203.076 75.7198 204.317 74.8142 205.18L74.8042 205.171Z" fill="white"/>
<path d="M89.4346 221.626C93.2564 221.752 100.323 221.791 101.686 220.356L102.144 219.968C102.074 219.124 101.487 218.639 101.009 218.377C100.581 218.95 99.6559 219.163 99.6161 219.173H99.5862H99.5564C99.5066 219.173 94.9583 218.833 93.0772 220.123C92.4602 220.549 92.0023 220.753 91.6739 220.753C91.5346 220.753 91.4251 220.714 91.3256 220.637C90.9275 220.326 91.2161 219.531 91.3554 219.211C91.445 219.008 91.4749 218.833 91.4251 218.707C90.6986 219.745 89.8128 221.044 89.4346 221.597V221.626Z" fill="#B91A2B"/>
<path d="M87.6431 214.654C87.8421 214.78 88.0611 214.954 88.28 215.168L89.1658 216.04L91.1862 216.448C91.3255 216.448 91.9525 216.477 92.1815 216.894C92.3407 217.185 92.2511 217.563 91.9227 218.028C91.8431 218.145 91.7535 218.261 91.6639 218.397C91.6938 218.435 91.7236 218.474 91.7535 218.523C91.8729 218.755 91.853 219.037 91.7037 219.366C91.4748 219.88 91.4549 220.287 91.5644 220.375C91.5943 220.394 91.8331 220.54 92.8682 219.832C94.799 218.503 99.1085 218.785 99.5563 218.814C99.6957 218.775 100.343 218.591 100.661 218.222C100.512 218.164 100.402 218.135 100.392 218.135C96.7895 217.902 93.5748 216.642 93.5748 216.632C91.2161 216.06 89.2653 215.381 87.653 214.654H87.6431Z" fill="white"/>
<path d="M86.2598 216.419L91.3057 218.164C91.3057 218.164 91.3356 218.164 91.3555 218.183C91.4451 218.057 91.5346 217.941 91.6043 217.825C91.8432 217.485 91.9328 217.224 91.8432 217.068C91.7237 216.865 91.3157 216.816 91.1664 216.816L88.9768 216.38L88.0114 215.43C87.3048 214.741 86.9067 214.683 86.6877 214.741C86.5285 214.79 86.419 214.925 86.3593 215.061C86.2896 215.187 86.2697 215.304 86.2697 215.304C86.2697 215.333 86.2697 215.808 86.2697 216.419H86.2598Z" fill="#B91A2B"/>
<path d="M85.7224 221.461L86.9764 221.519C86.9764 221.519 87.8025 221.567 88.9968 221.616C89.2555 221.238 90.3105 219.686 91.1366 218.494L86.2598 216.806C86.2598 217.718 86.2797 218.775 86.3494 219.201C86.4489 219.88 85.9612 220.966 85.7124 221.461H85.7224Z" fill="#B91A2B"/>
<path d="M65.2896 223.836C65.2896 224.312 66.7028 224.593 67.6881 224.641H95.436C96.9687 224.641 100.781 223.565 100.8 223.555C101.776 223.177 102.363 222.663 102.562 222.023C102.771 221.335 102.472 220.646 102.293 220.346L101.955 220.637C99.9644 222.721 87.4839 221.926 86.9564 221.897L65.2995 220.869C65.2995 221.441 65.2896 223.148 65.2995 223.846L65.2896 223.836Z" fill="white"/>
<path d="M65.2995 220.491L73.5303 220.879C73.172 220.035 71.9578 217.34 70.4251 216.806C68.8227 216.254 66.2649 215.381 65.4787 215.11L65.2896 220.491H65.2995Z" fill="#B91A2B"/>
<path d="M77.8298 210.038V212.336C77.8795 212.501 78.3274 213.694 80.9051 213.432H80.935H80.9648C81.0246 213.442 82.5175 213.82 83.5525 214.848C84.3388 215.633 85.4833 216.128 85.8814 216.293C85.8814 215.74 85.8814 215.333 85.8914 215.274C85.8914 215.245 86.0208 214.567 86.5682 214.402C86.7175 214.353 86.8867 214.353 87.0658 214.402C82.0895 212.026 80.5966 209.292 80.1985 208.312C80.0393 207.925 79.8601 207.517 79.6511 207.139C79.7108 207.294 79.7805 207.449 79.8402 207.624C79.8999 207.711 80.0393 207.973 79.9696 208.312C79.89 208.71 79.5615 209.078 79.0042 209.408C78.7255 209.563 78.3075 209.786 77.8198 210.038H77.8298Z" fill="white"/>
<path d="M65.5186 214.732C66.1754 214.955 68.8825 215.885 70.5546 216.467C72.3659 217.098 73.6797 220.249 73.9385 220.899L85.3043 221.432C85.5631 220.937 86.0607 219.832 85.9811 219.25C85.9114 218.785 85.8915 217.621 85.8915 216.681C85.6825 216.603 84.2593 216.06 83.2939 215.1C82.4081 214.227 81.1242 213.849 80.9152 213.791C78.646 214.014 77.8598 213.161 77.5911 212.695C77.2228 213.054 76.3669 213.762 74.9138 214.208C74.2072 214.421 73.3015 214.596 72.1968 214.596C70.5446 214.596 68.4347 214.218 65.8669 213.073L65.5285 214.741L65.5186 214.732Z" fill="white"/>
<path d="M66.4639 209.922L77.8596 205.423C77.8596 205.423 78.1084 205.345 78.4369 205.491C78.5762 205.559 78.7056 205.646 78.835 205.772C78.3572 205.132 77.8596 204.657 77.4117 204.55C77.1828 204.492 76.9738 204.54 76.7947 204.686C75.6203 205.646 68.0662 207.381 67.7478 207.459C66.7425 207.701 66.5335 209.253 66.4838 209.922H66.4639Z" fill="black"/>
<path d="M72.8536 214.188C75.7697 213.985 77.2128 212.559 77.4616 212.288V210.232C75.7597 211.115 72.963 212.608 72.9033 213.238C72.8536 213.723 72.8436 214.023 72.8536 214.188Z" fill="black"/>
<path d="M65.9365 212.705C68.6138 213.907 70.7834 214.266 72.4853 214.208C72.4853 214.014 72.4853 213.694 72.5351 213.199C72.6147 212.404 74.8541 211.173 77.5413 209.777C78.0787 209.495 78.5465 209.263 78.8351 209.088C79.2929 208.826 79.5616 208.536 79.6214 208.245C79.6811 207.983 79.5517 207.808 79.5417 207.799L79.5119 207.75C78.865 205.869 78.1981 205.743 78.0289 205.743C77.9891 205.743 77.9891 205.743 77.9891 205.743L66.4342 210.31L65.9365 212.695V212.705Z" fill="#B91A2B"/>
<path d="M78.5962 202.446C79.1137 203.823 80.0891 205.752 80.8554 205.966C80.4872 204.531 80.0393 203.173 79.5915 202.601C79.472 202.456 79.3128 202.378 79.1038 202.368H79.064C78.9246 202.368 78.7654 202.397 78.5962 202.446Z" fill="#B91A2B"/>
<path d="M64.9214 223.836C64.9413 224.816 67.2204 224.971 67.6783 224.99H95.4361C97.0285 224.99 100.761 223.924 100.92 223.885C102.025 223.458 102.692 222.867 102.92 222.101C103.219 221.112 102.672 220.2 102.522 219.987C102.423 218.261 100.472 217.776 100.442 217.776C96.8693 217.553 93.7143 216.302 93.6844 216.293C87.1953 214.702 83.8413 212.346 82.1493 210.513H82.1991C82.1792 210.349 81.811 208.177 81.2835 206.072L81.2536 205.937C80.8655 204.434 80.3977 202.989 79.9001 202.368C79.711 202.136 79.4621 202.01 79.1437 201.99H79.0839C77.4119 201.99 74.3963 205.045 74.038 205.413C72.0275 206.043 69.3304 206.712 67.6584 207.091C66.1057 207.459 66.0958 210.067 66.0958 210.184L65.1403 214.809L64.9313 220.646C64.9313 220.646 64.9214 222.973 64.9313 223.827L64.9214 223.836ZM65.4887 215.11C66.2749 215.381 68.8328 216.254 70.4351 216.806C71.9678 217.34 73.182 220.026 73.5403 220.879L65.3095 220.491L65.4986 215.11H65.4887ZM65.8669 213.064C68.4446 214.208 70.5446 214.586 72.1967 214.586C73.3015 214.586 74.2072 214.411 74.9138 214.198C76.3669 213.752 77.2228 213.044 77.5911 212.685C77.8598 213.161 78.646 214.004 80.9152 213.781C81.1242 213.839 82.4081 214.208 83.2939 215.09C84.2693 216.05 85.6825 216.603 85.8915 216.671C85.8915 217.621 85.9114 218.775 85.9811 219.24C86.0707 219.822 85.5631 220.927 85.3043 221.422L73.9384 220.889C73.6797 220.239 72.356 217.078 70.5546 216.457C68.8726 215.876 66.1754 214.945 65.5185 214.722L65.8569 213.054L65.8669 213.064ZM86.3593 219.201C86.2896 218.775 86.2697 217.718 86.2697 216.806V216.419C86.2697 215.798 86.2697 215.323 86.2697 215.303C86.2697 215.303 86.2996 215.187 86.3593 215.061C86.419 214.935 86.5285 214.79 86.6877 214.741C86.9067 214.673 87.3048 214.741 88.0114 215.43L88.9768 216.38L91.1664 216.816C91.3157 216.816 91.7238 216.865 91.8432 217.068C91.9328 217.223 91.8432 217.485 91.6043 217.825C91.5247 217.941 91.4451 218.057 91.3555 218.183L91.1366 218.494C90.3105 219.677 89.2555 221.228 88.9967 221.616C87.7925 221.567 87.0062 221.519 86.9764 221.519L85.7223 221.461C85.9612 220.976 86.4588 219.88 86.3593 219.201ZM72.8636 214.188C72.8636 214.014 72.8636 213.723 72.9133 213.238C72.983 212.598 75.7797 211.115 77.4716 210.232V212.288C77.2228 212.559 75.7797 213.985 72.8636 214.188ZM66.4342 210.319L77.9892 205.752C77.9892 205.752 77.9892 205.752 78.029 205.752C78.1982 205.752 78.865 205.879 79.5119 207.76L79.5418 207.808C79.5418 207.808 79.6712 207.992 79.6214 208.254C79.5617 208.545 79.2929 208.826 78.8351 209.098C78.5366 209.272 78.0787 209.505 77.5413 209.786C74.8541 211.192 72.6247 212.414 72.5351 213.209C72.4854 213.704 72.4754 214.024 72.4854 214.217C70.7835 214.276 68.6138 213.917 65.9366 212.715L66.4342 210.329V210.319ZM76.7849 204.676C76.974 204.531 77.173 204.482 77.402 204.54C77.8498 204.647 78.3475 205.122 78.8252 205.762C78.6958 205.646 78.5664 205.549 78.4271 205.481C78.0986 205.326 77.8797 205.394 77.8498 205.413L66.4541 209.912C66.5039 209.243 66.7228 207.692 67.7181 207.449C68.0366 207.372 75.5906 205.636 76.765 204.676H76.7849ZM80.8754 205.956C80.1091 205.743 79.1337 203.813 78.6162 202.436C78.7854 202.388 78.9446 202.359 79.0839 202.359H79.1238C79.3328 202.368 79.492 202.446 79.6114 202.591C80.0693 203.164 80.5072 204.521 80.8754 205.956ZM81.7313 210.038C81.0645 209.233 80.7361 208.564 80.5768 208.177C79.8602 206.392 78.6261 204.473 77.5015 204.191C77.1531 204.104 76.8247 204.182 76.546 204.405C76.2873 204.618 75.6503 204.88 74.8043 205.171C75.7001 204.308 77.1531 203.067 78.2579 202.572C78.5664 203.396 79.7408 206.257 80.955 206.334L81.7214 210.029L81.7313 210.038ZM87.0958 214.402C86.9166 214.353 86.7475 214.353 86.5982 214.402C86.0508 214.567 85.9214 215.245 85.9214 215.274C85.9214 215.333 85.9114 215.74 85.9114 216.293C85.5034 216.128 84.3588 215.633 83.5825 214.848C82.5475 213.82 81.0546 213.451 80.9948 213.432H80.965H80.9351C78.3574 213.694 77.9095 212.511 77.8598 212.336V210.038C78.3475 209.786 78.7655 209.563 79.0441 209.408C79.6015 209.088 79.9299 208.72 80.0095 208.312C80.0792 207.963 79.9399 207.701 79.8802 207.624C79.8204 207.449 79.7607 207.294 79.6911 207.139C79.9001 207.527 80.0792 207.924 80.2384 208.312C80.6366 209.292 82.1294 212.036 87.1057 214.402H87.0958ZM100.671 218.232C100.343 218.61 99.7057 218.794 99.5664 218.823C99.1185 218.794 94.7991 218.513 92.8783 219.841C91.8432 220.549 91.6043 220.404 91.5745 220.384C91.465 220.297 91.4849 219.9 91.7138 219.376C91.8631 219.046 91.873 218.755 91.7636 218.532C91.7337 218.484 91.7138 218.435 91.674 218.406C91.7636 218.28 91.8531 218.154 91.9328 218.038C92.2612 217.572 92.3508 217.194 92.1915 216.903C91.9626 216.486 91.3356 216.457 91.1963 216.457L89.1759 216.05L88.2901 215.177C88.0712 214.964 87.8522 214.79 87.6531 214.664C89.2655 215.391 91.2162 216.069 93.5749 216.642C93.5749 216.642 96.7896 217.922 100.392 218.145C100.402 218.145 100.512 218.174 100.661 218.232H100.671ZM102.154 219.977L101.696 220.365C100.333 221.8 93.2664 221.761 89.4446 221.635C89.8228 221.083 90.7086 219.783 91.4351 218.746C91.4749 218.872 91.455 219.046 91.3655 219.25C91.2261 219.57 90.9375 220.365 91.3356 220.675C91.4252 220.743 91.5446 220.792 91.6839 220.792C92.0124 220.792 92.4702 220.578 93.0873 220.161C94.9683 218.872 99.5166 219.201 99.5664 219.211H99.5963H99.6261C99.6659 219.201 100.592 218.978 101.019 218.416C101.497 218.678 102.094 219.153 102.154 220.006V219.977ZM65.2996 220.85L86.9565 221.878C87.4839 221.907 99.9645 222.712 101.955 220.617L102.293 220.326C102.473 220.637 102.771 221.315 102.562 222.004C102.363 222.644 101.776 223.158 100.801 223.536C100.781 223.536 96.9688 224.622 95.4361 224.622H67.6882C66.7029 224.573 65.2996 224.292 65.2896 223.817C65.2797 223.109 65.2896 221.403 65.2896 220.84L65.2996 220.85Z" fill="#494949"/>
<path d="M85.7222 221.461L86.9762 221.519C86.9762 221.519 87.8023 221.568 88.9966 221.616C89.2553 221.238 90.3103 219.686 91.1364 218.494L91.3553 218.183C91.4449 218.057 91.5345 217.941 91.6042 217.825C91.843 217.485 91.9326 217.224 91.843 217.068C91.7236 216.865 91.3155 216.816 91.1662 216.816L88.9767 216.38L88.0113 215.43C87.3046 214.741 86.9065 214.683 86.6876 214.741C86.5283 214.79 86.4188 214.925 86.3591 215.061C86.2895 215.187 86.2696 215.304 86.2696 215.304C86.2696 215.333 86.2696 215.808 86.2696 216.419V216.807C86.2696 217.718 86.2895 218.775 86.3591 219.202C86.4587 219.88 85.971 220.966 85.7222 221.461Z" fill="#B91A2B"/>
<path d="M78.0289 206.926C78.2048 206.926 78.3474 206.787 78.3474 206.615C78.3474 206.444 78.2048 206.305 78.0289 206.305C77.853 206.305 77.7104 206.444 77.7104 206.615C77.7104 206.787 77.853 206.926 78.0289 206.926Z" fill="black"/>
<path d="M78.7057 208.118C78.8816 208.118 79.0242 207.979 79.0242 207.808C79.0242 207.637 78.8816 207.498 78.7057 207.498C78.5298 207.498 78.3872 207.637 78.3872 207.808C78.3872 207.979 78.5298 208.118 78.7057 208.118Z" fill="black"/>
<path d="M91.1166 217.553C91.1166 217.553 91.1266 217.553 91.1365 217.553C91.3455 217.543 91.5048 217.369 91.4849 217.175L91.3953 215.536C91.3953 215.41 91.3157 215.304 91.2161 215.245C91.1066 215.187 90.9773 215.178 90.8678 215.236L89.4943 215.905L89.3948 214.702C89.3849 214.576 89.3052 214.47 89.1957 214.412C89.0763 214.353 88.9469 214.363 88.8375 214.421L87.9019 214.974L87.6332 213.82C87.6133 213.723 87.5436 213.636 87.454 213.587C87.3645 213.539 87.255 213.529 87.1555 213.558L85.9213 213.946L85.6128 212.618C85.5929 212.521 85.5232 212.433 85.4337 212.385C85.3441 212.336 85.2346 212.317 85.1351 212.356L84.11 212.656L84.0303 211.532C84.0303 211.425 83.9706 211.328 83.8811 211.26C83.7915 211.192 83.682 211.173 83.5725 211.202L82.3782 211.483L82.5176 209.961C82.5176 209.854 82.4877 209.748 82.4081 209.67C82.3285 209.592 82.209 209.563 82.0995 209.573L80.4673 209.786L81.9801 207.362C82.0597 207.236 82.0498 207.081 81.9602 206.965C81.8706 206.848 81.7213 206.79 81.5721 206.819L78.636 207.469C78.437 207.517 78.3076 207.711 78.3574 207.905C78.4071 208.099 78.5962 208.225 78.8052 208.177L80.8853 207.721L79.4223 210.058C79.3526 210.174 79.3526 210.329 79.4223 210.446C79.5019 210.562 79.6412 210.63 79.7806 210.61L81.7213 210.358L81.582 211.939C81.5721 212.055 81.6218 212.172 81.7114 212.249C81.801 212.327 81.9303 212.356 82.0398 212.327L83.3138 212.026L83.3934 213.18C83.3934 213.287 83.463 213.393 83.5526 213.452C83.6422 213.51 83.7616 213.529 83.8711 213.5L84.9559 213.18L85.2744 214.518C85.2943 214.615 85.364 214.702 85.4536 214.751C85.5431 214.799 85.6526 214.809 85.7521 214.78L86.9863 214.392L87.2849 215.653C87.3147 215.769 87.3943 215.856 87.5038 215.905C87.6133 215.953 87.7427 215.944 87.8422 215.885L88.6981 215.381L88.7877 216.525C88.7877 216.642 88.8673 216.748 88.9768 216.816C89.0863 216.874 89.2157 216.874 89.3251 216.816L90.6886 216.157L90.7484 217.243C90.7583 217.437 90.9275 217.582 91.1166 217.582V217.553Z" fill="black"/>
</g>
<defs>
<clipPath id="clip0_775_10925">
<rect width="84" height="23" fill="white" transform="translate(19 202)"/>
</clipPath>
</defs>
</svg>
