<svg width="122" height="225" viewBox="0 0 122 225" fill="none" xmlns="http://www.w3.org/2000/svg">
<g clip-path="url(#clip0_775_9004)">
<path d="M100.239 213.642L100.129 213.182L99.9486 212.452C99.9185 212.331 99.1876 209.64 94.3615 209.58C89.7757 209.53 86.5116 207.208 85.1198 206.218C84.8294 206.008 84.6192 205.868 84.479 205.798C83.8682 205.477 83.4377 205.928 83.1473 206.218C82.7568 206.618 82.5065 206.828 81.9158 206.608C81.5353 206.458 81.1348 206.188 81.4051 205.437C81.4852 205.227 81.4752 205.007 81.3851 204.807C81.285 204.607 81.1147 204.457 80.9145 204.377L79.9132 204.027C79.5427 203.886 79.1322 204.027 78.932 204.377C78.4313 205.187 78.2511 205.948 78.2811 206.648L77.5602 207.288C73.4951 210.801 71.2923 209.02 69.6803 207.719C69.0194 207.178 68.4888 206.758 67.918 206.758H67.878C66.0657 206.808 65.8354 211.801 65.8154 213.912L65.7253 215.233C65.7253 215.233 65.7253 215.283 65.7253 215.293C65.2446 217.484 65.3948 219.035 66.1858 219.896C66.8867 220.666 67.8279 220.556 67.7879 220.556C72.8743 220.866 77.1798 220.997 80.8244 220.997C99.8384 220.997 100.92 217.444 100.98 216.974V216.894L100.219 213.662L100.239 213.642ZM67.7678 219.646C67.7678 219.646 67.2272 219.696 66.8467 219.266C66.4762 218.855 66.1358 217.925 66.5363 215.834C68.7791 216.084 79.5628 217.184 90.2263 216.014L90.7569 219.656C85.9609 220.136 78.7117 220.306 67.7678 219.656V219.646ZM91.6681 219.546L91.1374 215.914C94.1813 215.543 96.9748 215.003 99.458 214.323L100.059 216.874C99.8785 217.194 98.6469 218.725 91.6681 219.556V219.546Z" fill="#FFF9DE"/>
<path d="M100.239 213.642L100.129 213.182L99.9486 212.452C99.9185 212.331 99.1876 209.64 94.3615 209.58C89.7757 209.53 86.5116 207.208 85.1198 206.218C84.8294 206.008 84.6192 205.868 84.479 205.798C83.8682 205.477 83.4377 205.928 83.1473 206.218C82.7568 206.618 82.5065 206.828 81.9158 206.608C81.5353 206.458 81.1348 206.188 81.4051 205.437C81.4852 205.227 81.4752 205.007 81.3851 204.807C81.285 204.607 81.1147 204.457 80.9145 204.377L79.9132 204.027C79.5427 203.886 79.1322 204.027 78.932 204.377C78.4313 205.187 78.2511 205.948 78.2811 206.648L77.5602 207.288C73.4951 210.801 71.2923 209.02 69.6803 207.719C69.0194 207.178 68.4888 206.758 67.918 206.758H67.878C66.0657 206.808 65.8354 211.801 65.8154 213.912L65.7253 215.233C65.7253 215.233 65.7253 215.283 65.7253 215.293C65.2446 217.484 65.3948 219.035 66.1858 219.896C66.8867 220.666 67.8279 220.556 67.7879 220.556C72.8743 220.866 77.1798 220.997 80.8244 220.997C99.8384 220.997 100.92 217.444 100.98 216.974V216.894L100.219 213.662L100.239 213.642ZM66.7365 213.952C66.7666 210.741 67.3273 207.679 67.908 207.659C68.1583 207.659 68.6289 208.049 69.0895 208.419C70.7416 209.76 73.5051 211.991 78.151 207.979L78.4614 207.709C78.8519 208.839 79.733 209.69 80.4138 210.11L80.8945 209.34C80.7743 209.27 78.1009 207.539 79.6529 204.917L80.514 205.227C80.1735 206.248 80.564 207.088 81.5853 207.479C82.7568 207.939 83.4076 207.268 83.7981 206.878C83.8882 206.788 84.0284 206.638 84.0585 206.628C84.1586 206.688 84.3388 206.818 84.5791 206.988C86.051 208.029 89.4653 210.47 94.3415 210.51C98.4267 210.56 99.0274 212.602 99.0574 212.692L99.2377 213.452C96.6644 214.163 93.7507 214.713 90.5667 215.073C79.8632 216.304 68.9393 215.203 66.6664 214.943L66.7365 213.972V213.952ZM67.7678 219.646C67.7678 219.646 67.2272 219.696 66.8467 219.266C66.4762 218.855 66.1358 217.925 66.5363 215.834C68.7791 216.084 79.5628 217.184 90.2263 216.014L90.7569 219.656C85.9609 220.136 78.7117 220.306 67.7678 219.656V219.646ZM91.6681 219.546L91.1374 215.914C94.1813 215.543 96.9748 215.003 99.458 214.323L100.059 216.874C99.8785 217.194 98.6469 218.725 91.6681 219.556V219.546Z" fill="black"/>
<path d="M100.069 216.874C99.8885 217.194 98.657 218.725 91.6781 219.556L91.1475 215.924C94.1913 215.553 96.9849 215.013 99.468 214.333L100.069 216.884V216.874Z" fill="black"/>
<path d="M90.757 219.656C85.961 220.136 78.7118 220.306 67.7679 219.656C67.7379 219.656 67.2272 219.706 66.8468 219.276C66.4763 218.865 66.1359 217.935 66.5364 215.844C68.7792 216.094 79.5629 217.194 90.2264 216.024L90.757 219.666V219.656Z" fill="black"/>
<path d="M85.6206 208.98C85.9109 209.17 86.2914 209.09 86.4817 208.799L87.543 207.148C87.7332 206.858 87.6531 206.468 87.3628 206.278C87.0724 206.088 86.6919 206.168 86.5017 206.458L85.4403 208.109C85.2501 208.399 85.3302 208.789 85.6206 208.98Z" fill="black"/>
<path d="M88.394 210.14C88.6844 210.33 89.0649 210.25 89.2551 209.96L90.3165 208.309C90.5067 208.019 90.4266 207.629 90.1362 207.439C89.8459 207.248 89.4654 207.329 89.2751 207.619L88.2138 209.27C88.0235 209.56 88.1036 209.95 88.394 210.14Z" fill="black"/>
<path d="M91.2278 211.201C91.5181 211.391 91.8986 211.311 92.0888 211.021L93.1502 209.37C93.3404 209.079 93.2603 208.689 92.97 208.499C92.6796 208.309 92.2991 208.389 92.1089 208.679L91.0475 210.33C90.8573 210.62 90.9374 211.011 91.2278 211.201Z" fill="black"/>
<path d="M22 216.874V216.954C22.0701 217.424 23.1615 220.976 42.1655 220.976C45.8101 220.976 50.1256 220.846 55.202 220.536C55.162 220.536 56.1032 220.656 56.8041 219.876C57.5951 219.015 57.7553 217.474 57.2646 215.273C57.2646 215.253 57.2646 215.223 57.2646 215.213L57.1745 213.892C57.1545 211.781 56.9242 206.788 55.1119 206.738H55.0719C54.5112 206.738 53.9805 207.168 53.3096 207.699C51.6976 208.999 49.4948 210.79 45.4297 207.268L44.7087 206.628C44.7488 205.938 44.5586 205.167 44.0579 204.357C43.8577 204.017 43.4471 203.876 43.0767 204.006L42.0754 204.357C41.8752 204.427 41.7049 204.587 41.6048 204.787C41.5147 204.987 41.5047 205.207 41.5848 205.417C41.8551 206.178 41.4546 206.438 41.0741 206.588C40.4834 206.808 40.2331 206.588 39.8426 206.198C39.5522 205.908 39.1217 205.457 38.5109 205.778C38.3707 205.838 38.1605 205.988 37.8701 206.198C36.4783 207.188 33.2142 209.51 28.6284 209.56C23.8023 209.61 23.0714 212.311 23.0413 212.431L22.8611 213.162L22.751 213.622L21.99 216.854L22 216.874ZM32.243 219.656L32.7736 216.014C43.4471 217.174 54.2308 216.084 56.4636 215.833C56.8641 217.925 56.5237 218.855 56.1532 219.265C55.7727 219.696 55.2621 219.646 55.2321 219.646C44.2882 220.306 37.029 220.136 32.243 219.646V219.656ZM22.9412 216.874L23.542 214.323C26.0251 215.003 28.8186 215.543 31.8625 215.913L31.3318 219.546C24.353 218.715 23.1214 217.184 22.9412 216.864V216.874Z" fill="#FFF9DE"/>
<path d="M22 216.874V216.954C22.0701 217.424 23.1615 220.976 42.1655 220.976C45.8101 220.976 50.1256 220.846 55.202 220.536C55.162 220.536 56.1032 220.656 56.8041 219.876C57.5951 219.015 57.7553 217.474 57.2646 215.273C57.2646 215.253 57.2646 215.223 57.2646 215.213L57.1745 213.892C57.1545 211.781 56.9242 206.788 55.1119 206.738H55.0719C54.5112 206.738 53.9805 207.168 53.3096 207.699C51.6976 208.999 49.4948 210.79 45.4297 207.268L44.7087 206.628C44.7488 205.938 44.5586 205.167 44.0579 204.357C43.8577 204.017 43.4471 203.876 43.0767 204.006L42.0754 204.357C41.8752 204.427 41.7049 204.587 41.6048 204.787C41.5147 204.987 41.5047 205.207 41.5848 205.417C41.8551 206.178 41.4546 206.438 41.0741 206.588C40.4834 206.808 40.2331 206.588 39.8426 206.198C39.5522 205.908 39.1217 205.457 38.5109 205.778C38.3707 205.838 38.1605 205.988 37.8701 206.198C36.4783 207.188 33.2142 209.51 28.6284 209.56C23.8023 209.61 23.0714 212.311 23.0413 212.431L22.8611 213.162L22.751 213.622L21.99 216.854L22 216.874ZM56.3435 214.923C54.0606 215.173 43.1368 216.284 32.4432 215.053C29.2492 214.693 26.3355 214.142 23.7722 213.432L23.9525 212.672C23.9825 212.592 24.5833 210.54 28.6684 210.49C33.5446 210.44 36.9589 208.009 38.4308 206.968C38.6711 206.798 38.8513 206.668 38.9515 206.608C38.9915 206.628 39.1217 206.768 39.2118 206.858C39.6023 207.248 40.2531 207.919 41.4246 207.459C42.4359 207.068 42.8264 206.228 42.4959 205.207L43.357 204.897C44.909 207.519 42.2356 209.25 42.1155 209.32L42.5961 210.09C43.2769 209.66 44.158 208.819 44.5485 207.689L44.8589 207.959C49.4948 211.961 52.2683 209.73 53.9204 208.399C54.381 208.039 54.8616 207.639 55.1019 207.639C55.6826 207.659 56.2534 210.72 56.2734 213.932L56.3435 214.903V214.923ZM32.253 219.646L32.7837 216.004C43.4572 217.164 54.2408 216.074 56.4736 215.823C56.8741 217.915 56.5337 218.845 56.1632 219.255C55.7828 219.686 55.2721 219.636 55.2421 219.636C44.2982 220.296 37.039 220.126 32.253 219.636V219.646ZM22.9412 216.874L23.542 214.323C26.0251 215.003 28.8186 215.543 31.8625 215.913L31.3318 219.546C24.353 218.715 23.1214 217.184 22.9412 216.864V216.874Z" fill="black"/>
<path d="M22.9412 216.874C23.1214 217.194 24.3529 218.725 31.3318 219.556L31.8625 215.924C28.8186 215.553 26.0251 215.013 23.5419 214.333L22.9412 216.884V216.874Z" fill="black"/>
<path d="M32.2429 219.656C37.039 220.136 44.2882 220.306 55.232 219.656C55.2621 219.656 55.7727 219.706 56.1532 219.276C56.5237 218.865 56.8641 217.935 56.4636 215.844C54.2207 216.094 43.4371 217.194 32.7736 216.024L32.2429 219.666V219.656Z" fill="black"/>
<path d="M37.3894 208.98C37.099 209.17 36.7185 209.09 36.5283 208.799L35.467 207.148C35.2767 206.858 35.3568 206.468 35.6472 206.278C35.9376 206.088 36.318 206.168 36.5083 206.458L37.5696 208.109C37.7599 208.399 37.6798 208.789 37.3894 208.98Z" fill="black"/>
<path d="M34.616 210.14C34.3256 210.33 33.9451 210.25 33.7549 209.96L32.6935 208.309C32.5033 208.019 32.5834 207.629 32.8737 207.439C33.1641 207.248 33.5446 207.329 33.7348 207.619L34.7962 209.27C34.9864 209.56 34.9063 209.95 34.616 210.14Z" fill="black"/>
<path d="M31.7724 211.201C31.4821 211.391 31.1016 211.311 30.9114 211.021L29.85 209.37C29.6598 209.079 29.7399 208.689 30.0302 208.499C30.3206 208.309 30.7011 208.389 30.8913 208.679L31.9527 210.33C32.1429 210.62 32.0628 211.011 31.7724 211.201Z" fill="black"/>
</g>
<defs>
<clipPath id="clip0_775_9004">
<rect width="79" height="17" fill="white" transform="translate(22 203.987)"/>
</clipPath>
</defs>
</svg>
