<svg width="122" height="225" viewBox="0 0 122 225" fill="none" xmlns="http://www.w3.org/2000/svg">
<g clip-path="url(#clip0_775_10437)">
<path d="M67.5 215.99C67.5 219.99 70.3334 221 77.2216 221C82.8208 221 87.0001 220.5 87.0001 216.24C87.0001 213.34 83.9386 211.4 79.0343 211C80.2528 211.86 80.3132 212.61 80.3132 213.92C80.3132 216.58 76.2951 217.45 73.3646 217.41C69.6687 217.35 68.3056 217.04 67.5504 215.41C67.5201 215.6 67.5 215.8 67.5 216V215.99Z" fill="#494949"/>
<path d="M55.2291 215.89C55.2291 219.89 52.54 221 45.7 221C40.14 221 36 221 36 216.24C36 213.34 39.04 211.4 43.91 211C42.7 211.86 42.64 212.61 42.64 213.92C42.64 216.58 46.63 217.45 49.54 217.41C53.21 217.35 54.4291 216.93 55.1791 215.3C55.2091 215.49 55.2291 215.69 55.2291 215.89Z" fill="white"/>
</g>
<defs>
<clipPath id="clip0_775_10437">
<rect width="52" height="10" fill="white" transform="translate(35 211)"/>
</clipPath>
</defs>
</svg>
