<svg width="122" height="225" viewBox="0 0 122 225" fill="none" xmlns="http://www.w3.org/2000/svg">
<g clip-path="url(#clip0_775_9018)">
<path d="M100.239 213.656L100.129 213.195L99.9486 212.465C99.9185 212.345 99.1876 209.653 94.3615 209.593C89.7757 209.543 86.5116 207.222 85.1198 206.231C84.8294 206.021 84.6192 205.881 84.479 205.811C83.8682 205.491 83.4377 205.941 83.1473 206.231C82.7568 206.632 82.5065 206.842 81.9158 206.622C81.5353 206.471 81.1348 206.201 81.4051 205.451C81.4852 205.241 81.4752 205.021 81.3851 204.82C81.285 204.62 81.1147 204.47 80.9145 204.39L79.9132 204.04C79.5427 203.9 79.1322 204.04 78.932 204.39C78.4313 205.201 78.2511 205.961 78.2811 206.662L77.5602 207.302C73.4951 210.814 71.2923 209.033 69.6803 207.732C69.0194 207.192 68.4888 206.772 67.918 206.772H67.878C66.0657 206.822 65.8354 211.815 65.8154 213.926L65.7253 215.247C65.7253 215.247 65.7253 215.297 65.7253 215.307C65.2446 217.498 65.3948 219.049 66.1858 219.909C66.8867 220.68 67.8279 220.57 67.7879 220.57C72.8743 220.88 77.1798 221.01 80.8244 221.01C99.8384 221.01 100.92 217.458 100.98 216.988V216.908L100.219 213.676L100.239 213.656ZM67.7678 219.659C67.7678 219.659 67.2272 219.709 66.8467 219.279C66.4762 218.869 66.1358 217.938 66.5363 215.847C68.7791 216.097 79.5628 217.198 90.2263 216.027L90.7569 219.669C85.9609 220.149 78.7117 220.32 67.7678 219.669V219.659ZM91.6681 219.559L91.1374 215.927C94.1813 215.557 96.9748 215.016 99.458 214.336L100.059 216.888C99.8785 217.208 98.6469 218.739 91.6681 219.569V219.559Z" fill="#FFD00B"/>
<path d="M100.239 213.656L100.129 213.195L99.9486 212.465C99.9185 212.345 99.1876 209.653 94.3615 209.593C89.7757 209.543 86.5116 207.222 85.1198 206.231C84.8294 206.021 84.6192 205.881 84.479 205.811C83.8682 205.491 83.4377 205.941 83.1473 206.231C82.7568 206.632 82.5065 206.842 81.9158 206.622C81.5353 206.471 81.1348 206.201 81.4051 205.451C81.4852 205.241 81.4752 205.021 81.3851 204.82C81.285 204.62 81.1147 204.47 80.9145 204.39L79.9132 204.04C79.5427 203.9 79.1322 204.04 78.932 204.39C78.4313 205.201 78.2511 205.961 78.2811 206.662L77.5602 207.302C73.4951 210.814 71.2923 209.033 69.6803 207.732C69.0194 207.192 68.4888 206.772 67.918 206.772H67.878C66.0657 206.822 65.8354 211.815 65.8154 213.926L65.7253 215.247C65.7253 215.247 65.7253 215.297 65.7253 215.307C65.2446 217.498 65.3948 219.049 66.1858 219.909C66.8867 220.68 67.8279 220.57 67.7879 220.57C72.8743 220.88 77.1798 221.01 80.8244 221.01C99.8384 221.01 100.92 217.458 100.98 216.988V216.908L100.219 213.676L100.239 213.656ZM66.7365 213.966C66.7666 210.754 67.3273 207.692 67.908 207.672C68.1583 207.672 68.6289 208.062 69.0895 208.433C70.7416 209.773 73.5051 212.005 78.151 207.992L78.4614 207.722C78.8519 208.853 79.733 209.703 80.4138 210.124L80.8945 209.353C80.7743 209.283 78.1009 207.552 79.6529 204.931L80.514 205.241C80.1735 206.261 80.564 207.102 81.5853 207.492C82.7568 207.952 83.4076 207.282 83.7981 206.892C83.8882 206.802 84.0284 206.652 84.0585 206.642C84.1586 206.702 84.3388 206.832 84.5791 207.002C86.051 208.042 89.4653 210.484 94.3415 210.524C98.4267 210.574 99.0274 212.615 99.0574 212.705L99.2377 213.466C96.6644 214.176 93.7507 214.726 90.5667 215.087C79.8632 216.317 68.9393 215.217 66.6664 214.956L66.7365 213.986V213.966ZM67.7678 219.659C67.7678 219.659 67.2272 219.709 66.8467 219.279C66.4762 218.869 66.1358 217.938 66.5363 215.847C68.7791 216.097 79.5628 217.198 90.2263 216.027L90.7569 219.669C85.9609 220.149 78.7117 220.32 67.7678 219.669V219.659ZM91.6681 219.559L91.1374 215.927C94.1813 215.557 96.9748 215.016 99.458 214.336L100.059 216.888C99.8785 217.208 98.6469 218.739 91.6681 219.569V219.559Z" fill="black"/>
<path d="M100.069 216.888C99.8885 217.208 98.657 218.739 91.6781 219.569L91.1475 215.937C94.1913 215.567 96.9849 215.027 99.468 214.346L100.069 216.898V216.888Z" fill="black"/>
<path d="M90.757 219.669C85.961 220.149 78.7118 220.32 67.7679 219.669C67.7379 219.669 67.2272 219.719 66.8468 219.289C66.4763 218.879 66.1359 217.948 66.5364 215.857C68.7792 216.107 79.5629 217.208 90.2264 216.037L90.757 219.679V219.669Z" fill="black"/>
<path d="M85.6206 208.993C85.9109 209.183 86.2914 209.103 86.4817 208.813L87.543 207.162C87.7332 206.872 87.6531 206.481 87.3628 206.291C87.0724 206.101 86.6919 206.181 86.5017 206.471L85.4403 208.122C85.2501 208.413 85.3302 208.803 85.6206 208.993Z" fill="black"/>
<path d="M88.394 210.154C88.6844 210.344 89.0649 210.264 89.2551 209.973L90.3165 208.323C90.5067 208.032 90.4266 207.642 90.1362 207.452C89.8459 207.262 89.4654 207.342 89.2751 207.632L88.2138 209.283C88.0235 209.573 88.1036 209.963 88.394 210.154Z" fill="black"/>
<path d="M91.2278 211.214C91.5181 211.404 91.8986 211.324 92.0888 211.034L93.1502 209.383C93.3404 209.093 93.2603 208.703 92.97 208.513C92.6796 208.322 92.2991 208.402 92.1089 208.693L91.0475 210.344C90.8573 210.634 90.9374 211.024 91.2278 211.214Z" fill="black"/>
<path d="M22 216.887V216.968C22.0701 217.438 23.1615 220.99 42.1655 220.99C45.8101 220.99 50.1256 220.86 55.202 220.55C55.162 220.55 56.1032 220.67 56.8041 219.889C57.5951 219.029 57.7553 217.488 57.2646 215.287C57.2646 215.267 57.2646 215.237 57.2646 215.227L57.1745 213.906C57.1545 211.794 56.9242 206.802 55.1119 206.752H55.0719C54.5112 206.752 53.9805 207.182 53.3096 207.712C51.6976 209.013 49.4948 210.804 45.4297 207.282L44.7087 206.641C44.7488 205.951 44.5586 205.181 44.0579 204.37C43.8577 204.03 43.4471 203.89 43.0767 204.02L42.0754 204.37C41.8752 204.44 41.7049 204.6 41.6048 204.8C41.5147 205 41.5047 205.221 41.5848 205.431C41.8551 206.191 41.4546 206.451 41.0741 206.601C40.4834 206.822 40.2331 206.601 39.8426 206.211C39.5522 205.921 39.1217 205.471 38.5109 205.791C38.3707 205.851 38.1605 206.001 37.8701 206.211C36.4783 207.202 33.2142 209.523 28.6284 209.573C23.8023 209.623 23.0714 212.325 23.0413 212.445L22.8611 213.175L22.751 213.636L21.99 216.867L22 216.887ZM32.243 219.669L32.7736 216.027C43.4471 217.188 54.2308 216.097 56.4636 215.847C56.8641 217.938 56.5237 218.869 56.1532 219.279C55.7727 219.709 55.2621 219.659 55.2321 219.659C44.2882 220.32 37.029 220.149 32.243 219.659V219.669ZM22.9412 216.887L23.542 214.336C26.0251 215.016 28.8186 215.557 31.8625 215.927L31.3318 219.559C24.353 218.729 23.1214 217.198 22.9412 216.877V216.887Z" fill="#FFD00B"/>
<path d="M22 216.887V216.968C22.0701 217.438 23.1615 220.99 42.1655 220.99C45.8101 220.99 50.1256 220.86 55.202 220.55C55.162 220.55 56.1032 220.67 56.8041 219.889C57.5951 219.029 57.7553 217.488 57.2646 215.287C57.2646 215.267 57.2646 215.237 57.2646 215.227L57.1745 213.906C57.1545 211.794 56.9242 206.802 55.1119 206.752H55.0719C54.5112 206.752 53.9805 207.182 53.3096 207.712C51.6976 209.013 49.4948 210.804 45.4297 207.282L44.7087 206.641C44.7488 205.951 44.5586 205.181 44.0579 204.37C43.8577 204.03 43.4471 203.89 43.0767 204.02L42.0754 204.37C41.8752 204.44 41.7049 204.6 41.6048 204.8C41.5147 205 41.5047 205.221 41.5848 205.431C41.8551 206.191 41.4546 206.451 41.0741 206.601C40.4834 206.822 40.2331 206.601 39.8426 206.211C39.5522 205.921 39.1217 205.471 38.5109 205.791C38.3707 205.851 38.1605 206.001 37.8701 206.211C36.4783 207.202 33.2142 209.523 28.6284 209.573C23.8023 209.623 23.0714 212.325 23.0413 212.445L22.8611 213.175L22.751 213.636L21.99 216.867L22 216.887ZM56.3435 214.936C54.0606 215.186 43.1368 216.297 32.4432 215.066C29.2492 214.706 26.3355 214.156 23.7722 213.445L23.9525 212.685C23.9825 212.605 24.5833 210.554 28.6684 210.504C33.5446 210.454 36.9589 208.022 38.4308 206.982C38.6711 206.812 38.8513 206.681 38.9515 206.621C38.9915 206.641 39.1217 206.782 39.2118 206.872C39.6023 207.262 40.2531 207.932 41.4246 207.472C42.4359 207.082 42.8264 206.241 42.4959 205.221L43.357 204.91C44.909 207.532 42.2356 209.263 42.1155 209.333L42.5961 210.104C43.2769 209.673 44.158 208.833 44.5485 207.702L44.8589 207.972C49.4948 211.975 52.2683 209.743 53.9204 208.413C54.381 208.052 54.8616 207.652 55.1019 207.652C55.6826 207.672 56.2534 210.734 56.2734 213.946L56.3435 214.916V214.936ZM32.253 219.659L32.7837 216.017C43.4572 217.178 54.2408 216.087 56.4736 215.837C56.8741 217.928 56.5337 218.859 56.1632 219.269C55.7828 219.699 55.2721 219.649 55.2421 219.649C44.2982 220.31 37.039 220.139 32.253 219.649V219.659ZM22.9412 216.887L23.542 214.336C26.0251 215.016 28.8186 215.557 31.8625 215.927L31.3318 219.559C24.353 218.729 23.1214 217.198 22.9412 216.877V216.887Z" fill="black"/>
<path d="M22.9412 216.888C23.1214 217.208 24.3529 218.739 31.3318 219.569L31.8625 215.937C28.8186 215.567 26.0251 215.027 23.5419 214.346L22.9412 216.898V216.888Z" fill="black"/>
<path d="M32.2429 219.669C37.039 220.149 44.2882 220.32 55.232 219.669C55.2621 219.669 55.7727 219.719 56.1532 219.289C56.5237 218.879 56.8641 217.948 56.4636 215.857C54.2207 216.107 43.4371 217.208 32.7736 216.037L32.2429 219.679V219.669Z" fill="black"/>
<path d="M37.3894 208.993C37.099 209.183 36.7185 209.103 36.5283 208.813L35.467 207.162C35.2767 206.872 35.3568 206.481 35.6472 206.291C35.9376 206.101 36.318 206.181 36.5083 206.471L37.5696 208.122C37.7599 208.413 37.6798 208.803 37.3894 208.993Z" fill="black"/>
<path d="M34.616 210.154C34.3256 210.344 33.9451 210.264 33.7549 209.973L32.6935 208.323C32.5033 208.032 32.5834 207.642 32.8737 207.452C33.1641 207.262 33.5446 207.342 33.7348 207.632L34.7962 209.283C34.9864 209.573 34.9063 209.963 34.616 210.154Z" fill="black"/>
<path d="M31.7724 211.214C31.4821 211.404 31.1016 211.324 30.9114 211.034L29.85 209.383C29.6598 209.093 29.7399 208.703 30.0302 208.513C30.3206 208.322 30.7011 208.402 30.8913 208.693L31.9527 210.344C32.1429 210.634 32.0628 211.024 31.7724 211.214Z" fill="black"/>
</g>
<defs>
<clipPath id="clip0_775_9018">
<rect width="79" height="17" fill="white" transform="translate(22 204)"/>
</clipPath>
</defs>
</svg>
