<svg width="122" height="225" viewBox="0 0 122 225" fill="none" xmlns="http://www.w3.org/2000/svg">
<g clip-path="url(#clip0_775_10866)">
<path d="M42.9829 209.558C42.6937 209.279 40.0613 210.097 39.453 210.405C39.3234 210.462 39.114 210.607 38.8248 210.809C38.5456 211.001 38.1966 211.242 37.7678 211.502C37.4587 211.704 37.0997 211.915 36.7009 212.127C36.2422 212.377 35.7336 212.627 35.1752 212.868C34.8063 213.022 34.4074 213.176 33.9886 213.31C33.4501 213.484 32.8718 213.647 32.2635 213.763C31.8348 213.849 31.396 213.926 30.9274 213.965H30.9174C30.4986 214.013 30.0698 214.042 29.6211 214.042C24.8048 214.09 24.0869 216.678 24.057 216.793L23.8775 217.496L23.7678 217.938L23 221.046V221.123C23.0798 221.575 24.1567 224.99 43.0926 224.99C46.7222 224.99 51.01 224.865 56.0755 224.567C56.0356 224.577 56.9729 224.683 57.6709 223.942C58.4587 223.114 58.6182 221.633 58.1396 219.516C58.1396 219.506 58.1396 219.478 58.1296 219.458L58.0399 218.188C58.0199 216.158 57.7906 211.357 55.9858 211.309H55.9459C55.3875 211.309 54.859 211.713 54.2009 212.233C52.5855 213.484 50.3917 215.206 46.3433 211.819L45.6254 211.213M57.0228 223.336C56.6339 223.749 56.1254 223.701 56.1054 223.701C45.2066 224.336 37.9772 224.182 33.2009 223.711L32.2934 223.605C25.3433 222.816 24.1168 221.344 23.9373 221.036L24.5356 218.583C27.0085 219.237 29.7906 219.757 32.8219 220.113L33.7293 220.209C44.359 221.334 55.0983 220.286 57.3319 220.036C57.7308 222.046 57.3917 222.941 57.0228 223.336Z" fill="white"/>
<path d="M57.023 223.336C56.6341 223.749 56.1255 223.701 56.1056 223.701C45.2067 224.336 37.9774 224.182 33.201 223.711L32.2936 223.605C25.3435 222.816 24.117 221.344 23.9375 221.036L24.456 218.929L24.5358 218.583C27.0087 219.237 29.7908 219.757 32.8221 220.113L33.7295 220.209C36.0728 220.459 38.4261 220.594 40.6896 220.671C48.6868 220.911 55.5871 220.228 57.3321 220.036C57.7309 222.046 57.3919 222.941 57.023 223.336Z" fill="#AE7E52"/>
<path d="M57.3319 220.036C55.0983 220.286 44.359 221.334 33.7294 220.209L32.822 220.113C29.7906 219.757 27.0086 219.237 24.5356 218.583L24.755 217.736C27.3177 218.419 30.2194 218.939 33.3903 219.295C44.0499 220.478 54.9288 219.41 57.2023 219.17L57.3319 220.036Z" fill="white"/>
<path d="M57.3321 220.045C56.1455 216.062 52.3264 214.397 52.1968 214.359L52.466 213.435C52.6256 213.474 56.7936 215.004 58.1398 219.526L57.3321 220.045Z" fill="#EFEFEF"/>
<path d="M38.6553 214.994C38.1567 215.177 37.708 215.485 37.369 215.879L36.3918 216.995C35.5542 217.784 34.6767 218.284 33.7693 218.14L27.9858 217.563C27.2978 217.457 27.1482 216.562 27.7764 216.254H27.8063C27.906 216.197 28.2849 216.052 28.8733 215.85C29.2422 215.562 29.2821 215.206 29.0328 215.013C28.9431 214.936 29.0029 214.792 29.1126 214.763L31.0072 214.263L25.6824 215.206C25.6325 215.206 25.5827 215.254 25.5727 215.302L24.1567 218.871L24.4659 218.929L24.5456 218.583C27.0186 219.237 29.8006 219.756 32.832 220.112L33.7394 220.209C36.0428 220.459 36.5613 220.516 38.7451 220.593C38.8049 220.593 38.8647 220.565 38.8946 220.507L40.2408 217.871C41.0086 216.408 41.7365 215.023 42.5941 213.897C42.6838 213.782 42.5641 213.628 42.4245 213.676L39.5627 214.667L38.6653 214.994H38.6553Z" fill="#DFD6C4"/>
<path d="M58.1396 219.516C58.1396 219.516 58.1396 219.477 58.1296 219.458L58.0399 218.188C58.0199 216.158 57.7906 211.357 55.9858 211.309H55.9459C55.3875 211.309 54.859 211.713 54.2009 212.233C52.5855 213.483 50.3917 215.205 46.3433 211.819L43.651 209.346C43.4516 209.019 42.9131 208.923 42.5342 209.048L39.5028 210.347C39.3732 210.405 39.114 210.607 38.8248 210.809C38.5456 211.001 38.1966 211.242 37.7678 211.501C37.4587 211.703 37.0997 211.915 36.7009 212.127C36.2422 212.377 35.7336 212.627 35.1752 212.868C34.8063 213.021 34.4074 213.175 33.9886 213.31C33.4501 213.483 32.8718 213.647 32.2635 213.762C31.8348 213.849 31.396 213.926 30.9274 213.964H30.9174C30.4986 214.012 30.0698 214.041 29.6211 214.041C24.8048 214.089 24.0869 216.678 24.057 216.793L23.8775 217.495L23.7678 217.938L23 221.046V221.122C23.0798 221.575 24.1567 224.99 43.0926 224.99C46.7222 224.99 51.01 224.865 56.0755 224.567C56.0356 224.576 56.9729 224.682 57.6709 223.941C58.4587 223.114 58.6182 221.632 58.1396 219.516ZM57.0228 223.335C56.6339 223.749 56.1254 223.701 56.1054 223.701C45.2066 224.336 37.9772 224.182 33.2009 223.711L32.2934 223.605C25.3433 222.816 24.1168 221.344 23.9373 221.036L24.5356 218.582L24.755 217.736L24.9345 217.005C24.9644 216.928 25.5627 214.955 29.6311 214.917C30.2692 214.907 30.8775 214.859 31.4658 214.782C31.9245 214.724 32.3632 214.647 32.7821 214.551C33.3903 214.417 33.9587 214.253 34.4972 214.07C34.906 213.926 35.3048 213.772 35.6738 213.618C36.2322 213.377 36.7407 213.118 37.1994 212.868C37.5983 212.656 37.9473 212.444 38.2664 212.242C38.7051 211.973 39.0641 211.723 39.3533 211.521C39.5826 211.357 39.7621 211.232 39.8618 211.174L42.8034 210.02L45.745 212.483C50.3618 216.341 53.1239 214.195 54.7692 212.906C55.2279 212.56 55.7066 212.184 55.9459 212.184C56.5242 212.194 57.0926 215.138 57.1225 218.236L57.1923 219.169L57.3219 220.035C57.7208 222.046 57.3818 222.941 57.0128 223.335H57.0228Z" fill="#EFEFEF"/>
<path d="M40.0713 212.127C39.9018 212.127 39.7422 212.05 39.6425 211.896L38.6753 210.607C38.5357 210.376 38.6055 210.087 38.8348 209.943C39.0642 209.808 39.3733 209.875 39.5229 210.097L40.4901 211.386C40.6297 211.617 40.5599 211.905 40.3306 212.05C40.2508 212.098 40.161 212.117 40.0713 212.117V212.127Z" fill="#DFD6C4"/>
<path d="M37.9771 213.253C37.8075 213.253 37.648 213.176 37.5483 213.022L36.581 211.732C36.4414 211.501 36.5112 211.213 36.7406 211.069C36.9699 210.934 37.2791 211.001 37.4286 211.222L38.3959 212.512C38.5355 212.743 38.4657 213.031 38.2363 213.176C38.1565 213.224 38.0668 213.243 37.9771 213.243V213.253Z" fill="#DFD6C4"/>
<path d="M35.8833 214.378C35.7138 214.378 35.5542 214.301 35.4545 214.147L34.4873 212.858C34.3477 212.627 34.4175 212.339 34.6468 212.194C34.8762 212.06 35.1853 212.127 35.3349 212.348L36.3021 213.637C36.4417 213.868 36.3719 214.157 36.1426 214.301C36.0628 214.349 35.973 214.369 35.8833 214.369V214.378Z" fill="#DFD6C4"/>
<path d="M77.3748 211.222L76.6569 211.829C72.6084 215.215 70.4147 213.493 68.7993 212.242C68.1412 211.723 67.6127 211.319 67.0543 211.319H67.0144C65.2096 211.367 64.9802 216.168 64.9603 218.198L64.8706 219.468C64.8706 219.468 64.8606 219.516 64.8606 219.526C64.3819 221.642 64.5415 223.124 65.3292 223.951C66.0272 224.692 66.9646 224.586 66.9247 224.577C71.9902 224.875 76.278 225 79.9076 225C98.8435 225 99.9204 221.584 99.9902 221.132V221.055L99.2324 217.948L99.1227 217.505L98.9432 216.803C98.9133 216.687 98.1953 214.099 93.3791 214.051C92.9304 214.051 92.5016 214.022 92.0828 213.974H92.0728C91.6042 213.936 91.1654 213.859 90.7366 213.772C90.1284 213.657 89.55 213.493 89.0116 213.32C88.5928 213.185 88.1939 213.031 87.825 212.877C87.2666 212.637 86.758 212.387 86.2993 212.136C85.9005 211.925 85.5415 211.713 85.2324 211.511C84.8036 211.251 84.4546 211.011 84.1754 210.818C83.8862 210.616 83.6768 210.472 83.5472 210.414C82.9389 210.106 80.3064 209.289 80.0173 209.568M65.6683 220.045C67.9019 220.295 78.6412 221.344 89.2708 220.218L90.1782 220.122C93.2096 219.766 95.9916 219.247 98.4646 218.592L99.0629 221.046C98.8834 221.354 97.6569 222.826 90.7067 223.615L89.7993 223.72C85.023 224.192 77.7936 224.346 66.8948 223.711C66.8748 223.711 66.3663 223.759 65.9774 223.345C65.6084 222.951 65.2694 222.056 65.6683 220.045Z" fill="white"/>
<path d="M65.9773 223.336C66.3662 223.749 66.8747 223.701 66.8947 223.701C77.7936 224.336 85.0229 224.182 89.7992 223.711L90.7067 223.605C97.6568 222.816 98.8833 221.344 99.0628 221.036L98.5443 218.929L98.4645 218.583C95.9916 219.237 93.2095 219.757 90.1782 220.113L89.2708 220.209C86.9275 220.459 84.5742 220.594 82.3106 220.671C74.3135 220.911 67.4132 220.228 65.6682 220.036C65.2693 222.046 65.6084 222.941 65.9773 223.336Z" fill="#AE7E52"/>
<path d="M65.668 220.036C67.9016 220.286 78.6409 221.334 89.2705 220.209L90.1779 220.113C93.2093 219.757 95.9913 219.237 98.4643 218.583L98.2449 217.736C95.6822 218.419 92.7805 218.939 89.6096 219.295C78.95 220.478 68.0711 219.41 65.7976 219.17L65.668 220.036Z" fill="white"/>
<path d="M65.668 220.045C66.8547 216.062 70.6737 214.397 70.8034 214.359L70.5341 213.435C70.3746 213.474 66.2065 215.004 64.8604 219.526L65.668 220.045Z" fill="#EFEFEF"/>
<path d="M84.3448 214.994C84.8434 215.177 85.2921 215.485 85.6311 215.879L86.6083 216.995C87.4459 217.784 88.3234 218.284 89.2308 218.14L95.0143 217.563C95.7023 217.457 95.8519 216.562 95.2237 216.254H95.1938C95.0941 216.197 94.7152 216.052 94.1269 215.85C93.7579 215.562 93.718 215.206 93.9673 215.013C94.057 214.936 93.9972 214.792 93.8875 214.763L91.9929 214.263L97.3177 215.206C97.3676 215.206 97.4174 215.254 97.4274 215.302L98.8434 218.871L98.5343 218.929L98.4545 218.583C95.9815 219.237 93.1995 219.756 90.1682 220.112L89.2607 220.209C86.9573 220.459 86.4388 220.516 84.2551 220.593C84.1952 220.593 84.1354 220.565 84.1055 220.507L82.7593 217.871C81.9915 216.408 81.2636 215.023 80.406 213.897C80.3163 213.782 80.436 213.628 80.5756 213.676L83.4374 214.667L84.3348 214.994H84.3448Z" fill="#DFD6C4"/>
<path d="M65.3292 223.941C66.0272 224.682 66.9646 224.576 66.9247 224.567C71.9902 224.865 76.278 224.99 79.9076 224.99C98.8435 224.99 99.9204 221.575 99.9902 221.122V221.046L99.2324 217.938L99.1227 217.495L98.9432 216.793C98.9133 216.678 98.1953 214.089 93.3791 214.041C92.9304 214.041 92.5016 214.012 92.0828 213.964H92.0728C91.6042 213.926 91.1654 213.849 90.7366 213.762C90.1284 213.647 89.55 213.483 89.0116 213.31C88.5928 213.175 88.1939 213.021 87.825 212.868C87.2666 212.627 86.758 212.377 86.2993 212.127C85.9005 211.915 85.5415 211.703 85.2324 211.501C84.8036 211.242 84.4546 211.001 84.1754 210.809C83.8862 210.607 83.627 210.405 83.4973 210.347L80.466 209.048C80.0871 208.923 79.5486 209.019 79.3492 209.346L76.6569 211.819C72.6084 215.205 70.4147 213.483 68.7993 212.233C68.1412 211.713 67.6127 211.309 67.0543 211.309H67.0144C65.2096 211.357 64.9802 216.158 64.9603 218.188L64.8706 219.458C64.8706 219.458 64.8606 219.506 64.8606 219.516C64.3819 221.632 64.5415 223.114 65.3292 223.941ZM65.6683 220.035L65.7979 219.169L65.8677 218.236C65.8976 215.138 66.466 212.194 67.0443 212.184C67.2837 212.184 67.7623 212.56 68.221 212.906C69.8663 214.195 72.6284 216.341 77.2452 212.483L80.1868 210.02L83.1284 211.174C83.2281 211.232 83.4076 211.357 83.6369 211.521C83.9261 211.723 84.2851 211.973 84.7238 212.242C85.0429 212.444 85.3919 212.656 85.7908 212.868C86.2495 213.118 86.758 213.377 87.3164 213.618C87.6854 213.772 88.0842 213.926 88.4931 214.07C89.0315 214.253 89.5999 214.417 90.2082 214.551C90.627 214.647 91.0657 214.724 91.5244 214.782C92.1127 214.859 92.721 214.907 93.3591 214.917C97.4275 214.955 98.0258 216.928 98.0557 217.005L98.2352 217.736L98.4546 218.582L99.0529 221.036C98.8734 221.344 97.6469 222.816 90.6968 223.605L89.7894 223.711C85.013 224.182 77.7837 224.336 66.8848 223.701C66.8649 223.701 66.3563 223.749 65.9674 223.335C65.5985 222.941 65.2594 222.046 65.6583 220.035H65.6683Z" fill="#EFEFEF"/>
<path d="M82.9286 212.127C83.0981 212.127 83.2576 212.05 83.3573 211.896L84.3246 210.607C84.4642 210.376 84.3944 210.087 84.165 209.943C83.9357 209.808 83.6266 209.875 83.477 210.097L82.5098 211.386C82.3702 211.617 82.44 211.905 82.6693 212.05C82.7491 212.098 82.8388 212.117 82.9286 212.117V212.127Z" fill="#DFD6C4"/>
<path d="M85.0228 213.253C85.1923 213.253 85.3519 213.176 85.4516 213.022L86.4188 211.732C86.5584 211.501 86.4886 211.213 86.2593 211.069C86.0299 210.934 85.7208 211.001 85.5712 211.222L84.604 212.512C84.4644 212.743 84.5342 213.031 84.7635 213.176C84.8433 213.224 84.9331 213.243 85.0228 213.243V213.253Z" fill="#DFD6C4"/>
<path d="M87.1068 214.378C87.2763 214.378 87.4358 214.301 87.5356 214.147L88.5028 212.858C88.6424 212.627 88.5726 212.339 88.3432 212.194C88.1139 212.06 87.8048 212.127 87.6552 212.348L86.688 213.637C86.5484 213.868 86.6182 214.157 86.8475 214.301C86.9273 214.349 87.017 214.369 87.1068 214.369V214.378Z" fill="#DFD6C4"/>
</g>
<defs>
<clipPath id="clip0_775_10866">
<rect width="77" height="16" fill="white" transform="translate(23 209)"/>
</clipPath>
</defs>
</svg>
