<svg width="122" height="225" viewBox="0 0 122 225" fill="none" xmlns="http://www.w3.org/2000/svg">
<g clip-path="url(#clip0_775_9556)">
<path d="M22.229 218.421C22.5573 218.983 23.2537 219.475 24.2983 219.896L24.358 219.926C24.358 219.926 24.3778 219.926 24.3878 219.937L24.4873 219.977H24.4972C25.124 220.217 25.8701 220.428 26.7356 220.609L29.173 221H54.9691C55.0686 220.99 55.1581 220.98 55.2377 220.97C56.521 220.749 56.7896 219.605 56.7498 219.023V216.304C56.7498 216.304 56.7697 214.227 56.7498 211.478V210.866C56.7299 208.92 56.2723 207.525 55.8943 206.712C55.755 206.411 55.4566 206.221 55.1283 206.221H55.1084C54.7701 206.221 54.4717 206.442 54.3423 206.763C54.1036 207.355 53.6857 208.207 53.0192 208.88C50.4824 211.388 46.9209 208.96 44.3741 206.492C43.8369 205.98 43.041 205.85 42.3744 206.171L42.1854 206.261C42.0859 206.151 41.9467 206.07 41.8074 206.04C41.5985 205.98 41.3697 206.01 41.1806 206.12C40.9717 206.241 40.8324 206.442 40.7827 206.662C40.5439 206.542 40.2554 206.552 40.0067 206.692C39.7978 206.813 39.6585 207.013 39.6088 207.234C39.5591 207.214 39.5093 207.194 39.4596 207.184C39.2407 207.124 39.0218 207.154 38.8229 207.264C38.6339 207.375 38.4946 207.555 38.4349 207.776C38.4349 207.776 38.4349 207.796 38.4349 207.806C38.3852 207.786 38.3454 207.766 38.2956 207.756C38.0768 207.696 37.8579 207.726 37.6589 207.836C37.45 207.957 37.3107 208.147 37.261 208.368C37.2112 208.348 37.1615 208.328 37.1118 208.318C36.9028 208.258 36.674 208.288 36.4751 208.398C36.286 208.508 36.1468 208.689 36.0871 208.91V208.93C36.0373 208.91 35.9975 208.89 35.9478 208.88C35.7289 208.819 35.5101 208.85 35.3111 208.96C35.1221 209.07 34.9828 209.251 34.9231 209.472C34.9231 209.472 34.9231 209.492 34.9231 209.502C34.6844 209.381 34.3959 209.391 34.1471 209.532C33.9581 209.642 33.8188 209.823 33.7592 210.044V210.064C33.7094 210.044 33.6696 210.023 33.6199 210.013C33.401 209.953 33.1822 209.983 32.9832 210.094C32.7942 210.204 32.6549 210.385 32.5952 210.605C32.5654 210.736 32.5554 210.866 32.5853 210.997L30.3369 212.1C29.7301 212.201 25.8403 212.843 24.3381 213.345L24.2286 213.385C24.0396 213.455 23.8904 213.515 23.8008 213.575C22.806 214.167 22.5971 215.301 22.5573 215.582L22.0997 217.107C21.9604 217.569 22.0101 218.03 22.2588 218.452L22.229 218.421ZM23.0547 217.388L23.5422 215.712C23.5422 215.712 23.6417 214.829 24.2883 214.448C24.348 214.418 24.4375 214.378 24.537 214.348L24.6365 214.318C26.1586 213.806 30.506 213.114 30.5458 213.104L30.6851 213.054L42.8221 207.104C43.1007 206.973 43.4389 207.023 43.6578 207.244C48.8707 212.291 51.9945 211.348 53.6957 209.662C54.3921 208.96 54.8398 208.177 55.1283 207.535C55.4267 208.288 55.7152 209.401 55.7252 210.886V211.438V211.498C55.7351 214.238 55.7252 216.314 55.7252 216.314V219.074C55.7252 219.254 55.7252 219.706 55.2974 219.896L26.5864 219.525C24.6962 219.084 23.4626 218.502 23.1144 217.91C23.0149 217.739 22.995 217.589 23.0547 217.398V217.388Z" fill="#543211"/>
<path d="M22.5571 217.238C23.9201 220.057 32.8835 219.947 32.8835 219.947C32.8835 219.947 46.0651 219.947 50.6016 219.947C55.138 219.947 56.2224 219.054 56.2224 219.054L54.3223 218.361H50.1639L44.155 218.251L26.7653 217.709C26.7653 217.709 23.3132 214.759 22.5571 217.238Z" fill="#BCBCBC"/>
<path d="M22.5571 217.237C23.9201 220.057 32.8835 219.946 32.8835 219.946C32.8835 219.946 46.0651 219.946 50.6016 219.946C55.138 219.946 56.2224 219.053 56.2224 219.053V216.294L54.8097 213.776L51.9247 212.732L44.3739 212.873L23.0247 215.662L22.5571 217.227V217.237Z" fill="#D39D67"/>
<path d="M44.0058 206.873C51.2084 213.856 54.0337 208.91 54.8097 206.953C54.9191 206.682 55.2972 206.662 55.4265 206.933C55.7647 207.666 56.2124 208.99 56.2323 210.876C56.2522 213.916 56.2323 216.304 56.2323 216.304C56.2323 216.304 44.5529 215.562 37.5791 217.227C30.6053 218.893 23.0247 215.662 23.0247 215.662C23.0247 215.662 23.1241 214.528 24.0195 213.997C24.9148 213.465 30.4561 212.582 30.4561 212.582L42.5931 206.642C43.0706 206.411 43.6277 206.502 44.0058 206.873Z" fill="#C67D2E"/>
<path d="M31.1425 213.535C31.2917 213.535 31.4111 213.475 31.431 213.465L45.2493 208.067L45.2095 207.957L31.3912 213.355C31.3912 213.355 31.1723 213.475 30.9535 213.365C30.7446 213.264 30.6053 212.993 30.5356 212.572L30.4163 212.592C30.4958 213.064 30.655 213.355 30.8938 213.475C30.9833 213.515 31.0629 213.535 31.1425 213.535Z" fill="#89603B"/>
<path d="M32.3264 215.291C33.2217 215.291 33.8485 215.05 34.1967 214.559C34.4653 214.187 34.5648 213.676 34.4852 213.084C34.4255 212.632 34.2961 212.301 34.2961 212.281L34.1867 212.331C34.1867 212.331 34.6941 213.666 34.1071 214.488C33.739 215 33.0327 215.221 32.008 215.161C28.5758 214.94 24.4373 213.806 24.3975 213.796L24.3677 213.916C24.3677 213.916 28.5659 215.07 32.008 215.281C32.1274 215.281 32.2368 215.291 32.3463 215.291H32.3264Z" fill="#89603B"/>
<path d="M39.4593 216.866C39.6483 214.408 38.0765 213.184 37.3303 212.602C37.1513 212.462 37.002 212.341 36.9722 212.281C36.823 211.94 37.1214 211.237 37.1214 211.227L37.012 211.177C37.012 211.177 36.6936 211.94 36.8627 212.331C36.9025 212.421 37.0418 212.532 37.2607 212.702C37.9969 213.274 39.519 214.468 39.3399 216.866H39.4593Z" fill="#89603B"/>
<path d="M45.498 216.314C45.677 213.084 44.1251 211.488 43.369 210.716C43.18 210.525 43.0308 210.374 43.0009 210.284C42.8418 209.823 43.1402 208.88 43.1502 208.869L43.0308 208.829C43.0308 208.829 42.7124 209.823 42.8815 210.324C42.9213 210.445 43.0606 210.585 43.2795 210.806C44.0157 211.558 45.5477 213.144 45.3686 216.314H45.488H45.498Z" fill="#89603B"/>
<path d="M29.4415 213.395C29.5239 213.395 29.5907 213.327 29.5907 213.244C29.5907 213.161 29.5239 213.094 29.4415 213.094C29.359 213.094 29.2922 213.161 29.2922 213.244C29.2922 213.327 29.359 213.395 29.4415 213.395Z" fill="#89603B"/>
<path d="M29.1727 213.856C29.2551 213.856 29.3219 213.789 29.3219 213.706C29.3219 213.623 29.2551 213.555 29.1727 213.555C29.0902 213.555 29.0234 213.623 29.0234 213.706C29.0234 213.789 29.0902 213.856 29.1727 213.856Z" fill="#89603B"/>
<path d="M30.1478 213.997C30.2302 213.997 30.297 213.929 30.297 213.846C30.297 213.763 30.2302 213.696 30.1478 213.696C30.0653 213.696 29.9985 213.763 29.9985 213.846C29.9985 213.929 30.0653 213.997 30.1478 213.997Z" fill="#89603B"/>
<path d="M30.4761 214.719C30.5585 214.719 30.6254 214.652 30.6254 214.568C30.6254 214.485 30.5585 214.418 30.4761 214.418C30.3937 214.418 30.3269 214.485 30.3269 214.568C30.3269 214.652 30.3937 214.719 30.4761 214.719Z" fill="#89603B"/>
<path d="M31.8091 213.796C31.8916 213.796 31.9584 213.728 31.9584 213.645C31.9584 213.562 31.8916 213.495 31.8091 213.495C31.7267 213.495 31.6599 213.562 31.6599 213.645C31.6599 213.728 31.7267 213.796 31.8091 213.796Z" fill="#89603B"/>
<path d="M31.5008 214.769C31.5832 214.769 31.65 214.702 31.65 214.619C31.65 214.536 31.5832 214.468 31.5008 214.468C31.4184 214.468 31.3516 214.536 31.3516 214.619C31.3516 214.702 31.4184 214.769 31.5008 214.769Z" fill="#89603B"/>
<path d="M31.0132 214.107C31.0957 214.107 31.1625 214.04 31.1625 213.956C31.1625 213.873 31.0957 213.806 31.0132 213.806C30.9308 213.806 30.864 213.873 30.864 213.956C30.864 214.04 30.9308 214.107 31.0132 214.107Z" fill="#89603B"/>
<path d="M32.5552 214.218C32.6376 214.218 32.7045 214.15 32.7045 214.067C32.7045 213.984 32.6376 213.917 32.5552 213.917C32.4728 213.917 32.406 213.984 32.406 214.067C32.406 214.15 32.4728 214.218 32.5552 214.218Z" fill="#89603B"/>
<path d="M33.4207 213.545C33.5031 213.545 33.5699 213.478 33.5699 213.395C33.5699 213.312 33.5031 213.244 33.4207 213.244C33.3383 213.244 33.2715 213.312 33.2715 213.395C33.2715 213.478 33.3383 213.545 33.4207 213.545Z" fill="#89603B"/>
<path d="M32.8636 214.86C32.946 214.86 33.0128 214.792 33.0128 214.709C33.0128 214.626 32.946 214.559 32.8636 214.559C32.7812 214.559 32.7144 214.626 32.7144 214.709C32.7144 214.792 32.7812 214.86 32.8636 214.86Z" fill="#89603B"/>
<path d="M29.6404 214.328C29.7229 214.328 29.7897 214.26 29.7897 214.177C29.7897 214.094 29.7229 214.027 29.6404 214.027C29.558 214.027 29.4912 214.094 29.4912 214.177C29.4912 214.26 29.558 214.328 29.6404 214.328Z" fill="#89603B"/>
<path d="M28.8941 214.368C28.9765 214.368 29.0433 214.301 29.0433 214.217C29.0433 214.134 28.9765 214.067 28.8941 214.067C28.8117 214.067 28.7449 214.134 28.7449 214.217C28.7449 214.301 28.8117 214.368 28.8941 214.368Z" fill="#89603B"/>
<path d="M28.4068 213.957C28.4892 213.957 28.556 213.889 28.556 213.806C28.556 213.723 28.4892 213.656 28.4068 213.656C28.3244 213.656 28.2576 213.723 28.2576 213.806C28.2576 213.889 28.3244 213.957 28.4068 213.957Z" fill="#89603B"/>
<path d="M27.5511 214.057C27.6335 214.057 27.7003 213.989 27.7003 213.906C27.7003 213.823 27.6335 213.756 27.5511 213.756C27.4687 213.756 27.4019 213.823 27.4019 213.906C27.4019 213.989 27.4687 214.057 27.5511 214.057Z" fill="#89603B"/>
<path d="M28.6556 213.465C28.738 213.465 28.8048 213.397 28.8048 213.314C28.8048 213.231 28.738 213.164 28.6556 213.164C28.5732 213.164 28.5063 213.231 28.5063 213.314C28.5063 213.397 28.5732 213.465 28.6556 213.465Z" fill="#89603B"/>
<path d="M27.8199 213.595C27.9023 213.595 27.9691 213.528 27.9691 213.445C27.9691 213.362 27.9023 213.294 27.8199 213.294C27.7375 213.294 27.6707 213.362 27.6707 213.445C27.6707 213.528 27.7375 213.595 27.8199 213.595Z" fill="#89603B"/>
<path d="M27.004 213.736C27.0864 213.736 27.1532 213.668 27.1532 213.585C27.1532 213.502 27.0864 213.435 27.004 213.435C26.9215 213.435 26.8547 213.502 26.8547 213.585C26.8547 213.668 26.9215 213.736 27.004 213.736Z" fill="#89603B"/>
<path d="M26.8348 220.097C26.9044 220.117 26.984 220.127 27.0537 220.147C27.2427 220.187 27.4218 220.217 27.5909 220.248C27.6705 220.258 27.7401 220.278 27.8097 220.288C28.0087 220.318 28.1878 220.348 28.347 220.378C28.4265 220.388 28.4962 220.398 28.5658 220.408C28.8344 220.448 29.0234 220.468 29.103 220.478C29.1329 220.478 29.1528 220.478 29.1528 220.478H54.7897C54.7897 220.478 54.8693 220.478 54.9091 220.478C54.9887 220.478 55.0583 220.468 55.128 220.458C56.2919 220.258 56.2123 219.064 56.2123 219.064C56.2123 219.064 55.9437 219.284 55.128 219.505C55.0583 219.525 54.9887 219.545 54.9091 219.565C54.7499 219.605 54.5709 219.646 54.3719 219.676C54.3023 219.686 54.2326 219.706 54.153 219.716C53.9839 219.746 53.8048 219.766 53.6158 219.796C53.5462 219.796 53.4765 219.816 53.397 219.826C53.2278 219.846 53.0488 219.866 52.8597 219.876C52.7901 219.876 52.7205 219.886 52.6409 219.896C52.4718 219.906 52.2927 219.916 52.1037 219.926C52.034 219.926 51.9544 219.926 51.8848 219.937C51.7157 219.937 51.5366 219.947 51.3476 219.957C51.278 219.957 51.1984 219.957 51.1287 219.957C50.9596 219.957 50.7805 219.957 50.6015 219.957H32.8834C32.8834 219.957 32.6944 219.957 32.3661 219.957C32.2965 219.957 32.2268 219.957 32.1472 219.957C31.9881 219.957 31.809 219.957 31.61 219.937C31.5404 219.937 31.4707 219.937 31.3912 219.937C31.222 219.937 31.043 219.916 30.8539 219.906C30.7843 219.906 30.7047 219.906 30.6351 219.896C30.466 219.886 30.2769 219.876 30.0979 219.856C30.0282 219.856 29.9486 219.846 29.879 219.836C29.6999 219.826 29.5209 219.806 29.3418 219.786C29.2722 219.786 29.1926 219.776 29.1229 219.766C28.9439 219.746 28.7648 219.726 28.5857 219.706C28.5161 219.706 28.4365 219.686 28.3669 219.676C28.1878 219.656 28.0087 219.625 27.8296 219.595C27.76 219.585 27.6804 219.575 27.6108 219.565C27.4317 219.535 27.2526 219.505 27.0736 219.475L26.8547 219.435C24.9148 219.054 23.1241 218.391 22.5769 217.248C22.0994 218.793 24.7655 219.666 26.8547 220.117L26.8348 220.097Z" fill="#89603B"/>
<path d="M54.9292 219.555V220.478C55.0088 220.478 55.0784 220.468 55.1481 220.458V219.495C55.0784 219.515 55.0088 219.535 54.9292 219.555Z" fill="#604229"/>
<path d="M54.1731 219.706V220.488H54.392V219.676C54.3223 219.686 54.2527 219.706 54.1731 219.716V219.706Z" fill="#604229"/>
<path d="M53.407 219.806V220.478H53.6258V219.776C53.5562 219.776 53.4866 219.796 53.407 219.806Z" fill="#604229"/>
<path d="M52.6509 219.876V220.478H52.8697V219.856C52.8001 219.856 52.7305 219.866 52.6509 219.876Z" fill="#604229"/>
<path d="M51.8948 219.927V220.488H52.1136V219.917C52.044 219.917 51.9644 219.917 51.8948 219.927Z" fill="#604229"/>
<path d="M51.1289 219.947V220.488H51.3478V219.947C51.2781 219.947 51.1985 219.947 51.1289 219.947Z" fill="#604229"/>
<path d="M50.5917 219.947H50.3728V220.478H50.5917V219.947Z" fill="#604229"/>
<path d="M49.8356 219.947H49.6167V220.478H49.8356V219.947Z" fill="#604229"/>
<path d="M49.0694 219.947H48.8506V220.478H49.0694V219.947Z" fill="#604229"/>
<path d="M48.3133 219.947H48.0945V220.478H48.3133V219.947Z" fill="#604229"/>
<path d="M47.5572 219.947H47.3384V220.478H47.5572V219.947Z" fill="#604229"/>
<path d="M46.7914 219.947H46.5725V220.478H46.7914V219.947Z" fill="#604229"/>
<path d="M46.0353 219.947H45.8164V220.478H46.0353V219.947Z" fill="#604229"/>
<path d="M45.2792 219.947H45.0603V220.478H45.2792V219.947Z" fill="#604229"/>
<path d="M44.5131 219.947H44.2942V220.478H44.5131V219.947Z" fill="#604229"/>
<path d="M43.7572 219.947H43.5383V220.478H43.7572V219.947Z" fill="#604229"/>
<path d="M43.0011 219.947H42.7822V220.478H43.0011V219.947Z" fill="#604229"/>
<path d="M42.235 219.947H42.0161V220.478H42.235V219.947Z" fill="#604229"/>
<path d="M41.4789 219.947H41.26V220.478H41.4789V219.947Z" fill="#604229"/>
<path d="M40.7228 219.947H40.5039V220.478H40.7228V219.947Z" fill="#604229"/>
<path d="M39.9667 219.947H39.7478V220.478H39.9667V219.947Z" fill="#604229"/>
<path d="M39.2008 219.947H38.9819V220.478H39.2008V219.947Z" fill="#604229"/>
<path d="M38.4447 219.947H38.2258V220.478H38.4447V219.947Z" fill="#604229"/>
<path d="M37.6886 219.947H37.4697V220.478H37.6886V219.947Z" fill="#604229"/>
<path d="M36.9225 219.947H36.7036V220.478H36.9225V219.947Z" fill="#604229"/>
<path d="M36.1664 219.947H35.9475V220.478H36.1664V219.947Z" fill="#604229"/>
<path d="M35.4105 219.947H35.1917V220.478H35.4105V219.947Z" fill="#604229"/>
<path d="M34.6444 219.947H34.4255V220.478H34.6444V219.947Z" fill="#604229"/>
<path d="M33.8883 219.947H33.6694V220.478H33.8883V219.947Z" fill="#604229"/>
<path d="M33.1322 219.947H32.9133V220.478H33.1322V219.947Z" fill="#604229"/>
<path d="M32.1472 219.947V220.488H32.3661V219.957C32.2964 219.957 32.2268 219.957 32.1472 219.957V219.947Z" fill="#604229"/>
<path d="M31.3914 219.917V220.478H31.6102V219.927C31.5406 219.927 31.4709 219.927 31.3914 219.927V219.917Z" fill="#604229"/>
<path d="M30.6353 219.876V220.478H30.8541V219.886C30.7845 219.886 30.7049 219.886 30.6353 219.876Z" fill="#604229"/>
<path d="M29.8691 219.826V220.478H30.088V219.836C30.0184 219.836 29.9388 219.826 29.8691 219.816V219.826Z" fill="#604229"/>
<path d="M29.113 219.756V220.478H29.1628H29.3319V219.776C29.2623 219.776 29.1827 219.766 29.113 219.756Z" fill="#604229"/>
<path d="M28.3569 219.666V220.378C28.4365 220.388 28.5062 220.398 28.5758 220.408V219.696C28.5062 219.696 28.4266 219.676 28.3569 219.666Z" fill="#604229"/>
<path d="M27.5911 219.555V220.247C27.6707 220.258 27.7403 220.278 27.8099 220.288V219.585C27.7403 219.575 27.6607 219.565 27.5911 219.555Z" fill="#604229"/>
<path d="M26.835 219.425V220.107C26.9046 220.127 26.9842 220.137 27.0538 220.157V219.475L26.835 219.435V219.425Z" fill="#604229"/>
<path d="M42.3263 208.168L42.3349 208.162C42.4872 208.074 42.5393 207.877 42.4514 207.724L41.8645 206.699C41.7766 206.545 41.5819 206.492 41.4296 206.581L41.421 206.586C41.2687 206.675 41.2165 206.871 41.3045 207.025L41.8914 208.05C41.9793 208.204 42.174 208.256 42.3263 208.168Z" fill="#89603B"/>
<path d="M41.1493 208.726L41.1579 208.721C41.3102 208.632 41.3623 208.436 41.2744 208.282L40.6875 207.257C40.5996 207.103 40.4049 207.051 40.2526 207.139L40.244 207.144C40.0917 207.233 40.0395 207.429 40.1275 207.583L40.7144 208.608C40.8023 208.762 40.997 208.815 41.1493 208.726Z" fill="#89603B"/>
<path d="M39.9686 209.298L39.9772 209.293C40.1295 209.204 40.1817 209.008 40.0938 208.854L39.5068 207.829C39.4189 207.675 39.2242 207.623 39.0719 207.711L39.0633 207.716C38.9111 207.805 38.8589 208.001 38.9468 208.155L39.5337 209.18C39.6217 209.334 39.8164 209.386 39.9686 209.298Z" fill="#89603B"/>
<path d="M38.8068 209.865L38.8154 209.86C38.9676 209.771 39.0198 209.574 38.9319 209.421L38.3449 208.396C38.257 208.242 38.0623 208.189 37.9101 208.278L37.9015 208.283C37.7492 208.372 37.697 208.568 37.7849 208.722L38.3719 209.747C38.4598 209.901 38.6545 209.953 38.8068 209.865Z" fill="#89603B"/>
<path d="M37.6297 210.423L37.6384 210.418C37.7906 210.329 37.8428 210.133 37.7549 209.979L37.1679 208.954C37.08 208.8 36.8853 208.748 36.7331 208.836L36.7244 208.841C36.5722 208.93 36.52 209.126 36.6079 209.28L37.1949 210.305C37.2828 210.459 37.4775 210.512 37.6297 210.423Z" fill="#89603B"/>
<path d="M36.4576 210.99L36.4662 210.985C36.6185 210.896 36.6707 210.7 36.5828 210.546L35.9958 209.521C35.9079 209.367 35.7132 209.315 35.5609 209.403L35.5523 209.408C35.4001 209.497 35.3479 209.693 35.4358 209.847L36.0228 210.872C36.1107 211.026 36.3054 211.078 36.4576 210.99Z" fill="#89603B"/>
<path d="M35.2906 211.548L35.2993 211.543C35.4515 211.454 35.5037 211.258 35.4158 211.104L34.8288 210.079C34.7409 209.925 34.5462 209.873 34.394 209.961L34.3853 209.966C34.2331 210.055 34.1809 210.251 34.2688 210.405L34.8558 211.43C34.9437 211.584 35.1384 211.637 35.2906 211.548Z" fill="#89603B"/>
<path d="M34.11 212.12L34.1186 212.115C34.2709 212.026 34.323 211.83 34.2351 211.676L33.6482 210.651C33.5603 210.497 33.3656 210.445 33.2133 210.533L33.2047 210.538C33.0524 210.627 33.0002 210.823 33.0881 210.977L33.6751 212.002C33.763 212.156 33.9577 212.209 34.11 212.12Z" fill="#89603B"/>
<path d="M56.2124 211.548L56.2522 211.438C54.1331 210.605 53.4368 209.231 53.4268 209.221L53.3174 209.271C53.3472 209.331 54.0337 210.696 56.2024 211.548H56.2124Z" fill="#89603B"/>
<path d="M51.7656 218.301H51.6462V218.371C51.6959 218.371 51.7457 218.371 51.7954 218.361V218.421C51.6661 218.441 51.5168 218.441 51.3975 218.441V218.371C51.3975 218.371 51.4969 218.371 51.5566 218.371V218.301H51.4472V218.07H51.7556V218.14H51.5367V218.231H51.7656V218.301ZM51.4969 218.482H51.5865V218.592H51.9546V218.662H51.4969V218.472V218.482ZM51.8451 218.03H51.9347V218.522H51.8451V218.03Z" fill="black"/>
<path d="M52.3922 218.14H52.2629C52.2629 218.221 52.3126 218.291 52.4121 218.321L52.3723 218.391C52.3027 218.371 52.2529 218.321 52.2231 218.271C52.1932 218.331 52.1435 218.391 52.0639 218.411L52.0142 218.341C52.1236 218.311 52.1733 218.221 52.1733 218.14H52.044V218.07H52.3922V218.14ZM52.3226 218.421C52.4618 218.421 52.5414 218.472 52.5414 218.542C52.5414 218.622 52.4618 218.672 52.3226 218.672C52.1833 218.672 52.1037 218.622 52.1037 218.542C52.1037 218.461 52.1932 218.421 52.3226 218.421ZM52.3226 218.602C52.4021 218.602 52.4519 218.582 52.4519 218.542C52.4519 218.502 52.4121 218.492 52.3226 218.492C52.233 218.492 52.1932 218.512 52.1932 218.542C52.1932 218.582 52.243 218.602 52.3226 218.602ZM52.4419 218.02H52.5315V218.171H52.621V218.241H52.5315V218.401H52.4419V218.02Z" fill="black"/>
<path d="M53.2478 218.602H52.6609V218.522H52.9096V218.401H52.7106V218.331H52.8002V218.141H52.7106V218.07H53.2081V218.141H53.1185V218.331H53.2081V218.401H53.0091V218.522H53.2578V218.602H53.2478ZM53.019 218.341V218.151H52.8798V218.341H53.019Z" fill="black"/>
<path d="M53.2976 218.321H53.8846V218.391H53.6359V218.451H53.8149V218.672H53.7254V218.532H53.3672V218.461H53.5463V218.401H53.2976V218.331V218.321ZM53.8547 218.221L53.8249 218.291C53.7154 218.271 53.6359 218.231 53.5961 218.16C53.5563 218.221 53.4767 218.271 53.3672 218.291L53.3374 218.221C53.4767 218.201 53.5563 218.13 53.5563 218.06V218.04H53.6458V218.06C53.6458 218.13 53.7254 218.201 53.8647 218.221H53.8547Z" fill="black"/>
<path d="M100.92 217.087L100.463 215.562C100.423 215.281 100.214 214.147 99.2193 213.555C99.1198 213.495 98.9706 213.435 98.7915 213.365L98.6821 213.325C97.17 212.813 93.2901 212.181 92.6832 212.08L90.4349 210.977C90.4648 210.846 90.4548 210.716 90.425 210.585C90.3653 210.365 90.226 210.184 90.037 210.074C89.8479 209.963 89.6191 209.933 89.4003 209.993C89.3505 210.003 89.3008 210.024 89.261 210.044V210.024C89.2013 209.803 89.062 209.622 88.873 209.512C88.6243 209.371 88.3358 209.371 88.097 209.482C88.097 209.472 88.097 209.462 88.097 209.452C88.0373 209.231 87.8981 209.05 87.7091 208.94C87.52 208.83 87.2912 208.799 87.0724 208.86C87.0226 208.87 86.9729 208.89 86.9331 208.91V208.89C86.8734 208.669 86.7341 208.488 86.5451 208.378C86.3561 208.268 86.1273 208.238 85.9084 208.298C85.8587 208.308 85.8089 208.328 85.7592 208.348C85.7094 208.127 85.5702 207.937 85.3612 207.816C85.1722 207.706 84.9434 207.676 84.7245 207.736C84.6748 207.746 84.6251 207.766 84.5853 207.786C84.5853 207.786 84.5853 207.766 84.5853 207.756C84.5256 207.535 84.3863 207.355 84.1973 207.244C84.0083 207.134 83.7794 207.104 83.5606 207.164C83.5108 207.174 83.4611 207.194 83.4114 207.214C83.3616 206.993 83.2223 206.803 83.0134 206.672C82.7647 206.532 82.4762 206.532 82.2374 206.642C82.1877 206.422 82.0484 206.231 81.8395 206.1C81.6505 205.99 81.4217 205.96 81.2128 206.02C81.0635 206.06 80.9342 206.141 80.8347 206.241L80.6457 206.151C79.9792 205.83 79.1833 205.96 78.6461 206.472C76.0993 208.94 72.5378 211.358 70.001 208.86C69.3245 208.177 68.9066 207.335 68.6778 206.743C68.5485 206.422 68.25 206.211 67.9118 206.201H67.8919C67.5636 206.201 67.2652 206.391 67.1259 206.692C66.7478 207.515 66.2902 208.9 66.2703 210.846V211.458C66.2504 214.197 66.2703 216.274 66.2703 216.284V219.003C66.2305 219.585 66.4991 220.729 67.7825 220.95C67.8621 220.96 67.9516 220.97 68.0511 220.98H93.8472L96.2845 220.589C97.1501 220.408 97.8862 220.187 98.5229 219.957H98.5329L98.6324 219.916C98.6324 219.916 98.6523 219.916 98.6622 219.906L98.7219 219.886C99.7665 219.465 100.463 218.973 100.791 218.411C101.03 217.99 101.09 217.529 100.95 217.067L100.92 217.087ZM99.8859 217.9C99.5377 218.492 98.314 219.064 96.4139 219.515L67.7029 219.886C67.2751 219.696 67.2652 219.244 67.2751 219.064V216.304C67.2751 216.304 67.2552 214.228 67.2751 211.488V210.886C67.285 209.401 67.5736 208.288 67.872 207.535C68.1605 208.177 68.6181 208.96 69.3046 209.662C71.0057 211.348 74.1295 212.301 79.3425 207.244C79.5713 207.024 79.8996 206.973 80.1781 207.104L92.3052 213.044L92.4445 213.094C92.4445 213.094 96.8317 213.796 98.3538 214.308L98.4533 214.338C98.5528 214.378 98.6423 214.408 98.702 214.438C99.3586 214.83 99.4481 215.702 99.4481 215.702L99.9356 217.378C99.9953 217.569 99.9754 217.719 99.8759 217.89L99.8859 217.9Z" fill="#543211"/>
<path d="M100.443 217.238C99.0799 220.057 90.1165 219.947 90.1165 219.947H72.3984C67.862 219.947 66.7776 219.054 66.7776 219.054L68.6777 218.361H72.8361L78.845 218.251L96.2347 217.709C96.2347 217.709 99.6868 214.759 100.443 217.238Z" fill="#BCBCBC"/>
<path d="M100.443 217.237C99.0799 220.057 90.1165 219.946 90.1165 219.946H72.3984C67.862 219.946 66.7776 219.053 66.7776 219.053V216.294L68.1903 213.776L71.0753 212.732L78.6261 212.873L99.9852 215.662L100.453 217.227L100.443 217.237Z" fill="#D39D67"/>
<path d="M78.9942 206.873C71.7916 213.856 68.9662 208.91 68.1902 206.953C68.0808 206.682 67.7028 206.662 67.5735 206.933C67.2352 207.666 66.7875 208.99 66.7676 210.876C66.7477 213.916 66.7676 216.304 66.7676 216.304C66.7676 216.304 78.447 215.562 85.4208 217.227C92.3946 218.893 99.9753 215.662 99.9753 215.662C99.9753 215.662 99.8758 214.528 98.9804 213.997C98.0851 213.465 92.5439 212.582 92.5439 212.582L80.4068 206.642C79.9293 206.411 79.3722 206.502 78.9942 206.873Z" fill="#C67D2E"/>
<path d="M91.8673 213.535C91.7181 213.535 91.5987 213.475 91.5788 213.465L77.7605 208.067L77.8003 207.957L91.6186 213.355C91.6186 213.355 91.8374 213.475 92.0563 213.365C92.2652 213.264 92.4045 212.993 92.4741 212.572L92.5935 212.592C92.5139 213.064 92.3548 213.355 92.116 213.475C92.0265 213.515 91.9469 213.535 91.8673 213.535Z" fill="#89603B"/>
<path d="M90.6735 215.291C89.7781 215.291 89.1514 215.05 88.8032 214.559C88.5346 214.187 88.4351 213.676 88.5147 213.084C88.5744 212.632 88.7037 212.301 88.7037 212.281L88.8131 212.331C88.8131 212.331 88.3058 213.666 88.8927 214.488C89.2608 215 89.9671 215.221 90.9918 215.161C94.424 214.94 98.5625 213.806 98.6023 213.796L98.6322 213.916C98.6322 213.916 94.434 215.07 90.9918 215.281C90.8724 215.281 90.763 215.291 90.6536 215.291H90.6735Z" fill="#89603B"/>
<path d="M83.5405 216.866C83.3515 214.408 84.9234 213.184 85.6695 212.602C85.8486 212.462 85.9978 212.341 86.0276 212.281C86.1769 211.94 85.8784 211.237 85.8784 211.227L85.9878 211.177C85.9878 211.177 86.3062 211.94 86.1371 212.331C86.0973 212.421 85.958 212.532 85.7391 212.702C85.003 213.274 83.4809 214.468 83.6599 216.866H83.5405Z" fill="#89603B"/>
<path d="M77.5021 216.314C77.323 213.084 78.8749 211.488 79.631 210.716C79.82 210.525 79.9693 210.374 79.9991 210.284C80.1583 209.823 79.8598 208.88 79.8499 208.869L79.9693 208.829C79.9693 208.829 80.2876 209.823 80.1185 210.324C80.0787 210.445 79.9394 210.585 79.7205 210.806C78.9844 211.558 77.4523 213.144 77.6314 216.314H77.512H77.5021Z" fill="#89603B"/>
<path d="M93.5587 213.395C93.6411 213.395 93.7079 213.327 93.7079 213.244C93.7079 213.161 93.6411 213.094 93.5587 213.094C93.4762 213.094 93.4094 213.161 93.4094 213.244C93.4094 213.327 93.4762 213.395 93.5587 213.395Z" fill="#89603B"/>
<path d="M93.8272 213.856C93.9096 213.856 93.9764 213.789 93.9764 213.706C93.9764 213.623 93.9096 213.555 93.8272 213.555C93.7448 213.555 93.678 213.623 93.678 213.706C93.678 213.789 93.7448 213.856 93.8272 213.856Z" fill="#89603B"/>
<path d="M92.8621 213.997C92.9445 213.997 93.0113 213.929 93.0113 213.846C93.0113 213.763 92.9445 213.696 92.8621 213.696C92.7797 213.696 92.7129 213.763 92.7129 213.846C92.7129 213.929 92.7797 213.997 92.8621 213.997Z" fill="#89603B"/>
<path d="M92.524 214.719C92.6064 214.719 92.6732 214.652 92.6732 214.568C92.6732 214.485 92.6064 214.418 92.524 214.418C92.4416 214.418 92.3748 214.485 92.3748 214.568C92.3748 214.652 92.4416 214.719 92.524 214.719Z" fill="#89603B"/>
<path d="M91.191 213.796C91.2734 213.796 91.3402 213.728 91.3402 213.645C91.3402 213.562 91.2734 213.495 91.191 213.495C91.1086 213.495 91.0417 213.562 91.0417 213.645C91.0417 213.728 91.1086 213.796 91.191 213.796Z" fill="#89603B"/>
<path d="M91.4993 214.769C91.5817 214.769 91.6486 214.702 91.6486 214.619C91.6486 214.536 91.5817 214.468 91.4993 214.468C91.4169 214.468 91.3501 214.536 91.3501 214.619C91.3501 214.702 91.4169 214.769 91.4993 214.769Z" fill="#89603B"/>
<path d="M91.9869 214.107C92.0693 214.107 92.1361 214.04 92.1361 213.956C92.1361 213.873 92.0693 213.806 91.9869 213.806C91.9045 213.806 91.8376 213.873 91.8376 213.956C91.8376 214.04 91.9045 214.107 91.9869 214.107Z" fill="#89603B"/>
<path d="M90.4546 214.218C90.5371 214.218 90.6039 214.15 90.6039 214.067C90.6039 213.984 90.5371 213.917 90.4546 213.917C90.3722 213.917 90.3054 213.984 90.3054 214.067C90.3054 214.15 90.3722 214.218 90.4546 214.218Z" fill="#89603B"/>
<path d="M89.5892 213.545C89.6716 213.545 89.7384 213.478 89.7384 213.395C89.7384 213.312 89.6716 213.244 89.5892 213.244C89.5068 213.244 89.4399 213.312 89.4399 213.395C89.4399 213.478 89.5068 213.545 89.5892 213.545Z" fill="#89603B"/>
<path d="M90.1463 214.86C90.2287 214.86 90.2955 214.792 90.2955 214.709C90.2955 214.626 90.2287 214.559 90.1463 214.559C90.0639 214.559 89.9971 214.626 89.9971 214.709C89.9971 214.792 90.0639 214.86 90.1463 214.86Z" fill="#89603B"/>
<path d="M93.3597 214.328C93.4421 214.328 93.5089 214.26 93.5089 214.177C93.5089 214.094 93.4421 214.027 93.3597 214.027C93.2773 214.027 93.2104 214.094 93.2104 214.177C93.2104 214.26 93.2773 214.328 93.3597 214.328Z" fill="#89603B"/>
<path d="M94.1058 214.368C94.1882 214.368 94.255 214.301 94.255 214.217C94.255 214.134 94.1882 214.067 94.1058 214.067C94.0234 214.067 93.9565 214.134 93.9565 214.217C93.9565 214.301 94.0234 214.368 94.1058 214.368Z" fill="#89603B"/>
<path d="M94.6031 213.957C94.6855 213.957 94.7523 213.889 94.7523 213.806C94.7523 213.723 94.6855 213.656 94.6031 213.656C94.5207 213.656 94.4539 213.723 94.4539 213.806C94.4539 213.889 94.5207 213.957 94.6031 213.957Z" fill="#89603B"/>
<path d="M95.4488 214.057C95.5312 214.057 95.598 213.989 95.598 213.906C95.598 213.823 95.5312 213.756 95.4488 213.756C95.3664 213.756 95.2996 213.823 95.2996 213.906C95.2996 213.989 95.3664 214.057 95.4488 214.057Z" fill="#89603B"/>
<path d="M94.3445 213.465C94.427 213.465 94.4938 213.397 94.4938 213.314C94.4938 213.231 94.427 213.164 94.3445 213.164C94.2621 213.164 94.1953 213.231 94.1953 213.314C94.1953 213.397 94.2621 213.465 94.3445 213.465Z" fill="#89603B"/>
<path d="M95.1802 213.595C95.2626 213.595 95.3295 213.528 95.3295 213.445C95.3295 213.362 95.2626 213.294 95.1802 213.294C95.0978 213.294 95.031 213.362 95.031 213.445C95.031 213.528 95.0978 213.595 95.1802 213.595Z" fill="#89603B"/>
<path d="M95.9959 213.736C96.0783 213.736 96.1451 213.668 96.1451 213.585C96.1451 213.502 96.0783 213.435 95.9959 213.435C95.9135 213.435 95.8467 213.502 95.8467 213.585C95.8467 213.668 95.9135 213.736 95.9959 213.736Z" fill="#89603B"/>
<path d="M96.1651 220.097C96.0954 220.117 96.0158 220.127 95.9462 220.147C95.7572 220.187 95.5781 220.217 95.409 220.248C95.3294 220.258 95.2598 220.278 95.1901 220.288C94.9912 220.318 94.8121 220.348 94.6529 220.378C94.5733 220.388 94.5037 220.398 94.434 220.408C94.1654 220.448 93.9764 220.468 93.8968 220.478C93.867 220.478 93.8471 220.478 93.8471 220.478H68.2101C68.2101 220.478 68.1306 220.478 68.0908 220.478C68.0112 220.478 67.9415 220.468 67.8719 220.458C66.7079 220.258 66.7875 219.064 66.7875 219.064C66.7875 219.064 67.0561 219.284 67.8719 219.505C67.9415 219.525 68.0112 219.545 68.0908 219.565C68.2499 219.605 68.429 219.646 68.628 219.676C68.6976 219.686 68.7673 219.706 68.8468 219.716C69.016 219.746 69.195 219.766 69.3841 219.796C69.4537 219.796 69.5233 219.816 69.6029 219.826C69.772 219.846 69.9511 219.866 70.1401 219.876C70.2098 219.876 70.2794 219.886 70.359 219.896C70.5281 219.906 70.7072 219.916 70.8962 219.926C70.9658 219.926 71.0454 219.926 71.1151 219.937C71.2842 219.937 71.4633 219.947 71.6523 219.957C71.7219 219.957 71.8015 219.957 71.8711 219.957C72.0403 219.957 72.2193 219.957 72.3984 219.957H90.1165C90.1165 219.957 90.3055 219.957 90.6338 219.957C90.7034 219.957 90.773 219.957 90.8526 219.957C91.0118 219.957 91.1909 219.957 91.3898 219.937C91.4595 219.937 91.5291 219.937 91.6087 219.937C91.7778 219.937 91.9569 219.916 92.1459 219.906C92.2156 219.906 92.2952 219.906 92.3648 219.896C92.5339 219.886 92.7229 219.876 92.902 219.856C92.9716 219.856 93.0512 219.846 93.1209 219.836C93.2999 219.826 93.479 219.806 93.6581 219.786C93.7277 219.786 93.8073 219.776 93.8769 219.766C94.056 219.746 94.2351 219.726 94.4142 219.706C94.4838 219.706 94.5634 219.686 94.633 219.676C94.8121 219.656 94.9912 219.625 95.1702 219.595C95.2399 219.585 95.3194 219.575 95.3891 219.565C95.5682 219.535 95.7472 219.505 95.9263 219.475L96.1452 219.435C98.0851 219.054 99.8758 218.391 100.423 217.248C100.9 218.793 98.2343 219.666 96.1452 220.117L96.1651 220.097Z" fill="#89603B"/>
<path d="M68.0709 219.555V220.478C67.9913 220.478 67.9217 220.468 67.8521 220.458V219.495C67.9217 219.515 67.9913 219.535 68.0709 219.555Z" fill="#604229"/>
<path d="M68.837 219.706V220.488H68.6182V219.676C68.6878 219.686 68.7574 219.706 68.837 219.716V219.706Z" fill="#604229"/>
<path d="M69.5929 219.806V220.478H69.374V219.776C69.4437 219.776 69.5133 219.796 69.5929 219.806Z" fill="#604229"/>
<path d="M70.349 219.876V220.478H70.1301V219.856C70.1998 219.856 70.2694 219.866 70.349 219.876Z" fill="#604229"/>
<path d="M71.1151 219.927V220.488H70.8962V219.917C70.9659 219.917 71.0455 219.917 71.1151 219.927Z" fill="#604229"/>
<path d="M71.8712 219.947V220.488H71.6523V219.947C71.722 219.947 71.8016 219.947 71.8712 219.947Z" fill="#604229"/>
<path d="M72.6273 219.947H72.4084V220.478H72.6273V219.947Z" fill="#604229"/>
<path d="M73.3834 219.947H73.1646V220.478H73.3834V219.947Z" fill="#604229"/>
<path d="M74.1493 219.947H73.9304V220.478H74.1493V219.947Z" fill="#604229"/>
<path d="M74.9054 219.947H74.6865V220.478H74.9054V219.947Z" fill="#604229"/>
<path d="M75.6615 219.947H75.4426V220.478H75.6615V219.947Z" fill="#604229"/>
<path d="M76.4276 219.947H76.2087V220.478H76.4276V219.947Z" fill="#604229"/>
<path d="M77.1837 219.947H76.9648V220.478H77.1837V219.947Z" fill="#604229"/>
<path d="M77.9396 219.947H77.7207V220.478H77.9396V219.947Z" fill="#604229"/>
<path d="M78.7057 219.947H78.4868V220.478H78.7057V219.947Z" fill="#604229"/>
<path d="M79.4618 219.947H79.2429V220.478H79.4618V219.947Z" fill="#604229"/>
<path d="M80.2179 219.947H79.999V220.478H80.2179V219.947Z" fill="#604229"/>
<path d="M80.984 219.947H80.7651V220.478H80.984V219.947Z" fill="#604229"/>
<path d="M81.7399 219.947H81.521V220.478H81.7399V219.947Z" fill="#604229"/>
<path d="M82.496 219.947H82.2771V220.478H82.496V219.947Z" fill="#604229"/>
<path d="M83.2621 219.947H83.0432V220.478H83.2621V219.947Z" fill="#604229"/>
<path d="M84.0182 219.947H83.7993V220.478H84.0182V219.947Z" fill="#604229"/>
<path d="M84.7743 219.947H84.5554V220.478H84.7743V219.947Z" fill="#604229"/>
<path d="M85.5402 219.947H85.3213V220.478H85.5402V219.947Z" fill="#604229"/>
<path d="M86.2963 219.947H86.0774V220.478H86.2963V219.947Z" fill="#604229"/>
<path d="M87.0524 219.947H86.8335V220.478H87.0524V219.947Z" fill="#604229"/>
<path d="M87.8185 219.947H87.5996V220.478H87.8185V219.947Z" fill="#604229"/>
<path d="M88.5746 219.947H88.3557V220.478H88.5746V219.947Z" fill="#604229"/>
<path d="M89.3307 219.947H89.1118V220.478H89.3307V219.947Z" fill="#604229"/>
<path d="M90.0965 219.947H89.8777V220.478H90.0965V219.947Z" fill="#604229"/>
<path d="M90.8527 219.947V220.488H90.6338V219.957C90.7034 219.957 90.7731 219.957 90.8527 219.957V219.947Z" fill="#604229"/>
<path d="M91.6088 219.917V220.478H91.3899V219.927C91.4595 219.927 91.5292 219.927 91.6088 219.927V219.917Z" fill="#604229"/>
<path d="M92.3749 219.876V220.478H92.156V219.886C92.2256 219.886 92.3052 219.886 92.3749 219.876Z" fill="#604229"/>
<path d="M93.1307 219.826V220.478H92.9119V219.836C92.9815 219.836 93.0611 219.826 93.1307 219.816V219.826Z" fill="#604229"/>
<path d="M93.8868 219.756V220.478H93.8371H93.668V219.776C93.7376 219.776 93.8172 219.766 93.8868 219.756Z" fill="#604229"/>
<path d="M94.6429 219.666V220.378C94.5633 220.388 94.4937 220.398 94.4241 220.408V219.696C94.4937 219.696 94.5733 219.676 94.6429 219.666Z" fill="#604229"/>
<path d="M95.4091 219.555V220.247C95.3295 220.258 95.2598 220.278 95.1902 220.288V219.585C95.2598 219.575 95.3394 219.565 95.4091 219.555Z" fill="#604229"/>
<path d="M96.1652 219.425V220.107C96.0955 220.127 96.0159 220.137 95.9463 220.157V219.475L96.1652 219.435V219.425Z" fill="#604229"/>
<path d="M81.5922 206.572L81.5836 206.567C81.4313 206.478 81.2366 206.53 81.1487 206.684L80.5617 207.709C80.4738 207.863 80.526 208.059 80.6783 208.148L80.6869 208.153C80.8391 208.242 81.0338 208.189 81.1217 208.035L81.7087 207.01C81.7966 206.857 81.7444 206.66 81.5922 206.572Z" fill="#89603B"/>
<path d="M82.7631 207.147L82.7545 207.142C82.6022 207.054 82.4075 207.106 82.3196 207.26L81.7326 208.285C81.6447 208.439 81.6969 208.635 81.8492 208.724L81.8578 208.729C82.01 208.817 82.2047 208.765 82.2926 208.611L82.8796 207.586C82.9675 207.432 82.9153 207.236 82.7631 207.147Z" fill="#89603B"/>
<path d="M83.9389 207.714L83.9302 207.709C83.778 207.62 83.5833 207.673 83.4954 207.827L82.9084 208.852C82.8205 209.006 82.8727 209.202 83.0249 209.291L83.0336 209.296C83.1858 209.384 83.3805 209.332 83.4684 209.178L84.0554 208.153C84.1433 207.999 84.0911 207.803 83.9389 207.714Z" fill="#89603B"/>
<path d="M85.1049 208.271L85.0963 208.266C84.944 208.177 84.7493 208.23 84.6614 208.383L84.0744 209.409C83.9865 209.562 84.0387 209.759 84.191 209.847L84.1996 209.852C84.3518 209.941 84.5465 209.888 84.6344 209.735L85.2214 208.709C85.3093 208.556 85.2571 208.359 85.1049 208.271Z" fill="#89603B"/>
<path d="M86.2755 208.846L86.2669 208.841C86.1146 208.753 85.9199 208.805 85.832 208.959L85.2451 209.984C85.1572 210.138 85.2093 210.334 85.3616 210.423L85.3702 210.428C85.5225 210.517 85.7172 210.464 85.8051 210.31L86.392 209.285C86.48 209.131 86.4278 208.935 86.2755 208.846Z" fill="#89603B"/>
<path d="M87.4428 209.408L87.4341 209.403C87.2819 209.315 87.0872 209.367 86.9993 209.521L86.4123 210.546C86.3244 210.7 86.3766 210.896 86.5288 210.985L86.5375 210.99C86.6897 211.078 86.8844 211.026 86.9723 210.872L87.5593 209.847C87.6472 209.693 87.595 209.497 87.4428 209.408Z" fill="#89603B"/>
<path d="M88.6137 209.974L88.605 209.969C88.4528 209.88 88.2581 209.933 88.1702 210.086L87.5832 211.112C87.4953 211.265 87.5475 211.462 87.6997 211.55L87.7084 211.555C87.8606 211.644 88.0553 211.591 88.1432 211.438L88.7302 210.412C88.8181 210.259 88.7659 210.063 88.6137 209.974Z" fill="#89603B"/>
<path d="M89.7894 210.541L89.7808 210.536C89.6286 210.447 89.4339 210.499 89.346 210.653L88.759 211.678C88.6711 211.832 88.7233 212.028 88.8755 212.117L88.8841 212.122C89.0364 212.211 89.2311 212.158 89.319 212.004L89.906 210.979C89.9939 210.826 89.9417 210.629 89.7894 210.541Z" fill="#89603B"/>
<path d="M66.7876 211.548L66.7478 211.438C68.8668 210.605 69.5632 209.231 69.5731 209.221L69.6826 209.271C69.6527 209.331 68.9663 210.696 66.7975 211.548H66.7876Z" fill="#89603B"/>
<path d="M69.4936 218.301H69.3742V218.371C69.4239 218.371 69.4737 218.371 69.5234 218.361V218.421C69.3941 218.441 69.2449 218.441 69.1255 218.441V218.371C69.1255 218.371 69.225 218.371 69.2847 218.371V218.301H69.1752V218.07H69.4836V218.14H69.2648V218.231H69.4936V218.301ZM69.225 218.482H69.3145V218.592H69.6826V218.662H69.225V218.472V218.482ZM69.5732 218.03H69.6627V218.522H69.5732V218.03Z" fill="black"/>
<path d="M70.1202 218.14H69.9909C69.9909 218.221 70.0406 218.291 70.1401 218.321L70.1003 218.391C70.0307 218.371 69.9809 218.321 69.9511 218.271C69.9213 218.331 69.8715 218.391 69.7919 218.411L69.7422 218.341C69.8516 218.311 69.9014 218.221 69.9014 218.14H69.772V218.07H70.1202V218.14ZM70.0506 218.421C70.1899 218.421 70.2694 218.472 70.2694 218.542C70.2694 218.622 70.1899 218.672 70.0506 218.672C69.9113 218.672 69.8317 218.622 69.8317 218.542C69.8317 218.461 69.9213 218.421 70.0506 218.421ZM70.0506 218.602C70.1302 218.602 70.1799 218.582 70.1799 218.542C70.1799 218.502 70.1401 218.492 70.0506 218.492C69.961 218.492 69.9213 218.512 69.9213 218.542C69.9213 218.582 69.971 218.602 70.0506 218.602ZM70.17 218.02H70.2595V218.171H70.349V218.241H70.2595V218.401H70.17V218.02Z" fill="black"/>
<path d="M70.9759 218.602H70.3889V218.522H70.6376V218.401H70.4387V218.331H70.5282V218.141H70.4387V218.07H70.9361V218.141H70.8465V218.331H70.9361V218.401H70.7371V218.522H70.9858V218.602H70.9759ZM70.7471 218.341V218.151H70.6078V218.341H70.7471Z" fill="black"/>
<path d="M71.0256 218.321H71.6126V218.391H71.3639V218.451H71.543V218.672H71.4534V218.532H71.0953V218.461H71.2743V218.401H71.0256V218.331V218.321ZM71.5827 218.221L71.5529 218.291C71.4435 218.271 71.3639 218.231 71.3241 218.16C71.2843 218.221 71.2047 218.271 71.0953 218.291L71.0654 218.221C71.2047 218.201 71.2843 218.13 71.2843 218.06V218.04H71.3738V218.06C71.3738 218.13 71.4534 218.201 71.5927 218.221H71.5827Z" fill="black"/>
</g>
<defs>
<clipPath id="clip0_775_9556">
<rect width="79" height="15" fill="white" transform="translate(22 206)"/>
</clipPath>
</defs>
</svg>
