<svg width="122" height="225" viewBox="0 0 122 225" fill="none" xmlns="http://www.w3.org/2000/svg">
<g clip-path="url(#clip0_775_10741)">
<path d="M54.8201 210.476H54.7804C54.2248 210.476 53.8378 210.445 53.183 210.987C51.5857 212.292 48.6589 215.836 44.6308 212.302L43.9164 211.67C43.6386 211.399 43.1922 210.476 43.1426 209.843C42.9838 209.582 42.7259 209.442 42.4282 209.442C42.3885 209.442 42.3489 209.442 42.2993 209.452C42.2496 209.462 42.21 209.472 42.1604 209.492L41.3766 209.773L41.2972 209.803L41.1682 209.853L37.6362 211.279C37.5072 211.339 37.2989 211.489 37.0111 211.7C35.6321 212.694 33.1319 213.276 28.5879 213.326C23.7958 213.376 23.0815 216.077 23.0517 216.197L22.8731 216.93L22.764 217.391L22.5557 218.255L56.7845 221.868L56.8639 217.673V217.632C56.844 215.514 56.6158 210.526 54.8201 210.476ZM32.3481 218.807C29.1832 218.435 26.296 217.893 23.7462 217.181L23.9149 216.448C23.9149 216.448 23.9248 216.408 23.9347 216.388C24.024 216.127 24.7681 214.28 28.5978 214.24C33.3799 214.189 36.0289 213.497 37.4973 212.473C37.5271 212.453 37.5568 212.433 37.5866 212.423L41.5651 210.686L42.4084 210.375C42.4084 210.375 42.6763 211.76 43.7279 212.724L44.0355 212.995C48.639 217.02 52.1115 213.035 53.7486 211.69C54.2049 211.329 54.5423 211.389 54.7804 211.389H54.7903C55.3657 211.399 55.9313 214.471 55.961 217.703L56.0305 218.676C53.7684 218.927 42.9441 220.041 32.3481 218.807Z" fill="#3D2A1D"/>
<path d="M56.963 219.038C56.963 219.038 56.963 218.998 56.9531 218.977L56.8638 217.673V217.632C56.844 215.515 56.6158 210.526 54.82 210.476H54.7803C54.2247 210.476 53.8378 210.445 53.183 210.988C51.5856 212.292 48.6588 215.836 44.6307 212.302L43.9164 211.67C43.6386 211.399 43.1921 210.476 43.1425 209.843C43.1028 209.542 42.7556 209.412 42.4282 209.442C42.3885 209.442 42.3488 209.442 42.2992 209.452C42.2496 209.462 42.2099 209.472 42.1603 209.492L41.3765 209.773L41.2971 209.803L41.1681 209.853L37.6361 211.279C37.5072 211.339 37.2988 211.489 37.0111 211.7C35.632 212.694 33.1318 213.276 28.5878 213.326C23.7958 213.376 23.0814 216.077 23.0517 216.197L22.8731 216.93L22.7639 217.392L22.5556 218.255L22 220.634V220.714C22.0794 221.156 27.7147 224.247 42.9242 224.699C43.0929 224.709 43.2616 224.659 43.4005 224.558C43.7775 224.277 43.966 223.765 44.6406 223.404C45.3748 222.972 45.5832 222.842 46.2082 222.842H49.6609C49.9883 222.842 50.2661 223.103 50.2859 223.434L50.3653 224.398C50.3851 224.749 50.6729 225.01 51.0102 224.99C52.2702 224.94 53.5798 224.87 54.949 224.789C54.9093 224.789 55.8419 224.9 56.5364 224.127C57.3202 223.264 57.4392 221.246 56.963 219.038ZM23.9148 216.448C23.9148 216.448 23.9248 216.408 23.9347 216.388C24.024 216.127 24.7681 214.28 28.5977 214.24C33.3798 214.19 36.0289 213.497 37.4972 212.473C37.527 212.453 37.5568 212.433 37.5865 212.423L41.565 210.686L42.4083 210.375C42.4083 210.375 42.6762 211.76 43.7279 212.724L44.0354 212.995C48.639 217.02 52.1115 213.035 53.7485 211.69C54.2049 211.329 54.5422 211.389 54.7803 211.389H54.7902C55.3657 211.399 55.9312 214.471 55.961 217.703L56.0304 218.676C53.7683 218.927 42.9441 220.041 32.348 218.807C29.1831 218.435 26.296 217.893 23.7462 217.181L23.9148 216.448Z" fill="black"/>
<path d="M56.2686 220.654L55.9611 217.703C55.9313 214.471 55.3658 211.399 54.7903 211.389H54.7804C54.5423 211.389 54.205 211.329 53.7486 211.69C52.1116 213.035 48.6391 217.02 44.0355 212.995L43.728 212.724C42.6763 211.76 42.4084 210.375 42.4084 210.375L41.5651 210.686L37.5866 212.423C37.5866 212.423 37.5271 212.453 37.4973 212.473C36.029 213.497 33.3799 214.19 28.5978 214.24C24.7682 214.28 24.0241 216.127 23.9348 216.388C23.9249 216.408 23.9249 216.428 23.9149 216.448L23.2998 218.666C23.2998 218.666 37.2195 223.193 56.2686 220.654Z" fill="white"/>
<path d="M41.1879 213.356C41.7359 213.356 42.1801 212.907 42.1801 212.353C42.1801 211.798 41.7359 211.349 41.1879 211.349C40.64 211.349 40.1958 211.798 40.1958 212.353C40.1958 212.907 40.64 213.356 41.1879 213.356Z" fill="black"/>
<path d="M41.1881 212.854C41.0096 212.854 40.8409 212.754 40.7516 212.583L39.2634 209.733C39.1344 209.492 39.2237 209.181 39.4717 209.05C39.7099 208.92 40.0174 209.01 40.1464 209.261L41.6346 212.112C41.7636 212.353 41.6743 212.664 41.4263 212.794C41.3568 212.834 41.2774 212.854 41.1981 212.854H41.1881Z" fill="black"/>
<path d="M38.519 214.792C39.0669 214.792 39.5111 214.342 39.5111 213.788C39.5111 213.234 39.0669 212.784 38.519 212.784C37.9711 212.784 37.5269 213.234 37.5269 213.788C37.5269 214.342 37.9711 214.792 38.519 214.792Z" fill="black"/>
<path d="M38.5192 214.29C38.3406 214.29 38.1719 214.189 38.0827 214.019L36.5944 211.168C36.4655 210.927 36.5548 210.616 36.8028 210.486C37.0409 210.355 37.3485 210.445 37.4774 210.696L38.9657 213.547C39.0946 213.788 39.0053 214.099 38.7573 214.23C38.6879 214.27 38.6085 214.29 38.5291 214.29H38.5192Z" fill="black"/>
<path d="M64.1362 217.632V217.673L64.2156 221.868L98.4444 218.255L98.2361 217.391L98.127 216.93L97.9484 216.197C97.9186 216.077 97.2043 213.376 92.4122 213.326C87.8682 213.276 85.368 212.694 83.989 211.7C83.7012 211.489 83.4929 211.339 83.3639 211.279L79.8319 209.853L79.7029 209.803L79.6235 209.773L78.8397 209.492C78.7901 209.472 78.7505 209.462 78.7008 209.452C78.6512 209.442 78.6116 209.442 78.5719 209.442C78.2742 209.442 78.0163 209.582 77.8575 209.843C77.8079 210.476 77.3615 211.399 77.0837 211.67L76.3693 212.302C72.3412 215.836 69.4144 212.292 67.8171 210.987C67.1623 210.445 66.7753 210.476 66.2197 210.476H66.18C64.3843 210.526 64.1561 215.514 64.1362 217.632ZM64.9696 218.676L65.0391 217.703C65.0688 214.471 65.6344 211.399 66.2098 211.389H66.2197C66.4578 211.389 66.7952 211.329 67.2515 211.69C68.8886 213.035 72.3611 217.02 76.9646 212.995L77.2722 212.724C78.3238 211.76 78.5917 210.375 78.5917 210.375L79.435 210.686L83.4135 212.423C83.4135 212.423 83.473 212.453 83.5028 212.473C84.9712 213.497 87.6202 214.189 92.4023 214.24C96.232 214.28 96.9761 216.127 97.0654 216.388C97.0753 216.408 97.0753 216.428 97.0852 216.448L97.2539 217.181C94.7041 217.893 91.8169 218.435 88.652 218.807C78.056 220.041 67.2317 218.927 64.9696 218.676Z" fill="#3D2A1D"/>
<path d="M64.4634 224.127C65.1579 224.9 66.0905 224.789 66.0509 224.789C67.42 224.87 68.7296 224.94 69.9897 224.99C70.327 225.01 70.6147 224.749 70.6345 224.398L70.7139 223.434C70.7338 223.103 71.0116 222.842 71.339 222.842H74.7916C75.4167 222.842 75.625 222.972 76.3592 223.404C77.0338 223.765 77.2224 224.277 77.5994 224.558C77.7383 224.659 77.9069 224.709 78.0756 224.699C93.2851 224.247 98.9205 221.156 98.9899 220.714V220.634L98.4442 218.255L98.2359 217.392L98.1267 216.93L97.9482 216.197C97.9184 216.077 97.2041 213.376 92.412 213.326C87.868 213.276 85.3678 212.694 83.9888 211.7C83.701 211.489 83.4927 211.339 83.3637 211.279L79.8317 209.853L79.7027 209.803L79.6233 209.773L78.8395 209.492C78.7899 209.472 78.7503 209.462 78.7006 209.452C78.651 209.442 78.6114 209.442 78.5717 209.442C78.2443 209.412 77.897 209.542 77.8573 209.843C77.8077 210.476 77.3613 211.399 77.0835 211.67L76.3691 212.302C72.341 215.836 69.4142 212.292 67.8169 210.988C67.1621 210.445 66.7751 210.476 66.2195 210.476H66.1798C64.3841 210.526 64.1559 215.515 64.136 217.632V217.673L64.0467 218.977C64.0467 218.977 64.0368 219.028 64.0368 219.038C63.5606 221.246 63.6796 223.264 64.4634 224.127ZM97.2537 217.181C94.7039 217.893 91.8167 218.435 88.6518 218.807C78.0558 220.041 67.2315 218.927 64.9694 218.676L65.0389 217.703C65.0686 214.471 65.6342 211.399 66.2096 211.389H66.2195C66.4576 211.389 66.795 211.329 67.2513 211.69C68.8884 213.035 72.3609 217.02 76.9644 212.995L77.272 212.724C78.3236 211.76 78.5915 210.375 78.5915 210.375L79.4348 210.686L83.4133 212.423C83.4133 212.423 83.4728 212.453 83.5026 212.473C84.971 213.497 87.62 214.19 92.4021 214.24C96.2318 214.28 96.9759 216.127 97.0652 216.388C97.0751 216.408 97.0751 216.428 97.085 216.448L97.2537 217.181Z" fill="black"/>
<path d="M64.7314 220.654L65.039 217.703C65.0688 214.471 65.6343 211.399 66.2097 211.389H66.2197C66.4578 211.389 66.7951 211.329 67.2515 211.69C68.8885 213.035 72.361 217.02 76.9645 212.995L77.2721 212.724C78.3238 211.76 78.5916 210.375 78.5916 210.375L79.435 210.686L83.4134 212.423C83.4134 212.423 83.473 212.453 83.5027 212.473C84.9711 213.497 87.6201 214.19 92.4022 214.24C96.2319 214.28 96.976 216.127 97.0653 216.388C97.0752 216.408 97.0752 216.428 97.0851 216.448L97.7003 218.666C97.7003 218.666 83.7805 223.193 64.7314 220.654Z" fill="white"/>
<path d="M79.812 213.356C80.3599 213.356 80.8041 212.907 80.8041 212.353C80.8041 211.798 80.3599 211.349 79.812 211.349C79.264 211.349 78.8198 211.798 78.8198 212.353C78.8198 212.907 79.264 213.356 79.812 213.356Z" fill="black"/>
<path d="M79.8222 212.854C80.0007 212.854 80.1694 212.754 80.2587 212.583L81.7469 209.733C81.8759 209.492 81.7866 209.181 81.5386 209.05C81.3004 208.92 80.9929 209.01 80.8639 209.261L79.3757 212.112C79.2467 212.353 79.336 212.664 79.584 212.794C79.6535 212.834 79.7329 212.854 79.8122 212.854H79.8222Z" fill="black"/>
<path d="M82.4907 214.792C83.0386 214.792 83.4828 214.342 83.4828 213.788C83.4828 213.234 83.0386 212.784 82.4907 212.784C81.9427 212.784 81.4985 213.234 81.4985 213.788C81.4985 214.342 81.9427 214.792 82.4907 214.792Z" fill="black"/>
<path d="M82.4906 214.29C82.6692 214.29 82.8379 214.189 82.9272 214.019L84.4154 211.168C84.5443 210.927 84.455 210.616 84.207 210.486C83.9689 210.355 83.6613 210.445 83.5324 210.696L82.0441 213.547C81.9152 213.788 82.0045 214.099 82.2525 214.23C82.3219 214.27 82.4013 214.29 82.4807 214.29H82.4906Z" fill="black"/>
</g>
<defs>
<clipPath id="clip0_775_10741">
<rect width="77" height="16" fill="white" transform="translate(22 209)"/>
</clipPath>
</defs>
</svg>
