<svg width="122" height="225" viewBox="0 0 122 225" fill="none" xmlns="http://www.w3.org/2000/svg">
<g clip-path="url(#clip0_775_9377)">
<path d="M100.92 217.087L100.463 215.562C100.423 215.281 100.214 214.147 99.2191 213.555C99.1196 213.495 98.9703 213.435 98.7912 213.365L98.6818 213.325C97.1694 212.813 93.2891 212.181 92.6822 212.08L90.4336 210.977C90.4634 210.846 90.4534 210.716 90.4236 210.585C90.3639 210.365 90.2246 210.184 90.0356 210.074C89.8465 209.963 89.6177 209.933 89.3988 209.993C89.349 210.003 89.2993 210.024 89.2595 210.044V210.024C89.1998 209.803 89.0605 209.622 88.8715 209.512C88.6227 209.371 88.3342 209.371 88.0954 209.482C88.0954 209.472 88.0954 209.462 88.0954 209.452C88.0357 209.231 87.8964 209.05 87.7074 208.94C87.5183 208.83 87.2895 208.799 87.0706 208.86C87.0208 208.87 86.9711 208.89 86.9313 208.91V208.89C86.8716 208.669 86.7323 208.488 86.5433 208.378C86.3542 208.268 86.1254 208.238 85.9065 208.298C85.8567 208.308 85.807 208.328 85.7572 208.348C85.7075 208.127 85.5682 207.937 85.3592 207.816C85.1702 207.706 84.9414 207.676 84.7225 207.736C84.6727 207.746 84.623 207.766 84.5832 207.786C84.5832 207.786 84.5832 207.766 84.5832 207.756C84.5235 207.535 84.3842 207.355 84.1951 207.244C84.0061 207.134 83.7773 207.104 83.5584 207.164C83.5086 207.174 83.4589 207.194 83.4091 207.214C83.3594 206.993 83.2201 206.803 83.0111 206.672C82.7624 206.532 82.4739 206.532 82.2351 206.642C82.1853 206.422 82.046 206.231 81.8371 206.1C81.648 205.99 81.4192 205.96 81.2103 206.02C81.061 206.06 80.9317 206.141 80.8322 206.241L80.6431 206.151C79.9765 205.83 79.1805 205.96 78.6433 206.472C76.0961 208.94 72.5342 211.358 69.997 208.86C69.3205 208.177 68.9026 207.335 68.6737 206.743C68.5444 206.422 68.2459 206.211 67.9076 206.201H67.8877C67.5594 206.201 67.2609 206.391 67.1216 206.692C66.7435 207.515 66.2858 208.9 66.2659 210.846V211.458C66.246 214.197 66.2659 216.274 66.2659 216.284V219.003C66.2261 219.585 66.4948 220.729 67.7783 220.95C67.8579 220.96 67.9474 220.97 68.0469 220.98H93.8463L96.2839 220.589C97.1496 220.408 97.8858 220.187 98.5226 219.957H98.5325L98.632 219.916C98.632 219.916 98.6519 219.916 98.6619 219.906L98.7216 219.886C99.7663 219.465 100.463 218.973 100.791 218.411C101.03 217.99 101.09 217.529 100.95 217.067L100.92 217.087ZM99.8857 217.9C99.5375 218.492 98.3137 219.064 96.4133 219.515L67.6987 219.886C67.2708 219.696 67.2609 219.244 67.2708 219.064V216.304C67.2708 216.304 67.2509 214.228 67.2708 211.488V210.886C67.2808 209.401 67.5693 208.288 67.8678 207.535C68.1563 208.177 68.614 208.96 69.3006 209.662C71.0019 211.348 74.1261 212.301 79.3397 207.244C79.5686 207.024 79.8969 206.973 80.1755 207.104L92.3041 213.044L92.4434 213.094C92.4434 213.094 96.8312 213.796 98.3535 214.308L98.4529 214.338C98.5524 214.378 98.642 214.408 98.7017 214.438C99.3584 214.83 99.4479 215.702 99.4479 215.702L99.9354 217.378C99.9951 217.569 99.9752 217.719 99.8757 217.89L99.8857 217.9Z" fill="white"/>
<path d="M100.443 217.238C99.0796 220.057 90.115 219.947 90.115 219.947H72.3947C67.8577 219.947 66.7732 219.054 66.7732 219.054L68.6736 218.361H72.8325L78.8421 218.251L96.234 217.709C96.234 217.709 99.6865 214.759 100.443 217.238Z" fill="#BCBCBC"/>
<path d="M100.443 217.237C99.0796 220.057 90.115 219.946 90.115 219.946H72.3947C67.8577 219.946 66.7732 219.053 66.7732 219.053V216.294L68.186 213.776L71.0714 212.732L78.6232 212.873L99.985 215.662L100.453 217.227L100.443 217.237Z" fill="#E5E5E5"/>
<path d="M78.9913 206.873C71.7878 213.856 68.9621 208.91 68.186 206.953C68.0766 206.682 67.6985 206.662 67.5692 206.933C67.2309 207.666 66.7831 208.99 66.7632 210.876C66.7433 213.916 66.7632 216.304 66.7632 216.304C66.7632 216.304 78.4441 215.562 85.4188 217.227C92.3935 218.893 99.9751 215.662 99.9751 215.662C99.9751 215.662 99.8756 214.528 98.9801 213.997C98.0847 213.465 92.5427 212.582 92.5427 212.582L80.4042 206.642C79.9266 206.411 79.3694 206.502 78.9913 206.873Z" fill="white"/>
<path d="M91.8564 213.535C91.7071 213.535 91.5877 213.475 91.5678 213.465L77.7478 208.067L77.7876 207.957L91.6076 213.355C91.6076 213.355 91.8265 213.475 92.0454 213.365C92.2544 213.264 92.3936 212.993 92.4633 212.572L92.5827 212.592C92.5031 213.064 92.3439 213.355 92.1051 213.475C92.0156 213.515 91.936 213.535 91.8564 213.535Z" fill="#C9C9C9"/>
<path d="M90.6723 215.291C89.7768 215.291 89.15 215.05 88.8018 214.559C88.5331 214.187 88.4336 213.676 88.5132 213.084C88.5729 212.632 88.7023 212.301 88.7023 212.281L88.8117 212.331C88.8117 212.331 88.3043 213.666 88.8913 214.488C89.2594 215 89.9659 215.221 90.9907 215.161C94.4233 214.94 98.5623 213.806 98.6021 213.796L98.632 213.916C98.632 213.916 94.4332 215.07 90.9907 215.281C90.8713 215.281 90.7618 215.291 90.6524 215.291H90.6723Z" fill="#C9C9C9"/>
<path d="M83.5384 216.866C83.3493 214.408 84.9214 213.184 85.6676 212.602C85.8467 212.462 85.9959 212.341 86.0258 212.281C86.175 211.94 85.8765 211.237 85.8765 211.227L85.986 211.177C85.986 211.177 86.3043 211.94 86.1352 212.331C86.0954 212.421 85.9561 212.532 85.7372 212.702C85.0009 213.274 83.4787 214.468 83.6577 216.866H83.5384Z" fill="#C9C9C9"/>
<path d="M77.4989 216.314C77.3198 213.084 78.8719 211.488 79.6281 210.716C79.8171 210.525 79.9664 210.374 79.9962 210.284C80.1554 209.823 79.8569 208.88 79.847 208.869L79.9664 208.829C79.9664 208.829 80.2848 209.823 80.1156 210.324C80.0758 210.445 79.9365 210.585 79.7177 210.806C78.9814 211.558 77.4491 213.144 77.6282 216.314H77.5088H77.4989Z" fill="#C9C9C9"/>
<path d="M66.7634 211.488C66.7634 211.488 84.1454 211.599 80.484 215.783C80.484 215.783 83.7076 215.732 84.036 213.465C84.3643 211.197 78.9617 211.378 73.1013 211.197C67.7882 211.037 67.6887 211.077 67.6887 211.077L66.7634 211.488Z" fill="#FF0000"/>
<path d="M93.5577 213.395C93.6401 213.395 93.7069 213.327 93.7069 213.244C93.7069 213.161 93.6401 213.094 93.5577 213.094C93.4753 213.094 93.4084 213.161 93.4084 213.244C93.4084 213.327 93.4753 213.395 93.5577 213.395Z" fill="#E5E5E5"/>
<path d="M93.8262 213.856C93.9087 213.856 93.9755 213.789 93.9755 213.706C93.9755 213.623 93.9087 213.555 93.8262 213.555C93.7438 213.555 93.677 213.623 93.677 213.706C93.677 213.789 93.7438 213.856 93.8262 213.856Z" fill="#E5E5E5"/>
<path d="M92.8612 213.997C92.9436 213.997 93.0104 213.929 93.0104 213.846C93.0104 213.763 92.9436 213.696 92.8612 213.696C92.7787 213.696 92.7119 213.763 92.7119 213.846C92.7119 213.929 92.7787 213.997 92.8612 213.997Z" fill="#E5E5E5"/>
<path d="M92.523 214.719C92.6054 214.719 92.6723 214.652 92.6723 214.568C92.6723 214.485 92.6054 214.418 92.523 214.418C92.4406 214.418 92.3738 214.485 92.3738 214.568C92.3738 214.652 92.4406 214.719 92.523 214.719Z" fill="#E5E5E5"/>
<path d="M91.1898 213.796C91.2722 213.796 91.339 213.728 91.339 213.645C91.339 213.562 91.2722 213.495 91.1898 213.495C91.1073 213.495 91.0405 213.562 91.0405 213.645C91.0405 213.728 91.1073 213.796 91.1898 213.796Z" fill="#E5E5E5"/>
<path d="M91.4981 214.769C91.5805 214.769 91.6474 214.702 91.6474 214.619C91.6474 214.536 91.5805 214.468 91.4981 214.468C91.4157 214.468 91.3489 214.536 91.3489 214.619C91.3489 214.702 91.4157 214.769 91.4981 214.769Z" fill="#E5E5E5"/>
<path d="M91.9857 214.107C92.0681 214.107 92.1349 214.04 92.1349 213.956C92.1349 213.873 92.0681 213.806 91.9857 213.806C91.9032 213.806 91.8364 213.873 91.8364 213.956C91.8364 214.04 91.9032 214.107 91.9857 214.107Z" fill="#E5E5E5"/>
<path d="M90.4434 214.218C90.5259 214.218 90.5927 214.15 90.5927 214.067C90.5927 213.984 90.5259 213.917 90.4434 213.917C90.361 213.917 90.2942 213.984 90.2942 214.067C90.2942 214.15 90.361 214.218 90.4434 214.218Z" fill="#E5E5E5"/>
<path d="M89.5877 213.545C89.6701 213.545 89.737 213.478 89.737 213.395C89.737 213.312 89.6701 213.244 89.5877 213.244C89.5053 213.244 89.4385 213.312 89.4385 213.395C89.4385 213.478 89.5053 213.545 89.5877 213.545Z" fill="#E5E5E5"/>
<path d="M90.1449 214.86C90.2273 214.86 90.2941 214.792 90.2941 214.709C90.2941 214.626 90.2273 214.559 90.1449 214.559C90.0624 214.559 89.9956 214.626 89.9956 214.709C89.9956 214.792 90.0624 214.86 90.1449 214.86Z" fill="#E5E5E5"/>
<path d="M93.3587 214.328C93.4411 214.328 93.508 214.26 93.508 214.177C93.508 214.094 93.4411 214.027 93.3587 214.027C93.2763 214.027 93.2095 214.094 93.2095 214.177C93.2095 214.26 93.2763 214.328 93.3587 214.328Z" fill="#E5E5E5"/>
<path d="M94.1048 214.368C94.1872 214.368 94.2541 214.301 94.2541 214.217C94.2541 214.134 94.1872 214.067 94.1048 214.067C94.0224 214.067 93.9556 214.134 93.9556 214.217C93.9556 214.301 94.0224 214.368 94.1048 214.368Z" fill="#E5E5E5"/>
<path d="M94.5924 213.957C94.6748 213.957 94.7416 213.889 94.7416 213.806C94.7416 213.723 94.6748 213.656 94.5924 213.656C94.5099 213.656 94.4431 213.723 94.4431 213.806C94.4431 213.889 94.5099 213.957 94.5924 213.957Z" fill="#E5E5E5"/>
<path d="M95.4481 214.057C95.5305 214.057 95.5973 213.989 95.5973 213.906C95.5973 213.823 95.5305 213.756 95.4481 213.756C95.3656 213.756 95.2988 213.823 95.2988 213.906C95.2988 213.989 95.3656 214.057 95.4481 214.057Z" fill="#E5E5E5"/>
<path d="M94.3436 213.465C94.426 213.465 94.4928 213.397 94.4928 213.314C94.4928 213.231 94.426 213.164 94.3436 213.164C94.2612 213.164 94.1943 213.231 94.1943 213.314C94.1943 213.397 94.2612 213.465 94.3436 213.465Z" fill="#E5E5E5"/>
<path d="M95.1795 213.595C95.2619 213.595 95.3288 213.528 95.3288 213.445C95.3288 213.362 95.2619 213.294 95.1795 213.294C95.0971 213.294 95.0303 213.362 95.0303 213.445C95.0303 213.528 95.0971 213.595 95.1795 213.595Z" fill="#E5E5E5"/>
<path d="M95.9954 213.736C96.0779 213.736 96.1447 213.668 96.1447 213.585C96.1447 213.502 96.0779 213.435 95.9954 213.435C95.913 213.435 95.8462 213.502 95.8462 213.585C95.8462 213.668 95.913 213.736 95.9954 213.736Z" fill="#E5E5E5"/>
<path d="M66.7634 217.96H68.5743C68.6837 217.96 68.7732 218.05 68.7732 218.161C68.7732 218.271 68.6837 218.361 68.5743 218.361H66.7634V217.95V217.96Z" fill="#FF0000"/>
<path d="M72.2058 218.361H73.8176C73.9275 218.361 74.0166 218.271 74.0166 218.16V218.15C74.0166 218.04 73.9275 217.95 73.8176 217.95H72.2058C72.0959 217.95 72.0068 218.04 72.0068 218.15V218.16C72.0068 218.271 72.0959 218.361 72.2058 218.361Z" fill="#FF0000"/>
<path d="M69.2509 217.9C69.3305 217.9 69.3802 217.97 69.3902 218.1H69.4399V217.87H69.5295V218.492H69.4399V218.181H69.3902C69.3902 218.311 69.3305 218.391 69.2509 218.391C69.1613 218.391 69.1116 218.301 69.1116 218.151C69.1116 218 69.1713 217.91 69.2509 217.91V217.9ZM69.2509 218.291C69.2509 218.291 69.3106 218.241 69.3106 218.141C69.3106 218.04 69.2907 217.99 69.2509 217.99C69.2111 217.99 69.1912 218.04 69.1912 218.141C69.1912 218.241 69.2111 218.291 69.2509 218.291ZM69.6688 218.512H69.5792V217.85H69.6688V218.512Z" fill="black"/>
<path d="M70.0866 218.09H70.196V217.85H70.2856V218.512H70.196V218.161H70.0866C70.0866 218.291 70.007 218.361 69.9174 218.361C69.8179 218.361 69.7483 218.271 69.7483 218.131C69.7483 217.99 69.8179 217.9 69.9174 217.9C70.007 217.9 70.0766 217.97 70.0866 218.09ZM69.9174 218.281C69.9174 218.281 69.997 218.231 69.997 218.131C69.997 218.03 69.9672 217.98 69.9174 217.98C69.8677 217.98 69.8378 218.03 69.8378 218.131C69.8378 218.231 69.8677 218.281 69.9174 218.281Z" fill="black"/>
<path d="M70.972 218.431H70.375V218.351H70.6237V218.231H70.4247V218.161H70.5143V217.97H70.4247V217.9H70.9222V217.97H70.8327V218.161H70.9222V218.231H70.7232V218.351H70.9819V218.431H70.972ZM70.7431 218.161V217.97H70.6038V218.161H70.7431Z" fill="black"/>
<path d="M71.0117 218.151H71.6087V218.221H71.36V218.281H71.5391V218.502H71.4495V218.351H71.0814V218.281H71.2704V218.221H71.0217V218.151H71.0117ZM71.5789 218.04L71.549 218.11C71.4396 218.09 71.36 218.05 71.3102 217.98C71.2704 218.04 71.1908 218.09 71.0714 218.11L71.0416 218.04C71.1908 218.02 71.2605 217.94 71.2605 217.87V217.85H71.35V217.87C71.35 217.94 71.4296 218.02 71.5689 218.04H71.5789Z" fill="black"/>
<path d="M96.1644 220.097C96.0947 220.117 96.0151 220.127 95.9455 220.147C95.7564 220.187 95.5773 220.217 95.4082 220.248C95.3286 220.258 95.259 220.278 95.1893 220.288C94.9903 220.318 94.8112 220.348 94.652 220.378C94.5724 220.388 94.5028 220.398 94.4331 220.408C94.1645 220.448 93.9755 220.468 93.8959 220.478C93.866 220.478 93.8461 220.478 93.8461 220.478H68.2059C68.2059 220.478 68.1263 220.478 68.0865 220.478C68.0069 220.478 67.9373 220.468 67.8676 220.458C66.7035 220.258 66.7831 219.064 66.7831 219.064C66.7831 219.064 67.0518 219.284 67.8676 219.505C67.9373 219.525 68.0069 219.545 68.0865 219.565C68.2457 219.605 68.4248 219.646 68.6238 219.676C68.6935 219.686 68.7631 219.706 68.8427 219.716C69.0119 219.746 69.1909 219.766 69.38 219.796C69.4496 219.796 69.5193 219.816 69.5989 219.826C69.768 219.846 69.9471 219.866 70.1362 219.876C70.2058 219.876 70.2755 219.886 70.355 219.896C70.5242 219.906 70.7033 219.916 70.8923 219.926C70.962 219.926 71.0416 219.926 71.1112 219.937C71.2804 219.937 71.4595 219.947 71.6485 219.957C71.7181 219.957 71.7977 219.957 71.8674 219.957C72.0365 219.957 72.2156 219.957 72.3947 219.957H90.115C90.115 219.957 90.304 219.957 90.6324 219.957C90.702 219.957 90.7717 219.957 90.8513 219.957C91.0105 219.957 91.1896 219.957 91.3885 219.937C91.4582 219.937 91.5278 219.937 91.6074 219.937C91.7766 219.937 91.9557 219.916 92.1447 219.906C92.2144 219.906 92.294 219.906 92.3636 219.896C92.5328 219.886 92.7218 219.876 92.9009 219.856C92.9705 219.856 93.0501 219.846 93.1198 219.836C93.2989 219.826 93.478 219.806 93.6571 219.786C93.7267 219.786 93.8063 219.776 93.876 219.766C94.055 219.746 94.2341 219.726 94.4132 219.706C94.4829 219.706 94.5625 219.686 94.6321 219.676C94.8112 219.656 94.9903 219.625 95.1694 219.595C95.2391 219.585 95.3187 219.575 95.3883 219.565C95.5674 219.535 95.7465 219.505 95.9256 219.475L96.1445 219.435C98.0846 219.054 99.8756 218.391 100.423 217.248C100.9 218.793 98.2339 219.666 96.1445 220.117L96.1644 220.097Z" fill="#BCBCBC"/>
<path d="M68.0668 219.555V220.478C67.9872 220.478 67.9175 220.468 67.8479 220.458V219.495C67.9175 219.515 67.9872 219.535 68.0668 219.555Z" fill="#9B9B9B"/>
<path d="M68.8329 219.706V220.488H68.614V219.676C68.6837 219.686 68.7533 219.706 68.8329 219.716V219.706Z" fill="#9B9B9B"/>
<path d="M69.589 219.806V220.478H69.3701V219.776C69.4398 219.776 69.5094 219.796 69.589 219.806Z" fill="#9B9B9B"/>
<path d="M70.3451 219.876V220.478H70.1262V219.856C70.1959 219.856 70.2655 219.866 70.3451 219.876Z" fill="#9B9B9B"/>
<path d="M71.1112 219.927V220.488H70.8923V219.917C70.962 219.917 71.0416 219.917 71.1112 219.927Z" fill="#9B9B9B"/>
<path d="M71.8676 219.947V220.488H71.6487V219.947C71.7183 219.947 71.7979 219.947 71.8676 219.947Z" fill="#9B9B9B"/>
<path d="M72.6237 219.947H72.4048V220.478H72.6237V219.947Z" fill="#9B9B9B"/>
<path d="M73.3798 219.947H73.1609V220.478H73.3798V219.947Z" fill="#9B9B9B"/>
<path d="M74.1459 219.947H73.927V220.478H74.1459V219.947Z" fill="#9B9B9B"/>
<path d="M74.9022 219.947H74.6833V220.478H74.9022V219.947Z" fill="#9B9B9B"/>
<path d="M75.6583 219.947H75.4395V220.478H75.6583V219.947Z" fill="#9B9B9B"/>
<path d="M76.4245 219.947H76.2056V220.478H76.4245V219.947Z" fill="#9B9B9B"/>
<path d="M77.1806 219.947H76.9617V220.478H77.1806V219.947Z" fill="#9B9B9B"/>
<path d="M77.9367 219.947H77.7178V220.478H77.9367V219.947Z" fill="#9B9B9B"/>
<path d="M78.7028 219.947H78.4839V220.478H78.7028V219.947Z" fill="#9B9B9B"/>
<path d="M79.4591 219.947H79.2402V220.478H79.4591V219.947Z" fill="#9B9B9B"/>
<path d="M80.2152 219.947H79.9963V220.478H80.2152V219.947Z" fill="#9B9B9B"/>
<path d="M80.9813 219.947H80.7625V220.478H80.9813V219.947Z" fill="#9B9B9B"/>
<path d="M81.7374 219.947H81.5186V220.478H81.7374V219.947Z" fill="#9B9B9B"/>
<path d="M82.4938 219.947H82.2749V220.478H82.4938V219.947Z" fill="#9B9B9B"/>
<path d="M83.2599 219.947H83.041V220.478H83.2599V219.947Z" fill="#9B9B9B"/>
<path d="M84.016 219.947H83.7971V220.478H84.016V219.947Z" fill="#9B9B9B"/>
<path d="M84.7721 219.947H84.5532V220.478H84.7721V219.947Z" fill="#9B9B9B"/>
<path d="M85.5382 219.947H85.3193V220.478H85.5382V219.947Z" fill="#9B9B9B"/>
<path d="M86.2946 219.947H86.0757V220.478H86.2946V219.947Z" fill="#9B9B9B"/>
<path d="M87.0507 219.947H86.8318V220.478H87.0507V219.947Z" fill="#9B9B9B"/>
<path d="M87.8068 219.947H87.5879V220.478H87.8068V219.947Z" fill="#9B9B9B"/>
<path d="M88.5729 219.947H88.354V220.478H88.5729V219.947Z" fill="#9B9B9B"/>
<path d="M89.329 219.947H89.1101V220.478H89.329V219.947Z" fill="#9B9B9B"/>
<path d="M90.0853 219.947H89.8665V220.478H90.0853V219.947Z" fill="#9B9B9B"/>
<path d="M90.8515 219.947V220.488H90.6326V219.957C90.7022 219.957 90.7719 219.957 90.8515 219.957V219.947Z" fill="#9B9B9B"/>
<path d="M91.6076 219.917V220.478H91.3887V219.927C91.4583 219.927 91.528 219.927 91.6076 219.927V219.917Z" fill="#9B9B9B"/>
<path d="M92.3637 219.876V220.478H92.1448V219.886C92.2144 219.886 92.294 219.886 92.3637 219.876Z" fill="#9B9B9B"/>
<path d="M93.1298 219.826V220.478H92.9109V219.836C92.9805 219.836 93.0601 219.826 93.1298 219.816V219.826Z" fill="#9B9B9B"/>
<path d="M93.8861 219.756V220.478H93.8364H93.6672V219.776C93.7369 219.776 93.8165 219.766 93.8861 219.756Z" fill="#9B9B9B"/>
<path d="M94.6422 219.666V220.378C94.5626 220.388 94.493 220.398 94.4233 220.408V219.696C94.493 219.696 94.5726 219.676 94.6422 219.666Z" fill="#9B9B9B"/>
<path d="M95.4083 219.555V220.247C95.3287 220.258 95.2591 220.278 95.1895 220.288V219.585C95.2591 219.575 95.3387 219.565 95.4083 219.555Z" fill="#9B9B9B"/>
<path d="M96.1644 219.425V220.107C96.0948 220.127 96.0152 220.137 95.9456 220.157V219.475L96.1644 219.435V219.425Z" fill="#9B9B9B"/>
<path d="M81.5812 206.577L81.5726 206.572C81.4203 206.483 81.2256 206.536 81.1377 206.689L80.5507 207.715C80.4627 207.868 80.5149 208.064 80.6672 208.153L80.6758 208.158C80.8281 208.247 81.0228 208.194 81.1107 208.041L81.6978 207.015C81.7857 206.862 81.7335 206.665 81.5812 206.577Z" fill="#E5E5E5"/>
<path d="M82.7521 207.152L82.7435 207.147C82.5912 207.058 82.3965 207.111 82.3086 207.265L81.7216 208.29C81.6336 208.444 81.6858 208.64 81.8381 208.729L81.8467 208.734C81.999 208.822 82.1937 208.77 82.2816 208.616L82.8687 207.591C82.9566 207.437 82.9044 207.241 82.7521 207.152Z" fill="#E5E5E5"/>
<path d="M83.9281 207.709L83.9195 207.704C83.7672 207.615 83.5725 207.668 83.4846 207.822L82.8976 208.847C82.8097 209 82.8618 209.197 83.0141 209.285L83.0227 209.29C83.175 209.379 83.3697 209.326 83.4577 209.173L84.0447 208.148C84.1326 207.994 84.0804 207.798 83.9281 207.709Z" fill="#E5E5E5"/>
<path d="M85.1042 208.276L85.0956 208.271C84.9433 208.182 84.7486 208.235 84.6606 208.388L84.0736 209.414C83.9857 209.567 84.0379 209.764 84.1901 209.852L84.1988 209.857C84.351 209.946 84.5458 209.893 84.6337 209.74L85.2207 208.714C85.3086 208.561 85.2565 208.365 85.1042 208.276Z" fill="#E5E5E5"/>
<path d="M86.2751 208.851L86.2665 208.846C86.1142 208.758 85.9194 208.81 85.8315 208.964L85.2445 209.989C85.1566 210.143 85.2088 210.339 85.361 210.428L85.3697 210.433C85.5219 210.521 85.7167 210.469 85.8046 210.315L86.3916 209.29C86.4795 209.136 86.4274 208.94 86.2751 208.851Z" fill="#E5E5E5"/>
<path d="M87.4423 209.403L87.4337 209.398C87.2814 209.31 87.0867 209.362 86.9988 209.516L86.4117 210.541C86.3238 210.695 86.376 210.891 86.5283 210.98L86.5369 210.985C86.6892 211.073 86.8839 211.021 86.9718 210.867L87.5588 209.842C87.6468 209.688 87.5946 209.492 87.4423 209.403Z" fill="#E5E5E5"/>
<path d="M88.6135 209.979L88.6048 209.974C88.4526 209.885 88.2578 209.938 88.1699 210.091L87.5829 211.117C87.495 211.27 87.5471 211.467 87.6994 211.555L87.708 211.56C87.8603 211.649 88.055 211.596 88.143 211.443L88.73 210.417C88.8179 210.264 88.7657 210.067 88.6135 209.979Z" fill="#E5E5E5"/>
<path d="M89.7895 210.536L89.7809 210.531C89.6286 210.442 89.4339 210.495 89.3459 210.648L88.7589 211.674C88.671 211.827 88.7232 212.023 88.8754 212.112L88.8841 212.117C89.0363 212.206 89.2311 212.153 89.319 212L89.906 210.974C89.9939 210.821 89.9418 210.624 89.7895 210.536Z" fill="#E5E5E5"/>
<path d="M66.7832 211.548L66.7434 211.438C68.8627 210.605 69.5592 209.231 69.5691 209.221L69.6785 209.271C69.6487 209.331 68.9622 210.696 66.7932 211.548H66.7832Z" fill="#C9C9C9"/>
<path d="M22.229 218.421C22.5574 218.983 23.2538 219.475 24.2985 219.896L24.3582 219.926C24.3582 219.926 24.3781 219.926 24.3881 219.937L24.4876 219.977H24.4975C25.1244 220.217 25.8706 220.428 26.7362 220.609L29.1739 221H54.9732C55.0727 220.99 55.1623 220.98 55.2419 220.97C56.5254 220.749 56.794 219.605 56.7542 219.023V216.304C56.7542 216.304 56.7741 214.227 56.7542 211.478V210.866C56.7343 208.92 56.2766 207.525 55.8985 206.712C55.7593 206.411 55.4608 206.221 55.1324 206.221H55.1125C54.7742 206.221 54.4757 206.442 54.3464 206.763C54.1076 207.355 53.6897 208.207 53.0231 208.88C50.486 211.388 46.924 208.96 44.3769 206.492C43.8396 205.98 43.0436 205.85 42.377 206.171L42.188 206.261C42.0885 206.151 41.9492 206.07 41.8099 206.04C41.6009 205.98 41.3721 206.01 41.1831 206.12C40.9741 206.241 40.8348 206.442 40.7851 206.662C40.5463 206.542 40.2577 206.552 40.009 206.692C39.8001 206.813 39.6608 207.013 39.611 207.234C39.5613 207.214 39.5115 207.194 39.4618 207.184C39.2429 207.124 39.024 207.154 38.825 207.264C38.636 207.375 38.4967 207.555 38.437 207.776C38.437 207.776 38.437 207.796 38.437 207.806C38.3872 207.786 38.3474 207.766 38.2977 207.756C38.0788 207.696 37.8599 207.726 37.6609 207.836C37.4519 207.957 37.3127 208.147 37.2629 208.368C37.2132 208.348 37.1634 208.328 37.1137 208.318C36.9047 208.258 36.6759 208.288 36.4769 208.398C36.2878 208.508 36.1485 208.689 36.0888 208.91V208.93C36.0391 208.91 35.9993 208.89 35.9496 208.88C35.7307 208.819 35.5118 208.85 35.3128 208.96C35.1237 209.07 34.9844 209.251 34.9247 209.472C34.9247 209.472 34.9247 209.492 34.9247 209.502C34.686 209.381 34.3974 209.391 34.1487 209.532C33.9596 209.642 33.8203 209.823 33.7606 210.044V210.064C33.7109 210.044 33.6711 210.023 33.6213 210.013C33.4025 209.953 33.1836 209.983 32.9846 210.094C32.7955 210.204 32.6562 210.385 32.5965 210.605C32.5667 210.736 32.5567 210.866 32.5866 210.997L30.338 212.1C29.731 212.201 25.8407 212.843 24.3383 213.345L24.2289 213.385C24.0399 213.455 23.8906 213.515 23.8011 213.575C22.8061 214.167 22.5972 215.301 22.5574 215.582L22.0997 217.107C21.9604 217.569 22.0101 218.03 22.2589 218.452L22.229 218.421ZM23.0548 217.388L23.5424 215.712C23.5424 215.712 23.6419 214.829 24.2886 214.448C24.3483 214.418 24.4378 214.378 24.5373 214.348L24.6368 214.318C26.1591 213.806 30.5071 213.114 30.5469 213.104L30.6862 213.054L42.8247 207.104C43.1033 206.973 43.4416 207.023 43.6605 207.244C48.8741 212.291 51.9983 211.348 53.6997 209.662C54.3962 208.96 54.8439 208.177 55.1324 207.535C55.4309 208.288 55.7195 209.401 55.7294 210.886V211.438V211.498C55.7394 214.238 55.7294 216.314 55.7294 216.314V219.074C55.7294 219.254 55.7294 219.706 55.3016 219.896L26.587 219.525C24.6965 219.084 23.4628 218.502 23.1145 217.91C23.015 217.739 22.9951 217.589 23.0548 217.398V217.388Z" fill="white"/>
<path d="M22.5571 217.238C23.9202 220.057 32.8848 219.947 32.8848 219.947C32.8848 219.947 46.0681 219.947 50.6051 219.947C55.1421 219.947 56.2267 219.054 56.2267 219.054L54.3263 218.361H50.1673L44.1578 218.251L26.7658 217.709C26.7658 217.709 23.3133 214.759 22.5571 217.238Z" fill="#BCBCBC"/>
<path d="M22.5571 217.237C23.9202 220.057 32.8848 219.946 32.8848 219.946C32.8848 219.946 46.0681 219.946 50.6051 219.946C55.1421 219.946 56.2267 219.053 56.2267 219.053V216.294L54.8138 213.776L51.9284 212.732L44.3766 212.873L23.0248 215.662L22.5571 217.227V217.237Z" fill="#E5E5E5"/>
<path d="M44.0087 206.873C51.2122 213.856 54.0379 208.91 54.8139 206.953C54.9234 206.682 55.3015 206.662 55.4308 206.933C55.7691 207.666 56.2168 208.99 56.2367 210.876C56.2566 213.916 56.2367 216.304 56.2367 216.304C56.2367 216.304 44.5559 215.562 37.5812 217.227C30.6065 218.893 23.0249 215.662 23.0249 215.662C23.0249 215.662 23.1244 214.528 24.0199 213.997C24.9153 213.465 30.4573 212.582 30.4573 212.582L42.5958 206.642C43.0734 206.411 43.6306 206.502 44.0087 206.873Z" fill="white"/>
<path d="M31.1438 213.535C31.293 213.535 31.4124 213.475 31.4323 213.465L45.2524 208.067L45.2126 207.957L31.3925 213.355C31.3925 213.355 31.1737 213.475 30.9548 213.365C30.7458 213.264 30.6065 212.993 30.5369 212.572L30.4175 212.592C30.4971 213.064 30.6563 213.355 30.8951 213.475C30.9846 213.515 31.0642 213.535 31.1438 213.535Z" fill="#C9C9C9"/>
<path d="M32.3276 215.291C33.2231 215.291 33.8499 215.05 34.1981 214.559C34.4668 214.187 34.5663 213.676 34.4867 213.084C34.427 212.632 34.2976 212.301 34.2976 212.281L34.1882 212.331C34.1882 212.331 34.6956 213.666 34.1086 214.488C33.7405 215 33.034 215.221 32.0092 215.161C28.5766 214.94 24.4376 213.806 24.3978 213.796L24.3679 213.916C24.3679 213.916 28.5667 215.07 32.0092 215.281C32.1286 215.281 32.2381 215.291 32.3475 215.291H32.3276Z" fill="#C9C9C9"/>
<path d="M39.4616 216.866C39.6506 214.408 38.0786 213.184 37.3323 212.602C37.1532 212.462 37.004 212.341 36.9742 212.281C36.8249 211.94 37.1234 211.237 37.1234 211.227L37.014 211.177C37.014 211.177 36.6956 211.94 36.8647 212.331C36.9045 212.421 37.0438 212.532 37.2627 212.702C37.999 213.274 39.5213 214.468 39.3422 216.866H39.4616Z" fill="#C9C9C9"/>
<path d="M45.501 216.314C45.6801 213.084 44.1279 211.488 43.3718 210.716C43.1827 210.525 43.0335 210.374 43.0036 210.284C42.8444 209.823 43.1429 208.88 43.1529 208.869L43.0335 208.829C43.0335 208.829 42.7151 209.823 42.8842 210.324C42.924 210.445 43.0633 210.585 43.2822 210.806C44.0185 211.558 45.5507 213.144 45.3716 216.314H45.491H45.501Z" fill="#C9C9C9"/>
<path d="M56.2367 211.488C56.2367 211.488 38.8547 211.599 42.5162 215.783C42.5162 215.783 39.2925 215.732 38.9642 213.465C38.6358 211.197 44.0385 211.378 49.8988 211.197C55.2119 211.037 55.3114 211.077 55.3114 211.077L56.2367 211.488Z" fill="#FF0000"/>
<path d="M29.4422 213.395C29.5246 213.395 29.5915 213.327 29.5915 213.244C29.5915 213.161 29.5246 213.094 29.4422 213.094C29.3598 213.094 29.293 213.161 29.293 213.244C29.293 213.327 29.3598 213.395 29.4422 213.395Z" fill="#E5E5E5"/>
<path d="M29.1737 213.856C29.2561 213.856 29.3229 213.789 29.3229 213.706C29.3229 213.623 29.2561 213.555 29.1737 213.555C29.0912 213.555 29.0244 213.623 29.0244 213.706C29.0244 213.789 29.0912 213.856 29.1737 213.856Z" fill="#E5E5E5"/>
<path d="M30.1488 213.997C30.2312 213.997 30.298 213.929 30.298 213.846C30.298 213.763 30.2312 213.696 30.1488 213.696C30.0663 213.696 29.9995 213.763 29.9995 213.846C29.9995 213.929 30.0663 213.997 30.1488 213.997Z" fill="#E5E5E5"/>
<path d="M30.4771 214.719C30.5596 214.719 30.6264 214.652 30.6264 214.568C30.6264 214.485 30.5596 214.418 30.4771 214.418C30.3947 214.418 30.3279 214.485 30.3279 214.568C30.3279 214.652 30.3947 214.719 30.4771 214.719Z" fill="#E5E5E5"/>
<path d="M31.8104 213.796C31.8928 213.796 31.9596 213.728 31.9596 213.645C31.9596 213.562 31.8928 213.495 31.8104 213.495C31.728 213.495 31.6611 213.562 31.6611 213.645C31.6611 213.728 31.728 213.796 31.8104 213.796Z" fill="#E5E5E5"/>
<path d="M31.5018 214.769C31.5842 214.769 31.651 214.702 31.651 214.619C31.651 214.536 31.5842 214.468 31.5018 214.468C31.4194 214.468 31.3525 214.536 31.3525 214.619C31.3525 214.702 31.4194 214.769 31.5018 214.769Z" fill="#E5E5E5"/>
<path d="M31.0145 214.107C31.0969 214.107 31.1637 214.04 31.1637 213.956C31.1637 213.873 31.0969 213.806 31.0145 213.806C30.9321 213.806 30.8652 213.873 30.8652 213.956C30.8652 214.04 30.9321 214.107 31.0145 214.107Z" fill="#E5E5E5"/>
<path d="M32.5565 214.218C32.6389 214.218 32.7057 214.15 32.7057 214.067C32.7057 213.984 32.6389 213.917 32.5565 213.917C32.474 213.917 32.4072 213.984 32.4072 214.067C32.4072 214.15 32.474 214.218 32.5565 214.218Z" fill="#E5E5E5"/>
<path d="M33.4222 213.545C33.5046 213.545 33.5714 213.478 33.5714 213.395C33.5714 213.312 33.5046 213.244 33.4222 213.244C33.3398 213.244 33.2729 213.312 33.2729 213.395C33.2729 213.478 33.3398 213.545 33.4222 213.545Z" fill="#E5E5E5"/>
<path d="M32.8651 214.86C32.9475 214.86 33.0143 214.792 33.0143 214.709C33.0143 214.626 32.9475 214.559 32.8651 214.559C32.7826 214.559 32.7158 214.626 32.7158 214.709C32.7158 214.792 32.7826 214.86 32.8651 214.86Z" fill="#E5E5E5"/>
<path d="M29.6414 214.328C29.7239 214.328 29.7907 214.26 29.7907 214.177C29.7907 214.094 29.7239 214.027 29.6414 214.027C29.559 214.027 29.4922 214.094 29.4922 214.177C29.4922 214.26 29.559 214.328 29.6414 214.328Z" fill="#E5E5E5"/>
<path d="M28.8951 214.368C28.9775 214.368 29.0443 214.301 29.0443 214.217C29.0443 214.134 28.9775 214.067 28.8951 214.067C28.8127 214.067 28.7458 214.134 28.7458 214.217C28.7458 214.301 28.8127 214.368 28.8951 214.368Z" fill="#E5E5E5"/>
<path d="M28.4075 213.957C28.49 213.957 28.5568 213.889 28.5568 213.806C28.5568 213.723 28.49 213.656 28.4075 213.656C28.3251 213.656 28.2583 213.723 28.2583 213.806C28.2583 213.889 28.3251 213.957 28.4075 213.957Z" fill="#E5E5E5"/>
<path d="M27.5518 214.057C27.6343 214.057 27.7011 213.989 27.7011 213.906C27.7011 213.823 27.6343 213.756 27.5518 213.756C27.4694 213.756 27.4026 213.823 27.4026 213.906C27.4026 213.989 27.4694 214.057 27.5518 214.057Z" fill="#E5E5E5"/>
<path d="M28.6563 213.465C28.7387 213.465 28.8056 213.397 28.8056 213.314C28.8056 213.231 28.7387 213.164 28.6563 213.164C28.5739 213.164 28.5071 213.231 28.5071 213.314C28.5071 213.397 28.5739 213.465 28.6563 213.465Z" fill="#E5E5E5"/>
<path d="M27.8206 213.595C27.9031 213.595 27.9699 213.528 27.9699 213.445C27.9699 213.362 27.9031 213.294 27.8206 213.294C27.7382 213.294 27.6714 213.362 27.6714 213.445C27.6714 213.528 27.7382 213.595 27.8206 213.595Z" fill="#E5E5E5"/>
<path d="M27.0047 213.736C27.0871 213.736 27.154 213.668 27.154 213.585C27.154 213.502 27.0871 213.435 27.0047 213.435C26.9223 213.435 26.8555 213.502 26.8555 213.585C26.8555 213.668 26.9223 213.736 27.0047 213.736Z" fill="#E5E5E5"/>
<path d="M56.2366 218.361H54.4257C54.3163 218.361 54.2267 218.271 54.2267 218.161C54.2267 218.05 54.3163 217.96 54.4257 217.96H56.2366V218.371V218.361Z" fill="#FF0000"/>
<path d="M50.8042 217.96H49.1924C49.0825 217.96 48.9934 218.05 48.9934 218.161V218.171C48.9934 218.281 49.0825 218.371 49.1924 218.371H50.8042C50.9141 218.371 51.0032 218.281 51.0032 218.171V218.161C51.0032 218.05 50.9141 217.96 50.8042 217.96Z" fill="#FF0000"/>
<path d="M51.5304 217.9C51.61 217.9 51.6598 217.97 51.6697 218.1H51.7195V217.87H51.809V218.492H51.7195V218.181H51.6697C51.6697 218.311 51.61 218.391 51.5304 218.391C51.4409 218.391 51.3911 218.301 51.3911 218.151C51.3911 218 51.4508 217.91 51.5304 217.91V217.9ZM51.5304 218.291C51.5304 218.291 51.5901 218.241 51.5901 218.141C51.5901 218.04 51.5702 217.99 51.5304 217.99C51.4906 217.99 51.4707 218.04 51.4707 218.141C51.4707 218.241 51.4906 218.291 51.5304 218.291ZM51.9483 218.512H51.8587V217.85H51.9483V218.512Z" fill="black"/>
<path d="M52.3664 218.09H52.4758V217.85H52.5654V218.512H52.4758V218.161H52.3664C52.3664 218.291 52.2868 218.361 52.1972 218.361C52.0977 218.361 52.0281 218.271 52.0281 218.131C52.0281 217.99 52.0977 217.9 52.1972 217.9C52.2868 217.9 52.3564 217.97 52.3664 218.09ZM52.1972 218.281C52.1972 218.281 52.2768 218.231 52.2768 218.131C52.2768 218.03 52.247 217.98 52.1972 217.98C52.1475 217.98 52.1176 218.03 52.1176 218.131C52.1176 218.231 52.1475 218.281 52.1972 218.281Z" fill="black"/>
<path d="M53.2518 218.431H52.6548V218.351H52.9035V218.231H52.7045V218.161H52.7941V217.97H52.7045V217.9H53.202V217.97H53.1125V218.161H53.202V218.231H53.003V218.351H53.2617V218.431H53.2518ZM53.0229 218.161V217.97H52.8836V218.161H53.0229Z" fill="black"/>
<path d="M53.2915 218.151H53.8885V218.221H53.6397V218.281H53.8188V218.502H53.7293V218.351H53.3612V218.281H53.5502V218.221H53.3015V218.151H53.2915ZM53.8586 218.04L53.8288 218.11C53.7193 218.09 53.6397 218.05 53.59 217.98C53.5502 218.04 53.4706 218.09 53.3512 218.11L53.3214 218.04C53.4706 218.02 53.5402 217.94 53.5402 217.87V217.85H53.6298V217.87C53.6298 217.94 53.7094 218.02 53.8487 218.04H53.8586Z" fill="black"/>
<path d="M26.8356 220.097C26.9052 220.117 26.9848 220.127 27.0545 220.147C27.2435 220.187 27.4226 220.217 27.5918 220.248C27.6714 220.258 27.741 220.278 27.8107 220.288C28.0096 220.318 28.1887 220.348 28.3479 220.378C28.4275 220.388 28.4972 220.398 28.5668 220.408C28.8355 220.448 29.0245 220.468 29.1041 220.478C29.134 220.478 29.1539 220.478 29.1539 220.478H29.323H54.804C54.8438 220.478 54.8836 220.478 54.9234 220.478C55.003 220.478 55.0726 220.468 55.1423 220.458C56.3064 220.258 56.2268 219.064 56.2268 219.064C56.2268 219.064 55.9581 219.284 55.1423 219.505C55.0726 219.525 55.003 219.545 54.9234 219.565C54.7642 219.605 54.5851 219.646 54.3861 219.676C54.3164 219.686 54.2468 219.706 54.1672 219.716C53.9981 219.746 53.819 219.766 53.6299 219.796C53.5603 219.796 53.4906 219.816 53.411 219.826C53.2419 219.846 53.0628 219.866 52.8738 219.876C52.8041 219.876 52.7345 219.886 52.6549 219.896C52.4857 219.906 52.3066 219.916 52.1176 219.926C52.0479 219.926 51.9683 219.926 51.8987 219.937C51.7295 219.937 51.5505 219.947 51.3614 219.957C51.2918 219.957 51.2122 219.957 51.1425 219.957C50.9734 219.957 50.7943 219.957 50.6152 219.957H32.885C32.885 219.957 32.6959 219.957 32.3676 219.957C32.2979 219.957 32.2283 219.957 32.1487 219.957C31.9895 219.957 31.8104 219.957 31.6114 219.937C31.5418 219.937 31.4721 219.937 31.3925 219.937C31.2234 219.937 31.0443 219.916 30.8552 219.906C30.7856 219.906 30.706 219.906 30.6363 219.896C30.4672 219.886 30.2782 219.876 30.0991 219.856C30.0294 219.856 29.9498 219.846 29.8802 219.836C29.7011 219.826 29.522 219.806 29.3429 219.786C29.2733 219.786 29.1937 219.776 29.124 219.766C28.9449 219.746 28.7658 219.726 28.5867 219.706C28.5171 219.706 28.4375 219.686 28.3678 219.676C28.1887 219.656 28.0096 219.625 27.8306 219.595C27.7609 219.585 27.6813 219.575 27.6117 219.565C27.4326 219.535 27.2535 219.505 27.0744 219.475L26.8555 219.435C24.9153 219.054 23.1244 218.391 22.5772 217.248C22.0996 218.793 24.7661 219.666 26.8555 220.117L26.8356 220.097Z" fill="#BCBCBC"/>
<path d="M54.9333 219.555V220.478C55.0129 220.478 55.0826 220.468 55.1522 220.458V219.495C55.0826 219.515 55.0129 219.535 54.9333 219.555Z" fill="#9B9B9B"/>
<path d="M54.177 219.706V220.488H54.3959V219.676C54.3262 219.686 54.2566 219.706 54.177 219.716V219.706Z" fill="#9B9B9B"/>
<path d="M53.4109 219.806V220.478H53.6298V219.776C53.5601 219.776 53.4905 219.796 53.4109 219.806Z" fill="#9B9B9B"/>
<path d="M52.6548 219.876V220.478H52.8737V219.856C52.804 219.856 52.7344 219.866 52.6548 219.876Z" fill="#9B9B9B"/>
<path d="M51.8987 219.927V220.488H52.1176V219.917C52.0479 219.917 51.9683 219.917 51.8987 219.927Z" fill="#9B9B9B"/>
<path d="M51.1326 219.947V220.488H51.3515V219.947C51.2818 219.947 51.2022 219.947 51.1326 219.947Z" fill="#9B9B9B"/>
<path d="M50.5951 219.947H50.3762V220.478H50.5951V219.947Z" fill="#9B9B9B"/>
<path d="M49.839 219.947H49.6201V220.478H49.839V219.947Z" fill="#9B9B9B"/>
<path d="M49.0729 219.947H48.854V220.478H49.0729V219.947Z" fill="#9B9B9B"/>
<path d="M48.3168 219.947H48.0979V220.478H48.3168V219.947Z" fill="#9B9B9B"/>
<path d="M47.5607 219.947H47.3418V220.478H47.5607V219.947Z" fill="#9B9B9B"/>
<path d="M46.7946 219.947H46.5757V220.478H46.7946V219.947Z" fill="#9B9B9B"/>
<path d="M46.0382 219.947H45.8193V220.478H46.0382V219.947Z" fill="#9B9B9B"/>
<path d="M45.2821 219.947H45.0632V220.478H45.2821V219.947Z" fill="#9B9B9B"/>
<path d="M44.516 219.947H44.2971V220.478H44.516V219.947Z" fill="#9B9B9B"/>
<path d="M43.7599 219.947H43.541V220.478H43.7599V219.947Z" fill="#9B9B9B"/>
<path d="M43.0036 219.947H42.7847V220.478H43.0036V219.947Z" fill="#9B9B9B"/>
<path d="M42.2374 219.947H42.0186V220.478H42.2374V219.947Z" fill="#9B9B9B"/>
<path d="M41.4813 219.947H41.2625V220.478H41.4813V219.947Z" fill="#9B9B9B"/>
<path d="M40.7252 219.947H40.5063V220.478H40.7252V219.947Z" fill="#9B9B9B"/>
<path d="M39.9691 219.947H39.7502V220.478H39.9691V219.947Z" fill="#9B9B9B"/>
<path d="M39.2028 219.947H38.9839V220.478H39.2028V219.947Z" fill="#9B9B9B"/>
<path d="M38.4467 219.947H38.2278V220.478H38.4467V219.947Z" fill="#9B9B9B"/>
<path d="M37.6906 219.947H37.4717V220.478H37.6906V219.947Z" fill="#9B9B9B"/>
<path d="M36.9245 219.947H36.7056V220.478H36.9245V219.947Z" fill="#9B9B9B"/>
<path d="M36.1684 219.947H35.9495V220.478H36.1684V219.947Z" fill="#9B9B9B"/>
<path d="M35.412 219.947H35.1931V220.478H35.412V219.947Z" fill="#9B9B9B"/>
<path d="M34.6459 219.947H34.427V220.478H34.6459V219.947Z" fill="#9B9B9B"/>
<path d="M33.8898 219.947H33.6709V220.478H33.8898V219.947Z" fill="#9B9B9B"/>
<path d="M33.1337 219.947H32.9148V220.478H33.1337V219.947Z" fill="#9B9B9B"/>
<path d="M32.1487 219.947V220.488H32.3676V219.957C32.2979 219.957 32.2283 219.957 32.1487 219.957V219.947Z" fill="#9B9B9B"/>
<path d="M31.3923 219.917V220.478H31.6112V219.927C31.5416 219.927 31.4719 219.927 31.3923 219.927V219.917Z" fill="#9B9B9B"/>
<path d="M30.6362 219.876V220.478H30.8551V219.886C30.7855 219.886 30.7059 219.886 30.6362 219.876Z" fill="#9B9B9B"/>
<path d="M29.8701 219.826V220.478H30.089V219.836C30.0194 219.836 29.9398 219.826 29.8701 219.816V219.826Z" fill="#9B9B9B"/>
<path d="M29.114 219.756V220.478H29.1638H29.3329V219.776C29.2633 219.776 29.1837 219.766 29.114 219.756Z" fill="#9B9B9B"/>
<path d="M28.3579 219.666V220.378C28.4375 220.388 28.5072 220.398 28.5768 220.408V219.696C28.5072 219.696 28.4276 219.676 28.3579 219.666Z" fill="#9B9B9B"/>
<path d="M27.5918 219.555V220.247C27.6714 220.258 27.741 220.278 27.8107 220.288V219.585C27.741 219.575 27.6614 219.565 27.5918 219.555Z" fill="#9B9B9B"/>
<path d="M26.8354 219.425V220.107C26.9051 220.127 26.9847 220.137 27.0543 220.157V219.475L26.8354 219.435V219.425Z" fill="#9B9B9B"/>
<path d="M42.3289 208.168L42.3375 208.162C42.4898 208.074 42.542 207.877 42.4541 207.724L41.8671 206.699C41.7791 206.545 41.5844 206.492 41.4321 206.581L41.4235 206.586C41.2712 206.675 41.2191 206.871 41.307 207.025L41.894 208.05C41.9819 208.204 42.1767 208.256 42.3289 208.168Z" fill="#E5E5E5"/>
<path d="M41.1517 208.726L41.1603 208.721C41.3126 208.632 41.3648 208.436 41.2768 208.282L40.6898 207.257C40.6019 207.103 40.4072 207.051 40.2549 207.139L40.2463 207.144C40.094 207.233 40.0418 207.429 40.1297 207.583L40.7168 208.608C40.8047 208.762 40.9994 208.815 41.1517 208.726Z" fill="#E5E5E5"/>
<path d="M39.971 209.298L39.9796 209.293C40.1319 209.204 40.1841 209.008 40.0962 208.854L39.5091 207.829C39.4212 207.675 39.2265 207.623 39.0742 207.711L39.0656 207.716C38.9133 207.805 38.8611 208.001 38.9491 208.155L39.5361 209.18C39.624 209.334 39.8187 209.386 39.971 209.298Z" fill="#E5E5E5"/>
<path d="M38.8087 209.865L38.8173 209.86C38.9696 209.771 39.0217 209.574 38.9338 209.421L38.3468 208.396C38.2589 208.242 38.0642 208.189 37.9119 208.278L37.9033 208.283C37.751 208.372 37.6988 208.568 37.7867 208.722L38.3737 209.747C38.4617 209.901 38.6564 209.953 38.8087 209.865Z" fill="#E5E5E5"/>
<path d="M37.6317 210.423L37.6403 210.418C37.7926 210.329 37.8447 210.133 37.7568 209.979L37.1698 208.954C37.0819 208.8 36.8871 208.748 36.7349 208.836L36.7263 208.841C36.574 208.93 36.5218 209.126 36.6097 209.28L37.1967 210.305C37.2847 210.459 37.4794 210.512 37.6317 210.423Z" fill="#E5E5E5"/>
<path d="M36.4595 210.99L36.4682 210.985C36.6204 210.896 36.6726 210.7 36.5847 210.546L35.9977 209.521C35.9098 209.367 35.715 209.315 35.5627 209.403L35.5541 209.408C35.4018 209.497 35.3497 209.693 35.4376 209.847L36.0246 210.872C36.1125 211.026 36.3073 211.078 36.4595 210.99Z" fill="#E5E5E5"/>
<path d="M35.2923 211.548L35.3009 211.543C35.4532 211.454 35.5054 211.258 35.4175 211.104L34.8304 210.079C34.7425 209.925 34.5478 209.873 34.3955 209.961L34.3869 209.966C34.2346 210.055 34.1824 210.251 34.2704 210.405L34.8574 211.43C34.9453 211.584 35.14 211.637 35.2923 211.548Z" fill="#E5E5E5"/>
<path d="M34.1116 212.12L34.1203 212.115C34.2725 212.026 34.3247 211.83 34.2368 211.676L33.6498 210.651C33.5619 210.497 33.3671 210.445 33.2148 210.533L33.2062 210.538C33.0539 210.627 33.0018 210.823 33.0897 210.977L33.6767 212.002C33.7646 212.156 33.9594 212.209 34.1116 212.12Z" fill="#E5E5E5"/>
<path d="M56.2166 211.548L56.2564 211.438C54.1372 210.605 53.4407 209.231 53.4307 209.221L53.3213 209.271C53.3511 209.331 54.0377 210.696 56.2067 211.548H56.2166Z" fill="#C9C9C9"/>
</g>
<defs>
<clipPath id="clip0_775_9377">
<rect width="79" height="15" fill="white" transform="translate(22 206)"/>
</clipPath>
</defs>
</svg>
