<svg width="122" height="225" viewBox="0 0 122 225" fill="none" xmlns="http://www.w3.org/2000/svg">
<g clip-path="url(#clip0_775_9124)">
<path d="M66.3135 219.909C67.0118 220.68 67.9495 220.57 67.9096 220.56C72.9774 220.87 77.2671 221 80.8984 221C99.8428 221 100.92 217.448 100.99 216.978V216.898L100.232 213.666L100.122 213.205L99.9426 212.475C99.9126 212.355 99.1944 209.663 94.376 209.613C93.927 209.613 93.4981 209.583 93.0791 209.533H93.0691C92.6002 209.493 92.1613 209.413 91.7323 209.323C91.1238 209.203 90.5452 209.033 90.0065 208.853C89.5875 208.713 89.1884 208.553 88.8193 208.393C88.2607 208.142 87.7519 207.882 87.293 207.622C86.894 207.402 86.5348 207.182 86.2256 206.972C85.7966 206.702 85.4474 206.451 85.1681 206.251C84.8788 206.041 84.6693 205.891 84.5396 205.831C83.9311 205.511 83.5021 205.961 83.2128 206.251C82.8238 206.651 82.5744 206.862 81.9858 206.641C81.6067 206.481 81.2076 206.221 81.477 205.461C81.5568 205.251 81.5468 205.041 81.457 204.84C81.3573 204.64 81.1877 204.48 80.9882 204.41L79.9906 204.05C79.6115 203.92 79.2025 204.06 79.0029 204.4C78.5041 205.211 78.3246 205.971 78.3645 206.671L77.6462 207.302C73.5959 210.824 71.4012 209.033 69.7851 207.732C69.1267 207.192 68.598 206.772 68.0393 206.772H67.9994C66.1937 206.822 65.9643 211.815 65.9443 213.926L65.8546 215.247C65.8546 215.247 65.8446 215.297 65.8446 215.307C65.3657 217.508 65.5254 219.049 66.3135 219.909ZM66.6526 215.847C68.8873 216.107 79.6314 217.198 90.2659 216.027L91.1737 215.927C94.2064 215.557 96.9897 215.016 99.4637 214.336L100.062 216.888C99.8827 217.208 98.6557 218.739 91.7024 219.559L90.7946 219.669C86.0161 220.159 78.7835 220.32 67.8797 219.659C67.8597 219.659 67.351 219.709 66.9619 219.279C66.5928 218.869 66.2536 217.938 66.6526 215.847Z" fill="#D8D8D8"/>
<path d="M66.3135 219.909C67.0118 220.68 67.9495 220.57 67.9096 220.56C72.9774 220.87 77.2671 221 80.8984 221C99.8428 221 100.92 217.448 100.99 216.978V216.898L100.232 213.666L100.122 213.205L99.9426 212.475C99.9126 212.355 99.1944 209.663 94.376 209.613C93.927 209.613 93.4981 209.583 93.0791 209.533H93.0691C92.6002 209.493 92.1613 209.413 91.7323 209.323C91.1238 209.203 90.5452 209.033 90.0065 208.853C89.5875 208.713 89.1884 208.553 88.8193 208.393C88.2607 208.142 87.7519 207.882 87.293 207.622C86.894 207.402 86.5348 207.182 86.2256 206.972C85.7966 206.702 85.4474 206.451 85.1681 206.251C84.8788 206.041 84.6693 205.891 84.5396 205.831C83.9311 205.511 83.5021 205.961 83.2128 206.251C82.8238 206.651 82.5744 206.862 81.9858 206.641C81.6067 206.481 81.2076 206.221 81.477 205.461C81.5568 205.251 81.5468 205.041 81.457 204.84C81.3573 204.64 81.1877 204.48 80.9882 204.41L79.9906 204.05C79.6115 203.92 79.2025 204.06 79.0029 204.4C78.5041 205.211 78.3246 205.971 78.3645 206.671L77.6462 207.302C73.5959 210.824 71.4012 209.033 69.7851 207.732C69.1267 207.192 68.598 206.772 68.0393 206.772H67.9994C66.1937 206.822 65.9643 211.815 65.9443 213.926L65.8546 215.247C65.8546 215.247 65.8446 215.297 65.8446 215.307C65.3657 217.508 65.5254 219.049 66.3135 219.909ZM99.2443 213.455C96.6804 214.166 93.7774 214.706 90.605 215.076C79.9407 216.307 69.0569 215.197 66.7823 214.946L66.8522 213.976C66.8821 210.754 67.4507 207.692 68.0293 207.682H68.0393C68.2787 207.682 68.7576 208.072 69.2165 208.433C70.8625 209.773 73.6259 212.005 78.2448 207.992L78.554 207.722C78.9431 208.853 79.811 209.703 80.4993 210.124L80.9782 209.353C80.8585 209.283 78.1949 207.552 79.7412 204.93L80.5991 205.241C80.2599 206.261 80.649 207.092 81.6566 207.482C82.8238 207.942 83.4722 207.282 83.8613 206.882C83.951 206.792 84.0907 206.651 84.1306 206.631C84.2304 206.692 84.4099 206.822 84.6394 206.992C84.9287 207.202 85.2878 207.462 85.7268 207.742C86.046 207.952 86.3952 208.172 86.7942 208.393C87.2531 208.653 87.7619 208.923 88.3205 209.173C88.6896 209.333 89.0887 209.493 89.4977 209.643C90.0364 209.833 90.605 210.003 91.2136 210.144C91.6326 210.244 92.0715 210.324 92.5304 210.384C93.119 210.464 93.7275 210.514 94.366 210.524C98.4362 210.564 99.0348 212.615 99.0647 212.695L99.2443 213.455ZM66.6526 215.847C68.8873 216.107 79.6314 217.198 90.2659 216.027L91.1737 215.927C94.2064 215.557 96.9897 215.016 99.4637 214.336L100.062 216.888C99.8827 217.208 98.6557 218.739 91.7024 219.559L90.7946 219.669C86.0161 220.159 78.7835 220.32 67.8797 219.659C67.8597 219.659 67.351 219.709 66.9619 219.279C66.5928 218.869 66.2536 217.938 66.6526 215.847Z" fill="black"/>
<path d="M85.6669 208.993C85.9562 209.183 86.3353 209.103 86.5248 208.813L87.5823 207.162C87.7718 206.872 87.692 206.481 87.4027 206.291C87.1134 206.101 86.7343 206.181 86.5448 206.471L85.4873 208.122C85.2978 208.413 85.3776 208.803 85.6669 208.993Z" fill="black"/>
<path d="M88.4303 210.154C88.7196 210.344 89.0987 210.264 89.2883 209.973L90.3457 208.323C90.5353 208.032 90.4555 207.642 90.1662 207.452C89.8768 207.262 89.4978 207.342 89.3082 207.632L88.2508 209.283C88.0612 209.573 88.141 209.963 88.4303 210.154Z" fill="black"/>
<path d="M91.2633 211.214C91.5526 211.404 91.9317 211.324 92.1213 211.034L93.1787 209.383C93.3683 209.093 93.2885 208.703 92.9992 208.513C92.7099 208.322 92.3308 208.402 92.1412 208.693L91.0838 210.344C90.8942 210.634 90.974 211.024 91.2633 211.214Z" fill="black"/>
<path d="M66.9619 219.279C67.351 219.709 67.8598 219.659 67.8797 219.659C78.7835 220.32 86.0161 220.16 90.7946 219.669L91.7024 219.559C98.6557 218.739 99.8827 217.208 100.062 216.888L99.4637 214.336C96.9897 215.017 94.2064 215.557 91.1737 215.927L90.2659 216.027C79.6314 217.198 68.8873 216.107 66.6527 215.847C66.2536 217.938 66.5928 218.869 66.9619 219.279Z" fill="black"/>
<path d="M57.1554 215.307C57.1554 215.307 57.1554 215.267 57.1455 215.247L57.0557 213.926C57.0357 211.815 56.8063 206.822 55.0006 206.772H54.9607C54.4021 206.772 53.8733 207.192 53.2149 207.732C51.5988 209.033 49.4041 210.824 45.3538 207.302L44.6356 206.671C44.6755 205.971 44.4959 205.211 43.9971 204.4C43.7976 204.06 43.3886 203.92 43.0095 204.05L42.0119 204.41C41.8123 204.48 41.6428 204.64 41.543 204.84C41.4532 205.041 41.4432 205.251 41.523 205.461C41.7924 206.221 41.3934 206.481 41.0143 206.641C40.4257 206.862 40.1763 206.641 39.7872 206.251C39.4979 205.961 39.0689 205.511 38.4604 205.831C38.3307 205.891 38.1212 206.041 37.8319 206.251C37.5526 206.451 37.2034 206.702 36.7745 206.972C36.4652 207.182 36.1061 207.402 35.707 207.622C35.2481 207.882 34.7394 208.142 34.1807 208.393C33.8116 208.553 33.4126 208.713 32.9936 208.853C32.4549 209.033 31.8762 209.203 31.2677 209.323C30.8387 209.413 30.3998 209.493 29.9309 209.533H29.9209C29.502 209.583 29.073 209.613 28.6241 209.613C23.8057 209.663 23.0874 212.355 23.0575 212.475L22.8779 213.205L22.7682 213.666L22 216.898V216.978C22.0798 217.448 23.1572 221 42.1017 221C45.7329 221 50.0226 220.87 55.0904 220.56C55.0505 220.57 55.9883 220.68 56.6866 219.909C57.4747 219.049 57.6343 217.508 57.1554 215.307ZM56.0381 219.279C55.6491 219.709 55.1403 219.659 55.1203 219.659C44.2166 220.32 36.984 220.159 32.2055 219.669L31.2976 219.559C24.3444 218.739 23.1173 217.208 22.9377 216.888L23.5363 214.336C26.0104 215.016 28.7937 215.557 31.8264 215.927L32.7342 216.027C43.3686 217.198 54.1128 216.107 56.3474 215.847C56.7464 217.938 56.4072 218.869 56.0381 219.279Z" fill="#D8D8D8"/>
<path d="M57.1554 215.307C57.1554 215.307 57.1554 215.267 57.1455 215.247L57.0557 213.926C57.0357 211.815 56.8063 206.822 55.0006 206.772H54.9607C54.4021 206.772 53.8733 207.192 53.2149 207.732C51.5988 209.033 49.4041 210.824 45.3538 207.302L44.6356 206.671C44.6755 205.971 44.4959 205.211 43.9971 204.4C43.7976 204.06 43.3886 203.92 43.0095 204.05L42.0119 204.41C41.8123 204.48 41.6428 204.64 41.543 204.84C41.4532 205.041 41.4432 205.251 41.523 205.461C41.7924 206.221 41.3934 206.481 41.0143 206.641C40.4257 206.862 40.1763 206.641 39.7872 206.251C39.4979 205.961 39.0689 205.511 38.4604 205.831C38.3307 205.891 38.1212 206.041 37.8319 206.251C37.5526 206.451 37.2034 206.702 36.7745 206.972C36.4652 207.182 36.1061 207.402 35.707 207.622C35.2481 207.882 34.7394 208.142 34.1807 208.393C33.8116 208.553 33.4126 208.713 32.9936 208.853C32.4549 209.033 31.8762 209.203 31.2677 209.323C30.8387 209.413 30.3998 209.493 29.9309 209.533H29.9209C29.502 209.583 29.073 209.613 28.6241 209.613C23.8057 209.663 23.0874 212.355 23.0575 212.475L22.8779 213.205L22.7682 213.666L22 216.898V216.978C22.0798 217.448 23.1572 221 42.1017 221C45.7329 221 50.0226 220.87 55.0904 220.56C55.0505 220.57 55.9883 220.68 56.6866 219.909C57.4747 219.049 57.6343 217.508 57.1554 215.307ZM23.9353 212.695C23.9653 212.615 24.5638 210.564 28.634 210.524C29.2725 210.514 29.881 210.464 30.4696 210.384C30.9285 210.324 31.3675 210.244 31.7865 210.144C32.395 210.003 32.9636 209.833 33.5023 209.643C33.9114 209.493 34.3104 209.333 34.6795 209.173C35.2382 208.923 35.7469 208.653 36.2058 208.393C36.6049 208.172 36.954 207.952 37.2733 207.742C37.7122 207.462 38.0713 207.202 38.3607 206.992C38.5901 206.822 38.7697 206.692 38.8694 206.631C38.9093 206.651 39.049 206.792 39.1388 206.882C39.5278 207.282 40.1763 207.942 41.3435 207.482C42.3511 207.092 42.7401 206.261 42.4009 205.241L43.2589 204.93C44.8052 207.552 42.1416 209.283 42.0218 209.353L42.5007 210.124C43.189 209.703 44.057 208.853 44.446 207.722L44.7553 207.992C49.3742 212.005 52.1375 209.773 53.7836 208.433C54.2425 208.072 54.7213 207.682 54.9607 207.682H54.9707C55.5493 207.692 56.1179 210.754 56.1479 213.976L56.2177 214.946C53.9432 215.197 43.0593 216.307 32.395 215.076C29.2226 214.706 26.3196 214.166 23.7558 213.455L23.9353 212.695ZM56.0381 219.279C55.6491 219.709 55.1403 219.659 55.1203 219.659C44.2166 220.32 36.984 220.159 32.2055 219.669L31.2976 219.559C24.3444 218.739 23.1173 217.208 22.9377 216.888L23.5363 214.336C26.0104 215.016 28.7937 215.557 31.8264 215.927L32.7342 216.027C43.3686 217.198 54.1128 216.107 56.3474 215.847C56.7464 217.938 56.4072 218.869 56.0381 219.279Z" fill="black"/>
<path d="M37.3331 208.993C37.0438 209.183 36.6648 209.103 36.4752 208.813L35.4178 207.162C35.2282 206.872 35.308 206.481 35.5973 206.291C35.8866 206.101 36.2657 206.181 36.4553 206.471L37.5127 208.122C37.7023 208.413 37.6224 208.803 37.3331 208.993Z" fill="black"/>
<path d="M34.5697 210.154C34.2804 210.344 33.9013 210.264 33.7118 209.973L32.6543 208.323C32.4648 208.032 32.5446 207.642 32.8339 207.452C33.1232 207.262 33.5023 207.342 33.6918 207.632L34.7493 209.283C34.9388 209.573 34.859 209.963 34.5697 210.154Z" fill="black"/>
<path d="M31.7365 211.214C31.4472 211.404 31.0681 211.324 30.8785 211.034L29.8211 209.383C29.6315 209.093 29.7113 208.703 30.0006 208.513C30.2899 208.322 30.669 208.402 30.8586 208.693L31.916 210.344C32.1056 210.634 32.0258 211.024 31.7365 211.214Z" fill="black"/>
<path d="M56.0381 219.279C55.6491 219.709 55.1403 219.659 55.1203 219.659C44.2166 220.32 36.984 220.16 32.2055 219.669L31.2976 219.559C24.3444 218.739 23.1173 217.208 22.9377 216.888L23.5363 214.336C26.0104 215.017 28.7937 215.557 31.8264 215.927L32.7342 216.027C43.3686 217.198 54.1128 216.107 56.3474 215.847C56.7464 217.938 56.4072 218.869 56.0381 219.279Z" fill="black"/>
</g>
<defs>
<clipPath id="clip0_775_9124">
<rect width="79" height="17" fill="white" transform="translate(22 204)"/>
</clipPath>
</defs>
</svg>
