<svg width="122" height="225" viewBox="0 0 122 225" fill="none" xmlns="http://www.w3.org/2000/svg">
<g clip-path="url(#clip0_775_7403)">
<g clip-path="url(#clip1_775_7403)">
<path d="M67.6499 215.827C67.6199 216.419 67.9199 217.333 68.3899 217.946C70.3599 219.865 72.5299 220.166 76.0399 220.729C80.7799 221.482 84.8399 220.779 85.2899 217.916C85.6699 215.485 83.8199 212.803 80.1499 211.658C80.1499 211.658 79.0399 211.507 79.0399 210.734L79.4299 196.851L79.8599 181.642L66.1899 181.763L67.0199 196.74" fill="#FDE2D2"/>
<path d="M55.16 215.827C55.19 216.419 54.89 217.333 54.42 217.946C52.45 219.865 50.28 220.166 46.77 220.729C42.03 221.482 37.97 220.779 37.52 217.916C37.14 215.485 38.99 212.803 42.66 211.658C42.66 211.658 43.77 211.507 43.77 210.734L43.38 196.851L42.95 181.642L56.62 181.763L55.79 196.74" fill="#FDE2D2"/>
<path d="M55.3101 102.564C51.7401 102.725 49.0901 102.926 49.0901 102.926C51.6501 102.675 53.6901 102.584 55.3101 102.564Z" fill="#FDE2D2"/>
<path d="M67.79 81.6997H53.98C55.53 99.44 49.29 102.926 49.29 102.926C49.29 102.926 52.61 107.527 60.66 107.527H61.11C69.16 107.527 72.48 102.926 72.48 102.926C72.48 102.926 66.24 99.44 67.79 81.6997Z" fill="#FDE2D2"/>
<path d="M67.79 81.6997H53.98C55.53 99.44 49.29 102.926 49.29 102.926C49.29 102.926 49.31 102.956 49.35 103.006C56.14 102.283 62.87 99.9021 68.47 95.7332C67.68 92.5388 67.23 88.0283 67.78 81.6997H67.79Z" fill="#EDCCC0"/>
<path d="M36.27 161.762L35.44 131.475C35.23 131.997 34.27 135.202 34.05 135.724C30.97 142.886 30.87 152.42 27.8 160.034C27.8 160.446 27.91 160.878 27.96 161.36C28.17 164.183 26.56 170.783 24.53 170.049C23.4 169.648 24.6 167.016 23.79 167.639C22.56 168.593 23.12 172.189 19 170.873C15.45 169.748 16.15 164.062 17.33 160.345C18.03 158.105 19.56 156.136 21.11 155.273C23.65 145.016 23.82 142.525 26.93 132.369C28 128.883 33.06 112.218 36.44 108.521C36.44 108.521 36.5 108.451 36.63 108.32C37.54 107.396 41.64 103.659 49.3 102.926C49.3 102.926 51.95 102.725 55.52 102.564C55.58 102.564 55.64 102.554 55.7 102.564C61.25 102.303 68.93 102.142 72.48 102.926C80.14 103.659 84.24 107.396 85.15 108.32C85.28 108.451 85.34 108.521 85.34 108.521C88.72 112.218 93.87 128.863 94.85 132.369C97.81 143.027 98.13 145.016 100.67 155.273C102.22 156.136 103.75 158.105 104.45 160.345C105.63 164.062 106.33 169.748 102.78 170.873C98.66 172.189 99.22 168.593 97.99 167.639C97.18 167.016 98.38 169.648 97.25 170.049C95.22 170.783 93.61 164.183 93.82 161.36C93.87 160.878 93.98 160.446 93.98 160.034C90.91 152.42 90.67 142.756 87.59 135.593C87.37 135.071 86.55 131.997 86.34 131.475L86.27 161.762" fill="#FDE2D2"/>
<path d="M47.0199 124.172C47.76 124.172 48.3599 123.569 48.3599 122.826C48.3599 122.082 47.76 121.48 47.0199 121.48C46.2799 121.48 45.6799 122.082 45.6799 122.826C45.6799 123.569 46.2799 124.172 47.0199 124.172Z" fill="#E9B7A8"/>
<path d="M75.81 124.172C76.55 124.172 77.15 123.569 77.15 122.826C77.15 122.082 76.55 121.48 75.81 121.48C75.0699 121.48 74.47 122.082 74.47 122.826C74.47 123.569 75.0699 124.172 75.81 124.172Z" fill="#E9B7A8"/>
<path d="M63.83 146.262C63.17 145.478 62.16 145.147 61.17 145.066C60.1 144.976 59.04 145.237 58.35 146.101C57.7 146.905 57.26 148.15 57.72 149.145C58.14 150.059 59.2 150.561 60.14 150.692C61.26 150.853 62.36 150.531 63.24 149.828C63.45 149.657 63.42 149.296 63.24 149.115C63.03 148.904 62.74 148.944 62.53 149.115C62 149.537 61.3 149.738 60.63 149.727C59.96 149.717 59.19 149.476 58.76 148.934C58.29 148.341 58.64 147.427 59.02 146.875C59.48 146.202 60.2 146.021 60.97 146.051C61.74 146.081 62.6 146.332 63.13 146.965C63.3 147.176 63.66 147.146 63.84 146.965C64.04 146.764 64.01 146.463 63.84 146.252L63.83 146.262Z" fill="#E9B7A8"/>
<path d="M59.9999 148.622C59.9299 148.622 59.8699 148.592 59.8299 148.532C59.7599 148.432 59.7899 148.301 59.8799 148.241L61.3799 147.206C61.4799 147.136 61.6099 147.166 61.6699 147.256C61.7399 147.357 61.7099 147.487 61.6199 147.548L60.1199 148.582C60.1199 148.582 60.0399 148.622 59.9999 148.622Z" fill="#E9B7A8"/>
<path d="M61.2699 148.854C61.1999 148.854 61.1399 148.823 61.0999 148.763L60.0699 147.256C59.9999 147.156 60.0299 147.025 60.1199 146.965C60.2199 146.895 60.3499 146.925 60.4099 147.015L61.4399 148.522C61.5099 148.623 61.4799 148.753 61.3899 148.813C61.3499 148.843 61.3099 148.854 61.2699 148.854Z" fill="#E9B7A8"/>
<path d="M14.5681 62.741C22.6038 62.7283 29.1079 56.1742 29.0952 48.1019C29.0826 40.0297 22.5581 33.4961 14.5224 33.5088C6.48666 33.5215 -0.0173553 40.0756 -0.00473281 48.1479C0.0078897 56.2201 6.53237 62.7537 14.5681 62.741Z" fill="#DDC3BA"/>
<path d="M121.13 44.1598C121.95 46.4602 122.15 48.7505 121.9 50.8902C121.82 51.5633 121.1 51.9249 120.48 51.6537C119.57 51.2519 118.49 51.1614 117.41 51.513C116.01 51.9751 114.92 53.1906 114.61 54.6372C114.22 56.4554 115 58.1531 116.33 59.0873C116.87 59.469 116.87 60.3028 116.34 60.7046C113.88 62.6133 110.8 63.7484 107.45 63.7484C99.4099 63.7484 92.8999 57.1988 92.8999 49.1423C92.8999 40.5434 100.28 33.6824 109.03 34.6065C114.51 35.1892 119.27 38.9462 121.13 44.1497V44.1598Z" fill="#DDC3BA"/>
<path d="M109.45 45.968V51.3122C109.45 76.697 88.9501 97.2802 63.6601 97.2802H58.3501C33.0601 97.2802 12.5701 76.697 12.5701 51.3122V45.968C12.5701 30.1464 20.5301 16.1832 32.6501 7.92586C34.8801 6.39895 37.2501 5.07295 39.7401 3.96795C41.8801 3.00359 44.1001 2.21 46.3901 1.58718C50.2001 0.5525 54.2101 0 58.3501 0H63.6601C73.1701 0 82.0201 2.91318 89.3401 7.90577C101.48 16.1732 109.45 30.1364 109.45 45.968Z" fill="#F7DBCF"/>
<path d="M44.4701 46.8721C45.9391 46.8721 47.1301 45.6758 47.1301 44.2C47.1301 42.7243 45.9391 41.528 44.4701 41.528C43.001 41.528 41.8101 42.7243 41.8101 44.2C41.8101 45.6758 43.001 46.8721 44.4701 46.8721Z" fill="#505050"/>
<path d="M78.5201 46.8721C79.9892 46.8721 81.1801 45.6758 81.1801 44.2C81.1801 42.7243 79.9892 41.528 78.5201 41.528C77.051 41.528 75.8601 42.7243 75.8601 44.2C75.8601 45.6758 77.051 46.8721 78.5201 46.8721Z" fill="#505050"/>
<path d="M64.0501 53.8938C64.0501 54.7577 62.5401 55.4509 60.6801 55.4509C58.8201 55.4509 57.3101 54.7477 57.3101 53.8938C57.3101 53.04 58.8201 52.3368 60.6801 52.3368C62.5401 52.3368 64.0501 53.04 64.0501 53.8938Z" fill="#E9B7A8"/>
<path d="M49 35.8321C44.63 35.1992 40.14 36.7764 36.03 38.1727C34.34 38.7453 33.07 37.9215 32.64 36.5353C32.21 35.139 32.59 33.7929 34.39 33.1399C38.79 31.5527 44.09 29.9354 48.83 30.5582C50.78 30.8194 51.62 31.8641 51.66 33.371C51.71 34.8778 50.79 36.0933 49 35.8321Z" fill="#505050"/>
<path d="M73.6801 35.8321C78.0501 35.1992 82.5401 36.7764 86.6501 38.1727C88.3401 38.7453 89.6101 37.9215 90.0401 36.5353C90.4701 35.139 90.0901 33.7929 88.2901 33.1399C83.8901 31.5527 78.5901 29.9354 73.8501 30.5582C71.9001 30.8194 71.0601 31.8641 71.0201 33.371C70.9701 34.8778 71.8901 36.0933 73.6801 35.8321Z" fill="#505050"/>
<path d="M89.3399 7.90577C85.0699 9.52309 73.7399 9.1715 60.6599 9.1715C47.5799 9.1715 36.7799 9.52309 32.6499 7.92586C34.7199 6.50945 36.9199 5.26382 39.2199 4.20905C39.3899 4.11864 39.5699 4.04832 39.7399 3.96795C41.8799 3.00359 44.0999 2.21 46.3899 1.58718C48.4299 1.03468 50.5199 0.622818 52.6699 0.351591C54.5299 0.120545 56.4199 0 58.3499 0H63.6599C73.1699 0 82.0199 2.91318 89.3399 7.90577Z" fill="#4E4A4B"/>
<path d="M52.66 0.351562C52.89 2.5917 50.81 5.18343 47.6 6.44915C43.98 7.87561 40.27 7.10211 39.35 4.70124C39.29 4.54052 39.24 4.37979 39.21 4.20902C39.38 4.11861 39.56 4.04829 39.73 3.96793C41.87 3.00356 44.09 2.20997 46.38 1.58715C48.42 1.03465 50.51 0.62279 52.66 0.351562Z" fill="#666666"/>
<path d="M70.3199 79.2486C70.0299 79.2486 69.7399 79.1682 69.4799 78.9975C62.6599 74.5875 53.4499 78.5555 53.3599 78.5957C52.5799 78.9372 51.6599 78.5856 51.3099 77.792C50.9599 76.9984 51.3099 76.0843 52.0999 75.7327C52.5399 75.5418 62.9199 71.0415 71.1599 76.3656C71.8799 76.8377 72.0899 77.8021 71.6299 78.5253C71.3299 78.9874 70.8299 79.2386 70.3199 79.2386V79.2486Z" fill="#E9B7A8"/>
<path d="M109.22 41.5681C108 54.5971 101.36 66.0388 91.58 73.6131C86.21 68.5904 81.54 65.9183 81.21 65.7274C68.37 58.9568 55.44 58.9568 42.68 65.7978C42.3701 65.9786 36.79 69.2232 31.19 74.2259C20.98 66.6617 14.02 54.9587 12.76 41.5681C12.62 43.0147 12.55 44.4813 12.55 45.968V51.3122C12.55 76.6971 33.0401 97.2802 58.3301 97.2802H63.64C88.9301 97.2802 109.43 76.6971 109.43 51.3122V45.968C109.43 44.4813 109.36 43.0147 109.22 41.5681ZM63.64 83.1563H58.3301C51.1301 83.1563 44.32 81.4888 38.2701 78.5153C42.58 74.9592 46.48 72.6889 46.48 72.6789C61.8801 64.4316 73.69 70.6497 77.45 72.6287C77.5 72.6588 80.72 74.5172 84.72 78.003C78.41 81.2979 71.24 83.1563 63.64 83.1563Z" fill="#4E4A4B"/>
<path d="M61.1401 63.3868C61.1401 66.32 60.2301 66.8525 59.1201 66.8525C58.0101 66.8525 57.1001 66.32 57.1001 63.3868C57.1001 60.4535 59.1201 55.1595 59.1201 55.1595C59.1201 55.1595 61.1401 60.4535 61.1401 63.3868Z" fill="white"/>
<path d="M82.3798 186.618L65.0898 186.738C64.0398 186.738 63.1498 186.146 63.0298 185.362L61.7198 176.663L60.3398 185.423C60.2198 186.196 59.3498 186.789 58.3198 186.799L41.2698 186.909C40.1998 186.909 39.2998 186.296 39.2098 185.483L36.2798 158.782H86.2798L84.4198 185.161C84.3598 185.985 83.4698 186.628 82.3898 186.638L82.3798 186.618Z" fill="#808184"/>
</g>
</g>
<defs>
<clipPath id="clip0_775_7403">
<rect width="122" height="225" fill="white"/>
</clipPath>
<clipPath id="clip1_775_7403">
<rect width="122" height="225" fill="white"/>
</clipPath>
</defs>
</svg>
