<svg width="122" height="225" viewBox="0 0 122 225" fill="none" xmlns="http://www.w3.org/2000/svg">
<g clip-path="url(#clip0_775_8931)">
<g clip-path="url(#clip1_775_8931)">
<path d="M67.6499 215.827C67.6199 216.419 67.9199 217.333 68.3899 217.946C70.3599 219.865 72.5299 220.166 76.0399 220.729C80.7799 221.482 84.8399 220.779 85.2899 217.916C85.6699 215.485 83.8199 212.803 80.1499 211.658C80.1499 211.658 79.0399 211.507 79.0399 210.733L79.4299 196.851L79.8599 181.642L66.1899 181.762L67.0199 196.74" fill="#FDE2D2"/>
<path d="M55.16 215.827C55.19 216.419 54.89 217.333 54.42 217.946C52.45 219.865 50.28 220.166 46.77 220.729C42.03 221.482 37.97 220.779 37.52 217.916C37.14 215.485 38.99 212.803 42.66 211.658C42.66 211.658 43.77 211.507 43.77 210.733L43.38 196.851L42.95 181.642L56.62 181.762L55.79 196.74" fill="#FDE2D2"/>
<path d="M55.3098 102.564C51.7398 102.725 49.0898 102.926 49.0898 102.926C51.6498 102.675 53.6898 102.584 55.3098 102.564Z" fill="#FDE2D2"/>
<path d="M67.79 81.6997H53.98C55.53 99.44 49.29 102.926 49.29 102.926C49.29 102.926 52.61 107.527 60.66 107.527H61.11C69.16 107.527 72.48 102.926 72.48 102.926C72.48 102.926 66.24 99.44 67.79 81.6997Z" fill="#FDE2D2"/>
<path d="M67.79 81.6997H53.98C55.53 99.44 49.29 102.926 49.29 102.926C49.29 102.926 49.31 102.956 49.35 103.006C56.14 102.283 62.87 99.9021 68.47 95.7332C67.68 92.5388 67.23 88.0283 67.78 81.6997H67.79Z" fill="#EDCCC0"/>
<path d="M36.27 161.762L35.44 131.475C35.23 131.997 34.27 135.202 34.05 135.724C30.97 142.886 30.87 152.42 27.8 160.034C27.8 160.446 27.91 160.878 27.96 161.36C28.17 164.183 26.56 170.783 24.53 170.049C23.4 169.648 24.6 167.016 23.79 167.639C22.56 168.593 23.12 172.189 19 170.873C15.45 169.748 16.15 164.062 17.33 160.345C18.03 158.105 19.56 156.136 21.11 155.273C23.65 145.016 23.82 142.525 26.93 132.369C28 128.883 33.06 112.218 36.44 108.521C36.44 108.521 36.5 108.451 36.63 108.32C37.54 107.396 41.64 103.659 49.3 102.926C49.3 102.926 51.95 102.725 55.52 102.564C55.58 102.564 55.64 102.554 55.7 102.564C61.25 102.303 68.93 102.142 72.48 102.926C80.14 103.659 84.24 107.396 85.15 108.32C85.28 108.451 85.34 108.521 85.34 108.521C88.72 112.218 93.87 128.863 94.85 132.369C97.81 143.027 98.13 145.016 100.67 155.273C102.22 156.136 103.75 158.105 104.45 160.345C105.63 164.062 106.33 169.748 102.78 170.873C98.66 172.189 99.22 168.593 97.99 167.639C97.18 167.016 98.38 169.648 97.25 170.049C95.22 170.783 93.61 164.183 93.82 161.36C93.87 160.878 93.98 160.446 93.98 160.034C90.91 152.42 90.67 142.756 87.59 135.593C87.37 135.071 86.55 131.997 86.34 131.475L86.27 161.762" fill="#FDE2D2"/>
<path d="M47.0202 124.172C47.7602 124.172 48.3602 123.569 48.3602 122.826C48.3602 122.082 47.7602 121.48 47.0202 121.48C46.2801 121.48 45.6802 122.082 45.6802 122.826C45.6802 123.569 46.2801 124.172 47.0202 124.172Z" fill="#E9B7A8"/>
<path d="M75.8102 124.172C76.5503 124.172 77.1502 123.569 77.1502 122.826C77.1502 122.082 76.5503 121.48 75.8102 121.48C75.0701 121.48 74.4702 122.082 74.4702 122.826C74.4702 123.569 75.0701 124.172 75.8102 124.172Z" fill="#E9B7A8"/>
<path d="M63.8298 146.262C63.1698 145.478 62.1598 145.147 61.1698 145.066C60.0998 144.976 59.0398 145.237 58.3498 146.101C57.6998 146.905 57.2598 148.15 57.7198 149.145C58.1398 150.059 59.1998 150.561 60.1398 150.692C61.2598 150.853 62.3598 150.531 63.2398 149.828C63.4498 149.657 63.4198 149.296 63.2398 149.115C63.0298 148.904 62.7398 148.944 62.5298 149.115C61.9998 149.537 61.2998 149.738 60.6298 149.728C59.9598 149.718 59.1898 149.476 58.7598 148.934C58.2898 148.341 58.6398 147.427 59.0198 146.875C59.4798 146.202 60.1998 146.021 60.9698 146.051C61.7398 146.081 62.5998 146.332 63.1298 146.965C63.2998 147.176 63.6598 147.146 63.8398 146.965C64.0398 146.764 64.0098 146.463 63.8398 146.252L63.8298 146.262Z" fill="#E9B7A8"/>
<path d="M60.0002 148.622C59.9302 148.622 59.8702 148.592 59.8302 148.532C59.7602 148.432 59.7902 148.301 59.8802 148.241L61.3802 147.206C61.4802 147.136 61.6102 147.166 61.6702 147.256C61.7402 147.357 61.7102 147.487 61.6202 147.548L60.1202 148.582C60.1202 148.582 60.0402 148.622 60.0002 148.622Z" fill="#E9B7A8"/>
<path d="M61.2699 148.854C61.1999 148.854 61.1399 148.824 61.0999 148.763L60.0699 147.256C59.9999 147.156 60.0299 147.025 60.1199 146.965C60.2199 146.895 60.3499 146.925 60.4099 147.015L61.4399 148.522C61.5099 148.623 61.4799 148.753 61.3899 148.813C61.3499 148.844 61.3099 148.854 61.2699 148.854Z" fill="#E9B7A8"/>
<path d="M82.3798 186.618L65.0898 186.738C64.0398 186.738 63.1498 186.146 63.0298 185.362L61.7198 176.663L60.3398 185.423C60.2198 186.196 59.3498 186.789 58.3198 186.799L41.2698 186.909C40.1998 186.909 39.2998 186.296 39.2098 185.483L36.2798 158.782H86.2798L84.4198 185.161C84.3598 185.985 83.4698 186.628 82.3898 186.638L82.3798 186.618Z" fill="#808184"/>
<path d="M14.55 63.2261C22.5857 63.2261 29.1 56.6328 29.1 48.4995C29.1 40.3662 22.5857 33.7728 14.55 33.7728C6.51426 33.7728 0 40.3662 0 48.4995C0 56.6328 6.51426 63.2261 14.55 63.2261Z" fill="#DDC3BA"/>
<path d="M101.29 62.8645C99.0899 61.8097 97.3299 60.323 96.0099 58.6152C95.5899 58.0728 95.8499 57.2993 96.4799 57.0481C97.4099 56.6865 98.2299 55.9733 98.7499 54.9486C99.4199 53.6126 99.3299 51.9752 98.5299 50.7195C97.5199 49.1424 95.7799 48.4894 94.1799 48.7807C93.5299 48.9013 92.9499 48.2985 93.0299 47.6355C93.4299 44.5114 94.8099 41.4978 97.1699 39.107C102.86 33.3509 112.07 33.3509 117.74 39.107C123.79 45.2347 123.4 55.4107 116.56 61.0161C112.28 64.522 106.26 65.2553 101.29 62.8745V62.8645Z" fill="#DDC3BA"/>
<path d="M109.45 46.3296V51.714C109.45 77.2998 88.9498 98.0436 63.6498 98.0436H58.3398C33.0498 98.0436 12.5498 77.2998 12.5498 51.714V46.3296C12.5498 30.3775 20.5098 16.3138 32.6298 7.98614C34.8598 6.44918 37.2298 5.11314 39.7198 3.99809C41.8598 3.02368 44.0798 2.23009 46.3698 1.59723C50.1798 0.5525 54.1898 0 58.3298 0H63.6398C73.1498 0 81.9998 2.93327 89.3198 7.96605C101.46 16.2937 109.43 30.3674 109.43 46.3296H109.45Z" fill="#F7DBCF"/>
<path d="M44.4803 47.2337C45.9494 47.2337 47.1403 46.0284 47.1403 44.5415C47.1403 43.0547 45.9494 41.8494 44.4803 41.8494C43.0112 41.8494 41.8203 43.0547 41.8203 44.5415C41.8203 46.0284 43.0112 47.2337 44.4803 47.2337Z" fill="#505050"/>
<path d="M78.5203 47.2337C79.9894 47.2337 81.1804 46.0284 81.1804 44.5415C81.1804 43.0547 79.9894 41.8494 78.5203 41.8494C77.0513 41.8494 75.8604 43.0547 75.8604 44.5415C75.8604 46.0284 77.0513 47.2337 78.5203 47.2337Z" fill="#505050"/>
<path d="M64.0501 54.3158C64.0501 55.1897 62.5401 55.8929 60.6801 55.8929C58.8201 55.8929 57.3101 55.1897 57.3101 54.3158C57.3101 53.4418 58.8201 52.7386 60.6801 52.7386C62.5401 52.7386 64.0501 53.4418 64.0501 54.3158Z" fill="#E9B7A8"/>
<path d="M48.9997 36.1134C44.6297 35.4705 40.1397 37.0577 36.0297 38.4741C34.3397 39.0567 33.0697 38.223 32.6397 36.8166C32.2097 35.4102 32.5897 34.0541 34.3897 33.4012C38.7897 31.8039 44.0897 30.1665 48.8297 30.7994C50.7797 31.0606 51.6197 32.1153 51.6597 33.6322C51.7097 35.1491 50.7897 36.3746 48.9997 36.1134Z" fill="#505050"/>
<path d="M73.6803 36.1134C78.0503 35.4705 82.5403 37.0577 86.6503 38.4741C88.3403 39.0567 89.6103 38.223 90.0403 36.8166C90.4703 35.4102 90.0903 34.0541 88.2903 33.4012C83.8903 31.8039 78.5903 30.1665 73.8503 30.7994C71.9003 31.0606 71.0603 32.1153 71.0203 33.6322C70.9703 35.1491 71.8903 36.3746 73.6803 36.1134Z" fill="#505050"/>
<path d="M89.3399 7.96605C85.0699 9.59341 73.7399 9.24182 60.6599 9.24182C47.5799 9.24182 36.7799 9.59341 32.6499 7.98614C34.7199 6.55968 36.9199 5.304 39.2199 4.23918C39.3899 4.14877 39.5699 4.07845 39.7399 3.99809C41.8799 3.02368 44.0999 2.23009 46.3899 1.59723C48.4299 1.04473 50.5199 0.622818 52.6699 0.351591C54.5299 0.120545 56.4199 0 58.3499 0H63.6599C73.1699 0 82.0199 2.93327 89.3399 7.96605Z" fill="#4E4A4B"/>
<path d="M52.73 74.3665C53.02 74.3665 53.31 74.4469 53.57 74.6176C60.4 79.0477 69.6 75.0395 69.69 74.9994C70.47 74.6478 71.39 74.9994 71.74 75.803C72.09 76.5966 71.74 77.5208 70.95 77.8724C70.51 78.0733 60.13 82.6138 51.89 77.2596C51.17 76.7875 50.96 75.813 51.42 75.0797C51.72 74.6076 52.22 74.3564 52.73 74.3564V74.3665Z" fill="#E9B7A8"/>
</g>
</g>
<defs>
<clipPath id="clip0_775_8931">
<rect width="122" height="225" fill="white"/>
</clipPath>
<clipPath id="clip1_775_8931">
<rect width="122" height="225" fill="white"/>
</clipPath>
</defs>
</svg>
