<svg width="122" height="225" viewBox="0 0 122 225" fill="none" xmlns="http://www.w3.org/2000/svg">
<g clip-path="url(#clip0_775_10431)">
<path d="M86.2001 125.59V124.63C86.2001 123.31 85.1601 122.23 83.8401 122.17C74.9901 121.78 68.7901 119.21 64.4701 116.01C70.1501 109.81 72.3401 103.79 72.4501 103.23L71.7301 102.65C71.0701 102.01 70.0601 100.75 69.2001 98.5H52.4801C51.9401 99.92 51.3401 100.95 50.8001 101.67C50.7001 101.81 50.6101 101.93 50.5101 102.04C50.3501 102.24 50.2001 102.41 50.0601 102.55L49.2401 103.23C49.2601 103.36 51.2801 109.55 57.1601 115.99C52.8801 119.13 46.7201 121.65 37.9401 122.04C36.6201 122.09 35.5701 123.18 35.5701 124.5V124.56L34.5201 156.43C34.4801 157.56 35.3901 158.5 36.5201 158.5H85.5201C86.6601 158.5 87.5701 157.55 87.5201 156.42L86.2201 125.59H86.2001ZM55.0701 102.65H66.5401C66.0401 104.47 64.5701 108.68 60.8101 112.73C57.0401 108.67 55.5501 104.45 55.0601 102.65H55.0701Z" fill="white" stroke="#F9F9F9" stroke-miterlimit="10"/>
<path d="M51.9099 133.54C51.6899 134.21 50.4299 134.76 50.2299 134.92C49.3199 135.63 49.9499 136.47 49.3699 136.8C48.7899 137.14 45.8299 136.72 45.5499 136.21C45.2699 135.7 45.0299 134.5 43.7199 134.38C43.0499 134.32 41.3199 133.59 40.9299 133.15C40.3899 132.56 41.7199 132.05 41.7399 130.59C41.7399 129.5 45.4999 128.66 47.1299 130.19C49.7699 132.77 48.6099 133.28 51.7499 133.53C51.8099 133.53 51.8599 133.54 51.9199 133.54H51.9099Z" fill="#F2B69C"/>
<path d="M81.3199 146.78C81.9599 147.08 82.3399 148.4 82.4799 148.62C83.0699 149.61 83.9799 149.1 84.2399 149.71C84.4999 150.33 83.7099 153.21 83.1699 153.42C82.6299 153.63 81.4099 153.72 81.1199 155C80.9699 155.66 80.0299 157.28 79.5399 157.61C78.8899 158.07 78.5499 156.69 77.0999 156.48C76.0199 156.33 75.6699 152.5 77.3899 151.09C80.2899 148.8 80.6499 150.02 81.2999 146.94C81.2999 146.88 81.3199 146.83 81.3299 146.77L81.3199 146.78Z" fill="#F2B69C"/>
</g>
<defs>
<clipPath id="clip0_775_10431">
<rect width="54" height="61" fill="white" transform="translate(34 98)"/>
</clipPath>
</defs>
</svg>
