<svg width="122" height="225" viewBox="0 0 122 225" fill="none" xmlns="http://www.w3.org/2000/svg">
<g clip-path="url(#clip0_775_7627)">
<path d="M99.7299 137.17L88.4699 139.666L87.7899 139.816V160.541C87.7899 161.639 86.8999 162.538 85.7999 162.538H35.2199C34.1299 162.538 33.2399 161.639 33.2399 160.541V139.876L32.5099 139.716L21.2799 137.22C20.6399 137.08 20.3199 136.381 20.5999 135.802L33.3799 110.135L33.7899 109.317H33.7999C33.8499 109.187 33.8899 109.057 33.9499 108.928C35.3999 105.244 38.9799 102.638 43.1599 102.638H48.1199C48.1199 105.813 49.9699 103.537 60.5099 108.378C71.0599 113.23 72.9099 105.813 72.9099 102.638H77.8699C82.0799 102.638 85.6799 105.284 87.1199 109.027C87.1499 109.107 87.1799 109.187 87.2099 109.267L87.6799 110.215L100.39 135.742C100.69 136.332 100.35 137.03 99.7299 137.17Z" fill="#FFB864" stroke="#FFD09C" stroke-miterlimit="10"/>
<path d="M33.2501 140.824V140.794L32.6201 140.155C36.3801 131.599 34.2601 115.836 33.3901 110.175L33.8001 109.337H33.8101C33.8601 109.207 33.9001 109.067 33.9601 108.938C34.6901 113.24 37.3801 131.28 33.2501 140.834V140.824Z" fill="#FFD09C"/>
<path d="M87.6802 110.245C86.8402 115.766 84.6902 131.56 88.3402 140.125L87.7902 140.584V140.734C83.7202 131.18 86.4202 113.19 87.1202 109.027L87.6802 110.245Z" fill="#FFD09C"/>
<path d="M47.0802 103.397C47.1202 103.527 47.0402 103.666 46.9002 103.696C46.8802 103.706 46.8602 103.706 46.8402 103.706C46.7302 103.706 46.6302 103.636 46.6002 103.527C46.4902 103.137 46.4502 102.818 46.4302 102.638H46.9302C46.9502 102.798 46.9902 103.077 47.0802 103.397Z" fill="#FFD09C"/>
<path d="M53.75 107.42C53.05 107.151 52.38 106.901 51.77 106.681C51.64 106.641 51.5 106.701 51.45 106.831C51.4 106.961 51.47 107.111 51.6 107.151C52.21 107.37 52.87 107.62 53.58 107.879C53.6 107.889 53.63 107.899 53.66 107.899C53.76 107.899 53.86 107.839 53.9 107.74C53.95 107.61 53.88 107.46 53.75 107.42ZM49.77 105.982C49.53 105.903 49.31 105.833 49.13 105.783C48.7 105.653 48.32 105.423 48.01 105.114C47.91 105.014 47.75 105.014 47.66 105.114C47.56 105.214 47.56 105.364 47.66 105.463C48.03 105.833 48.47 106.102 48.98 106.262C49.16 106.312 49.37 106.382 49.61 106.462C49.64 106.472 49.67 106.472 49.69 106.472C49.8 106.472 49.9 106.402 49.93 106.302C49.97 106.172 49.9 106.032 49.77 105.982Z" fill="#FFD09C"/>
<path d="M65.52 111.643C64.76 111.643 64.07 111.553 63.5 111.383C63.37 111.343 63.23 111.413 63.19 111.553C63.15 111.683 63.23 111.823 63.36 111.862C63.97 112.042 64.72 112.142 65.52 112.142C65.65 112.142 65.77 112.032 65.77 111.892C65.77 111.753 65.66 111.643 65.52 111.643ZM69.86 110.994C69.81 110.864 69.66 110.804 69.54 110.854C68.92 111.104 68.25 111.303 67.57 111.433C67.43 111.463 67.34 111.593 67.37 111.733C67.39 111.853 67.5 111.932 67.61 111.932C67.63 111.932 67.65 111.932 67.66 111.922C68.38 111.783 69.08 111.583 69.73 111.313C69.85 111.264 69.92 111.114 69.86 110.994ZM61.6 110.555C61 110.295 60.34 110.016 59.65 109.736C59.52 109.676 59.38 109.746 59.32 109.866C59.27 109.996 59.33 110.145 59.46 110.195C60.14 110.475 60.8 110.754 61.4 111.014C61.43 111.034 61.46 111.034 61.5 111.034C61.59 111.034 61.68 110.984 61.72 110.884C61.78 110.764 61.72 110.615 61.6 110.555ZM73.19 108.468C73.08 108.378 72.92 108.398 72.83 108.508C72.42 109.017 71.92 109.477 71.34 109.886C71.23 109.966 71.2 110.115 71.28 110.225C71.33 110.295 71.41 110.335 71.49 110.335C71.54 110.335 71.59 110.325 71.63 110.295C72.24 109.866 72.78 109.367 73.22 108.818C73.31 108.708 73.29 108.558 73.19 108.468ZM57.69 108.937C57.04 108.678 56.38 108.418 55.73 108.169C55.6 108.119 55.46 108.169 55.4 108.308C55.35 108.438 55.42 108.588 55.55 108.638C56.2 108.887 56.86 109.147 57.51 109.407C57.54 109.417 57.57 109.427 57.6 109.427C57.7 109.427 57.79 109.367 57.83 109.267C57.88 109.137 57.82 108.987 57.69 108.937ZM74.56 104.555C74.43 104.545 74.3 104.645 74.29 104.784C74.23 105.483 74.08 106.142 73.85 106.761C73.8 106.891 73.86 107.031 73.99 107.081C74.02 107.091 74.05 107.1 74.08 107.1C74.18 107.1 74.27 107.041 74.31 106.941C74.57 106.282 74.72 105.573 74.79 104.824C74.8 104.685 74.69 104.565 74.56 104.555Z" fill="#FFD09C"/>
<path d="M74.7002 102.638C74.7202 102.788 74.6302 102.908 74.4902 102.928C74.4802 102.928 74.4702 102.928 74.4602 102.928C74.3302 102.928 74.2302 102.838 74.2102 102.708C74.2102 102.678 74.2002 102.658 74.2002 102.628H74.7002V102.638Z" fill="#FFD09C"/>
</g>
<defs>
<clipPath id="clip0_775_7627">
<rect width="81" height="61" fill="white" transform="translate(20 102)"/>
</clipPath>
</defs>
</svg>
