<svg width="122" height="225" viewBox="0 0 122 225" fill="none" xmlns="http://www.w3.org/2000/svg">
<path d="M109.67 28.01C108.45 41.1495 101.81 52.6716 92.03 60.2961C86.66 55.2332 81.99 52.541 81.66 52.3502C68.82 45.5293 55.89 45.5293 43.13 52.4205C42.82 52.6013 37.24 55.8661 31.64 60.9089C21.43 53.2844 14.47 41.491 13.21 28C13.07 29.4566 13 30.9333 13 32.43V37.8144C13 63.4002 33.49 84.144 58.79 84.144H64.1C89.39 84.144 109.89 63.4002 109.89 37.8144V32.43C109.89 30.9333 109.82 29.4566 109.68 28L109.67 28.01ZM64.09 69.9197H58.78C51.58 69.9197 44.77 68.2421 38.72 65.2485C43.03 61.6623 46.93 59.382 46.93 59.372C62.33 51.0644 74.14 57.3327 77.9 59.3217C77.95 59.3519 81.17 61.2203 85.17 64.7362C78.86 68.0512 71.69 69.9297 64.09 69.9297V69.9197Z" fill="#4E4A4B"/>
<g clip-path="url(#clip0_775_10030)">
<path d="M61.0695 116.399V160.723H36.9879C35.8729 160.723 34.9769 159.86 35.0068 158.81L35.5145 140.042L22.7719 137.159C21.5971 136.891 20.9501 135.712 21.3881 134.662L29.5613 115.022C29.5613 115.022 32.7768 108.968 39.3672 106.718C45.9575 104.459 50.1686 103.914 50.1686 103.914C50.1686 103.914 52.3985 106.738 55.3652 109.394C56.2512 110.177 58.4712 111.336 59.4568 112.02L61.0795 116.39L61.0695 116.399Z" fill="white"/>
<path d="M61.3186 160.97H36.9881C36.3709 160.97 35.7736 160.722 35.3554 160.296C34.9572 159.89 34.7482 159.355 34.7581 158.8L35.2559 140.231L22.7123 137.387C22.0652 137.238 21.5277 136.832 21.229 136.267C20.9503 135.732 20.9204 135.108 21.1494 134.553L29.3325 114.933C29.3724 114.854 32.6775 108.75 39.2877 106.49C45.8283 104.251 50.0891 103.686 50.1389 103.676L50.2783 103.656L50.3679 103.765C50.3679 103.765 52.6178 106.599 55.5346 109.215C56.0623 109.681 57.1275 110.315 58.0633 110.87C58.6606 111.227 59.2181 111.554 59.5964 111.821L59.6561 111.861L61.3186 116.389V160.96V160.97ZM50.0593 104.191C49.2828 104.31 45.2808 104.964 39.447 106.966C33.0259 109.156 29.8104 115.091 29.7805 115.151L21.6173 134.751C21.4381 135.177 21.458 135.633 21.677 136.049C21.906 136.485 22.3241 136.802 22.8318 136.921L35.7736 139.854V140.062L35.2658 158.83C35.2559 159.246 35.4152 159.652 35.7238 159.959C36.0523 160.296 36.5202 160.485 37.008 160.485H60.8408V116.439L59.2678 112.188C58.8995 111.94 58.3818 111.633 57.8243 111.306C56.8686 110.741 55.7736 110.087 55.2161 109.592C52.5978 107.243 50.5272 104.746 50.0792 104.191H50.0593Z" fill="#D1D1D1"/>
<path d="M60.9302 116.399V160.723H85.0118C86.1268 160.723 87.0228 159.86 86.9929 158.81L86.4852 140.042L99.2278 137.159C100.403 136.891 101.05 135.712 100.612 134.662L92.4384 115.032C92.4384 115.032 89.2229 108.978 82.6325 106.728C76.0422 104.469 71.8311 103.924 71.8311 103.924C71.8311 103.924 69.6012 106.748 66.6345 109.404C65.7485 110.186 63.1203 111.366 62.1447 112.039L60.9302 116.39V116.399Z" fill="white"/>
<path d="M85.0122 160.97H60.6816V116.33L61.936 111.891L62.0057 111.841C62.4238 111.554 63.1207 111.177 63.8673 110.781C64.8628 110.256 65.9878 109.651 66.4756 109.215C69.3924 106.599 71.6224 103.795 71.6423 103.765L71.7319 103.656L71.8713 103.676C71.8713 103.676 76.1819 104.251 82.7225 106.49C89.3327 108.75 92.6378 114.844 92.6677 114.913L100.851 134.563C101.08 135.118 101.06 135.742 100.781 136.277C100.483 136.842 99.945 137.258 99.2979 137.397L86.7543 140.241L87.2521 158.81C87.262 159.365 87.053 159.89 86.6548 160.306C86.2366 160.732 85.6393 160.98 85.0221 160.98L85.0122 160.97ZM61.1794 160.475H85.0122C85.5 160.475 85.9678 160.286 86.2964 159.95C86.595 159.642 86.7643 159.236 86.7543 158.82L86.2466 139.844L99.1884 136.911C99.6961 136.792 100.114 136.485 100.343 136.039C100.552 135.633 100.572 135.167 100.403 134.751L92.2297 115.121C92.2297 115.121 88.9942 109.146 82.5731 106.956C76.7394 104.954 72.7374 104.3 71.9609 104.182C71.5129 104.736 69.4422 107.234 66.824 109.582C66.2864 110.058 65.1814 110.652 64.1162 111.217C63.4293 111.584 62.7822 111.921 62.374 112.198L61.1894 116.429V160.475H61.1794Z" fill="#D1D1D1"/>
<path d="M57.8541 109.8H64.2453L64.763 113.308H57.3364L57.8541 109.8Z" fill="white"/>
<path d="M65.0518 113.556H57.0479L57.6452 109.542H64.4645L65.0618 113.556H65.0518ZM57.6153 113.06H64.4744L64.0264 110.038H58.0633L57.6153 113.06Z" fill="#D1D1D1"/>
<path d="M64.942 108.859L63.0107 116.588L62.951 116.845H58.8992L58.8395 116.588L56.9082 108.859H64.942Z" fill="#2C2E30"/>
<path d="M64.942 143.392H56.9082L58.8793 117.103L58.8992 116.845H62.951L62.9709 117.103L64.942 143.392Z" fill="#2C2E30"/>
<path d="M56.9185 143.392L60.9304 148.663L64.9423 143.392H56.9185Z" fill="#1F2021"/>
<path d="M62.9513 116.845L62.9713 117.371H58.8797L58.8996 116.845L58.8398 116.33H63.0111L62.9513 116.845Z" fill="#232526"/>
<path d="M60.9401 149.486L56.4105 143.54V143.352L58.4115 116.885L58.3717 116.697L56.291 108.363H65.5991L63.4687 116.885V117.073L65.4697 143.55L60.9501 149.496L60.9401 149.486ZM57.4259 143.243L60.9401 147.841L64.4443 143.243L62.4632 116.806L62.5429 116.479L64.3249 109.354H57.5653L59.4169 116.806L59.397 117.143L57.4359 143.243H57.4259Z" fill="#232526"/>
<path d="M71.1741 100.406L80.303 105.955L66.9431 116.994C66.3558 117.39 65.5494 117.073 65.41 116.38L61.3284 108.829C61.1094 108.413 61.199 107.907 61.5573 107.6L69.86 100.614C70.1786 100.228 70.746 100.139 71.1741 100.416V100.406Z" fill="white"/>
<path d="M66.366 117.42C66.2067 117.42 66.0574 117.39 65.908 117.331C65.5297 117.182 65.251 116.865 65.1614 116.479L61.0997 108.958C60.8209 108.443 60.9404 107.798 61.3884 107.422L69.701 100.426C70.0693 99.9703 70.7761 99.8613 71.3038 100.198L80.7214 105.926L67.0927 117.182C66.8737 117.341 66.6149 117.41 66.366 117.41V117.42ZM70.6268 100.495C70.4078 100.495 70.1987 100.585 70.0494 100.773L61.7069 107.808C61.4381 108.036 61.3685 108.423 61.5277 108.73L65.6293 116.34C65.6791 116.588 65.8483 116.786 66.0872 116.875C66.3162 116.964 66.575 116.944 66.7841 116.796L79.8652 105.995L71.035 100.614C70.9055 100.535 70.7662 100.495 70.6268 100.495Z" fill="#D1D1D1"/>
<path d="M50.6366 100.406L41.9258 106.054L54.8775 116.994C55.4649 117.39 56.2712 117.073 56.4106 116.38L60.9303 108.125L51.9507 100.614C51.6321 100.228 51.0647 100.139 50.6366 100.416V100.406Z" fill="white"/>
<path d="M55.4449 117.42C55.196 117.42 54.9471 117.351 54.7381 117.202L41.5176 106.035L50.5071 100.198C51.0447 99.8513 51.7416 99.9603 52.1497 100.456L61.2488 108.076L56.6495 116.479C56.5499 116.865 56.2712 117.182 55.9028 117.331C55.7535 117.39 55.5942 117.42 55.4449 117.42ZM42.3538 106.084L55.0467 116.816C55.2358 116.944 55.4947 116.974 55.7237 116.875C55.9626 116.786 56.1219 116.588 56.1816 116.34L56.2015 116.271L60.6216 108.195L51.7913 100.803C51.5126 100.476 51.0945 100.406 50.7759 100.614L42.3439 106.074L42.3538 106.084Z" fill="#D1D1D1"/>
<path d="M76.4407 103.755L82.7921 106.609C83.5388 106.847 84.0664 107.511 84.1162 108.294L86.4158 140.042L86.8339 158.79C86.8538 159.732 86.0873 160.514 85.1416 160.505L60.9902 160.445V133.919C60.9902 133.919 76.4308 122.553 76.4308 103.755H76.4407Z" fill="black"/>
<path d="M85.1515 161L60.5024 160.941V133.671L60.7015 133.522C60.8509 133.413 75.943 122.077 75.943 103.756V102.993L82.9912 106.163C83.8872 106.441 84.5343 107.273 84.6139 108.264L86.9136 140.013L87.3317 158.79C87.3417 159.385 87.1227 159.94 86.7045 160.366C86.2864 160.782 85.7389 161.02 85.1416 161.02L85.1515 161ZM61.498 159.95L85.1515 160.009C85.4701 160.009 85.7787 159.88 86.0077 159.652C86.2366 159.424 86.3561 159.117 86.3461 158.8L85.928 140.052L83.6284 108.334C83.5886 107.759 83.2003 107.263 82.6428 107.085L76.9385 104.519C76.5502 121.74 63.3098 132.749 61.5079 134.166V159.95H61.498Z" fill="#3F3F3F"/>
<path d="M45.6389 103.656L39.2776 106.619C38.5309 106.857 38.0033 107.521 37.9535 108.304L35.6539 140.052L35.2357 158.86C35.2158 159.771 35.9525 160.524 36.8684 160.524L61.0794 160.465V133.938C61.0794 133.938 45.6489 122.474 45.6489 103.666L45.6389 103.656Z" fill="black"/>
<path d="M36.8588 161C36.2814 161 35.7438 160.772 35.3356 160.366C34.9275 159.95 34.7184 159.415 34.7284 158.84L35.1465 140.033L37.4461 108.264C37.5158 107.283 38.1729 106.451 39.1186 106.144L46.1271 102.884V103.666C46.1271 121.998 61.2092 133.423 61.3585 133.542L61.5576 133.691V160.96L36.8488 161.02L36.8588 161ZM45.1515 104.429L39.4969 107.065C38.8797 107.263 38.4914 107.759 38.4516 108.334L36.152 140.082L35.7338 158.87C35.7338 159.177 35.8433 159.464 36.0624 159.682C36.2814 159.9 36.5601 160.019 36.8687 160.019L60.582 159.96V134.166C58.7901 132.739 45.5497 121.651 45.1614 104.429H45.1515Z" fill="#3F3F3F"/>
<path d="M71.6621 132.72V129.688C71.6621 128.934 72.3689 128.389 73.0957 128.578L78.1131 129.836C78.6606 129.975 79.029 130.49 78.9792 131.055L78.6905 134.097" fill="white"/>
<path d="M70.6963 131.838H79.8153C80.0841 131.838 80.3031 132.056 80.3031 132.323V137.664C80.3031 140.439 78.0432 142.688 75.2558 142.688C72.4683 142.688 70.2085 140.439 70.2085 137.664V132.323C70.2085 132.056 70.4275 131.838 70.6963 131.838Z" fill="black"/>
<path d="M75.2457 143.194C72.1895 143.194 69.7007 140.716 69.7007 137.674V132.333C69.7007 131.788 70.1487 131.352 70.6863 131.352H79.8052C80.3528 131.352 80.7908 131.798 80.7908 132.333V137.674C80.7908 140.716 78.302 143.194 75.2457 143.194ZM79.7953 132.333H70.6863V137.674C70.6863 140.171 72.7271 142.203 75.2358 142.203C77.7445 142.203 79.7853 140.171 79.7853 137.674V132.333H79.7953Z" fill="#3F3F3F"/>
</g>
<defs>
<clipPath id="clip0_775_10030">
<rect width="80" height="61" fill="white" transform="translate(21 100)"/>
</clipPath>
</defs>
</svg>
