<svg width="122" height="225" viewBox="0 0 122 225" fill="none" xmlns="http://www.w3.org/2000/svg">
<g clip-path="url(#clip0_775_8607)">
<path d="M105.847 149.507C105.847 149.507 105.724 150.551 103.852 151.237L104.568 155.342C104.629 155.68 104.537 156.028 104.322 156.306C104.107 156.575 103.79 156.753 103.432 156.783C101.406 156.982 97.621 157.519 94.9815 158.861C94.7973 158.95 94.6029 159 94.4085 159C94.03 159 93.6515 158.831 93.3957 158.513L90.2856 154.636L87.5744 153.871V157.539C87.5744 158.225 87.0015 158.781 86.2956 158.781H35.7147C35.0088 158.781 34.4358 158.225 34.4358 157.539V153.871L31.7247 154.636L28.6145 158.513C28.3588 158.831 27.9904 159 27.6017 159C27.4073 159 27.2129 158.95 27.039 158.861C24.3892 157.519 20.6038 156.982 18.5781 156.783C18.2303 156.753 17.9029 156.575 17.6881 156.306C17.4732 156.028 17.3812 155.69 17.4425 155.342L18.1587 151.237C16.2865 150.551 16.1637 149.537 16.1535 149.487C14.9667 143.513 21.1563 132.559 21.4121 132.091C21.4325 132.072 22.8444 129.507 28.2258 116.256L28.5736 115.402C33.5355 103.145 43.2957 99.7853 46.1603 99.0397C46.6514 98.9105 47.1527 99.0696 47.4698 99.4473C48.7794 101.008 53.5367 106.078 59.6342 106.078H62.376C68.4838 106.078 73.2309 101.008 74.5404 99.4473C74.8576 99.0696 75.3589 98.9105 75.8499 99.0397C78.7248 99.7853 88.4849 103.145 93.4366 115.402L93.7845 116.256C99.1658 129.507 100.588 132.072 100.598 132.091C100.864 132.559 107.054 143.513 105.847 149.507Z" fill="#FFDF24"/>
<path d="M34.9473 153.831V157.539C34.9473 157.946 35.2952 158.284 35.7146 158.284H61.0051V158.781H35.7146C35.0087 158.781 34.4358 158.225 34.4358 157.539V153.334H61.0051V153.831H34.9473Z" fill="#B79C15"/>
<path d="M31.7758 154.577L31.7246 154.636L28.6145 158.513C28.3587 158.831 27.9904 159 27.6016 159C27.4073 159 27.2129 158.95 27.0389 158.861C24.3892 157.519 20.6038 156.982 18.5781 156.783C18.2303 156.753 17.9029 156.575 17.688 156.306C17.4732 156.028 17.3811 155.69 17.4425 155.342L18.1586 151.237L18.1996 151.028L18.7009 151.107L18.66 151.326L17.9438 155.421C17.9131 155.63 17.9643 155.839 18.0973 155.998C18.22 156.167 18.4144 156.276 18.6293 156.296C20.6959 156.495 24.5529 157.042 27.2743 158.423C27.5914 158.583 27.9802 158.493 28.2053 158.205L31.2131 154.477L31.3768 154.268L31.7758 154.577Z" fill="#B79C15"/>
<path d="M61.0051 109.765H58.2735C47.8995 109.765 41.7303 101.356 41.6689 101.266L42.0884 100.978C42.1498 101.058 48.1757 109.268 58.2735 109.268H61.0051V109.765Z" fill="#B79C15"/>
<path d="M59.6342 106.078C53.5367 106.078 48.7794 101.008 47.4698 99.4473C47.1527 99.0696 46.6514 98.9105 46.1603 99.0397C43.2957 99.7853 33.5355 103.145 28.5736 115.402L28.2258 116.256C22.8444 129.507 21.4325 132.072 21.4121 132.091C21.1563 132.559 14.9667 143.513 16.1535 149.487C16.1637 149.537 16.2865 150.551 18.1587 151.237C18.2303 151.256 18.3019 151.286 18.3735 151.306H18.4554C18.4554 151.306 18.5372 151.316 18.66 151.326C19.9491 151.346 27.0083 151.634 31.2131 154.477L31.428 154.626L31.5303 154.696L31.7247 154.636L34.4358 153.871L34.7939 153.771V153.334C34.8553 150.531 35.4896 125.978 38.5281 122.181L38.6611 122.012L38.5077 121.853C33.7504 116.853 30.0161 116.187 28.8396 116.107L29.0544 115.581C32.3181 107.519 37.6688 103.384 41.6997 101.306C41.8531 101.227 42.0066 101.147 42.1601 101.078C43.9504 100.193 45.4339 99.7356 46.2933 99.5169C46.59 99.4473 46.8867 99.5368 47.0708 99.7654C48.4213 101.366 53.3116 106.575 59.6342 106.575H61.0051V106.078H59.6342ZM37.9961 122.042C34.9064 126.545 34.3335 150.829 34.2824 153.404L31.6224 154.149C27.0185 150.948 19.2125 150.829 18.4963 150.819C16.8082 150.262 16.665 149.437 16.665 149.417C15.4987 143.592 21.8008 132.449 21.8622 132.33C21.9236 132.231 23.2843 129.775 28.635 116.594C29.433 116.624 33.1774 117.052 37.9961 122.042Z" fill="#B79C15"/>
<path d="M87.5744 153.334V157.539C87.5744 158.225 87.0015 158.781 86.2956 158.781H61.0051V158.284H86.2956C86.715 158.284 87.0629 157.946 87.0629 157.539V153.831H61.0051V153.334H87.5744Z" fill="#B79C15"/>
<path d="M104.568 155.342C104.629 155.68 104.537 156.028 104.322 156.306C104.107 156.575 103.79 156.753 103.432 156.783C101.406 156.982 97.621 157.519 94.9814 158.861C94.7973 158.95 94.6029 159 94.4085 159C94.03 159 93.6515 158.831 93.3957 158.513L90.2855 154.636L90.2344 154.577L90.6436 154.268L90.8073 154.477L93.8049 158.205C94.03 158.493 94.429 158.583 94.7359 158.423C97.4573 157.042 101.325 156.495 103.381 156.296C103.596 156.276 103.79 156.167 103.923 155.998C104.046 155.839 104.097 155.63 104.066 155.421L103.35 151.326L103.309 151.107L103.811 151.028L103.852 151.237L104.568 155.342Z" fill="#B79C15"/>
<path d="M63.7367 109.765H61.0051V109.268H63.7367C73.8345 109.268 79.8604 101.068 79.9218 100.978L80.3413 101.266C80.2799 101.346 74.1005 109.765 63.7367 109.765Z" fill="#B79C15"/>
<path d="M100.598 132.091C100.598 132.091 99.1659 129.507 93.7845 116.256L93.4366 115.402C88.4849 103.145 78.7248 99.7853 75.85 99.0397C75.3589 98.9105 74.8576 99.0696 74.5404 99.4473C73.2309 101.008 68.4838 106.078 62.376 106.078H61.0051V106.575H62.376C68.7089 106.575 73.589 101.366 74.9394 99.7654C75.1236 99.5368 75.4305 99.4473 75.717 99.5169C76.5763 99.7356 78.0598 100.193 79.8502 101.078C80.0036 101.147 80.1571 101.227 80.3106 101.306C84.3415 103.384 89.7024 107.519 92.966 115.581L93.1809 116.107C91.9941 116.187 88.2599 116.853 83.5026 121.853L83.3593 122.012L83.4923 122.181C86.5104 125.978 87.1549 150.501 87.2061 153.334C87.2163 153.483 87.2163 153.582 87.2163 153.592V153.771L87.5744 153.871L90.2856 154.636L90.4902 154.696L90.5925 154.626L90.8073 154.477C95.0019 151.634 102.061 151.346 103.35 151.326C103.473 151.326 103.545 151.326 103.555 151.326H103.637C103.708 151.296 103.78 151.266 103.852 151.247C105.724 150.561 105.847 149.547 105.847 149.517C107.054 143.523 100.864 132.569 100.598 132.101V132.091ZM105.345 149.437C105.345 149.437 105.212 150.262 103.514 150.819C102.798 150.819 95.0019 150.948 90.3879 154.149L87.7279 153.404C87.6767 150.829 87.1038 126.545 84.0243 122.042C88.8328 117.052 92.5772 116.624 93.3752 116.594C98.7259 129.775 100.097 132.231 100.148 132.33C100.209 132.449 106.512 143.592 105.345 149.437Z" fill="#B79C15"/>
</g>
<defs>
<clipPath id="clip0_775_8607">
<rect width="90" height="60" fill="white" transform="translate(16 99)"/>
</clipPath>
</defs>
</svg>
