<svg width="122" height="225" viewBox="0 0 122 225" fill="none" xmlns="http://www.w3.org/2000/svg">
<g clip-path="url(#clip0_775_10423)">
<path d="M45.25 162.49H35.63C33.76 162.49 32.25 160.98 32.25 159.11V145.41C32.25 145.41 34.69 144.2 37.84 148.32C41 152.43 40.66 157.55 42.11 158.5C43.56 159.43 45.31 160.5 45.25 162.48V162.49Z" fill="#5E3D08"/>
<path d="M56.5801 104.51V126.65C56.5801 127.46 57.2301 128.11 58.0301 128.11H64.4601C65.2601 128.11 65.9101 127.46 65.9101 126.65V104.51H56.5801Z" fill="#FFC764"/>
<path d="M86.85 104.51H65.9V126.65C65.9 127.46 65.25 128.11 64.45 128.11H58.02C57.22 128.11 56.57 127.46 56.57 126.65V104.51H35.63C33.76 104.51 32.26 106.03 32.26 107.9V145.42C32.26 145.42 34.7 144.21 37.85 148.33C41.01 152.44 40.67 157.56 42.12 158.51C43.57 159.44 45.32 160.51 45.26 162.49H86.86C88.73 162.49 90.24 160.98 90.24 159.11V107.9C90.24 106.03 88.73 104.51 86.86 104.51H86.85ZM64.97 149.07L64.89 152.11L62.07 153.87L58.8 152.36L57.05 153.87L53.89 149.72V144.01L59.27 141.89L63.54 141.28L64.03 143.75L66.31 146.4L64.99 149.08L64.97 149.07Z" fill="#FFC764"/>
<path d="M65.9101 104.51V126.65C65.9101 127.46 65.2601 128.11 64.4601 128.11H58.0301C57.2301 128.11 56.5801 127.46 56.5801 126.65V104.51H65.9101Z" fill="#A57C3A"/>
<path d="M87.11 163H35.89C33.75 163 32 161.26 32 159.11V107.9C32 105.75 33.74 104 35.89 104H87.11C89.25 104 91 105.75 91 107.9V159.11C91 161.25 89.26 163 87.11 163ZM35.89 105.03C34.31 105.03 33.03 106.32 33.03 107.9V159.11C33.03 160.69 34.31 161.97 35.89 161.97H87.11C88.69 161.97 89.97 160.69 89.97 159.11V107.9C89.97 106.32 88.69 105.03 87.11 105.03H35.89Z" fill="#A57C3A"/>
</g>
<defs>
<clipPath id="clip0_775_10423">
<rect width="59" height="59" fill="white" transform="translate(32 104)"/>
</clipPath>
</defs>
</svg>
