<svg width="122" height="225" viewBox="0 0 122 225" fill="none" xmlns="http://www.w3.org/2000/svg">
<g clip-path="url(#clip0_775_10264)">
<path d="M49.9464 102.573C49.9464 102.573 57.6613 106.481 71.5204 102.573L78.9686 126.269V156.503H42.2314V111.48L49.9464 102.573Z" fill="white"/>
<path d="M75.2741 113.722L74.2764 110.528L73.9306 109.427L71.7574 102.503L71.6784 102.275L71.4512 102.335C70.8387 102.503 70.2362 102.662 69.6533 102.811C69.4854 102.85 69.3175 102.89 69.1495 102.92C69.1199 102.93 69.0903 102.94 69.0606 102.95C68.9223 102.979 68.7742 103.009 68.6359 103.039C61.6717 104.576 56.4955 104.08 53.3938 103.396C53.2555 103.376 53.1172 103.346 52.9887 103.317C52.9591 103.307 52.9295 103.297 52.89 103.297C52.7121 103.247 52.5343 103.198 52.3763 103.158C50.8748 102.751 50.0747 102.364 50.0549 102.355L49.887 102.265L47.3285 105.221L42.0436 111.321L41.9844 111.391V156.751H79.2155V126.269L75.2741 113.722ZM78.7216 156.255H42.4783V111.579L46.7358 106.659H46.7457L50.0154 102.88C50.3512 103.029 51.1613 103.366 52.4356 103.694C52.5936 103.733 52.7714 103.783 52.9492 103.823C52.9887 103.832 53.0381 103.842 53.0776 103.852C53.2061 103.882 53.3345 103.912 53.4629 103.942C54.0753 104.071 54.7569 104.19 55.5077 104.289C58.3823 104.666 62.8472 104.805 68.5964 103.555C68.7248 103.535 68.8532 103.505 68.9816 103.475C69.0113 103.465 69.0508 103.465 69.0903 103.446C69.2582 103.416 69.436 103.376 69.604 103.327C70.1769 103.198 70.7597 103.049 71.3524 102.88L74.9678 114.357L78.7216 126.309V156.255Z" fill="#D1D1D1"/>
<path d="M58.8863 170.27C58.1454 173.871 52.6235 173.494 52.6235 173.494H35.5242C34.4475 173.494 33.5683 172.621 33.5486 171.54L33.3115 155.243H33.2819L32.3434 154.926L19.8573 150.839C18.7806 150.482 18.2175 149.292 18.6324 148.23L33.0151 111.311C34.329 106.649 48.6228 102.077 48.6228 102.077L53.2162 98.5059C53.1371 98.6546 52.1296 100.718 53.4631 106.778C55.0041 113.801 56.5056 130.614 58.3924 136.625C60.2791 142.646 61.5732 157.138 58.8863 170.27Z" fill="#C49A76"/>
<path d="M58.8665 136.476C58.5998 135.623 58.3331 134.552 58.0861 133.312C58.0861 133.292 58.0763 133.272 58.0763 133.252C57.4243 130.098 56.8217 125.912 56.2389 121.647C56.229 121.538 56.2093 121.429 56.1895 121.32C56.1105 120.675 56.0216 120.03 55.9327 119.386C55.2511 114.396 54.5991 109.675 53.9472 106.669C53.72 105.648 53.5619 104.735 53.4631 103.942C53.4532 103.852 53.4335 103.763 53.4236 103.674C53.4137 103.584 53.4039 103.485 53.394 103.396C53.0186 99.9838 53.6409 98.7638 53.6508 98.7439L53.3248 98.367L53.0581 98L48.3857 101.63C47.0818 102.057 33.8746 106.451 32.5509 111.133L18.1682 148.042C17.9212 148.687 17.9508 149.391 18.2373 150.006C18.5336 150.631 19.0572 151.097 19.7092 151.305L32.8176 155.6L33.0547 171.55C33.0744 172.889 34.1808 173.99 35.5242 173.99H52.584C52.584 173.99 52.8112 174 53.0976 174C53.8286 174 55.2214 173.931 56.5254 173.435C57.8293 172.939 59.0345 172.036 59.3703 170.37C60.2989 165.817 60.7631 161.155 60.8817 156.751C60.8916 156.671 60.8916 156.582 60.8916 156.503C60.8916 156.423 60.8916 156.334 60.8916 156.255C61.0792 147.804 60.0717 140.345 58.8566 136.476H58.8665ZM59.9037 156.255V156.503C59.9037 156.582 59.8939 156.661 59.8939 156.751C59.7753 161.085 59.3209 165.678 58.4022 170.171C57.7602 173.296 52.7025 172.998 52.6235 172.998H35.5242C34.7142 172.998 34.0524 172.344 34.0425 171.53L33.8054 155.233L33.7659 154.866L33.43 154.757L32.4916 154.449L20.0154 150.363C19.6203 150.234 19.314 149.956 19.1362 149.589C18.9584 149.212 18.9387 148.796 19.0967 148.409L33.4893 111.45C34.4771 107.949 44.1973 104.07 48.3659 102.692C48.5042 102.642 48.6425 102.593 48.771 102.553L52.3864 99.7755C52.2777 100.549 52.2382 101.65 52.3765 103.158C52.3864 103.247 52.3963 103.327 52.4062 103.416C52.416 103.505 52.4259 103.594 52.4358 103.694C52.5346 104.616 52.7124 105.677 52.9791 106.887C53.6311 109.853 54.2731 114.545 54.9449 119.524C55.7845 125.674 56.6439 132.003 57.6219 135.732C57.7206 136.109 57.8194 136.456 57.9182 136.774C59.0147 140.255 59.9334 146.703 59.9334 154.152C59.9334 154.846 59.9334 155.551 59.9037 156.255Z" fill="#96745C"/>
<path d="M52.0997 99.3688L48.7213 101.997C48.6521 102.047 48.5929 102.126 48.5632 102.206L46.1431 108.117C46.0344 108.385 46.1628 108.683 46.4295 108.782L47.9212 109.337C48.2768 109.466 48.3657 109.933 48.0792 110.181L46.2221 111.887C46.0542 112.035 46.0147 112.283 46.1134 112.482L57.4339 135.524C57.6907 136.04 58.4711 135.792 58.3822 135.226C57.2265 127.737 54.3815 109.546 53.3739 105.34C52.7516 102.731 52.7615 100.916 52.8998 99.8251C52.9591 99.3787 52.4454 99.101 52.0898 99.3787L52.0997 99.3688Z" fill="#96745C"/>
<path d="M33.5583 155.54L32.6396 155.223C40.7003 127.836 37.2923 114.971 37.2528 114.833L38.1813 114.545C38.3394 115.09 41.7178 127.797 33.5583 155.531V155.54Z" fill="#96745C"/>
<path d="M63.1138 170.27C63.8547 173.871 69.3766 173.494 69.3766 173.494H86.4759C87.5526 173.494 88.4318 172.621 88.4515 171.54L88.6886 155.243H88.7182L89.6567 154.926L102.143 150.839C103.22 150.482 103.783 149.292 103.368 148.23L88.985 111.311C87.6711 106.649 73.3773 102.077 73.3773 102.077L68.7839 98.5059C68.863 98.6546 69.8706 100.718 68.537 106.778C66.996 113.801 65.4945 130.614 63.6077 136.625C61.721 142.646 60.4269 157.138 63.1138 170.27Z" fill="#C49A76"/>
<path d="M103.832 148.042L89.4593 111.173C88.1356 106.451 74.9185 102.057 73.6146 101.63L68.9422 98L68.6755 98.3273L68.3495 98.7439C68.3495 98.7439 68.9422 99.8945 68.636 103.039C68.636 103.128 68.6261 103.217 68.6162 103.307C68.6063 103.386 68.5964 103.475 68.5964 103.555C68.4878 104.437 68.3199 105.479 68.0531 106.669C67.4012 109.675 66.7492 114.396 66.0676 119.395C66.0083 119.812 65.9491 120.239 65.8997 120.655C65.8799 120.834 65.8503 121.012 65.8207 121.191C65.2082 125.754 64.5562 130.257 63.8648 133.55C63.8648 133.59 63.8648 133.619 63.845 133.659C63.6178 134.75 63.3807 135.702 63.1437 136.476C62.0274 140.027 61.0791 146.594 61.0791 154.172C61.0791 154.856 61.089 155.551 61.0989 156.255C61.1087 156.344 61.1087 156.423 61.1087 156.503C61.1087 156.582 61.1087 156.671 61.1186 156.751C61.2372 161.155 61.7014 165.827 62.63 170.37C63.3215 173.702 67.4506 174 68.8928 174C69.1694 174 69.3472 173.99 69.3768 173.99H86.4761C87.8195 173.99 88.9259 172.889 88.9456 171.55L89.1827 155.6L102.291 151.305C102.943 151.097 103.467 150.631 103.763 150.006C104.059 149.381 104.079 148.687 103.832 148.042ZM87.9578 171.53C87.9479 172.344 87.2861 172.998 86.4761 172.998H69.3472C69.2879 172.998 64.2401 173.296 63.5981 170.171C62.6794 165.688 62.225 161.095 62.1064 156.751C62.1064 156.671 62.0966 156.582 62.0966 156.503V156.255C61.899 147.933 62.8868 140.583 64.0821 136.774C64.1907 136.427 64.2994 136.04 64.4081 135.623C65.3663 131.884 66.2158 125.615 67.0554 119.534C67.7272 114.555 68.3692 109.853 69.0212 106.887C69.3274 105.509 69.5052 104.328 69.604 103.327C69.6139 103.237 69.6238 103.158 69.6337 103.069C69.6435 102.979 69.6435 102.9 69.6534 102.811C69.7621 101.482 69.7127 100.49 69.6139 99.7755L73.0812 102.464L73.2293 102.553C73.3578 102.593 73.4961 102.642 73.6343 102.692C77.803 104.07 87.5232 107.949 88.5307 111.49L102.904 148.409C103.062 148.796 103.042 149.212 102.864 149.589C102.696 149.956 102.38 150.234 101.985 150.363L89.5087 154.449L88.5801 154.767L88.2048 154.896L87.9578 171.53Z" fill="#96745C"/>
<path d="M69.93 99.3986L73.2688 101.987C73.338 102.047 73.3972 102.116 73.4367 102.206L75.7087 107.75C75.8964 108.207 75.6692 108.732 75.205 108.911L74.1085 109.318C73.743 109.457 73.6442 109.933 73.9405 110.2L75.768 111.867C75.9458 112.026 75.9853 112.284 75.8865 112.492L64.6352 135.385C64.3685 135.921 63.5585 135.673 63.6474 135.078C64.813 127.509 67.6283 109.516 68.6359 105.33C69.2484 102.761 69.2484 100.966 69.1101 99.8648C69.0508 99.3986 69.5842 99.111 69.9497 99.3986H69.93Z" fill="#96745C"/>
<path d="M89.3504 155.481L88.4416 155.808C80.2821 127.906 83.6605 115.11 83.8185 114.555L84.7471 114.843C84.7076 114.972 81.3095 127.926 89.3504 155.481Z" fill="#96745C"/>
<path d="M64.0523 151.871C64.5978 151.871 65.0401 151.426 65.0401 150.879C65.0401 150.331 64.5978 149.887 64.0523 149.887C63.5067 149.887 63.0645 150.331 63.0645 150.879C63.0645 151.426 63.5067 151.871 64.0523 151.871Z" fill="#96745C"/>
<path d="M64.0523 156.503C64.5978 156.503 65.0401 156.059 65.0401 155.511C65.0401 154.963 64.5978 154.519 64.0523 154.519C63.5067 154.519 63.0645 154.963 63.0645 155.511C63.0645 156.059 63.5067 156.503 64.0523 156.503Z" fill="#96745C"/>
</g>
<defs>
<clipPath id="clip0_775_10264">
<rect width="86" height="76" fill="white" transform="translate(18 98)"/>
</clipPath>
</defs>
</svg>
