<svg width="122" height="225" viewBox="0 0 122 225" fill="none" xmlns="http://www.w3.org/2000/svg">
<g clip-path="url(#clip0_775_7690)">
<path d="M96.4015 127.367L87.4053 134.504L87.1459 134.714L86.8667 134.934V134.954L87.0661 162.5H34.9237L35.1232 134.954V134.934L34.844 134.714L34.5846 134.504L25.5884 127.367L31.8419 110.196V110.186L32.0214 109.706L32.2109 109.166L32.2209 109.156L32.4503 109.066L48.099 102.56L48.1289 102.58L60.9551 110.756L60.985 110.776H60.9949L62.1419 110.046L65.9818 113.095L67.1986 109.606L67.6075 107.427L67.7671 106.458L69.6621 107.777L70.2804 104.859L73.8909 102.56L89.5296 109.066L89.759 109.156L89.769 109.166L89.9585 109.706L90.148 110.186V110.196L96.4015 127.367Z" fill="#8DB1D8" stroke="#6C8CA8" stroke-miterlimit="10"/>
<g opacity="0.4">
<path d="M90.148 110.186L87.0162 134.874L86.717 135.084L86.3979 135.304V135.324H86.3779L89.7091 109.126L89.7191 109.136L89.9385 109.686L90.148 110.186Z" fill="#6C8CA8"/>
</g>
<path d="M48.0991 102.53L60.9951 110.746C58.4618 111.226 56.5468 112.825 54.8413 114.914C54.5421 115.284 53.9537 115.204 53.7542 114.764L48.0991 102.53Z" fill="#6C8CA8"/>
<g opacity="0.4">
<path d="M31.8521 110.196L35.0237 135.144L35.3329 135.354L35.652 135.583V135.603H35.662L32.2909 109.126L32.2809 109.136L32.0515 109.696L31.8521 110.196Z" fill="#6C8CA8"/>
</g>
<path d="M68.6449 117.613C69.08 117.613 69.4328 117.259 69.4328 116.823C69.4328 116.387 69.08 116.033 68.6449 116.033C68.2097 116.033 67.8569 116.387 67.8569 116.823C67.8569 117.259 68.2097 117.613 68.6449 117.613Z" fill="#6C8CA8"/>
<path d="M60.995 118.403C61.4301 118.403 61.7829 118.049 61.7829 117.613C61.7829 117.176 61.4301 116.823 60.995 116.823C60.5598 116.823 60.207 117.176 60.207 117.613C60.207 118.049 60.5598 118.403 60.995 118.403Z" fill="#6C8CA8"/>
<path d="M60.8755 115.173C61.065 116.013 61.8928 116.393 62.6608 116.563C63.0896 116.653 63.4986 116.633 63.9075 116.463C64.2067 116.343 64.5458 116.153 64.6356 115.813C64.7054 115.503 64.5657 115.064 64.3064 114.874C64.0671 114.694 63.6482 114.664 63.4088 114.844C62.8503 115.283 63.2592 116.173 63.6781 116.553C64.476 117.282 65.6429 117.173 66.6403 117.372C66.7999 117.402 66.8597 117.163 66.7101 117.133C65.9222 116.983 65.0744 117.023 64.3364 116.683C64.0072 116.533 63.708 116.293 63.5385 115.963C63.3589 115.613 63.2991 114.954 63.8676 114.984C64.3763 115.014 64.6156 115.703 64.2067 116.023C63.8975 116.263 63.4487 116.393 63.0597 116.363C62.2917 116.303 61.3143 115.923 61.1248 115.104C61.0849 114.944 60.8456 115.014 60.8855 115.173H60.8755Z" fill="#6C8CA8"/>
</g>
<defs>
<clipPath id="clip0_775_7690">
<rect width="72" height="61" fill="white" transform="translate(25 102)"/>
</clipPath>
</defs>
</svg>
