<svg width="122" height="225" viewBox="0 0 122 225" fill="none" xmlns="http://www.w3.org/2000/svg">
<g clip-path="url(#clip0_775_10432)">
<path d="M83.9901 114.49L78.8801 109.9L80.6001 107.96L78.0701 104.86L79.2201 101.63C77.2501 100.99 75.0601 100.64 72.7601 100.64C70.8201 109.44 67.4401 112.2 63.8501 112C63.7901 112 63.7401 111.99 63.6801 111.99C60.5401 111.74 57.2601 109.31 54.6201 106.73C54.5601 106.68 54.5001 106.62 54.4401 106.56C51.4201 103.59 49.1401 100.5 49.1401 100.5C32.4201 100.5 33.5101 111.92 33.5101 111.92V158.48C33.5101 159.59 34.4201 160.5 35.5501 160.5H86.4701C87.6001 160.5 88.5001 159.59 88.5001 158.48V124.54L83.9901 114.49ZM52.9101 152.32L47.8201 153.61L43.5101 152.15L42.5901 148.88L46.0601 145.35L42.5901 141.48L49.9501 139.1L56.2101 143.42L52.9101 152.32Z" fill="white" stroke="#F9F9F9" stroke-miterlimit="10"/>
<path d="M63.8599 112C63.6399 112.67 62.3799 113.22 62.1799 113.38C61.2699 114.09 61.8999 114.93 61.3199 115.26C60.7399 115.6 57.7799 115.18 57.4999 114.67C57.2199 114.16 56.9799 112.96 55.6699 112.84C54.9999 112.78 53.2699 112.05 52.8799 111.61C52.3399 111.02 53.6699 110.51 53.6899 109.05C53.6899 107.96 54.3199 107.1 54.6299 106.73C57.2699 109.31 60.5499 111.74 63.6899 111.99C63.7499 111.99 63.7999 112 63.8599 112Z" fill="#F2B69C"/>
</g>
<defs>
<clipPath id="clip0_775_10432">
<rect width="56" height="61" fill="white" transform="translate(33 100)"/>
</clipPath>
</defs>
</svg>
