<svg width="122" height="225" viewBox="0 0 122 225" fill="none" xmlns="http://www.w3.org/2000/svg">
<g clip-path="url(#clip0_775_10074)">
<path d="M61.0695 116.399V160.723H36.9879C35.8729 160.723 34.9769 159.86 35.0068 158.81L35.5145 140.042L22.7719 137.159C21.5971 136.891 20.9501 135.712 21.3881 134.662L29.5613 115.022C29.5613 115.022 32.7768 108.968 39.3672 106.718C45.9575 104.459 50.1686 103.914 50.1686 103.914C50.1686 103.914 52.3985 106.738 55.3652 109.394C56.2512 110.177 58.4712 111.336 59.4568 112.02L61.0795 116.39L61.0695 116.399Z" fill="white"/>
<path d="M61.3184 160.97H36.9879C36.3707 160.97 35.7734 160.722 35.3552 160.296C34.957 159.89 34.748 159.355 34.7579 158.81L35.2557 140.241L22.7121 137.397C22.065 137.248 21.5275 136.842 21.2288 136.277C20.9501 135.742 20.9202 135.118 21.1591 134.563L29.3323 114.933C29.3722 114.854 32.6773 108.75 39.2875 106.49C45.8281 104.251 50.0889 103.686 50.1387 103.676L50.2781 103.656L50.3677 103.765C50.3677 103.765 52.6176 106.599 55.5344 109.215C56.0621 109.681 57.1273 110.315 58.0631 110.87C58.6604 111.227 59.2179 111.554 59.6061 111.821L59.6658 111.861L61.3284 116.389V160.96L61.3184 160.97ZM50.0591 104.191C49.2826 104.31 45.2806 104.964 39.4468 106.966C33.0257 109.156 29.8102 115.091 29.7803 115.151L21.6171 134.751C21.4379 135.177 21.4578 135.633 21.6768 136.049C21.9058 136.485 22.3239 136.802 22.8316 136.921L35.7734 139.854V140.062L35.2656 158.83C35.2557 159.246 35.415 159.652 35.7236 159.959C36.0521 160.296 36.52 160.485 37.0078 160.485H60.8406V116.439L59.2676 112.188C58.8993 111.94 58.3816 111.623 57.8241 111.296C56.8684 110.731 55.7833 110.087 55.2159 109.582C52.5976 107.234 50.527 104.736 50.079 104.182L50.0591 104.191Z" fill="#D1D1D1"/>
<path d="M60.9302 116.399V160.723H85.0118C86.1268 160.723 87.0228 159.86 86.9929 158.81L86.4852 140.042L99.2278 137.159C100.403 136.891 101.05 135.712 100.612 134.662L92.4384 115.032C92.4384 115.032 89.2229 108.978 82.6325 106.728C76.0422 104.469 71.8311 103.924 71.8311 103.924C71.8311 103.924 69.6012 106.748 66.6345 109.404C65.7485 110.186 63.1203 111.366 62.1447 112.039L60.9302 116.39V116.399Z" fill="white"/>
<path d="M85.0122 160.97H60.6816V116.33L61.936 111.891L62.0057 111.841C62.4238 111.554 63.1306 111.177 63.8673 110.781C64.8628 110.256 65.9778 109.661 66.4756 109.215C69.3924 106.599 71.6224 103.795 71.6423 103.765L71.7319 103.656L71.8713 103.676C71.8713 103.676 76.1819 104.251 82.7225 106.49C89.3327 108.75 92.6378 114.844 92.6677 114.913L100.851 134.563C101.08 135.118 101.06 135.742 100.781 136.277C100.483 136.842 99.945 137.258 99.2979 137.397L86.7543 140.241L87.2521 158.81C87.262 159.365 87.053 159.89 86.6548 160.296C86.2366 160.722 85.6393 160.97 85.0221 160.97H85.0122ZM61.1794 160.475H85.0122C85.5 160.475 85.9678 160.286 86.2964 159.95C86.595 159.642 86.7643 159.236 86.7543 158.82L86.2466 139.844L99.1884 136.911C99.6961 136.792 100.114 136.485 100.343 136.039C100.552 135.633 100.572 135.167 100.403 134.741L92.2297 115.111C92.2297 115.111 88.9942 109.146 82.5731 106.946C76.7394 104.945 72.7374 104.291 71.9609 104.172C71.5129 104.727 69.4422 107.224 66.824 109.572C66.2864 110.048 65.1814 110.632 64.1162 111.207C63.4293 111.574 62.7822 111.921 62.374 112.188L61.1894 116.419V160.465L61.1794 160.475Z" fill="#D1D1D1"/>
<path d="M57.8541 109.79H64.2453L64.763 113.308H57.3364L57.8541 109.79Z" fill="white"/>
<path d="M65.0518 113.556H57.0479L57.6452 109.542H64.4645L65.0518 113.556ZM57.6153 113.06H64.4744L64.0264 110.038H58.0633L57.6153 113.06Z" fill="#D1D1D1"/>
<path d="M64.942 108.71L63.0107 116.439L62.951 116.697H58.8992L58.8395 116.439L56.9082 108.71H64.942Z" fill="#5E2E1B"/>
<path d="M64.942 143.243H56.9082L58.8793 116.954L58.8992 116.697H62.951L62.9709 116.954L64.942 143.243Z" fill="#5E2E1B"/>
<path d="M56.9185 143.243L60.9304 148.515L64.9423 143.243H56.9185Z" fill="#1F2021"/>
<path d="M62.9513 116.697L62.9713 117.212H58.8797L58.8996 116.697L58.8398 116.181H63.0111L62.9513 116.697Z" fill="#96745C"/>
<path d="M60.9401 149.337L56.4105 143.392V143.203L58.4115 116.736L58.3717 116.548L56.291 108.215H65.5991L63.4787 116.736L65.4797 143.392L60.96 149.337H60.9401ZM57.4259 143.094L60.9401 147.692L64.4443 143.094L62.4632 116.657L62.5429 116.32L64.3249 109.196H57.5653L59.4169 116.647L59.397 116.974L57.4359 143.075L57.4259 143.094Z" fill="#96745C"/>
<path d="M71.1741 100.406L80.303 105.955L66.9431 116.994C66.3558 117.39 65.5494 117.073 65.41 116.38L61.3284 108.829C61.1094 108.413 61.199 107.907 61.5573 107.6L69.86 100.614C70.1786 100.228 70.746 100.139 71.1741 100.416V100.406Z" fill="white"/>
<path d="M66.366 117.42C66.2067 117.42 66.0574 117.39 65.908 117.331C65.5297 117.182 65.251 116.865 65.1614 116.479L61.0997 108.958C60.8209 108.443 60.9404 107.798 61.3884 107.422L69.701 100.426C70.0693 99.9703 70.7761 99.8613 71.3038 100.208L80.7214 105.936L67.0927 117.192C66.8737 117.351 66.6149 117.42 66.366 117.42ZM70.6268 100.496C70.4078 100.496 70.1987 100.585 70.0494 100.763L61.7069 107.798C61.4381 108.026 61.3685 108.413 61.5277 108.72L65.6293 116.33C65.6791 116.578 65.8483 116.776 66.0872 116.865C66.3162 116.954 66.575 116.935 66.7841 116.786L79.8652 105.985L71.035 100.614C70.9055 100.535 70.7662 100.496 70.6268 100.496Z" fill="#D1D1D1"/>
<path d="M50.6366 100.406L41.9258 106.054L54.8775 116.994C55.4649 117.39 56.2712 117.073 56.4106 116.38L60.9303 108.125L51.9507 100.614C51.6321 100.228 51.0647 100.139 50.6366 100.416V100.406Z" fill="white"/>
<path d="M55.4449 117.42C55.196 117.42 54.9471 117.351 54.7381 117.202L41.5176 106.035L50.5071 100.208C51.0347 99.8613 51.7416 99.9703 52.1497 100.456L61.2488 108.076L56.6495 116.479C56.5499 116.865 56.2712 117.182 55.9028 117.331C55.7535 117.39 55.5942 117.42 55.4449 117.42ZM42.3538 106.084L55.0467 116.816C55.2358 116.944 55.4847 116.974 55.7237 116.875C55.9626 116.786 56.1219 116.588 56.1816 116.34L56.2015 116.271L60.6216 108.195L51.7913 100.803C51.5226 100.476 51.0945 100.406 50.7759 100.614L42.3439 106.084H42.3538Z" fill="#D1D1D1"/>
<path d="M76.4407 103.755L82.7921 106.609C83.5388 106.847 84.0664 107.511 84.1162 108.294L86.4158 140.042L86.8339 158.79C86.8538 159.732 86.0873 160.514 85.1416 160.505L60.9902 160.445V133.919C60.9902 133.919 76.4308 122.553 76.4308 103.755H76.4407Z" fill="#C49A76"/>
<path d="M85.1515 161L60.5024 160.941V133.671L60.7015 133.522C60.8509 133.413 75.943 122.077 75.943 103.756V102.993L82.9912 106.163C83.8872 106.441 84.5443 107.273 84.6139 108.264L86.9136 140.013L87.3317 158.79C87.3417 159.385 87.1227 159.94 86.7045 160.366C86.2864 160.782 85.7389 161.02 85.1416 161.02L85.1515 161ZM61.498 159.95L85.1515 160.009C85.4701 160.009 85.7787 159.88 85.9977 159.652C86.2267 159.424 86.3461 159.117 86.3362 158.8L85.9181 140.052L83.6184 108.334C83.5786 107.759 83.1903 107.263 82.6329 107.085L76.9285 104.519C76.5403 121.74 63.2999 132.749 61.498 134.166V159.96V159.95Z" fill="#96745C"/>
<path d="M45.6389 103.656L39.2776 106.619C38.5309 106.857 38.0033 107.521 37.9535 108.304L35.6539 140.052L35.2357 158.86C35.2158 159.771 35.9525 160.524 36.8684 160.524L61.0794 160.465V133.938C61.0794 133.938 45.6489 122.474 45.6489 103.666L45.6389 103.656Z" fill="#C49A76"/>
<path d="M36.8588 161C36.2814 161 35.7438 160.772 35.3356 160.366C34.9275 159.95 34.7184 159.415 34.7284 158.84L35.1465 140.033L37.4561 108.264C37.5258 107.283 38.1828 106.451 39.1286 106.144L46.137 102.884V103.666C46.137 121.998 61.2192 133.423 61.3685 133.542L61.5676 133.691V160.96L36.8588 161.02V161ZM45.1515 104.429L39.4969 107.065C38.8797 107.263 38.5014 107.749 38.4516 108.334L36.152 140.082L35.7338 158.87C35.7338 159.177 35.8433 159.464 36.0624 159.682C36.2814 159.9 36.5601 160.019 36.8687 160.019L60.582 159.96V134.166C58.7901 132.739 45.5497 121.651 45.1614 104.429H45.1515Z" fill="#96745C"/>
<path d="M71.6621 132.72V129.688C71.6621 128.934 72.3689 128.389 73.0957 128.578L78.1131 129.836C78.6606 129.975 79.029 130.49 78.9792 131.055L78.6905 134.097" fill="white"/>
<path d="M70.6963 131.838H79.8153C80.0841 131.838 80.3031 132.056 80.3031 132.323V137.664C80.3031 140.439 78.0432 142.688 75.2558 142.688C72.4683 142.688 70.2085 140.439 70.2085 137.664V132.323C70.2085 132.056 70.4275 131.838 70.6963 131.838Z" fill="#5E2E1B"/>
<path d="M75.2457 143.194C72.1895 143.194 69.7007 140.716 69.7007 137.674V132.333C69.7007 131.788 70.1487 131.352 70.6863 131.352H79.8052C80.3528 131.352 80.7908 131.798 80.7908 132.333V137.674C80.7908 140.716 78.302 143.194 75.2457 143.194ZM79.7953 132.333H70.6863V137.674C70.6863 140.171 72.7271 142.203 75.2358 142.203C77.7445 142.203 79.7853 140.171 79.7853 137.674V132.333H79.7953Z" fill="#96745C"/>
</g>
<defs>
<clipPath id="clip0_775_10074">
<rect width="80" height="61" fill="white" transform="translate(21 100)"/>
</clipPath>
</defs>
</svg>
