<svg width="122" height="225" viewBox="0 0 122 225" fill="none" xmlns="http://www.w3.org/2000/svg">
<g clip-path="url(#clip0_775_7626)">
<path d="M99.7299 138.09L88.4699 140.59L87.7899 140.74V161.5C87.7899 162.6 86.8999 163.5 85.7999 163.5H35.2199C34.1299 163.5 33.2399 162.6 33.2399 161.5V140.8L32.5099 140.64L21.2799 138.14C20.6399 138 20.3199 137.3 20.5999 136.72L33.3799 111.01L33.7899 110.19H33.7999C33.8499 110.06 33.8899 109.93 33.9499 109.8C35.3999 106.11 38.9799 103.5 43.1599 103.5H48.1199C48.1199 106.68 53.6699 109.25 60.5099 109.25C67.3499 109.25 72.9099 106.68 72.9099 103.5H77.8699C82.0799 103.5 85.6799 106.15 87.1199 109.9C87.1499 109.98 87.1799 110.06 87.2099 110.14L87.6799 111.09L100.39 136.66C100.69 137.25 100.35 137.95 99.7299 138.09Z" fill="white" stroke="#F9F9F9" stroke-miterlimit="10"/>
<path d="M46.1399 127.12H45.3999L43.3599 132.71H44.0799L44.6399 131.14H46.8899L47.4499 132.71H48.1799L46.1399 127.12ZM44.8599 130.53L45.7399 128.03H45.7899L46.6799 130.53H44.8599Z" fill="black"/>
<path d="M51.1 129.91V130.52H52.56C52.55 131.51 51.89 132.14 50.95 132.14C49.92 132.14 49.13 131.36 49.13 129.92C49.13 128.48 49.92 127.69 50.91 127.69C51.71 127.69 52.25 128.15 52.49 128.87H53.21C53 127.79 52.09 127.05 50.91 127.05C49.47 127.05 48.45 128.15 48.46 129.92C48.45 131.69 49.46 132.79 50.95 132.79C52.28 132.79 53.24 131.9 53.24 130.51V129.91H51.1Z" fill="black"/>
<path d="M57.9398 127.12V130.77C57.9298 131.58 57.3798 132.16 56.4598 132.17C55.5298 132.17 54.9698 131.58 54.9698 130.77V127.12H54.2798V130.82C54.2798 131.97 55.1398 132.81 56.4598 132.81C57.7798 132.81 58.6298 131.97 58.6298 130.82V127.12H57.9398Z" fill="black"/>
<path d="M62.1199 132.14C61.1099 132.14 60.3299 131.36 60.3199 129.92C60.3299 128.47 61.1099 127.69 62.1199 127.69C62.8599 127.69 63.5199 128.11 63.6799 128.88H64.3799C64.1699 127.72 63.2499 127.05 62.1199 127.05C60.6899 127.05 59.6499 128.15 59.6499 129.92C59.6499 131.69 60.6899 132.79 62.1199 132.79C63.2599 132.79 64.1799 132.1 64.3799 130.96H63.6799C63.5199 131.73 62.8599 132.14 62.1199 132.14Z" fill="black"/>
<path d="M67.5999 132.14C66.5899 132.14 65.8099 131.36 65.7999 129.92C65.8099 128.47 66.5899 127.69 67.5999 127.69C68.3399 127.69 68.9999 128.11 69.1599 128.88H69.8599C69.6499 127.72 68.7299 127.05 67.5999 127.05C66.1699 127.05 65.1299 128.15 65.1299 129.92C65.1299 131.69 66.1699 132.79 67.5999 132.79C68.7399 132.79 69.6499 132.1 69.8599 130.96H69.1599C68.9899 131.73 68.3399 132.14 67.5999 132.14Z" fill="black"/>
<path d="M70.8301 127.12V132.71H71.5201V127.12H70.8301Z" fill="black"/>
<path d="M77.4298 127.12L75.5398 131.73H75.4698L73.5898 127.12H72.7598V132.71H73.4098V128.49H73.4598L75.1998 132.71H75.8098L77.5498 128.49H77.6098V132.71H78.2598V127.12H77.4298Z" fill="black"/>
<path d="M33.24 141.8V141.77L32.73 141.08C36.49 132.5 34.25 116.73 33.38 111.04L33.79 110.19H33.8C33.85 110.06 33.89 109.92 33.95 109.79C34.68 114.11 37.37 132.2 33.24 141.79V141.8Z" fill="#F9F9F9"/>
<path d="M87.6802 111.12C86.8402 116.65 84.7102 132.49 88.3602 141.06L87.7902 141.49V141.64C83.7202 132.07 86.4202 114.07 87.1202 109.9L87.6802 111.12Z" fill="#F9F9F9"/>
<path d="M74.13 103.5C74.13 103.84 74.08 104.18 73.98 104.52C73.98 104.58 73.92 104.61 73.86 104.61H73.83C73.76 104.59 73.72 104.52 73.74 104.45C73.83 104.14 73.88 103.82 73.88 103.5H74.13Z" fill="#F7F7F7"/>
<path d="M68.5302 109.06C68.4802 109.06 68.4302 109.03 68.4102 108.98C68.3902 108.92 68.4102 108.84 68.4802 108.82C69.0602 108.61 69.6102 108.37 70.1102 108.11C70.1702 108.08 70.2502 108.11 70.2802 108.16C70.3102 108.22 70.2802 108.3 70.2302 108.33C69.7202 108.59 69.1602 108.84 68.5702 109.05C68.5602 109.05 68.5402 109.05 68.5302 109.05V109.06ZM71.7102 107.4C71.7102 107.4 71.6302 107.38 71.6102 107.35C71.5702 107.29 71.5802 107.22 71.6402 107.17C72.1502 106.79 72.5802 106.39 72.9302 105.97C72.9702 105.92 73.0502 105.91 73.1102 105.95C73.1702 105.99 73.1702 106.07 73.1302 106.13C72.7702 106.57 72.3302 106.99 71.8002 107.38C71.7802 107.4 71.7502 107.4 71.7302 107.4H71.7102Z" fill="#F7F7F7"/>
<path d="M59.6801 110.36C59.0801 110.34 58.4701 110.3 57.8801 110.24C57.8101 110.24 57.7601 110.17 57.7701 110.1C57.7701 110.04 57.8301 109.99 57.8901 109.99C57.8901 109.99 57.8901 109.99 57.9001 109.99C58.4901 110.05 59.0901 110.09 59.6801 110.11C59.7501 110.11 59.8001 110.17 59.8001 110.24C59.8001 110.31 59.7401 110.36 59.6801 110.36ZM61.4801 110.36C61.4101 110.36 61.3601 110.31 61.3601 110.24C61.3601 110.17 61.4101 110.11 61.4801 110.11C62.0801 110.09 62.6801 110.05 63.2601 109.99C63.3201 109.99 63.3901 110.03 63.4001 110.1C63.4001 110.17 63.3601 110.23 63.2901 110.24C62.7001 110.3 62.0901 110.34 61.4901 110.36H61.4801ZM56.1101 109.99C56.1101 109.99 56.1001 109.99 56.0901 109.99C55.4901 109.88 54.9001 109.75 54.3301 109.61C54.2601 109.59 54.2201 109.52 54.2401 109.46C54.2601 109.39 54.3301 109.36 54.3901 109.37C54.9501 109.52 55.5401 109.65 56.1401 109.75C56.2101 109.76 56.2501 109.83 56.2401 109.89C56.2301 109.95 56.1801 109.99 56.1201 109.99H56.1101ZM65.0501 109.99C64.9901 109.99 64.9401 109.95 64.9301 109.89C64.9201 109.82 64.9601 109.76 65.0301 109.74C65.6201 109.64 66.2101 109.51 66.7701 109.36C66.8401 109.34 66.9001 109.38 66.9201 109.45C66.9401 109.52 66.9001 109.58 66.8301 109.6C66.2601 109.75 65.6701 109.88 65.0701 109.99C65.0701 109.99 65.0601 109.99 65.0501 109.99ZM52.6401 109.07C52.6401 109.07 52.6101 109.07 52.6001 109.07C52.0101 108.85 51.4501 108.61 50.9401 108.35C50.8801 108.32 50.8501 108.24 50.8901 108.18C50.9201 108.12 51.0001 108.1 51.0601 108.13C51.5601 108.39 52.1101 108.63 52.6901 108.84C52.7601 108.86 52.7901 108.94 52.7601 109C52.7401 109.05 52.6901 109.08 52.6401 109.08V109.07ZM49.4601 107.42C49.4601 107.42 49.4101 107.42 49.3901 107.4C48.8601 107.01 48.4101 106.59 48.0601 106.16C48.0201 106.11 48.0201 106.03 48.0801 105.98C48.1301 105.94 48.2101 105.94 48.2601 106C48.6001 106.42 49.0401 106.82 49.5501 107.2C49.6101 107.24 49.6201 107.32 49.5801 107.37C49.5601 107.4 49.5201 107.42 49.4801 107.42H49.4601Z" fill="#F7F7F7"/>
<path d="M47.2598 103.5C47.2598 103.82 47.3098 104.14 47.3998 104.45C47.4198 104.52 47.3798 104.59 47.3198 104.61H47.2798C47.2798 104.61 47.1798 104.58 47.1598 104.52C47.0598 104.19 47.0098 103.84 47.0098 103.5H47.2598Z" fill="#F7F7F7"/>
<path d="M76.5608 148.095L74.9436 155.039C74.6981 156.094 75.3537 157.147 76.4079 157.393L79.5538 158.125C80.608 158.371 81.6617 157.715 81.9072 156.661L83.5245 149.717C83.77 148.663 83.1144 147.609 82.0601 147.363L78.9143 146.631C77.86 146.385 76.8064 147.041 76.5608 148.095Z" fill="#C6C6C6"/>
<path d="M76.5608 148.095L74.9436 155.039C74.6981 156.094 75.3537 157.147 76.4079 157.393L79.5538 158.125C80.608 158.371 81.6617 157.715 81.9072 156.661L83.5245 149.717C83.77 148.663 83.1144 147.609 82.0601 147.363L78.9143 146.631C77.86 146.385 76.8064 147.041 76.5608 148.095Z" stroke="#9E9E9E" stroke-width="0.5" stroke-linecap="round" stroke-linejoin="round"/>
</g>
<defs>
<clipPath id="clip0_775_7626">
<rect width="81" height="61" fill="white" transform="translate(20 103)"/>
</clipPath>
</defs>
</svg>
