<svg width="122" height="225" viewBox="0 0 122 225" fill="none" xmlns="http://www.w3.org/2000/svg">
<g clip-path="url(#clip0_775_8512)">
<path d="M105.847 149.507C105.847 149.507 105.724 150.551 103.852 151.237L104.568 155.342C104.629 155.68 104.537 156.028 104.322 156.306C104.107 156.575 103.79 156.753 103.432 156.783C101.406 156.982 97.621 157.519 94.9815 158.861C94.7973 158.95 94.6029 159 94.4085 159C94.03 159 93.6515 158.831 93.3957 158.513L90.2856 154.636L87.5744 153.871V157.539C87.5744 158.225 87.0015 158.781 86.2956 158.781H35.7147C35.0088 158.781 34.4358 158.225 34.4358 157.539V153.871L31.7247 154.636L28.6145 158.513C28.3588 158.831 27.9904 159 27.6017 159C27.4073 159 27.2129 158.95 27.039 158.861C24.3892 157.519 20.6038 156.982 18.5781 156.783C18.2303 156.753 17.9029 156.575 17.6881 156.306C17.4732 156.028 17.3812 155.69 17.4425 155.342L18.1587 151.237C16.2865 150.551 16.1637 149.537 16.1535 149.487C14.9667 143.513 21.1563 132.559 21.4121 132.091C21.4325 132.072 22.8444 129.507 28.2258 116.256L28.5736 115.402C33.5355 103.145 43.2957 99.7853 46.1603 99.0397C46.6514 98.9105 47.1527 99.0696 47.4698 99.4473C48.7794 101.008 53.5367 106.078 59.6342 106.078H62.376C68.4838 106.078 73.2309 101.008 74.5404 99.4473C74.8576 99.0696 75.3589 98.9105 75.8499 99.0397C78.7248 99.7853 88.4849 103.145 93.4366 115.402L93.7845 116.256C99.1658 129.507 100.588 132.072 100.598 132.091C100.864 132.559 107.054 143.513 105.847 149.507Z" fill="white"/>
<path d="M34.9473 153.831V157.539C34.9473 157.946 35.2952 158.284 35.7146 158.284H61.0051V158.781H35.7146C35.0087 158.781 34.4358 158.225 34.4358 157.539V153.334H61.0051V153.831H34.9473Z" fill="#B5B5B5"/>
<path d="M31.7758 154.577L31.7246 154.636L28.6145 158.513C28.3587 158.831 27.9904 159 27.6016 159C27.4073 159 27.2129 158.95 27.0389 158.861C24.3892 157.519 20.6038 156.982 18.5781 156.783C18.2303 156.753 17.9029 156.575 17.688 156.306C17.4732 156.028 17.3811 155.69 17.4425 155.342L18.1586 151.237L18.1996 151.028L18.7009 151.107L18.66 151.326L17.9438 155.421C17.9131 155.63 17.9643 155.839 18.0973 155.998C18.22 156.167 18.4144 156.276 18.6293 156.296C20.6959 156.495 24.5529 157.042 27.2743 158.423C27.5914 158.583 27.9802 158.493 28.2053 158.205L31.2131 154.477L31.3768 154.268L31.7758 154.577Z" fill="#B5B5B5"/>
<path d="M61.0051 109.765H58.2735C47.8995 109.765 41.7303 101.356 41.6689 101.266L42.0884 100.978C42.1498 101.058 48.1757 109.268 58.2735 109.268H61.0051V109.765Z" fill="#B5B5B5"/>
<path d="M59.6342 106.078C53.5367 106.078 48.7794 101.008 47.4698 99.4473C47.1527 99.0696 46.6514 98.9105 46.1603 99.0397C43.2957 99.7853 33.5355 103.145 28.5736 115.402L28.2258 116.256C22.8444 129.507 21.4325 132.072 21.4121 132.091C21.1563 132.559 14.9667 143.513 16.1535 149.487C16.1637 149.537 16.2865 150.551 18.1587 151.237C18.2303 151.256 18.3019 151.286 18.3735 151.306H18.4554C18.4554 151.306 18.5372 151.316 18.66 151.326C19.9491 151.346 27.0083 151.634 31.2131 154.477L31.428 154.626L31.5303 154.696L31.7247 154.636L34.4358 153.871L34.7939 153.771V153.334C34.8553 150.531 35.4896 125.978 38.5281 122.181L38.6611 122.012L38.5077 121.853C33.7504 116.853 30.0161 116.187 28.8396 116.107L29.0544 115.581C32.3181 107.519 37.6688 103.384 41.6997 101.306C41.8531 101.227 42.0066 101.147 42.1601 101.078C43.9504 100.193 45.4339 99.7356 46.2933 99.5169C46.59 99.4473 46.8867 99.5368 47.0708 99.7654C48.4213 101.366 53.3116 106.575 59.6342 106.575H61.0051V106.078H59.6342ZM37.9961 122.042C34.9064 126.545 34.3335 150.829 34.2824 153.404L31.6224 154.149C27.0185 150.948 19.2125 150.829 18.4963 150.819C16.8082 150.262 16.665 149.437 16.665 149.417C15.4987 143.592 21.8008 132.449 21.8622 132.33C21.9236 132.231 23.2843 129.775 28.635 116.594C29.433 116.624 33.1774 117.052 37.9961 122.042Z" fill="#B5B5B5"/>
<path d="M87.5744 153.334V157.539C87.5744 158.225 87.0015 158.781 86.2956 158.781H61.0051V158.284H86.2956C86.715 158.284 87.0629 157.946 87.0629 157.539V153.831H61.0051V153.334H87.5744Z" fill="#B5B5B5"/>
<path d="M104.568 155.342C104.629 155.68 104.537 156.028 104.322 156.306C104.107 156.575 103.79 156.753 103.432 156.783C101.406 156.982 97.621 157.519 94.9814 158.861C94.7973 158.95 94.6029 159 94.4085 159C94.03 159 93.6515 158.831 93.3957 158.513L90.2855 154.636L90.2344 154.577L90.6436 154.268L90.8073 154.477L93.8049 158.205C94.03 158.493 94.429 158.583 94.7359 158.423C97.4573 157.042 101.325 156.495 103.381 156.296C103.596 156.276 103.79 156.167 103.923 155.998C104.046 155.839 104.097 155.63 104.066 155.421L103.35 151.326L103.309 151.107L103.811 151.028L103.852 151.237L104.568 155.342Z" fill="#B5B5B5"/>
<path d="M63.7367 109.765H61.0051V109.268H63.7367C73.8345 109.268 79.8604 101.068 79.9218 100.978L80.3413 101.266C80.2799 101.346 74.1005 109.765 63.7367 109.765Z" fill="#B5B5B5"/>
<path d="M100.598 132.091C100.598 132.091 99.1659 129.507 93.7845 116.256L93.4366 115.402C88.4849 103.145 78.7248 99.7853 75.85 99.0397C75.3589 98.9105 74.8576 99.0696 74.5404 99.4473C73.2309 101.008 68.4838 106.078 62.376 106.078H61.0051V106.575H62.376C68.7089 106.575 73.589 101.366 74.9394 99.7654C75.1236 99.5368 75.4305 99.4473 75.717 99.5169C76.5763 99.7356 78.0598 100.193 79.8502 101.078C80.0036 101.147 80.1571 101.227 80.3106 101.306C84.3415 103.384 89.7024 107.519 92.966 115.581L93.1809 116.107C91.9941 116.187 88.2599 116.853 83.5026 121.853L83.3593 122.012L83.4923 122.181C86.5104 125.978 87.1549 150.501 87.2061 153.334C87.2163 153.483 87.2163 153.582 87.2163 153.592V153.771L87.5744 153.871L90.2856 154.636L90.4902 154.696L90.5925 154.626L90.8073 154.477C95.0019 151.634 102.061 151.346 103.35 151.326C103.473 151.326 103.545 151.326 103.555 151.326H103.637C103.708 151.296 103.78 151.266 103.852 151.247C105.724 150.561 105.847 149.547 105.847 149.517C107.054 143.523 100.864 132.569 100.598 132.101V132.091ZM105.345 149.437C105.345 149.437 105.212 150.262 103.514 150.819C102.798 150.819 95.0019 150.948 90.3879 154.149L87.7279 153.404C87.6767 150.829 87.1038 126.545 84.0243 122.042C88.8328 117.052 92.5772 116.624 93.3752 116.594C98.7259 129.775 100.097 132.231 100.148 132.33C100.209 132.449 106.512 143.592 105.345 149.437Z" fill="#B5B5B5"/>
<path d="M61.7711 141.351C61.0911 141.351 60.4011 141.371 59.7211 141.351C59.2611 141.341 58.8011 141.301 58.3611 141.221C57.4111 141.051 56.5011 140.711 55.6411 140.271C55.1711 140.031 54.7311 139.731 54.2811 139.471C53.9711 139.291 53.6511 139.131 53.3611 138.931C52.9711 138.661 52.6111 138.371 52.2411 138.071C52.0311 137.901 51.8411 137.721 51.6611 137.521C51.1011 136.911 50.5911 136.261 50.2111 135.521C49.8511 134.801 49.5911 134.051 49.4011 133.271C49.2511 132.651 49.0911 132.031 49.0711 131.391C49.0511 130.531 48.9911 129.681 49.0011 128.821C49.0011 128.301 49.1111 127.781 49.1811 127.261C49.2311 126.891 49.2911 126.531 49.3711 126.171C49.4511 125.821 49.5411 125.471 49.6611 125.131C49.8211 124.681 50.0011 124.231 50.1911 123.791C50.5911 122.861 51.1311 122.011 51.7411 121.201C52.1811 120.621 52.6711 120.071 53.2211 119.591C54.0611 118.861 54.9911 118.251 56.0411 117.851C56.5311 117.661 57.0311 117.511 57.5511 117.381C58.3111 117.191 59.0711 117.071 59.8411 117.041C60.2711 117.021 60.7111 116.981 61.1411 117.011C61.7911 117.041 62.4411 117.091 63.0811 117.231C63.8311 117.391 64.5711 117.571 65.2911 117.861C65.9311 118.111 66.5611 118.371 67.1811 118.661C67.6111 118.861 68.0311 119.081 68.4311 119.341C68.7911 119.571 69.1011 119.871 69.4311 120.151C69.6311 120.311 69.8111 120.491 69.9911 120.671C70.4011 121.061 70.8011 121.461 71.1011 121.951C71.2211 122.161 71.4211 122.321 71.5311 122.541C71.8011 123.061 72.0611 123.581 72.2711 124.121C72.4911 124.691 72.6911 125.281 72.8311 125.871C72.9711 126.441 73.0211 127.041 73.1311 127.621C73.2611 128.371 73.1911 129.131 73.1811 129.891C73.1811 130.391 73.1311 130.881 72.9811 131.371C72.8311 131.841 72.7911 132.351 72.6211 132.811C72.4911 133.181 72.4311 133.571 72.2011 133.921C72.0411 134.171 71.9611 134.471 71.8111 134.731C71.6711 134.991 71.5111 135.241 71.3311 135.471C70.9711 135.941 70.5811 136.391 70.2311 136.881C69.8711 137.391 69.4111 137.791 68.9611 138.201C68.5011 138.621 67.9811 138.991 67.4711 139.341C66.9911 139.671 66.4811 139.961 65.9811 140.241C65.7111 140.391 65.4311 140.511 65.1411 140.611C64.6711 140.781 64.1911 140.951 63.7111 141.071C63.2111 141.191 62.7011 141.251 62.2011 141.341C62.0711 141.361 61.9311 141.381 61.8011 141.401C61.8011 141.391 61.8011 141.371 61.8011 141.361L61.7711 141.351ZM60.5511 118.251C59.6611 118.201 58.8011 118.361 57.9511 118.541C57.3511 118.661 56.7611 118.851 56.2011 119.091C55.2511 119.501 54.4811 120.191 53.7511 120.921C53.1011 121.571 52.5111 122.281 52.0211 123.071C51.5611 123.801 51.1911 124.571 50.9211 125.371C50.6811 126.091 50.4811 126.821 50.3211 127.561C50.2111 128.091 50.1611 128.631 50.1511 129.171C50.1311 130.351 50.1511 131.531 50.3911 132.701C50.5711 133.541 50.8211 134.371 51.2311 135.121C51.8611 136.291 52.7811 137.211 53.8611 137.961C54.3611 138.311 54.8811 138.631 55.4211 138.921C55.8711 139.171 56.3411 139.401 56.8211 139.601C57.4711 139.881 58.1411 140.081 58.8311 140.191C59.2411 140.251 59.6511 140.351 60.0611 140.381C60.8811 140.441 61.7111 140.361 62.5211 140.211C62.9911 140.121 63.4611 140.001 63.9211 139.861C64.2411 139.761 64.5411 139.601 64.8611 139.471C65.0811 139.381 65.3111 139.311 65.5211 139.221C66.5511 138.771 67.4111 138.091 68.2211 137.341C69.0211 136.591 69.7111 135.741 70.3111 134.831C70.7011 134.241 71.0711 133.631 71.3111 132.951C71.4511 132.541 71.6211 132.151 71.7311 131.731C71.8611 131.251 72.0011 130.771 72.0311 130.281C72.0711 129.611 72.0311 128.941 72.0011 128.271C71.9911 127.981 71.9711 127.691 71.9211 127.401C71.8211 126.851 71.7011 126.311 71.6011 125.771C71.4911 125.181 71.2911 124.611 71.0311 124.071C70.8211 123.631 70.5611 123.211 70.2511 122.841C69.8211 122.321 69.3511 121.841 68.8711 121.371C68.2111 120.731 67.4711 120.201 66.6411 119.801C66.2911 119.631 65.9511 119.441 65.5911 119.301C65.0211 119.081 64.4411 118.881 63.8611 118.711C63.2811 118.551 62.6811 118.401 62.0811 118.311C61.5911 118.241 61.0911 118.261 60.5911 118.241L60.5511 118.251Z" fill="#020203"/>
<path d="M60.5512 118.251C61.0512 118.271 61.5512 118.251 62.0412 118.321C62.6412 118.411 63.2412 118.551 63.8212 118.721C64.4112 118.891 64.9812 119.091 65.5512 119.311C65.9112 119.451 66.2512 119.641 66.6012 119.811C67.4312 120.211 68.1712 120.741 68.8312 121.381C69.3112 121.851 69.7912 122.331 70.2112 122.851C70.5212 123.221 70.7812 123.651 70.9912 124.081C71.2512 124.621 71.4512 125.181 71.5612 125.781C71.6612 126.331 71.7912 126.871 71.8812 127.411C71.9312 127.701 71.9512 127.991 71.9612 128.281C71.9812 128.951 72.0412 129.621 71.9912 130.291C71.9612 130.781 71.8212 131.261 71.6912 131.741C71.5812 132.151 71.4112 132.551 71.2712 132.961C71.0412 133.641 70.6712 134.251 70.2712 134.841C69.6712 135.751 68.9812 136.601 68.1812 137.351C67.3712 138.111 66.5112 138.791 65.4812 139.231C65.2612 139.321 65.0412 139.391 64.8212 139.481C64.5112 139.611 64.2012 139.771 63.8812 139.871C63.4212 140.011 62.9512 140.141 62.4812 140.221C61.6712 140.371 60.8512 140.451 60.0212 140.391C59.6112 140.361 59.2012 140.261 58.7912 140.201C58.0912 140.091 57.4212 139.881 56.7812 139.611C56.3012 139.411 55.8412 139.181 55.3812 138.931C54.8512 138.631 54.3312 138.311 53.8212 137.971C52.7412 137.221 51.8212 136.291 51.1912 135.131C50.7812 134.371 50.5312 133.551 50.3512 132.711C50.1012 131.541 50.0812 130.361 50.1112 129.181C50.1212 128.641 50.1712 128.091 50.2812 127.571C50.4412 126.831 50.6412 126.101 50.8812 125.381C51.1512 124.571 51.5312 123.801 51.9812 123.081C52.4712 122.301 53.0612 121.591 53.7112 120.931C54.4312 120.201 55.2012 119.521 56.1612 119.101C56.7212 118.861 57.3212 118.671 57.9112 118.551C58.7612 118.371 59.6312 118.211 60.5112 118.261L60.5512 118.251ZM55.5512 129.791C55.5512 129.791 55.5912 129.791 55.6112 129.791C55.6112 129.521 55.6112 129.241 55.6112 128.971C55.6012 128.731 55.5312 128.511 55.2712 128.421C54.6912 128.191 54.2412 128.711 54.2212 129.231C54.2012 129.801 54.2212 130.381 54.2612 130.951C54.2812 131.281 54.3312 131.611 54.4112 131.931C54.5312 132.411 54.7512 132.851 55.0312 133.261C55.2212 133.541 55.4012 133.811 55.6012 134.081C55.9012 134.461 56.3012 134.721 56.7012 135.001C57.3212 135.431 58.0012 135.671 58.7112 135.831C59.5512 136.031 60.4212 136.041 61.2912 136.011C61.4912 136.011 61.7012 136.011 61.9012 135.971C62.2912 135.911 62.6812 135.861 63.0712 135.781C63.6812 135.661 64.2612 135.481 64.8012 135.211C65.5312 134.841 66.1412 134.321 66.6912 133.701C67.2612 133.051 67.5412 132.251 67.7112 131.441C67.8612 130.751 67.8512 130.021 67.8812 129.311C67.8812 129.081 67.8112 128.831 67.7312 128.611C67.6412 128.371 67.3612 128.241 67.0512 128.271C66.8212 128.291 66.5712 128.411 66.5312 128.701C66.4912 128.951 66.5112 129.211 66.5012 129.471C66.4912 129.951 66.5412 130.451 66.4412 130.911C66.3212 131.491 66.1112 132.061 65.7812 132.581C65.5212 132.991 65.2212 133.351 64.8212 133.621C64.3312 133.951 63.7812 134.171 63.2112 134.341C62.7012 134.491 62.1812 134.621 61.6512 134.641C60.7412 134.681 59.8312 134.631 58.9312 134.411C58.0912 134.201 57.3312 133.871 56.7112 133.261C56.1012 132.651 55.8012 131.881 55.6212 131.071C55.5312 130.661 55.5712 130.231 55.5512 129.811V129.791ZM57.4412 125.841C57.4412 125.841 57.4512 125.841 57.4612 125.841C57.4612 126.001 57.4612 126.171 57.4612 126.331C57.4612 126.511 57.7812 126.871 57.9212 126.881C58.2712 126.891 58.6312 126.571 58.6912 126.211C58.7912 125.601 58.8212 124.981 58.7212 124.361C58.6812 124.101 58.5712 123.841 58.4512 123.611C58.3112 123.341 58.2412 123.331 57.9312 123.421C57.7512 123.471 57.5912 123.541 57.7012 123.781C57.7012 123.791 57.6812 123.811 57.6812 123.831C57.6312 124.071 57.5812 124.311 57.5512 124.561C57.5012 124.981 57.4812 125.401 57.4412 125.821V125.841ZM64.4512 124.291C64.4212 124.071 64.4012 123.821 64.3412 123.581C64.2712 123.291 63.8612 123.111 63.6612 123.291C63.4012 123.531 63.2112 123.831 63.2012 124.191C63.1812 124.701 63.1812 125.211 63.2012 125.711C63.2012 125.921 63.2612 126.141 63.3412 126.331C63.5112 126.741 63.8412 126.711 64.1412 126.501C64.4012 126.311 64.4412 126.031 64.4412 125.741C64.4412 125.271 64.4412 124.791 64.4412 124.291H64.4512Z" fill="#F7B910"/>
<path d="M55.5511 129.791C55.5711 130.211 55.5311 130.651 55.6211 131.051C55.8011 131.861 56.1011 132.631 56.7111 133.241C57.3311 133.861 58.0911 134.191 58.9311 134.391C59.8311 134.611 60.7311 134.661 61.6511 134.621C62.1811 134.601 62.7011 134.471 63.2111 134.321C63.7811 134.151 64.3311 133.941 64.8211 133.601C65.2211 133.331 65.5211 132.971 65.7811 132.561C66.1111 132.041 66.3111 131.471 66.4411 130.891C66.5411 130.431 66.4811 129.931 66.5011 129.451C66.5011 129.191 66.5011 128.931 66.5311 128.681C66.5711 128.391 66.8211 128.271 67.0511 128.251C67.3611 128.221 67.6411 128.351 67.7311 128.591C67.8111 128.811 67.8911 129.061 67.8811 129.291C67.8511 130.001 67.8511 130.731 67.7111 131.421C67.5411 132.231 67.2611 133.031 66.6911 133.681C66.1511 134.301 65.5311 134.821 64.8011 135.191C64.2611 135.461 63.6811 135.641 63.0711 135.761C62.6811 135.841 62.2911 135.891 61.9011 135.951C61.7011 135.981 61.4911 135.981 61.2911 135.991C60.4211 136.021 59.5511 136.011 58.7111 135.811C58.0011 135.641 57.3211 135.411 56.7011 134.981C56.3011 134.701 55.9011 134.441 55.6011 134.061C55.4011 133.801 55.2111 133.521 55.0311 133.241C54.7611 132.831 54.5311 132.391 54.4111 131.911C54.3311 131.591 54.2811 131.261 54.2611 130.931C54.2311 130.361 54.2011 129.781 54.2211 129.211C54.2411 128.691 54.6911 128.171 55.2711 128.401C55.5211 128.501 55.5911 128.711 55.6111 128.951C55.6211 129.221 55.6111 129.501 55.6111 129.771C55.5911 129.771 55.5711 129.771 55.5511 129.771V129.791Z" fill="#020203"/>
<path d="M57.4412 125.841C57.4812 125.421 57.5012 125.001 57.5512 124.581C57.5812 124.341 57.6412 124.091 57.6812 123.851C57.6812 123.831 57.7112 123.811 57.7012 123.801C57.5912 123.561 57.7612 123.491 57.9312 123.441C58.2412 123.351 58.3012 123.361 58.4512 123.631C58.5712 123.861 58.6812 124.121 58.7212 124.381C58.8212 124.991 58.7912 125.611 58.6912 126.231C58.6312 126.591 58.2712 126.911 57.9212 126.901C57.7712 126.901 57.4612 126.531 57.4612 126.351C57.4612 126.191 57.4612 126.021 57.4612 125.861C57.4612 125.861 57.4512 125.861 57.4412 125.861V125.841Z" fill="#020203"/>
<path d="M64.4511 124.281C64.4511 124.791 64.4511 125.261 64.4511 125.731C64.4511 126.021 64.4111 126.301 64.1511 126.491C63.8511 126.711 63.5211 126.731 63.3511 126.321C63.2711 126.131 63.2111 125.911 63.2111 125.701C63.1911 125.191 63.1811 124.681 63.2111 124.181C63.2311 123.821 63.4211 123.521 63.6711 123.281C63.8611 123.101 64.2811 123.281 64.3511 123.571C64.4111 123.811 64.4311 124.061 64.4611 124.281H64.4511Z" fill="#020203"/>
</g>
<defs>
<clipPath id="clip0_775_8512">
<rect width="90" height="60" fill="white" transform="translate(16 99)"/>
</clipPath>
</defs>
</svg>
