<svg width="122" height="225" viewBox="0 0 122 225" fill="none" xmlns="http://www.w3.org/2000/svg">
<g clip-path="url(#clip0_775_8387)">
<path d="M61 114.392V158.752H36.9603C35.8472 158.752 34.9528 157.889 34.9826 156.838L35.4895 138.055L22.769 135.169C21.5963 134.901 20.9503 133.721 21.3876 132.669L29.5466 113.013C29.5466 113.013 32.7565 106.954 39.3354 104.702C45.9143 102.441 50.118 101.896 50.118 101.896C50.118 101.896 52.3441 104.722 55.3056 107.38C56.1901 108.164 56.4187 109.324 57.4025 110.008L61.01 114.382L61 114.392Z" fill="white"/>
<path d="M61.2485 159H36.9603C36.3442 159 35.7479 158.752 35.3305 158.326C34.933 157.919 34.7243 157.384 34.7342 156.828L35.2311 138.243L22.7094 135.397C22.0634 135.248 21.5268 134.841 21.2287 134.276C20.9504 133.741 20.9206 133.116 21.1591 132.56L29.3181 112.924C29.3578 112.845 32.6572 106.736 39.256 104.474C45.7852 102.233 50.0386 101.668 50.0883 101.658L50.2274 101.638L50.3169 101.747C50.3169 101.747 52.5628 104.584 55.4746 107.202C55.9019 107.588 56.1901 108.045 56.4585 108.491C56.7665 108.997 57.0547 109.473 57.5516 109.81L57.6013 109.86L61.2585 114.303V159H61.2485ZM50.0088 102.174C49.2336 102.293 45.2386 102.947 39.415 104.95C33.0051 107.142 29.7951 113.083 29.7653 113.142L21.6162 132.759C21.4373 133.185 21.4572 133.641 21.6759 134.058C21.9044 134.494 22.3218 134.812 22.8287 134.931L35.7479 137.866V138.074L35.2411 156.858C35.2311 157.274 35.3901 157.681 35.6982 157.988C36.0262 158.326 36.4932 158.514 36.9802 158.514H60.7715V114.481L57.2436 110.207C56.687 109.81 56.3591 109.274 56.0411 108.759C55.7728 108.322 55.5243 107.916 55.1467 107.579C52.533 105.228 50.4659 102.729 50.0187 102.174H50.0088Z" fill="#D1D1D1"/>
<path d="M47.7529 102.461V108.788C47.7529 108.878 47.8324 108.957 47.9317 108.957H56.7566C56.8858 108.957 56.9752 108.838 56.9156 108.719L52.692 99.3471C52.6522 99.248 52.523 99.2182 52.4237 99.2777L47.8224 102.322C47.8224 102.322 47.7429 102.402 47.7429 102.461H47.7529Z" fill="white"/>
<path d="M56.7566 109.195H47.9317C47.6932 109.195 47.5044 109.007 47.5044 108.778V102.461C47.5044 102.322 47.574 102.193 47.6932 102.114L52.2845 99.0694C52.3938 98.9999 52.523 98.9801 52.6423 99.0098C52.7615 99.0495 52.8609 99.1289 52.9106 99.2379L57.1342 108.6C57.1938 108.729 57.1839 108.878 57.1044 108.987C57.0249 109.106 56.8957 109.175 56.7466 109.175L56.7566 109.195ZM48.0013 108.699H56.6373L52.5032 99.5256L48.0013 102.501V108.699Z" fill="#D1D1D1"/>
<path d="M60.2945 114.164L53.9243 111.367C53.8448 111.327 53.805 111.248 53.8249 111.168L55.0969 107.39L55.6137 105.853L57.9094 109.641L60.523 113.926C60.6125 114.064 60.4535 114.233 60.2945 114.164Z" fill="white"/>
<path d="M60.374 114.431C60.3144 114.431 60.2547 114.421 60.1951 114.392L53.8249 111.595C53.6262 111.506 53.5268 111.288 53.5964 111.089L55.5541 105.278L60.7417 113.807C60.8411 113.965 60.8212 114.154 60.7019 114.292C60.6224 114.392 60.5032 114.441 60.374 114.441V114.431ZM54.0932 111.168L60.1852 113.846L55.6833 106.448L54.0932 111.178V111.168Z" fill="#D1D1D1"/>
<path d="M60.9999 114.392V158.752H85.0397C86.1527 158.752 87.0471 157.889 87.0173 156.838L86.5105 138.055L99.231 135.169C100.404 134.901 101.05 133.721 100.612 132.669L92.4533 113.023C92.4533 113.023 89.2434 106.964 82.6645 104.712C76.0856 102.451 71.8819 101.906 71.8819 101.906C71.8819 101.906 69.6558 104.732 66.6943 107.39C65.8099 108.174 65.2832 108.957 64.2993 109.641L60.99 114.392H60.9999Z" fill="white"/>
<path d="M85.0397 159H60.7515V114.312L64.1701 109.443C64.7465 109.046 65.1639 108.6 65.6012 108.134C65.8894 107.826 66.1875 107.519 66.5353 107.202C69.4471 104.584 71.6732 101.777 71.6931 101.747L71.7825 101.638L71.9217 101.658C71.9217 101.658 76.2248 102.233 82.7539 104.474C89.3527 106.736 92.6521 112.835 92.6819 112.904L100.851 132.57C101.079 133.126 101.06 133.75 100.781 134.286C100.493 134.851 99.9465 135.268 99.3005 135.407L86.7788 138.253L87.2757 156.838C87.2856 157.393 87.0769 157.929 86.6794 158.336C86.262 158.762 85.6657 159.01 85.0496 159.01L85.0397 159ZM61.2484 158.504H85.0397C85.5266 158.504 85.9937 158.316 86.3217 157.979C86.6198 157.671 86.7887 157.265 86.7788 156.848L86.272 137.856L99.1912 134.921C99.698 134.802 100.115 134.494 100.344 134.048C100.553 133.641 100.573 133.175 100.404 132.749L92.2446 113.103C92.2446 113.103 89.0148 107.122 82.6049 104.931C76.7813 102.927 72.7862 102.273 72.0111 102.154C71.5639 102.709 69.4968 105.208 66.8831 107.559C66.5453 107.856 66.2571 108.164 65.9788 108.461C65.5316 108.937 65.1043 109.384 64.508 109.81L61.2682 114.461V158.494L61.2484 158.504Z" fill="#D1D1D1"/>
<path d="M74.2771 102.342V108.779C74.2771 108.868 74.1976 108.947 74.0983 108.947H65.2834C65.1542 108.947 65.0647 108.818 65.1243 108.709L69.5964 99.3471C69.6461 99.248 69.7753 99.2182 69.8647 99.2777L74.2076 102.203C74.2076 102.203 74.2871 102.283 74.2871 102.342H74.2771Z" fill="white"/>
<path d="M74.098 109.195H65.2831C65.134 109.195 64.9949 109.126 64.9154 108.997C64.8359 108.878 64.8359 108.729 64.8955 108.6L69.3775 99.2379C69.4272 99.1289 69.5266 99.0495 69.6458 99.0098C69.7651 98.9801 69.8943 98.9999 70.0036 99.0694L74.3465 101.995C74.4657 102.074 74.5353 102.203 74.5353 102.342V108.778C74.5353 109.007 74.3465 109.195 74.108 109.195H74.098ZM65.4024 108.699H74.0285V102.382L69.785 99.5256L65.3924 108.699H65.4024Z" fill="#D1D1D1"/>
<path d="M61.9243 114.164L68.2945 111.367C68.374 111.327 68.4138 111.248 68.3939 111.168L67.1218 107.39L66.6051 105.853L64.3094 109.641L61.6958 113.926C61.6063 114.064 61.7653 114.233 61.9243 114.164Z" fill="white"/>
<path d="M61.8547 114.431C61.7354 114.431 61.6162 114.382 61.5267 114.283C61.4075 114.144 61.3876 113.955 61.487 113.797L66.6745 105.268L68.6323 111.079C68.7019 111.278 68.6025 111.496 68.4037 111.585L62.0336 114.382C61.9739 114.412 61.9143 114.422 61.8547 114.422V114.431ZM66.5454 106.448L62.0435 113.846L68.1354 111.169L66.5454 106.438V106.448Z" fill="#D1D1D1"/>
<path d="M63.0869 120.451C63.6248 120.451 64.0609 120.038 64.0609 119.529C64.0609 119.02 63.6248 118.607 63.0869 118.607C62.5491 118.607 62.113 119.02 62.113 119.529C62.113 120.038 62.5491 120.451 63.0869 120.451Z" fill="#D1D1D1"/>
<path d="M63.0869 129.317C63.6248 129.317 64.0609 128.904 64.0609 128.395C64.0609 127.886 63.6248 127.473 63.0869 127.473C62.5491 127.473 62.113 127.886 62.113 128.395C62.113 128.904 62.5491 129.317 63.0869 129.317Z" fill="#D1D1D1"/>
<path d="M63.0869 138.173C63.6248 138.173 64.0609 137.761 64.0609 137.251C64.0609 136.742 63.6248 136.329 63.0869 136.329C62.5491 136.329 62.113 136.742 62.113 137.251C62.113 137.761 62.5491 138.173 63.0869 138.173Z" fill="#D1D1D1"/>
<path d="M63.0869 147.04C63.6248 147.04 64.0609 146.627 64.0609 146.117C64.0609 145.608 63.6248 145.195 63.0869 145.195C62.5491 145.195 62.113 145.608 62.113 146.117C62.113 146.627 62.5491 147.04 63.0869 147.04Z" fill="#D1D1D1"/>
</g>
<defs>
<clipPath id="clip0_775_8387">
<rect width="80" height="60" fill="white" transform="translate(21 99)"/>
</clipPath>
</defs>
</svg>
