<svg width="122" height="225" viewBox="0 0 122 225" fill="none" xmlns="http://www.w3.org/2000/svg">
<g clip-path="url(#clip0_775_8681)">
<path d="M85.4072 168.178L85.2081 173.713L85.1782 174.505L84.332 196.703C84.2723 198.683 83.3464 200.228 82.2315 200.247L64.3919 200.515C63.3068 200.535 62.4009 199.089 62.2715 197.198L60.9276 176.564L59.5836 197.198C59.4642 199.099 58.5483 200.535 57.4632 200.515L39.6236 200.247C38.5087 200.228 37.5928 198.683 37.5231 196.703L36.6769 174.505L36.6471 173.713L36.6172 167.386C41.4454 165.95 42.5504 160.911 42.7794 157.505H43.7749L60.9276 157.485L78.0802 157.505H79.0757C79.3146 160.901 80.5889 166.752 85.4072 168.168V168.178Z" fill="#465875"/>
<path d="M36.04 157.505L36.6274 168.178C41.4357 167.188 42.7398 159.871 42.9787 157.505H36.04Z" fill="#31425B"/>
<path d="M43.1976 158.099C43.1777 158.257 43.2772 158.386 43.4266 158.406H43.4564C43.5759 158.406 43.6954 158.307 43.7053 158.168C43.7352 157.901 43.7551 157.683 43.775 157.505H43.2673C43.2474 157.673 43.2275 157.871 43.2076 158.099H43.1976Z" fill="#31425B"/>
<path d="M42.2717 162.782C42.2319 162.921 42.3015 163.079 42.431 163.119C42.4608 163.129 42.4907 163.139 42.5106 163.139C42.6201 163.139 42.7197 163.059 42.7595 162.941C42.8789 162.545 42.9884 162.158 43.078 161.762C43.1179 161.624 43.0382 161.465 42.8889 161.436C42.7495 161.396 42.6102 161.475 42.5803 161.634C42.4907 162.01 42.3812 162.396 42.2617 162.772L42.2717 162.782ZM42.8491 160.475C42.8192 160.614 42.9088 160.762 43.0482 160.792C43.0681 160.792 43.088 160.802 43.098 160.802C43.2174 160.802 43.3269 160.713 43.3568 160.584C43.4364 160.158 43.5061 159.753 43.5658 159.376C43.5858 159.238 43.4962 159.089 43.3468 159.069C43.1975 159.04 43.078 159.149 43.0581 159.287C42.9984 159.663 42.9387 160.059 42.8491 160.475Z" fill="#31425B"/>
<path d="M38.3891 168.673C38.4289 168.772 38.5285 168.842 38.628 168.842C38.6579 168.842 38.6977 168.832 38.7276 168.812C39.076 168.644 39.4244 168.416 39.743 168.148C39.8525 168.059 39.8724 167.881 39.7828 167.762C39.7032 167.644 39.534 167.624 39.4244 167.723C39.1357 167.95 38.8271 168.158 38.5185 168.317C38.3991 168.386 38.3294 168.544 38.3991 168.683L38.3891 168.673ZM40.2308 167.317C40.2806 167.356 40.3403 167.386 40.4 167.386C40.4697 167.386 40.5394 167.356 40.5991 167.297C40.848 167 41.077 166.663 41.306 166.297C41.3856 166.178 41.3458 166 41.2363 165.921C41.1268 165.832 40.9575 165.861 40.8779 166C40.6688 166.337 40.4498 166.644 40.2109 166.921C40.1213 167.04 40.1313 167.208 40.2308 167.317ZM41.5349 165.356C41.5349 165.356 41.6146 165.376 41.6444 165.376C41.744 165.376 41.8336 165.337 41.8834 165.238C42.0426 164.891 42.2119 164.505 42.3512 164.119C42.411 163.98 42.3512 163.812 42.2218 163.752C42.0924 163.693 41.9331 163.762 41.8834 163.911C41.744 164.287 41.5847 164.644 41.4254 164.99C41.3657 165.119 41.4155 165.287 41.5349 165.366V165.356Z" fill="#31425B"/>
<path d="M36.657 168.762L36.6868 169.307C36.9955 169.307 37.314 169.277 37.5928 169.208C37.7321 169.178 37.8217 169.03 37.8018 168.891C37.772 168.733 37.6525 168.643 37.4932 168.673C37.2244 168.733 36.9457 168.762 36.657 168.762Z" fill="#31425B"/>
<path d="M62.4508 162.198C62.3114 162.198 62.2019 162.01 62.2019 161.772V160.079C62.2019 159.842 62.3114 159.654 62.4508 159.654C62.5902 159.654 62.6997 159.842 62.6997 160.079V161.772C62.6997 162.01 62.5902 162.198 62.4508 162.198Z" fill="#31425B"/>
<path d="M62.4508 170.772C62.3114 170.772 62.2019 170.584 62.2019 170.346V168.198C62.2019 167.96 62.3114 167.772 62.4508 167.772C62.5902 167.772 62.6997 167.96 62.6997 168.198V170.346C62.6997 170.584 62.5902 170.772 62.4508 170.772ZM62.4508 166.485C62.3114 166.485 62.2019 166.297 62.2019 166.059V163.911C62.2019 163.673 62.3114 163.485 62.4508 163.485C62.5902 163.485 62.6997 163.673 62.6997 163.911V166.059C62.6997 166.297 62.5902 166.485 62.4508 166.485Z" fill="#31425B"/>
<path d="M61.7438 175.802C61.6841 175.802 61.6144 175.762 61.5647 175.673C61.4651 175.505 61.4651 175.238 61.5647 175.079L62.2018 174.01V172.495C62.2018 172.257 62.3113 172.069 62.4507 172.069C62.59 172.069 62.6995 172.257 62.6995 172.495V174.188C62.6995 174.297 62.6697 174.406 62.6298 174.485L61.923 175.673C61.8733 175.753 61.8135 175.792 61.7438 175.792V175.802Z" fill="#31425B"/>
<path d="M85.9944 157.505L85.3872 168.614C80.3698 167.584 79.225 159.96 78.9761 157.505H85.9944Z" fill="#31425B"/>
<path d="M78.5382 158.129C78.5581 158.287 78.4486 158.426 78.2993 158.446H78.2694C78.14 158.446 78.0206 158.347 78.0106 158.198C77.9807 157.921 77.9608 157.693 77.9409 157.515H78.4685C78.4884 157.683 78.5084 157.891 78.5283 158.129H78.5382Z" fill="#31425B"/>
<path d="M79.1754 161.802C79.1455 161.644 79.0061 161.555 78.8568 161.594C78.7075 161.624 78.6179 161.792 78.6677 161.941C78.7672 162.357 78.8668 162.753 78.9962 163.168C79.036 163.297 79.1356 163.376 79.255 163.376C79.2749 163.376 79.3048 163.366 79.3446 163.357C79.484 163.307 79.5537 163.149 79.5138 163C79.3844 162.604 79.2749 162.198 79.1853 161.812L79.1754 161.802ZM78.6975 159.357C78.6776 159.208 78.5582 159.089 78.3989 159.129C78.2495 159.149 78.15 159.297 78.1799 159.446C78.2296 159.832 78.3093 160.258 78.3889 160.703C78.4188 160.842 78.5283 160.931 78.6577 160.931C78.6677 160.931 78.6876 160.921 78.7075 160.921C78.8469 160.891 78.9464 160.743 78.9066 160.594C78.817 160.158 78.7573 159.753 78.6975 159.357Z" fill="#31425B"/>
<path d="M83.4161 168.752C83.0876 168.594 82.769 168.376 82.4704 168.139C82.3509 168.04 82.1817 168.059 82.1021 168.188C82.0025 168.317 82.0324 168.495 82.1419 168.584C82.4704 168.861 82.8387 169.099 83.1971 169.267C83.227 169.287 83.2668 169.297 83.3066 169.297C83.4062 169.297 83.5057 169.228 83.5555 169.129C83.6152 168.99 83.5555 168.822 83.4261 168.752H83.4161ZM81.6441 167.297C81.3952 167.01 81.1663 166.693 80.9473 166.337C80.8577 166.198 80.6884 166.168 80.5789 166.257C80.4595 166.337 80.4196 166.525 80.5092 166.644C80.7482 167.02 80.9871 167.376 81.2459 167.683C81.2957 167.743 81.3753 167.772 81.445 167.772C81.5048 167.772 81.5744 167.752 81.6242 167.703C81.7337 167.584 81.7437 167.416 81.6441 167.287V167.297ZM80.3798 165.277C80.2106 164.921 80.0513 164.545 79.902 164.158C79.8522 164.01 79.6929 163.941 79.5535 164C79.4142 164.059 79.3544 164.228 79.4142 164.376C79.5635 164.772 79.7327 165.178 79.902 165.545C79.9518 165.644 80.0413 165.693 80.1509 165.693C80.1807 165.693 80.2205 165.693 80.2703 165.673C80.3997 165.594 80.4495 165.426 80.3898 165.287L80.3798 165.277Z" fill="#31425B"/>
<path d="M85.3574 169.228L85.3275 169.802C85.0089 169.802 84.6804 169.772 84.3818 169.703C84.2324 169.673 84.1428 169.525 84.1727 169.376C84.2026 169.218 84.332 169.109 84.4913 169.149C84.77 169.208 85.0687 169.238 85.3673 169.238L85.3574 169.228Z" fill="#31425B"/>
<path d="M64.8399 201C63.4761 201 62.391 199.416 62.2516 197.218L61.4054 184.238L60.5692 197.218C60.4298 199.416 59.3447 201 57.9809 201H57.951L40.1115 200.733C38.7078 200.703 37.6028 198.98 37.5331 196.713L36.6471 173.713L36.6172 168.04L36 157H87L86.3629 168.624L86.1538 174.515L85.2977 196.723C85.228 198.98 84.123 200.713 82.7193 200.733L64.8798 201H64.8499H64.8399ZM61.8932 176.525L63.2372 197.158C63.3467 198.931 64.153 200.01 64.8399 200.01H64.8499L82.6894 199.743C83.4162 199.733 84.2325 198.495 84.2922 196.683L85.3773 168.149L85.9348 157.98H37.0552L37.6028 168.01L37.6625 174.465L38.5186 196.673C38.5684 198.485 39.3947 199.723 40.1214 199.733L57.961 200C58.6479 199.97 59.4642 198.931 59.5737 197.149L60.9077 176.515H61.9032L61.8932 176.525Z" fill="#31425B"/>
</g>
<defs>
<clipPath id="clip0_775_8681">
<rect width="51" height="44" fill="white" transform="translate(36 157)"/>
</clipPath>
</defs>
</svg>
