<svg width="122" height="225" viewBox="0 0 122 225" fill="none" xmlns="http://www.w3.org/2000/svg">
<g clip-path="url(#clip0_775_8647)">
<path d="M85.4072 168.178L85.2081 173.713L85.1782 174.505L84.332 196.703C84.2723 198.683 83.3464 200.228 82.2315 200.247L64.3919 200.515C63.3068 200.535 62.4009 199.089 62.2715 197.198L60.9276 176.564L59.5836 197.198C59.4642 199.099 58.5483 200.535 57.4632 200.515L39.6236 200.247C38.5087 200.228 37.5928 198.683 37.5231 196.703L36.6769 174.505L36.6471 173.713L36.6172 167.386C41.4454 165.96 42.5504 160.911 42.7794 157.505H43.7749L60.9276 157.485L78.0802 157.505H79.0757C79.3146 160.901 80.5889 166.752 85.4072 168.168V168.178Z" fill="#1C1C1C"/>
<path d="M36.04 157.505L36.6274 168.178C41.4357 167.188 42.7398 159.871 42.9787 157.505H36.04Z" fill="#303030"/>
<path d="M85.9944 157.505L85.3872 168.614C80.3698 167.584 79.225 159.96 78.9761 157.505H85.9944Z" fill="#303030"/>
<path d="M64.8399 201C63.4761 201 62.391 199.416 62.2516 197.218L61.4054 184.238L60.5692 197.218C60.4298 199.416 59.3447 201 57.9809 201H57.951L40.1115 200.733C38.7078 200.703 37.6028 198.98 37.5331 196.713L36.6471 173.713L36.6172 168.04L36 157H87L86.3629 168.624L86.1538 174.515L85.2977 196.723C85.228 198.98 84.123 200.713 82.7193 200.733L64.8798 201H64.8499H64.8399ZM61.8932 176.525L63.2372 197.158C63.3467 198.931 64.153 200.01 64.8399 200.01H64.8499L82.6894 199.743C83.4162 199.733 84.2325 198.495 84.2922 196.683L85.3773 168.149L85.9348 157.98H37.0552L37.6028 168.01L37.6625 174.465L38.5186 196.673C38.5684 198.485 39.3947 199.723 40.1214 199.733L57.961 200C58.6479 200.03 59.4642 198.931 59.5737 197.149L60.9077 176.515H61.9032L61.8932 176.525Z" fill="#303030"/>
<path d="M61.9032 167.782H60.9077V176.555H61.9032V167.782Z" fill="#303030"/>
<path d="M61.6444 172.317C61.515 172.317 61.4254 172.307 61.3955 172.297L61.5647 171.327L61.4751 171.812L61.5548 171.327C61.5548 171.327 62.172 171.406 62.8589 170.782C63.9241 169.822 65.1287 167.307 64.8599 160.762L65.8554 160.723C66.0844 166.337 65.288 169.98 63.4761 171.564C62.7195 172.218 62.0028 172.327 61.6344 172.327L61.6444 172.317Z" fill="#303030"/>
</g>
<defs>
<clipPath id="clip0_775_8647">
<rect width="51" height="44" fill="white" transform="translate(36 157)"/>
</clipPath>
</defs>
</svg>
