<svg width="122" height="225" viewBox="0 0 122 225" fill="none" xmlns="http://www.w3.org/2000/svg">
<g clip-path="url(#clip0_775_8778)">
<path d="M85.9948 157.505L85.4074 168.168L85.3875 168.614L84.8499 173.693L84.7703 174.505L82.3412 196.693C82.2715 198.673 81.3557 200.218 80.2407 200.238L66.3832 200.505C65.2981 200.515 64.3822 199.079 64.2628 197.188L60.9378 176.545L57.6028 197.188C57.4833 199.079 56.5675 200.515 55.4824 200.505L41.6249 200.238C40.5099 200.218 39.594 198.673 39.5343 196.693L36.8464 174.574L36.7668 173.693L36.6274 168.188L36.04 157.505H43.7752L60.9378 157.485L78.0904 157.505H85.9948Z" fill="#C4C4C4"/>
<path d="M55.9799 201H55.95L42.0925 200.733C40.6889 200.703 39.5838 198.98 39.5142 196.723L36.7466 173.733L36.6073 168.069L36 157H87L86.3629 168.624L85.7457 174.554L83.3067 196.762C83.237 198.98 82.132 200.703 80.7283 200.733L66.8708 201H66.8409C65.4771 201 64.382 199.416 64.2426 197.218L61.4054 179.238L58.5682 197.277C58.4388 199.416 57.3537 201 55.9799 201ZM61.4054 173.871L65.2282 197.099C65.3476 198.941 66.2038 200.05 66.8509 200.01L80.7084 199.743C81.4351 199.733 82.2514 198.495 82.3111 196.693L84.8397 173.653L85.3873 168.168L85.9448 158H37.0552L37.6028 168.03L37.7421 173.683L37.8218 174.535L40.4997 196.644C40.5594 198.505 41.3758 199.743 42.1025 199.752L55.96 200.02H55.9699C56.6568 200.02 57.4632 198.931 57.5727 197.168L61.3955 173.881L61.4054 173.871Z" fill="#9E9E9E"/>
<path d="M61.9032 167.782H60.9077V176.555H61.9032V167.782Z" fill="#9E9E9E"/>
<path d="M61.1367 162.703C61.1367 162.703 61.1567 162.723 61.1667 162.733V162.663C61.1667 162.663 61.1467 162.693 61.1367 162.703Z" fill="white"/>
<path d="M66.7016 162.723C66.5324 161.871 66.0545 160.96 65.3875 160.148C64.1929 158.723 62.6698 157.98 61.5648 158.188C60.5195 157.762 58.8769 158.218 57.4433 159.416C55.6415 160.891 54.9247 162.881 55.8107 163.95C56.1193 164.307 56.5474 164.505 57.075 164.554C57.3637 164.584 57.6823 164.554 58.0108 164.495C58.7276 164.346 59.4841 164.01 60.181 163.495C60.0715 165.614 59.733 168.178 58.7972 169.426L59.5538 170C60.7783 168.396 61.1068 165.069 61.1765 162.713C61.1765 162.703 61.1765 162.693 61.1466 162.683C61.1566 162.683 61.1666 162.663 61.1765 162.643V162.713C61.2362 162.812 61.3159 162.921 61.3955 163.01C61.3955 164.643 61.6145 166.693 62.4806 168.267L63.3169 167.812C62.7196 166.733 62.4707 165.366 62.391 164.089C63.1874 164.782 64.0535 165.188 64.7902 165.257C65.3178 165.307 65.7758 165.188 66.1441 164.891C66.6916 164.436 66.8907 163.663 66.7016 162.703V162.723ZM59.9819 162.455C59.285 163.03 58.5085 163.426 57.8117 163.564C57.2243 163.683 56.7564 163.604 56.5474 163.346C56.0895 162.802 56.5972 161.356 58.0506 160.148C58.9067 159.445 59.7728 159.069 60.4498 159C60.2706 159.317 60.181 159.703 60.2109 160.148V160.178C60.2109 160.178 60.2109 160.218 60.2109 160.238C60.2109 160.485 60.2407 161.247 60.2308 162.247C60.1511 162.327 60.0715 162.396 59.9919 162.465L59.9819 162.455ZM61.5847 160.218C61.5548 160.327 61.515 160.436 61.4752 160.544C61.4254 160.663 61.3657 160.782 61.3059 160.901C61.2462 160.772 61.2263 160.643 61.1964 160.515C61.077 159.931 61.1566 159.465 61.4154 159.257C61.4254 159.257 61.4353 159.238 61.4453 159.238C61.4553 159.238 61.4652 159.247 61.4752 159.257C61.6444 159.455 61.6743 159.772 61.5946 160.158C61.5946 160.158 61.5946 160.188 61.5847 160.218ZM65.5368 164.168C64.9893 164.624 63.5458 164.129 62.3512 162.713C62.3612 161.653 62.4707 160.792 62.5105 160.465C62.5304 160.376 62.5304 160.337 62.5304 160.327C62.63 159.911 62.61 159.535 62.5005 159.198C63.1476 159.396 63.9341 159.921 64.6309 160.762C65.2083 161.455 65.6065 162.218 65.7459 162.921C65.8654 163.505 65.7857 163.97 65.5269 164.178L65.5368 164.168Z" fill="white"/>
<path d="M61.1765 162.663V162.733C61.1765 162.733 61.1665 162.713 61.1465 162.703C61.1565 162.703 61.1665 162.683 61.1765 162.663Z" fill="white"/>
<path d="M46.1043 200.812C45.9948 200.812 45.8953 200.782 45.7957 200.713C44.3522 199.604 43.1875 195.485 43.0581 195.02C42.9884 194.753 43.1377 194.485 43.4065 194.416C43.6753 194.347 43.9441 194.495 44.0237 194.762C44.3522 195.941 45.4174 199.168 46.4129 199.941C46.632 200.109 46.6718 200.416 46.5025 200.634C46.403 200.762 46.2537 200.822 46.1043 200.822V200.812Z" fill="#9E9E9E"/>
<path d="M50.4947 200.802C50.3454 200.802 50.1961 200.733 50.0965 200.604C49.9273 200.386 49.9771 200.079 50.1961 199.911C52.5156 198.178 52.6948 193.346 52.7048 193.297C52.7048 193.02 52.9039 192.792 53.2224 192.822C53.5012 192.822 53.7102 193.059 53.7003 193.337C53.7003 193.554 53.5012 198.703 50.7934 200.713C50.7038 200.782 50.5943 200.812 50.4947 200.812V200.802Z" fill="#9E9E9E"/>
<path d="M48.4438 200.812C48.3841 200.812 48.3144 200.802 48.2547 200.772C47.9959 200.673 47.8764 200.376 47.9859 200.129C48.6728 198.455 48.404 195.485 48.404 195.455C48.3742 195.188 48.5832 194.941 48.852 194.921C49.1307 194.901 49.3697 195.099 49.3896 195.366C49.3995 195.495 49.6783 198.604 48.9018 200.505C48.8221 200.693 48.633 200.812 48.4438 200.812Z" fill="#9E9E9E"/>
<path d="M71.9877 200.812C71.908 200.812 71.8184 200.792 71.7388 200.743C69.7378 199.614 68.5631 194.218 68.4436 193.604C68.3839 193.337 68.5631 193.079 68.8319 193.02C69.0907 192.97 69.3695 193.139 69.4192 193.406C69.7378 194.951 70.8727 199.109 72.2365 199.881C72.4755 200.02 72.5551 200.317 72.4257 200.555C72.3361 200.713 72.1668 200.802 71.9976 200.802L71.9877 200.812Z" fill="#9E9E9E"/>
<path d="M76.7064 200.812C76.6267 200.812 76.5371 200.792 76.4575 200.743C76.2186 200.604 76.1389 200.307 76.2783 200.069C77.5924 197.792 77.1444 193.98 77.1344 193.941C77.1046 193.673 77.2937 193.426 77.5725 193.386C77.8412 193.356 78.0901 193.545 78.1299 193.822C78.1499 193.99 78.6277 198 77.1444 200.564C77.0548 200.723 76.8856 200.812 76.7163 200.812H76.7064Z" fill="#9E9E9E"/>
<path d="M74.5064 200.703C74.3272 200.703 74.158 200.614 74.0684 200.445C73.272 199 73.1426 195.475 73.1426 195.327C73.1426 195.049 73.3516 194.822 73.6204 194.812C73.8992 194.772 74.1281 195.02 74.1381 195.287C74.168 196.238 74.377 198.941 74.9444 199.97C75.0739 200.208 74.9843 200.515 74.7453 200.643C74.6657 200.683 74.5861 200.703 74.5064 200.703Z" fill="#9E9E9E"/>
</g>
<defs>
<clipPath id="clip0_775_8778">
<rect width="51" height="44" fill="white" transform="translate(36 157)"/>
</clipPath>
</defs>
</svg>
