<svg width="122" height="225" viewBox="0 0 122 225" fill="none" xmlns="http://www.w3.org/2000/svg">
<g clip-path="url(#clip0_775_8827)">
<path d="M85.4072 168.178L85.2081 173.713L85.1782 174.505L84.332 196.703C84.2723 198.683 83.3464 200.228 82.2315 200.247L64.3919 200.515C63.3068 200.535 62.4009 199.089 62.2715 197.198L60.9276 176.564L59.5836 197.198C59.4642 199.099 58.5483 200.535 57.4632 200.515L39.6236 200.247C38.5087 200.228 37.5928 198.683 37.5231 196.703L36.6769 174.505L36.6471 173.713L36.6172 167.386C41.4454 165.95 42.5504 160.911 42.7794 157.505H43.7749L60.9276 157.485L78.0802 157.505H79.0757C79.3146 160.901 80.5889 166.752 85.4072 168.168V168.178Z" fill="#CCCCCC"/>
<path d="M36.04 157.505L36.6274 168.178C41.4357 167.188 42.7398 159.871 42.9787 157.505H36.04Z" fill="#939393"/>
<path d="M85.9944 157.505L85.3872 168.614C80.3698 167.584 79.225 159.96 78.9761 157.505H85.9944Z" fill="#939393"/>
<path d="M64.8399 201C63.4761 201 62.381 199.416 62.2516 197.218L61.4054 184.238L60.5692 197.218C60.4298 199.436 59.3348 201.02 57.9411 201L40.1015 200.733C38.6978 200.703 37.5928 198.98 37.5231 196.723L36.6371 173.723L36.6073 168.05L36 157H87L86.3629 168.624L86.1538 174.515L85.2977 196.723C85.228 198.98 84.123 200.703 82.7193 200.733L64.8798 201H64.8499H64.8399ZM61.8932 176.525L63.2372 197.158C63.3467 198.931 64.153 200.01 64.8399 200.01H64.8499L82.6894 199.743C83.4162 199.733 84.2325 198.495 84.2922 196.693L85.3773 168.158L85.9348 157.99H37.0552L37.6028 168.02L37.6625 174.475L38.5186 196.683C38.5784 198.495 39.3947 199.733 40.1214 199.743L57.961 200.01H57.9709C58.6578 200.01 59.4642 198.931 59.5737 197.158L60.9077 176.525H61.9032H61.8932Z" fill="#ADADAD"/>
<path d="M82.57 187.149H73.8792C73.5109 187.149 73.2222 186.852 73.2222 186.495V178.792C73.2222 178.426 73.5208 178.139 73.8792 178.139H82.7492C83.1175 178.139 83.4162 178.446 83.4062 178.812L83.227 186.515C83.227 186.871 82.9284 187.158 82.57 187.158V187.149Z" fill="#B7B7B7"/>
<path d="M83.4959 180.584H72.9534C72.5851 180.584 72.2964 180.287 72.2964 179.931V177.188C72.2964 176.822 72.595 176.535 72.9534 176.535H83.6651C84.0434 176.535 84.3421 176.852 84.3222 177.228L84.1529 179.97C84.133 180.317 83.8443 180.584 83.4959 180.584Z" fill="#9E9E9E"/>
<path d="M78.3093 185.634C78.0305 185.634 77.8115 185.416 77.8115 185.139V182.238C77.8115 181.96 78.0305 181.743 78.3093 181.743C78.588 181.743 78.807 181.96 78.807 182.238V185.139C78.807 185.416 78.588 185.634 78.3093 185.634Z" fill="#9E9E9E"/>
<path d="M49.7778 187.149H41.087C40.7186 187.149 40.4299 186.852 40.4299 186.495V178.792C40.4299 178.426 40.7286 178.139 41.087 178.139H49.957C50.3253 178.139 50.624 178.446 50.614 178.812L50.4348 186.515C50.4348 186.871 50.1362 187.158 49.7778 187.158V187.149Z" fill="#B7B7B7"/>
<path d="M50.7137 180.584H40.1712C39.8029 180.584 39.5142 180.287 39.5142 179.931V177.188C39.5142 176.822 39.8128 176.535 40.1712 176.535H50.8829C51.2612 176.535 51.5598 176.852 51.5399 177.228L51.3707 179.97C51.3508 180.317 51.0621 180.584 50.7137 180.584Z" fill="#9E9E9E"/>
<path d="M45.5271 185.634C45.2483 185.634 45.0293 185.416 45.0293 185.139V182.238C45.0293 181.96 45.2483 181.743 45.5271 181.743C45.8058 181.743 46.0248 181.96 46.0248 182.238V185.139C46.0248 185.416 45.8058 185.634 45.5271 185.634Z" fill="#9E9E9E"/>
<path d="M45.7559 200.792C45.6464 200.792 45.5469 200.762 45.4473 200.693C44.0038 199.584 42.8391 195.465 42.7097 195C42.64 194.733 42.7893 194.465 43.0581 194.396C43.3269 194.327 43.5957 194.475 43.6753 194.743C44.0038 195.921 45.069 199.149 46.0646 199.921C46.2836 200.089 46.3234 200.396 46.1541 200.614C46.0546 200.743 45.9053 200.802 45.7559 200.802V200.792Z" fill="#ADADAD"/>
<path d="M50.1461 200.782C49.9968 200.782 49.8474 200.713 49.7479 200.584C49.5787 200.366 49.6284 200.059 49.8474 199.891C52.167 198.158 52.3462 193.327 52.3561 193.277C52.3561 193 52.5552 192.772 52.8738 192.802C53.1525 192.802 53.3616 193.04 53.3516 193.317C53.3516 193.535 53.1525 198.683 50.4447 200.693C50.3551 200.762 50.2456 200.792 50.1461 200.792V200.782Z" fill="#ADADAD"/>
<path d="M48.0854 200.792C48.0257 200.792 47.956 200.782 47.8963 200.753C47.6375 200.653 47.518 200.356 47.6275 200.109C48.3144 198.436 48.0456 195.465 48.0456 195.436C48.0158 195.168 48.2248 194.921 48.4936 194.901C48.7724 194.881 49.0113 195.079 49.0312 195.347C49.0411 195.475 49.3199 198.584 48.5434 200.485C48.4637 200.673 48.2746 200.792 48.0854 200.792Z" fill="#ADADAD"/>
<path d="M71.6393 200.693C71.5596 200.693 71.47 200.673 71.3904 200.624C69.3894 199.495 68.2147 194.099 68.0952 193.485C68.0355 193.218 68.2147 192.96 68.4835 192.901C68.7423 192.851 69.0211 193.02 69.0708 193.287C69.3894 194.832 70.5243 198.99 71.8881 199.762C72.1271 199.901 72.2067 200.198 72.0773 200.436C71.9877 200.594 71.8185 200.683 71.6492 200.683L71.6393 200.693Z" fill="#ADADAD"/>
<path d="M76.358 200.693C76.2783 200.693 76.1887 200.673 76.1091 200.624C75.8702 200.485 75.7905 200.188 75.9299 199.95C77.244 197.673 76.796 193.861 76.786 193.822C76.7562 193.554 76.9453 193.307 77.2241 193.267C77.4929 193.238 77.7417 193.426 77.7816 193.703C77.8015 193.871 78.2793 197.881 76.796 200.445C76.7064 200.604 76.5372 200.693 76.3679 200.693H76.358Z" fill="#ADADAD"/>
<path d="M74.1578 200.574C73.9786 200.574 73.8094 200.485 73.7198 200.317C72.9234 198.871 72.7939 195.347 72.7939 195.198C72.7939 194.921 73.003 194.693 73.2718 194.683C73.5505 194.644 73.7795 194.891 73.7895 195.158C73.8193 196.109 74.0284 198.812 74.5958 199.842C74.7252 200.079 74.6356 200.386 74.3967 200.515C74.3171 200.554 74.2374 200.574 74.1578 200.574Z" fill="#ADADAD"/>
</g>
<defs>
<clipPath id="clip0_775_8827">
<rect width="51" height="44" fill="white" transform="translate(36 157)"/>
</clipPath>
</defs>
</svg>
