<svg width="122" height="225" viewBox="0 0 122 225" fill="none" xmlns="http://www.w3.org/2000/svg">
<g clip-path="url(#clip0_775_8101)">
<path d="M85.48 162.48L84.91 172.13L84.87 172.66L84.84 173.15L84.01 187.12C83.95 188.36 83.04 189.33 81.95 189.34L64.39 189.51C63.32 189.51 62.43 188.61 62.31 187.42L60.99 174.44L59.68 187.42C59.55 188.61 58.66 189.52 57.59 189.51L40.04 189.34C38.94 189.34 38.03 188.35 37.97 187.12L37.14 173.15L37.11 172.66L37.08 172.13L36.52 162.48H61H77.88H85.48Z" fill="#F7CA66"/>
<path d="M57.62 190H57.6L40.05 189.83C38.69 189.82 37.57 188.64 37.5 187.15L36 162H86L84.5 187.15C84.43 188.64 83.31 189.81 81.96 189.83L64.4 190H64.38C63.07 190 61.98 188.92 61.83 187.48L61 179.3L60.17 187.48C60.02 188.92 58.92 190 57.61 190H57.62ZM61.49 174.4L62.81 187.38C62.91 188.33 63.55 189.04 64.4 189.03L81.96 188.86C82.79 188.86 83.49 188.08 83.53 187.1L84.97 162.97H37.04L38.48 187.1C38.53 188.09 39.22 188.86 40.06 188.87L57.61 189.04H57.62C58.42 189.04 59.1 188.33 59.2 187.39L60.51 174.41H61.48L61.49 174.4Z" fill="#C49A4E"/>
<path d="M79.27 184.56C79.21 184.56 79.14 184.54 79.1 184.49L78.41 183.81C78.31 183.72 78.31 183.56 78.41 183.47C78.51 183.38 78.66 183.38 78.76 183.47L79.45 184.15C79.55 184.24 79.55 184.4 79.45 184.49C79.4 184.54 79.34 184.56 79.28 184.56H79.27Z" fill="#E5B14A"/>
<path d="M80.55 185.84C80.49 185.84 80.42 185.81 80.38 185.77L80.08 185.47C80.08 185.47 80.01 185.36 80.01 185.31C80.01 185.24 80.04 185.18 80.08 185.14C80.18 185.04 80.33 185.04 80.43 185.14L80.72 185.43C80.72 185.43 80.79 185.54 80.79 185.6C80.79 185.66 80.77 185.73 80.72 185.77C80.67 185.81 80.61 185.84 80.54 185.84H80.55ZM79.27 184.56C79.2 184.56 79.14 184.54 79.09 184.49C79 184.4 79 184.25 79.09 184.15C79.19 184.06 79.34 184.06 79.44 184.15C79.53 184.25 79.53 184.4 79.44 184.49C79.39 184.54 79.33 184.56 79.26 184.56H79.27Z" fill="#E5B14A"/>
<path d="M81.9399 187.2C81.8799 187.2 81.8099 187.18 81.7699 187.13L81.0799 186.45C80.9799 186.36 80.9799 186.2 81.0799 186.11C81.1799 186.02 81.3299 186.02 81.4299 186.11L82.1199 186.79C82.2199 186.88 82.2199 187.04 82.1199 187.13C82.0699 187.18 82.0099 187.2 81.9499 187.2H81.9399Z" fill="#E5B14A"/>
<path d="M78.58 187.2C78.52 187.2 78.45 187.18 78.41 187.13C78.31 187.04 78.31 186.88 78.41 186.79L79.45 185.76C79.55 185.67 79.7 185.67 79.8 185.76C79.9 185.85 79.9 186.01 79.8 186.1L78.76 187.13C78.76 187.13 78.65 187.2 78.59 187.2H78.58Z" fill="#E5B14A"/>
<path d="M79.6099 186.17C79.5499 186.17 79.4799 186.14 79.4399 186.1C79.3899 186.05 79.3599 185.99 79.3599 185.93C79.3599 185.87 79.3899 185.8 79.4399 185.77C79.5299 185.67 79.6999 185.67 79.7799 185.77C79.8299 185.81 79.8499 185.88 79.8499 185.93C79.8499 186 79.8299 186.06 79.7799 186.1C79.7299 186.14 79.6699 186.17 79.5999 186.17H79.6099Z" fill="#E5B14A"/>
<path d="M80.8998 184.91C80.8398 184.91 80.7698 184.89 80.7298 184.84C80.6298 184.75 80.6298 184.59 80.7298 184.5L81.7698 183.47C81.8698 183.38 82.0198 183.38 82.1198 183.47C82.2198 183.56 82.2198 183.72 82.1198 183.81L81.0798 184.84C81.0798 184.84 80.9698 184.91 80.9098 184.91H80.8998Z" fill="#E5B14A"/>
<path d="M49.89 183.31L46.81 182.6C45.78 182.36 45.14 181.35 45.38 180.33L46.97 173.6C47.21 172.58 48.24 171.95 49.28 172.19L52.36 172.9C53.39 173.14 54.03 174.15 53.79 175.17L52.2 181.9C51.96 182.92 50.93 183.55 49.89 183.31Z" fill="#C49A4E"/>
<path d="M49.91 183.55C49.91 183.55 49.88 183.55 49.86 183.55H49.83L48.08 183.15C47.95 183.12 47.87 182.99 47.9 182.86C47.93 182.73 48.06 182.65 48.19 182.68L49.94 183.08C50.07 183.11 50.16 183.24 50.13 183.37C50.1 183.48 50.01 183.56 49.9 183.56L49.91 183.55ZM51.59 183.13C51.52 183.13 51.45 183.1 51.41 183.05C51.32 182.95 51.33 182.8 51.43 182.71C51.7 182.48 51.88 182.18 51.96 181.84L52.1 181.26C52.13 181.13 52.26 181.05 52.39 181.08C52.52 181.11 52.6 181.24 52.57 181.37L52.43 181.95C52.33 182.39 52.09 182.78 51.75 183.07C51.7 183.11 51.65 183.13 51.59 183.13ZM46.4 182.7C46.4 182.7 46.33 182.7 46.29 182.68C45.67 182.38 45.23 181.81 45.11 181.14C45.09 181.01 45.17 180.88 45.31 180.86C45.44 180.84 45.57 180.92 45.59 181.05C45.68 181.57 46.03 182.01 46.5 182.24C46.62 182.3 46.67 182.44 46.61 182.56C46.57 182.65 46.48 182.7 46.39 182.7H46.4ZM52.74 179.83C52.74 179.83 52.7 179.83 52.68 179.83C52.55 179.8 52.47 179.67 52.5 179.54L52.91 177.81C52.94 177.68 53.07 177.6 53.2 177.63C53.33 177.66 53.41 177.79 53.38 177.92L52.97 179.65C52.94 179.76 52.84 179.84 52.73 179.84L52.74 179.83ZM45.61 179.59C45.61 179.59 45.57 179.59 45.55 179.59C45.42 179.56 45.34 179.43 45.37 179.3L45.78 177.57C45.81 177.44 45.93 177.36 46.07 177.39C46.2 177.42 46.28 177.55 46.25 177.68L45.84 179.41C45.81 179.52 45.71 179.6 45.6 179.6L45.61 179.59ZM53.56 176.37C53.56 176.37 53.52 176.37 53.5 176.37C53.37 176.34 53.29 176.21 53.32 176.08L53.55 175.11C53.58 174.99 53.59 174.86 53.59 174.73C53.59 174.63 53.58 174.53 53.56 174.43C53.54 174.3 53.62 174.17 53.76 174.15C53.89 174.13 54.02 174.21 54.04 174.34C54.06 174.47 54.08 174.6 54.08 174.73C54.08 174.89 54.06 175.05 54.02 175.21L53.79 176.18C53.76 176.29 53.66 176.37 53.55 176.37H53.56ZM46.43 176.13C46.43 176.13 46.39 176.13 46.37 176.13C46.24 176.1 46.16 175.97 46.19 175.84L46.6 174.11C46.63 173.98 46.76 173.9 46.89 173.93C47.02 173.96 47.1 174.09 47.07 174.22L46.66 175.95C46.63 176.06 46.53 176.14 46.42 176.14L46.43 176.13ZM52.75 173.27C52.75 173.27 52.68 173.27 52.64 173.25C52.53 173.2 52.41 173.16 52.29 173.13L50.95 172.82C50.82 172.79 50.74 172.66 50.77 172.53C50.8 172.4 50.93 172.32 51.06 172.35L52.4 172.66C52.56 172.7 52.71 172.75 52.85 172.82C52.97 172.88 53.02 173.02 52.96 173.14C52.92 173.23 52.83 173.28 52.74 173.28L52.75 173.27ZM47.58 172.83C47.51 172.83 47.44 172.8 47.39 172.75C47.3 172.65 47.31 172.5 47.42 172.41C47.94 171.97 48.65 171.79 49.32 171.94C49.45 171.97 49.53 172.1 49.5 172.23C49.47 172.36 49.34 172.44 49.21 172.41C48.69 172.29 48.14 172.43 47.74 172.77C47.69 172.81 47.64 172.83 47.58 172.83Z" fill="#E5B14A"/>
<path d="M60.9199 167.03C60.9199 167.03 60.9399 167.05 60.9499 167.06V167C60.9499 167 60.9299 167.03 60.9199 167.03Z" fill="white"/>
<path d="M66.3998 167.05C66.2298 166.22 65.7698 165.33 65.0998 164.54C63.9298 163.15 62.4198 162.42 61.3398 162.63C60.3098 162.22 58.6998 162.66 57.2798 163.83C55.5098 165.27 54.8098 167.21 55.6698 168.25C55.9698 168.59 56.3898 168.79 56.9098 168.84C57.1898 168.87 57.5098 168.84 57.8298 168.78C58.5298 168.64 59.2698 168.31 59.9598 167.81C59.8498 169.88 59.5198 172.38 58.5898 173.59L59.3298 174.15C60.5398 172.58 60.8598 169.34 60.9198 167.05C60.9198 167.04 60.9198 167.03 60.8898 167.02C60.8998 167.02 60.9098 167 60.9198 166.99V167.05C60.9798 167.15 61.0598 167.25 61.1298 167.34C61.1298 168.93 61.3398 170.93 62.1998 172.47L63.0298 172.02C62.4398 170.97 62.1898 169.63 62.1198 168.39C62.9098 169.07 63.7498 169.46 64.4798 169.53C64.9998 169.58 65.4498 169.46 65.8098 169.18C66.3498 168.74 66.5498 167.98 66.3598 167.05H66.3998ZM59.7898 166.79C59.0998 167.35 58.3398 167.74 57.6498 167.87C57.0698 167.99 56.6198 167.91 56.3998 167.65C55.9498 167.11 56.4498 165.7 57.8798 164.53C58.7198 163.84 59.5798 163.48 60.2398 163.41C60.0598 163.72 59.9798 164.1 59.9998 164.53V164.56C59.9998 164.56 59.9998 164.6 59.9998 164.62C59.9998 164.86 60.0298 165.6 60.0198 166.58C59.9498 166.66 59.8598 166.72 59.7798 166.79H59.7898ZM61.3698 164.61C61.3398 164.72 61.2998 164.82 61.2598 164.93C61.2098 165.05 61.1498 165.16 61.0898 165.28C61.0398 165.15 61.0098 165.03 60.9798 164.91C60.8598 164.34 60.9398 163.89 61.1998 163.68C61.2098 163.68 61.2198 163.66 61.2298 163.66C61.2398 163.66 61.2498 163.67 61.2598 163.68C61.4198 163.87 61.4598 164.18 61.3798 164.56C61.3798 164.56 61.3798 164.59 61.3698 164.61ZM65.2598 168.46C64.7198 168.9 63.3098 168.42 62.1298 167.04C62.1398 166.01 62.2498 165.17 62.2898 164.84C62.3098 164.76 62.3098 164.71 62.3098 164.7C62.3998 164.3 62.3898 163.92 62.2798 163.6C62.9098 163.8 63.6898 164.31 64.3798 165.13C64.9498 165.81 65.3398 166.55 65.4798 167.24C65.5998 167.81 65.5198 168.26 65.2598 168.47V168.46Z" fill="white"/>
<path d="M60.9602 167V167.06C60.9602 167.06 60.9502 167.04 60.9302 167.03C60.9402 167.03 60.9502 167.01 60.9602 167Z" fill="white"/>
</g>
<defs>
<clipPath id="clip0_775_8101">
<rect width="50" height="28" fill="white" transform="translate(36 162)"/>
</clipPath>
</defs>
</svg>
