<svg width="122" height="225" viewBox="0 0 122 225" fill="none" xmlns="http://www.w3.org/2000/svg">
<g clip-path="url(#clip0_775_7743)">
<path d="M85.8899 171.69L85.8599 172.22L85.8299 172.72L84.9799 186.68C84.9199 187.92 83.9899 188.9 82.8799 188.91L64.9799 189.08C63.8899 189.08 62.9799 188.19 62.8599 186.99L61.5199 174.01L60.1799 186.99C60.0599 188.18 59.1399 189.09 58.0599 189.08L40.1599 188.91C39.0399 188.91 38.1199 187.93 38.0599 186.68L37.2099 172.72L37.1799 172.22L37.1499 171.69C41.9499 170.8 43.0599 164.17 43.2899 162.03H61.4999H78.7099H79.7099C79.9499 164.17 81.0499 170.79 85.8899 171.69Z" fill="#0D658A"/>
<path d="M86.47 162.03L85.89 171.69C81.06 170.8 79.95 164.17 79.71 162.03H86.47Z" fill="#034E6F"/>
<path d="M79.29 162.57C79.31 162.71 79.21 162.83 79.06 162.85H79.03C78.91 162.85 78.79 162.76 78.78 162.63C78.75 162.39 78.73 162.19 78.71 162.03H79.22C79.24 162.18 79.26 162.36 79.28 162.57H79.29Z" fill="#034E6F"/>
<path d="M79.8998 165.77C79.8698 165.63 79.7398 165.55 79.5898 165.59C79.4498 165.62 79.3598 165.76 79.4098 165.89C79.4998 166.25 79.6098 166.6 79.7298 166.95C79.7698 167.06 79.8598 167.13 79.9798 167.13C79.9998 167.13 80.0298 167.13 80.0598 167.11C80.1898 167.07 80.2698 166.93 80.2198 166.8C80.0998 166.45 79.9898 166.1 79.8998 165.77ZM79.4398 163.64C79.4198 163.51 79.3098 163.41 79.1498 163.44C79.0098 163.46 78.9098 163.59 78.9298 163.72C78.9798 164.06 79.0498 164.43 79.1398 164.81C79.1698 164.93 79.2698 165.01 79.3998 165.01C79.4098 165.01 79.4298 165.01 79.4498 165.01C79.5798 164.98 79.6798 164.85 79.6398 164.72C79.5598 164.34 79.4998 163.98 79.4298 163.65L79.4398 163.64Z" fill="#034E6F"/>
<path d="M83.9901 171.81C83.6701 171.67 83.3601 171.48 83.0801 171.27C82.9701 171.18 82.8001 171.2 82.7201 171.31C82.6301 171.42 82.65 171.58 82.76 171.66C83.08 171.9 83.43 172.11 83.78 172.26C83.81 172.28 83.8501 172.29 83.8801 172.29C83.9701 172.29 84.07 172.23 84.12 172.14C84.18 172.02 84.12 171.87 84 171.81H83.9901ZM82.2901 170.55C82.0501 170.3 81.83 170.02 81.62 169.72C81.54 169.6 81.37 169.57 81.26 169.65C81.15 169.72 81.11 169.88 81.19 169.99C81.42 170.32 81.6501 170.63 81.9001 170.89C81.9501 170.94 82.02 170.97 82.09 170.97C82.15 170.97 82.21 170.95 82.26 170.91C82.36 170.81 82.37 170.66 82.28 170.55H82.2901ZM81.07 168.79C80.91 168.48 80.75 168.15 80.61 167.82C80.56 167.69 80.4 167.63 80.27 167.68C80.14 167.73 80.08 167.88 80.14 168.01C80.28 168.36 80.45 168.71 80.61 169.02C80.66 169.11 80.74 169.15 80.85 169.15C80.88 169.15 80.92 169.15 80.96 169.13C81.08 169.06 81.13 168.91 81.07 168.79Z" fill="#034E6F"/>
<path d="M85.85 172.22L85.82 172.72C85.51 172.72 85.19 172.69 84.91 172.63C84.77 172.6 84.68 172.47 84.7 172.34C84.73 172.2 84.85 172.11 85.01 172.14C85.28 172.19 85.56 172.22 85.85 172.22Z" fill="#034E6F"/>
<path d="M36.5298 162.03L37.1098 171.69C41.9498 170.8 43.0498 164.17 43.2898 162.03H36.5298Z" fill="#034E6F"/>
<path d="M43.7101 162.57C43.6901 162.71 43.7901 162.83 43.9401 162.85H43.9701C44.0901 162.85 44.2101 162.76 44.2201 162.63C44.2501 162.39 44.2701 162.19 44.2901 162.03H43.7801C43.7601 162.18 43.7401 162.36 43.7201 162.57H43.7101Z" fill="#034E6F"/>
<path d="M42.7798 166.8C42.7398 166.93 42.8098 167.07 42.9398 167.11C42.9698 167.11 42.9998 167.13 43.0198 167.13C43.1298 167.13 43.2298 167.06 43.2698 166.95C43.3898 166.59 43.4998 166.24 43.5898 165.89C43.6298 165.76 43.5498 165.62 43.4098 165.59C43.2698 165.55 43.1298 165.63 43.0998 165.77C43.0098 166.11 42.8998 166.46 42.7798 166.8ZM43.3498 164.71C43.3198 164.84 43.4098 164.97 43.5398 165C43.5598 165 43.5798 165 43.5898 165C43.7098 165 43.8198 164.92 43.8498 164.8C43.9298 164.41 43.9998 164.04 44.0598 163.71C44.0798 163.58 43.9898 163.45 43.8398 163.43C43.6898 163.4 43.5698 163.5 43.5498 163.63C43.4898 163.97 43.4298 164.33 43.3398 164.7L43.3498 164.71Z" fill="#034E6F"/>
<path d="M38.89 172.14C38.93 172.23 39.03 172.29 39.13 172.29C39.16 172.29 39.2 172.29 39.23 172.26C39.58 172.11 39.93 171.9 40.25 171.66C40.36 171.58 40.38 171.42 40.29 171.31C40.21 171.2 40.04 171.18 39.93 171.27C39.64 171.48 39.33 171.67 39.02 171.81C38.9 171.87 38.84 172.02 38.9 172.14H38.89ZM40.74 170.91C40.79 170.95 40.85 170.97 40.91 170.97C40.98 170.97 41.05 170.94 41.1 170.89C41.35 170.62 41.58 170.31 41.81 169.99C41.89 169.88 41.85 169.72 41.74 169.65C41.63 169.57 41.46 169.6 41.38 169.72C41.17 170.03 40.95 170.31 40.71 170.55C40.62 170.66 40.63 170.81 40.73 170.91H40.74ZM42.05 169.13C42.05 169.13 42.13 169.15 42.16 169.15C42.26 169.15 42.34 169.11 42.4 169.02C42.56 168.7 42.73 168.35 42.87 168.01C42.93 167.88 42.87 167.73 42.74 167.68C42.61 167.63 42.45 167.68 42.4 167.82C42.26 168.16 42.1 168.49 41.94 168.79C41.88 168.91 41.93 169.06 42.05 169.13Z" fill="#034E6F"/>
<path d="M37.1499 172.22L37.1799 172.72C37.4899 172.72 37.8099 172.69 38.0899 172.63C38.2299 172.6 38.3199 172.47 38.2999 172.34C38.2699 172.2 38.1499 172.11 37.9899 172.14C37.7199 172.19 37.4399 172.22 37.1499 172.22Z" fill="#034E6F"/>
<path d="M63.0298 165.68C62.8898 165.68 62.7798 165.57 62.7798 165.44V164.47C62.7798 164.34 62.8898 164.23 63.0298 164.23C63.1698 164.23 63.2798 164.34 63.2798 164.47V165.44C63.2798 165.57 63.1698 165.68 63.0298 165.68Z" fill="#034E6F"/>
<path d="M63.0298 170.59C62.8898 170.59 62.7798 170.48 62.7798 170.35V169.12C62.7798 168.99 62.8898 168.88 63.0298 168.88C63.1698 168.88 63.2798 168.99 63.2798 169.12V170.35C63.2798 170.48 63.1698 170.59 63.0298 170.59ZM63.0298 168.14C62.8898 168.14 62.7798 168.03 62.7798 167.9V166.67C62.7798 166.54 62.8898 166.43 63.0298 166.43C63.1698 166.43 63.2798 166.54 63.2798 166.67V167.9C63.2798 168.03 63.1698 168.14 63.0298 168.14Z" fill="#034E6F"/>
<path d="M62.3199 173.46C62.2599 173.46 62.1899 173.44 62.1399 173.39C62.0399 173.3 62.0399 173.14 62.1399 173.05L62.7799 172.44V171.57C62.7799 171.44 62.8899 171.33 63.0299 171.33C63.1699 171.33 63.2799 171.44 63.2799 171.57V172.54C63.2799 172.6 63.2499 172.67 63.2099 172.71L62.4999 173.39C62.4999 173.39 62.3899 173.46 62.3199 173.46Z" fill="#034E6F"/>
<path d="M80.1398 184.12C80.0798 184.12 80.0098 184.1 79.9598 184.05L79.2498 183.37C79.1498 183.28 79.1498 183.12 79.2498 183.03C79.3498 182.94 79.5098 182.94 79.5998 183.03L80.3098 183.71C80.4098 183.8 80.4098 183.96 80.3098 184.05C80.2598 184.1 80.1998 184.12 80.1298 184.12H80.1398Z" fill="#034E6F"/>
<path d="M81.4398 185.39C81.3798 185.39 81.3098 185.36 81.2698 185.32L80.9598 185.02C80.9598 185.02 80.8898 184.91 80.8898 184.86C80.8898 184.79 80.9198 184.73 80.9598 184.69C81.0598 184.59 81.2198 184.59 81.3198 184.69L81.6198 184.98C81.6198 184.98 81.6898 185.09 81.6898 185.15C81.6898 185.21 81.6698 185.28 81.6198 185.32C81.5698 185.36 81.5098 185.39 81.4398 185.39ZM80.1298 184.11C80.0598 184.11 79.9998 184.09 79.9498 184.04C79.8598 183.95 79.8598 183.8 79.9498 183.7C80.0498 183.61 80.2098 183.61 80.3098 183.7C80.3998 183.8 80.3998 183.95 80.3098 184.04C80.2598 184.09 80.1998 184.11 80.1298 184.11Z" fill="#034E6F"/>
<path d="M82.86 186.76C82.8 186.76 82.73 186.74 82.68 186.69L81.97 186.01C81.87 185.92 81.87 185.76 81.97 185.67C82.07 185.58 82.23 185.58 82.32 185.67L83.03 186.35C83.13 186.44 83.13 186.6 83.03 186.69C82.98 186.74 82.92 186.76 82.85 186.76H82.86Z" fill="#034E6F"/>
<path d="M79.4298 186.76C79.3698 186.76 79.2998 186.74 79.2498 186.69C79.1498 186.6 79.1498 186.44 79.2498 186.35L80.3098 185.32C80.4098 185.23 80.5698 185.23 80.6598 185.32C80.7498 185.41 80.7598 185.57 80.6598 185.66L79.5998 186.69C79.5998 186.69 79.4898 186.76 79.4198 186.76H79.4298Z" fill="#034E6F"/>
<path d="M81.7999 184.46C81.7399 184.46 81.6699 184.44 81.6199 184.39C81.5199 184.3 81.5199 184.14 81.6199 184.05L82.6799 183.02C82.7799 182.93 82.9399 182.93 83.0299 183.02C83.1199 183.11 83.1299 183.27 83.0299 183.36L81.9699 184.39C81.9699 184.39 81.8599 184.46 81.7899 184.46H81.7999Z" fill="#034E6F"/>
<path d="M50.17 182.86L47.03 182.15C45.98 181.91 45.32 180.9 45.57 179.88L47.19 173.15C47.44 172.13 48.49 171.5 49.54 171.74L52.68 172.45C53.73 172.69 54.39 173.7 54.14 174.72L52.52 181.45C52.27 182.47 51.22 183.1 50.17 182.86Z" fill="#034E6F"/>
<path d="M50.19 183.12C50.19 183.12 50.16 183.12 50.15 183.12C50.15 183.12 50.11 183.12 50.11 183.11L48.37 182.72C48.24 182.69 48.15 182.56 48.18 182.42C48.21 182.29 48.34 182.2 48.48 182.23L50.23 182.63C50.36 182.66 50.46 182.79 50.43 182.93C50.41 183.05 50.31 183.13 50.2 183.13L50.19 183.12ZM51.88 182.71C51.81 182.71 51.74 182.68 51.69 182.62C51.6 182.51 51.62 182.36 51.73 182.27C52.01 182.04 52.2 181.74 52.28 181.39L52.41 180.83C52.44 180.7 52.58 180.61 52.71 180.65C52.84 180.68 52.93 180.82 52.89 180.95L52.76 181.51C52.65 181.96 52.4 182.36 52.04 182.66C51.99 182.7 51.94 182.72 51.88 182.72V182.71ZM46.67 182.29C46.67 182.29 46.6 182.29 46.57 182.27C45.93 181.99 45.46 181.43 45.31 180.77C45.28 180.64 45.36 180.5 45.5 180.47C45.64 180.44 45.77 180.53 45.8 180.66C45.91 181.17 46.28 181.6 46.77 181.81C46.9 181.86 46.96 182.01 46.9 182.14C46.86 182.23 46.77 182.29 46.67 182.29ZM53.07 179.39C53.07 179.39 53.03 179.39 53.01 179.39C52.88 179.36 52.79 179.22 52.83 179.09L53.25 177.34C53.28 177.21 53.42 177.13 53.55 177.16C53.68 177.19 53.77 177.33 53.73 177.46L53.31 179.21C53.28 179.32 53.18 179.4 53.07 179.4V179.39ZM45.78 179.2C45.78 179.2 45.74 179.2 45.72 179.2C45.59 179.17 45.5 179.03 45.54 178.9L45.96 177.15C45.99 177.02 46.13 176.94 46.26 176.97C46.39 177 46.48 177.14 46.44 177.27L46.02 179.02C45.99 179.13 45.89 179.21 45.78 179.21V179.2ZM53.91 175.89C53.91 175.89 53.87 175.89 53.85 175.89C53.72 175.86 53.63 175.72 53.67 175.59L53.89 174.67C53.92 174.55 53.93 174.42 53.93 174.3C53.93 174.18 53.92 174.06 53.89 173.95C53.86 173.82 53.94 173.68 54.08 173.65C54.21 173.61 54.35 173.7 54.38 173.84C54.42 174 54.43 174.15 54.43 174.31C54.43 174.47 54.41 174.64 54.37 174.8L54.15 175.72C54.12 175.83 54.02 175.91 53.91 175.91V175.89ZM46.62 175.7C46.62 175.7 46.58 175.7 46.56 175.7C46.43 175.67 46.34 175.53 46.38 175.4L46.8 173.65C46.83 173.52 46.97 173.44 47.1 173.47C47.23 173.5 47.32 173.64 47.28 173.77L46.86 175.52C46.83 175.63 46.73 175.71 46.62 175.71V175.7ZM53.01 172.81C53.01 172.81 52.94 172.81 52.91 172.79C52.81 172.75 52.71 172.72 52.61 172.69L51.21 172.37C51.08 172.34 50.99 172.21 51.02 172.07C51.05 171.94 51.18 171.85 51.32 171.88L52.72 172.2C52.86 172.23 52.98 172.27 53.11 172.32C53.24 172.37 53.3 172.52 53.24 172.65C53.2 172.75 53.11 172.8 53.01 172.8V172.81ZM47.82 172.38C47.75 172.38 47.68 172.35 47.63 172.29C47.54 172.18 47.56 172.03 47.67 171.94C48.2 171.52 48.91 171.35 49.57 171.49C49.7 171.52 49.79 171.65 49.76 171.79C49.73 171.92 49.6 172.01 49.46 171.98C48.95 171.87 48.39 172 47.98 172.33C47.93 172.37 47.88 172.39 47.82 172.39V172.38Z" fill="#286C84"/>
<path d="M58.05 190H58.03L40.13 189.83C38.74 189.82 37.6 188.64 37.53 187.15L36 162H87L85.47 187.15C85.4 188.64 84.26 189.81 82.88 189.83L64.97 190C63.61 190 62.5 188.93 62.35 187.48L61.5 179.3L60.66 187.48C60.5 188.92 59.38 190 58.05 190ZM61.99 174L63.34 187.38C63.44 188.32 64.12 189.03 64.94 189.03H64.95L82.86 188.86C83.71 188.86 84.42 188.08 84.46 187.1L85.93 162.97H37.06L38.53 187.1C38.58 188.09 39.29 188.86 40.14 188.87L58.04 189.04H58.05C58.87 189.04 59.56 188.33 59.66 187.39L61 174.01H61.99V174Z" fill="#034E6F"/>
</g>
<defs>
<clipPath id="clip0_775_7743">
<rect width="51" height="28" fill="white" transform="translate(36 162)"/>
</clipPath>
</defs>
</svg>
