<svg width="122" height="225" viewBox="0 0 122 225" fill="none" xmlns="http://www.w3.org/2000/svg">
<g clip-path="url(#clip0_832_7545)">
<path d="M85.99 157.51L85.4 168.17L85.38 168.62L84.85 173.7L84.77 174.51L82.34 196.7C82.27 198.68 81.35 200.22 80.24 200.24L66.38 200.51C65.29 200.51 64.38 199.08 64.26 197.19L61.5 174L58 197.19C57.88 199.08 56.55 200.52 55.47 200.51L41.61 200.24C40.49 200.22 39.58 198.68 39.52 196.7L36.85 174.57L36.77 173.69L36.63 168.18L36.04 157.51H43.78L60.94 157.49L78.09 157.51H85.99Z" fill="black"/>
<path d="M55.98 201H55.95L42.09 200.73C40.69 200.7 39.58 198.98 39.51 196.72L36.75 173.73L36.61 168.06L36 157H87L86.36 168.63L85.74 174.56L83.3 196.77C83.23 198.99 82.13 200.71 80.72 200.74L66.86 201.01H66.83C65.46 201.01 64.37 199.43 64.24 197.23L61.4 179.25L58.56 197.29C58.43 199.43 57.34 201.01 55.97 201.01L55.98 201ZM61.4 173.87L65.22 197.1C65.34 198.94 66.19 200.05 66.84 200.01L80.7 199.74C81.43 199.73 82.25 198.5 82.3 196.69L84.83 173.65L85.38 168.16L85.94 158H37.05L37.6 168.03L37.74 173.68L37.82 174.53L40.5 196.64C40.56 198.5 41.38 199.73 42.11 199.75L55.97 200.02H55.98C56.67 200.02 57.47 198.94 57.58 197.17L61.4 173.88V173.87Z" fill="#3F3F3F"/>
<path d="M61.9102 167.78H60.9102V176.56H61.9102V167.78Z" fill="#3F3F3F"/>
<path d="M75 168.67H74.5V197.15H75V168.67Z" fill="#3F3F3F"/>
<path d="M49.1001 168.67H48.6001V197.15H49.1001V168.67Z" fill="#3F3F3F"/>
</g>
<defs>
<clipPath id="clip0_832_7545">
<rect width="51" height="44" fill="white" transform="translate(36 157)"/>
</clipPath>
</defs>
</svg>
