<svg width="45" height="46" viewBox="0 0 45 46" fill="none" xmlns="http://www.w3.org/2000/svg">
<path fill-rule="evenodd" clip-rule="evenodd" d="M23.6351 14.4072H19.0164C18.6591 14.4072 18.3499 14.169 18.2544 13.8271L14.7236 1.00973C14.5807 0.501184 14.962 0 15.4856 0H20.1043C20.4616 0 20.7788 0.238213 20.8743 0.580143L24.4058 13.3968C24.5487 13.9054 24.168 14.4065 23.6438 14.4065H23.6358L23.6351 14.4072Z" fill="#EB4E3D"/>
<path fill-rule="evenodd" clip-rule="evenodd" d="M30.7365 1.0104L27.1976 13.8271C27.1021 14.169 26.7929 14.4072 26.4356 14.4072H21.817C21.2934 14.4072 20.9127 13.906 21.055 13.3975L24.5864 0.580812C24.6819 0.238882 24.9911 0 25.3484 0H29.9671C30.4907 0 30.8714 0.501184 30.7371 1.0104H30.7365Z" fill="#B62C1D"/>
<path fill-rule="evenodd" clip-rule="evenodd" d="M29.7113 0L25.2034 15.8291C25.1467 16.0325 24.963 16.1744 24.75 16.1744H22.0012C21.6893 16.1744 21.4629 15.8766 21.5477 15.5735L25.9788 0H29.7113Z" fill="#EB4E3D"/>
<g filter="url(#filter0_d_473_4991)">
<path d="M28.0016 10.8052H17.4492C17.1663 10.8052 16.937 11.0349 16.937 11.3181C16.937 11.6014 17.1663 11.831 17.4492 11.831H28.0016C28.2845 11.831 28.5138 11.6014 28.5138 11.3181C28.5138 11.0349 28.2845 10.8052 28.0016 10.8052Z" fill="url(#paint0_linear_473_4991)"/>
</g>
<g filter="url(#filter1_d_473_4991)">
<ellipse cx="22.5" cy="25.5473" rx="12.5" ry="12.4527" fill="url(#paint1_linear_473_4991)"/>
</g>
<path d="M22.5283 30.1367C20.2656 30.1367 18.6455 28.9473 18.6455 27.334C18.6455 26.0898 19.6025 25.0781 20.833 24.8867V24.8184C19.7598 24.6133 19.0215 23.7178 19.0283 22.6309C19.0215 21.0928 20.5049 19.9648 22.5283 19.9648C24.5518 19.9648 26.0352 21.0928 26.042 22.6309C26.0352 23.7178 25.2764 24.6133 24.2373 24.8184V24.8867C25.4404 25.0781 26.4111 26.0898 26.4111 27.334C26.4111 28.9473 24.7842 30.1367 22.5283 30.1367ZM20.792 27.1289C20.7852 27.9766 21.4824 28.5713 22.5283 28.5645C23.5742 28.5713 24.2715 27.9766 24.2646 27.1289C24.2715 26.2744 23.5332 25.6455 22.5283 25.6387C21.5234 25.6455 20.7852 26.2676 20.792 27.1289ZM21.0381 22.8359C21.0312 23.6289 21.6533 24.1826 22.5283 24.1895C23.3965 24.1826 24.0254 23.6289 24.0322 22.8359C24.0254 22.0635 23.4102 21.5234 22.5283 21.5234C21.6396 21.5234 21.0312 22.0635 21.0381 22.8359Z" fill="#B62C1D"/>
<defs>
<filter id="filter0_d_473_4991" x="6.93701" y="4.80524" width="31.5767" height="21.0258" filterUnits="userSpaceOnUse" color-interpolation-filters="sRGB">
<feFlood flood-opacity="0" result="BackgroundImageFix"/>
<feColorMatrix in="SourceAlpha" type="matrix" values="0 0 0 0 0 0 0 0 0 0 0 0 0 0 0 0 0 0 127 0" result="hardAlpha"/>
<feOffset dy="4"/>
<feGaussianBlur stdDeviation="5"/>
<feComposite in2="hardAlpha" operator="out"/>
<feColorMatrix type="matrix" values="0 0 0 0 0 0 0 0 0 0 0 0 0 0 0 0 0 0 0.14 0"/>
<feBlend mode="normal" in2="BackgroundImageFix" result="effect1_dropShadow_473_4991"/>
<feBlend mode="normal" in="SourceGraphic" in2="effect1_dropShadow_473_4991" result="shape"/>
</filter>
<filter id="filter1_d_473_4991" x="0" y="7.0946" width="45" height="44.9054" filterUnits="userSpaceOnUse" color-interpolation-filters="sRGB">
<feFlood flood-opacity="0" result="BackgroundImageFix"/>
<feColorMatrix in="SourceAlpha" type="matrix" values="0 0 0 0 0 0 0 0 0 0 0 0 0 0 0 0 0 0 127 0" result="hardAlpha"/>
<feOffset dy="4"/>
<feGaussianBlur stdDeviation="5"/>
<feComposite in2="hardAlpha" operator="out"/>
<feColorMatrix type="matrix" values="0 0 0 0 0 0 0 0 0 0 0 0 0 0 0 0 0 0 0.14 0"/>
<feBlend mode="normal" in2="BackgroundImageFix" result="effect1_dropShadow_473_4991"/>
<feBlend mode="normal" in="SourceGraphic" in2="effect1_dropShadow_473_4991" result="shape"/>
</filter>
<linearGradient id="paint0_linear_473_4991" x1="18.3692" y1="10.8687" x2="18.4727" y2="12.3519" gradientUnits="userSpaceOnUse">
<stop stop-color="white"/>
<stop offset="1" stop-color="#F3F9FF"/>
</linearGradient>
<linearGradient id="paint1_linear_473_4991" x1="13.0928" y1="14.6351" x2="30.6649" y2="37.0377" gradientUnits="userSpaceOnUse">
<stop stop-color="white"/>
<stop offset="1" stop-color="#FFF3F3"/>
</linearGradient>
</defs>
</svg>
