<svg width="45" height="46" viewBox="0 0 45 46" fill="none" xmlns="http://www.w3.org/2000/svg">
<path fill-rule="evenodd" clip-rule="evenodd" d="M23.6351 14.4072H19.0164C18.6591 14.4072 18.3499 14.169 18.2544 13.8271L14.7236 1.00973C14.5807 0.501184 14.962 0 15.4856 0H20.1043C20.4616 0 20.7788 0.238213 20.8743 0.580143L24.4058 13.3968C24.5487 13.9054 24.168 14.4065 23.6438 14.4065H23.6358L23.6351 14.4072Z" fill="#FFF3C7"/>
<path fill-rule="evenodd" clip-rule="evenodd" d="M30.7369 1.0104L27.1981 13.8271C27.1026 14.169 26.7934 14.4072 26.4361 14.4072H21.8174C21.2939 14.4072 20.9132 13.906 21.0554 13.3975L24.5869 0.580812C24.6824 0.238882 24.9916 0 25.3489 0H29.9676C30.4912 0 30.8719 0.501184 30.7376 1.0104H30.7369Z" fill="#FFD12E"/>
<path fill-rule="evenodd" clip-rule="evenodd" d="M29.7115 0L25.2037 15.8291C25.1469 16.0325 24.9633 16.1744 24.7502 16.1744H22.0014C21.6896 16.1744 21.4632 15.8766 21.548 15.5735L25.979 0H29.7115Z" fill="#FFF3C7"/>
<g filter="url(#filter0_d_473_4919)">
<path d="M28.0016 10.8052H17.4492C17.1663 10.8052 16.937 11.0349 16.937 11.3181C16.937 11.6014 17.1663 11.831 17.4492 11.831H28.0016C28.2845 11.831 28.5138 11.6014 28.5138 11.3181C28.5138 11.0349 28.2845 10.8052 28.0016 10.8052Z" fill="url(#paint0_linear_473_4919)"/>
</g>
<g filter="url(#filter1_d_473_4919)">
<ellipse cx="22.5" cy="25.5473" rx="12.5" ry="12.4527" fill="url(#paint1_linear_473_4919)"/>
</g>
<path d="M17.6418 28.25V26.623L21.8254 20.1016H24.4094V26.5957H25.6672V28.25H24.4094V30H22.4543V28.25H17.6418ZM19.72 26.5957H22.4817V22.3574H22.386L19.72 26.5137V26.5957Z" fill="#FFD12E"/>
<defs>
<filter id="filter0_d_473_4919" x="6.93701" y="4.80524" width="31.5769" height="21.0258" filterUnits="userSpaceOnUse" color-interpolation-filters="sRGB">
<feFlood flood-opacity="0" result="BackgroundImageFix"/>
<feColorMatrix in="SourceAlpha" type="matrix" values="0 0 0 0 0 0 0 0 0 0 0 0 0 0 0 0 0 0 127 0" result="hardAlpha"/>
<feOffset dy="4"/>
<feGaussianBlur stdDeviation="5"/>
<feComposite in2="hardAlpha" operator="out"/>
<feColorMatrix type="matrix" values="0 0 0 0 0 0 0 0 0 0 0 0 0 0 0 0 0 0 0.14 0"/>
<feBlend mode="normal" in2="BackgroundImageFix" result="effect1_dropShadow_473_4919"/>
<feBlend mode="normal" in="SourceGraphic" in2="effect1_dropShadow_473_4919" result="shape"/>
</filter>
<filter id="filter1_d_473_4919" x="0" y="7.0946" width="45" height="44.9054" filterUnits="userSpaceOnUse" color-interpolation-filters="sRGB">
<feFlood flood-opacity="0" result="BackgroundImageFix"/>
<feColorMatrix in="SourceAlpha" type="matrix" values="0 0 0 0 0 0 0 0 0 0 0 0 0 0 0 0 0 0 127 0" result="hardAlpha"/>
<feOffset dy="4"/>
<feGaussianBlur stdDeviation="5"/>
<feComposite in2="hardAlpha" operator="out"/>
<feColorMatrix type="matrix" values="0 0 0 0 0 0 0 0 0 0 0 0 0 0 0 0 0 0 0.14 0"/>
<feBlend mode="normal" in2="BackgroundImageFix" result="effect1_dropShadow_473_4919"/>
<feBlend mode="normal" in="SourceGraphic" in2="effect1_dropShadow_473_4919" result="shape"/>
</filter>
<linearGradient id="paint0_linear_473_4919" x1="18.3692" y1="10.8687" x2="18.4727" y2="12.3519" gradientUnits="userSpaceOnUse">
<stop stop-color="white"/>
<stop offset="1" stop-color="#F3F9FF"/>
</linearGradient>
<linearGradient id="paint1_linear_473_4919" x1="13.0928" y1="14.6351" x2="30.6649" y2="37.0377" gradientUnits="userSpaceOnUse">
<stop stop-color="white"/>
<stop offset="1" stop-color="#FFFAF3"/>
</linearGradient>
</defs>
</svg>
