<svg width="44" height="46" viewBox="0 0 44 46" fill="none" xmlns="http://www.w3.org/2000/svg">
<path fill-rule="evenodd" clip-rule="evenodd" d="M23.6351 14.4072H19.0164C18.6591 14.4072 18.3499 14.169 18.2544 13.8271L14.7236 1.00973C14.5807 0.501184 14.962 0 15.4856 0H20.1043C20.4616 0 20.7788 0.238213 20.8743 0.580143L24.4058 13.3968C24.5487 13.9054 24.168 14.4065 23.6438 14.4065H23.6358L23.6351 14.4072Z" fill="#D88FFF"/>
<path fill-rule="evenodd" clip-rule="evenodd" d="M30.7369 1.0104L27.1981 13.8271C27.1026 14.169 26.7934 14.4072 26.4361 14.4072H21.8174C21.2939 14.4072 20.9132 13.906 21.0554 13.3975L24.5869 0.580812C24.6824 0.238882 24.9916 0 25.3489 0H29.9676C30.4912 0 30.8719 0.501184 30.7376 1.0104H30.7369Z" fill="#B43DEB"/>
<path fill-rule="evenodd" clip-rule="evenodd" d="M29.7113 0L25.2034 15.8291C25.1467 16.0325 24.963 16.1744 24.75 16.1744H22.0012C21.6893 16.1744 21.4629 15.8766 21.5477 15.5735L25.9788 0H29.7113Z" fill="#D88FFF"/>
<g filter="url(#filter0_d_473_5027)">
<path d="M28.0016 10.8052H17.4492C17.1663 10.8052 16.937 11.0349 16.937 11.3181C16.937 11.6014 17.1663 11.831 17.4492 11.831H28.0016C28.2845 11.831 28.5138 11.6014 28.5138 11.3181C28.5138 11.0349 28.2845 10.8052 28.0016 10.8052Z" fill="url(#paint0_linear_473_5027)"/>
</g>
<g filter="url(#filter1_d_473_5027)">
<ellipse cx="22.5" cy="25.5473" rx="12.5" ry="12.4527" fill="url(#paint1_linear_473_5027)"/>
</g>
<path d="M20.064 20.1016V30H17.9995V22.0566H17.9448L15.6753 23.4785V21.6602L18.1226 20.1016H20.064ZM26.2026 30.1367C23.7212 30.1367 22.2241 28.291 22.2241 25.0508C22.2241 21.8174 23.7349 19.9648 26.2026 19.9648C28.6704 19.9648 30.1812 21.8174 30.1812 25.0508C30.1812 28.3047 28.6772 30.1367 26.2026 30.1367ZM24.3296 25.0508C24.3159 27.334 25.0542 28.4414 26.2026 28.4414C27.3511 28.4414 28.0825 27.334 28.0757 25.0508C28.0825 22.7881 27.3442 21.6533 26.2026 21.6465C25.061 21.6533 24.3296 22.7881 24.3296 25.0508Z" fill="#B43DEB"/>
<defs>
<filter id="filter0_d_473_5027" x="6.93701" y="4.80524" width="31.5767" height="21.0258" filterUnits="userSpaceOnUse" color-interpolation-filters="sRGB">
<feFlood flood-opacity="0" result="BackgroundImageFix"/>
<feColorMatrix in="SourceAlpha" type="matrix" values="0 0 0 0 0 0 0 0 0 0 0 0 0 0 0 0 0 0 127 0" result="hardAlpha"/>
<feOffset dy="4"/>
<feGaussianBlur stdDeviation="5"/>
<feComposite in2="hardAlpha" operator="out"/>
<feColorMatrix type="matrix" values="0 0 0 0 0 0 0 0 0 0 0 0 0 0 0 0 0 0 0.14 0"/>
<feBlend mode="normal" in2="BackgroundImageFix" result="effect1_dropShadow_473_5027"/>
<feBlend mode="normal" in="SourceGraphic" in2="effect1_dropShadow_473_5027" result="shape"/>
</filter>
<filter id="filter1_d_473_5027" x="0" y="7.0946" width="45" height="44.9054" filterUnits="userSpaceOnUse" color-interpolation-filters="sRGB">
<feFlood flood-opacity="0" result="BackgroundImageFix"/>
<feColorMatrix in="SourceAlpha" type="matrix" values="0 0 0 0 0 0 0 0 0 0 0 0 0 0 0 0 0 0 127 0" result="hardAlpha"/>
<feOffset dy="4"/>
<feGaussianBlur stdDeviation="5"/>
<feComposite in2="hardAlpha" operator="out"/>
<feColorMatrix type="matrix" values="0 0 0 0 0 0 0 0 0 0 0 0 0 0 0 0 0 0 0.14 0"/>
<feBlend mode="normal" in2="BackgroundImageFix" result="effect1_dropShadow_473_5027"/>
<feBlend mode="normal" in="SourceGraphic" in2="effect1_dropShadow_473_5027" result="shape"/>
</filter>
<linearGradient id="paint0_linear_473_5027" x1="18.3692" y1="10.8687" x2="18.4727" y2="12.3519" gradientUnits="userSpaceOnUse">
<stop stop-color="white"/>
<stop offset="1" stop-color="#F3F9FF"/>
</linearGradient>
<linearGradient id="paint1_linear_473_5027" x1="13.0928" y1="14.6351" x2="30.6649" y2="37.0377" gradientUnits="userSpaceOnUse">
<stop stop-color="white"/>
<stop offset="1" stop-color="#FFF3FF"/>
</linearGradient>
</defs>
</svg>
