<svg width="43" height="46" viewBox="0 0 43 46" fill="none" xmlns="http://www.w3.org/2000/svg">
<path fill-rule="evenodd" clip-rule="evenodd" d="M21.6349 14.4072H17.0162C16.6589 14.4072 16.3497 14.169 16.2542 13.8271L12.7234 1.00973C12.5805 0.501184 12.9618 0 13.4854 0H18.1041C18.4614 0 18.7786 0.238213 18.8741 0.580143L22.4056 13.3968C22.5485 13.9054 22.1678 14.4065 21.6436 14.4065H21.6355L21.6349 14.4072Z" fill="#86BFFF"/>
<path fill-rule="evenodd" clip-rule="evenodd" d="M28.7369 1.0104L25.1981 13.8271C25.1026 14.169 24.7934 14.4072 24.4361 14.4072H19.8174C19.2939 14.4072 18.9132 13.906 19.0554 13.3975L22.5869 0.580812C22.6824 0.238882 22.9916 0 23.3489 0H27.9676C28.4912 0 28.8719 0.501184 28.7376 1.0104H28.7369Z" fill="#4194F1"/>
<path fill-rule="evenodd" clip-rule="evenodd" d="M27.7115 0L23.2037 15.8291C23.1469 16.0325 22.9633 16.1744 22.7502 16.1744H20.0014C19.6896 16.1744 19.4632 15.8766 19.548 15.5735L23.979 0H27.7115Z" fill="#86BFFF"/>
<g filter="url(#filter0_d_473_4863)">
<path d="M26.0016 10.8052H15.4492C15.1663 10.8052 14.937 11.0349 14.937 11.3181C14.937 11.6014 15.1663 11.831 15.4492 11.831H26.0016C26.2845 11.831 26.5138 11.6014 26.5138 11.3181C26.5138 11.0349 26.2845 10.8052 26.0016 10.8052Z" fill="url(#paint0_linear_473_4863)"/>
</g>
<g filter="url(#filter1_d_473_4863)">
<ellipse cx="20.5" cy="25.5473" rx="12.5" ry="12.4527" fill="url(#paint1_linear_473_4863)"/>
</g>
<path d="M22.0791 20.1016V30H20.0146V22.0566H19.96L17.6904 23.4785V21.6602L20.1377 20.1016H22.0791Z" fill="#4194F1"/>
<defs>
<filter id="filter0_d_473_4863" x="4.93701" y="4.80524" width="31.5769" height="21.0258" filterUnits="userSpaceOnUse" color-interpolation-filters="sRGB">
<feFlood flood-opacity="0" result="BackgroundImageFix"/>
<feColorMatrix in="SourceAlpha" type="matrix" values="0 0 0 0 0 0 0 0 0 0 0 0 0 0 0 0 0 0 127 0" result="hardAlpha"/>
<feOffset dy="4"/>
<feGaussianBlur stdDeviation="5"/>
<feComposite in2="hardAlpha" operator="out"/>
<feColorMatrix type="matrix" values="0 0 0 0 0 0 0 0 0 0 0 0 0 0 0 0 0 0 0.14 0"/>
<feBlend mode="normal" in2="BackgroundImageFix" result="effect1_dropShadow_473_4863"/>
<feBlend mode="normal" in="SourceGraphic" in2="effect1_dropShadow_473_4863" result="shape"/>
</filter>
<filter id="filter1_d_473_4863" x="-2" y="7.0946" width="45" height="44.9054" filterUnits="userSpaceOnUse" color-interpolation-filters="sRGB">
<feFlood flood-opacity="0" result="BackgroundImageFix"/>
<feColorMatrix in="SourceAlpha" type="matrix" values="0 0 0 0 0 0 0 0 0 0 0 0 0 0 0 0 0 0 127 0" result="hardAlpha"/>
<feOffset dy="4"/>
<feGaussianBlur stdDeviation="5"/>
<feComposite in2="hardAlpha" operator="out"/>
<feColorMatrix type="matrix" values="0 0 0 0 0 0 0 0 0 0 0 0 0 0 0 0 0 0 0.14 0"/>
<feBlend mode="normal" in2="BackgroundImageFix" result="effect1_dropShadow_473_4863"/>
<feBlend mode="normal" in="SourceGraphic" in2="effect1_dropShadow_473_4863" result="shape"/>
</filter>
<linearGradient id="paint0_linear_473_4863" x1="16.3692" y1="10.8687" x2="16.4727" y2="12.3519" gradientUnits="userSpaceOnUse">
<stop stop-color="white"/>
<stop offset="1" stop-color="#F3F9FF"/>
</linearGradient>
<linearGradient id="paint1_linear_473_4863" x1="11.0928" y1="14.6351" x2="28.6649" y2="37.0377" gradientUnits="userSpaceOnUse">
<stop stop-color="white"/>
<stop offset="1" stop-color="#F3F9FF"/>
</linearGradient>
</defs>
</svg>
