<svg width="122" height="225" viewBox="0 0 122 225" fill="none" xmlns="http://www.w3.org/2000/svg">
<g clip-path="url(#clip0_775_11351)">
<path d="M34.1357 153.89L34.4619 128.158C34.2376 128.71 33.2181 132.095 32.9938 132.648C29.7313 140.216 29.6293 150.29 26.3872 158.339C26.3872 158.778 26.4994 159.228 26.5605 159.74C26.7848 162.726 25.0822 169.691 22.931 168.924C21.7381 168.494 23.0024 165.723 22.1459 166.377C20.8409 167.39 21.4323 171.184 17.0789 169.793C13.327 168.607 14.061 162.593 15.3151 158.666C16.0593 156.303 17.6702 154.217 19.3116 153.307C22.0032 142.466 22.1867 139.848 25.4696 129.109C26.6013 125.427 31.9539 107.816 35.5324 103.909C35.5324 103.909 35.5936 103.837 35.7363 103.694C36.6947 102.723 41.0379 98.7647 49.1432 97.9977C49.1432 97.9977 51.9469 97.7829 55.7192 97.6193C55.7804 97.6193 55.8415 97.609 55.9129 97.6193C61.7854 97.3431 69.9111 97.1693 73.663 97.9977C81.7683 98.775 86.1013 102.723 87.0699 103.694C87.2126 103.827 87.2738 103.909 87.2738 103.909C90.8523 107.816 96.3069 125.397 97.3366 129.109C100.467 140.369 100.803 142.476 103.495 153.307C105.136 154.217 106.757 156.303 107.491 158.666C108.735 162.593 109.479 168.597 105.727 169.793C101.364 171.184 101.965 167.379 100.66 166.377C99.8038 165.723 101.068 168.504 99.8752 168.924C97.724 169.701 96.0214 162.726 96.2457 159.74C96.2967 159.228 96.419 158.778 96.419 158.339C93.1667 150.29 92.9118 140.083 89.6595 132.525C89.425 131.973 88.5584 128.72 88.3443 128.168L88.7419 153.634" fill="#FDE2D2"/>
<path d="M46.7167 120.426C47.4994 120.426 48.1339 119.79 48.1339 119.005C48.1339 118.219 47.4994 117.583 46.7167 117.583C45.934 117.583 45.2996 118.219 45.2996 119.005C45.2996 119.79 45.934 120.426 46.7167 120.426Z" fill="#E9B7A8"/>
<path d="M77.1803 120.426C77.963 120.426 78.5975 119.79 78.5975 119.005C78.5975 118.219 77.963 117.583 77.1803 117.583C76.3977 117.583 75.7632 118.219 75.7632 119.005C75.7632 119.79 76.3977 120.426 77.1803 120.426Z" fill="#E9B7A8"/>
<path d="M64.5076 143.765C63.8143 142.936 62.7438 142.589 61.6937 142.497C60.562 142.404 59.4405 142.681 58.7064 143.591C58.0233 144.44 57.5544 145.749 58.0335 146.802C58.4719 147.764 59.5934 148.295 60.5926 148.439C61.7752 148.602 62.9375 148.275 63.8653 147.528C64.0896 147.354 64.0488 146.966 63.8653 146.782C63.641 146.557 63.3453 146.598 63.121 146.782C62.5603 147.232 61.8262 147.436 61.1125 147.426C60.4091 147.416 59.5934 147.16 59.1346 146.587C58.6351 145.953 59.0123 145.002 59.4099 144.409C59.8993 143.703 60.6537 143.509 61.4694 143.54C62.285 143.57 63.1924 143.836 63.7531 144.511C63.9366 144.726 64.3139 144.706 64.4974 144.511C64.7115 144.297 64.6809 143.979 64.4974 143.765H64.5076Z" fill="#E9B7A8"/>
<path d="M60.45 146.26C60.3786 146.26 60.3072 146.23 60.2664 146.168C60.1951 146.066 60.2257 145.933 60.3276 145.861L61.9181 144.767C62.02 144.695 62.1526 144.726 62.2239 144.828C62.2953 144.931 62.2647 145.064 62.1628 145.135L60.5723 146.23C60.5723 146.23 60.4907 146.27 60.45 146.27V146.26Z" fill="#E9B7A8"/>
<path d="M61.7957 146.516C61.7244 146.516 61.653 146.485 61.6122 146.424L60.5213 144.829C60.45 144.726 60.4805 144.593 60.5825 144.522C60.6844 144.45 60.817 144.481 60.8883 144.583L61.9793 146.178C62.0506 146.281 62.02 146.414 61.9181 146.485C61.8773 146.516 61.8365 146.526 61.7957 146.526V146.516Z" fill="#E9B7A8"/>
<path d="M68.7592 214.65C68.7286 215.274 69.0446 216.235 69.5442 216.89C71.6241 218.915 73.9282 219.232 77.6393 219.825C82.6554 220.623 86.9477 219.876 87.4268 216.849C87.8244 214.282 85.8771 211.449 81.9927 210.242C81.9927 210.242 80.8101 210.078 80.8101 209.26L81.2179 194.594L81.6767 178.527L67.2095 178.65L68.0863 194.472" fill="#FDE2D2"/>
<path d="M55.5459 214.65C55.5765 215.274 55.2604 216.235 54.7608 216.89C52.681 218.915 50.3768 219.232 46.6657 219.825C41.6496 220.623 37.3574 219.876 36.8782 216.849C36.4806 214.282 38.4279 211.449 42.3123 210.242C42.3123 210.242 43.495 210.078 43.495 209.26L43.0872 194.594L42.6284 178.527L57.0956 178.65L56.2188 194.472" fill="#FDE2D2"/>
<path d="M110.213 166.04C109.989 170.09 108.694 174.375 102.873 175.439C98.8658 176.185 94.8183 172.391 93.8395 166.991C92.8302 174.753 88.9967 202.408 83.9602 210.344C86.8353 211.173 88.9458 213.832 88.9458 217.002C88.9458 220.827 85.8668 223.936 82.0537 223.936H68.0555C68.0555 223.936 62.2544 224.192 63.6817 211.367V211.255L63.6919 211.234C63.6613 208.943 63.1617 176.748 62.3563 176.165C62.1728 176.052 61.8873 175.94 61.5305 175.878C61.1736 175.94 60.878 176.042 60.6945 176.165C59.889 176.748 59.3895 208.943 59.3589 211.234V211.367C60.7964 224.192 54.9953 223.936 54.9953 223.936H40.9971C37.184 223.936 34.105 220.827 34.105 217.002C34.105 213.842 36.2155 211.173 39.0905 210.344C34.0541 202.408 30.2104 174.743 29.2113 166.991C28.2223 172.391 24.185 176.185 20.1782 175.439C14.3567 174.365 13.0618 170.09 12.8375 166.04C12.654 162.726 12.756 161.284 13.5104 155.639C20.4331 111.938 43.1687 95.0933 43.1687 95.0933C49.6529 98.366 54.6894 98.4171 58.2986 98.9387C58.5534 98.9796 58.7879 99.0103 59.0224 99.0308C59.5628 99.1228 60.3886 99.2148 61.5305 99.2251C62.6622 99.2148 63.488 99.133 64.0283 99.0308C64.2628 99.0103 64.4973 98.9796 64.7522 98.9387C68.3614 98.4171 73.3979 98.366 79.8821 95.0933C79.8821 95.0933 102.618 111.938 109.54 155.639C110.305 161.284 110.397 162.726 110.213 166.04Z" fill="white"/>
<path d="M67.9945 225C67.6682 225 66.1491 224.908 64.7523 223.415C62.6929 221.206 61.9792 217.115 62.6317 211.255V211.152C62.4686 199.565 62.0302 180.931 61.5306 177.188C61.0005 181.115 60.5621 201.375 60.4295 211.255V211.275C61.082 217.115 60.3684 221.206 58.3089 223.415C56.8 225.031 55.1483 225.01 54.9648 225H41.0176C36.6336 225 33.0754 221.42 33.0754 217.013C33.0754 213.914 34.88 211.122 37.5818 209.812C33.524 202.04 30.3635 182.884 28.7628 171.47C27.9166 173.005 26.7951 174.283 25.4697 175.203C23.7467 176.4 21.8606 176.84 20.005 176.502C12.2871 175.081 11.9201 168.331 11.7978 166.111C11.6142 162.726 11.706 161.243 12.4808 155.506C19.3933 111.845 41.6191 94.9398 42.5571 94.2443L43.0771 93.8557L43.6582 94.1523C48.868 96.7807 53.0787 97.2614 56.4533 97.65C57.167 97.7318 57.8297 97.8034 58.4618 97.8955C58.7065 97.9364 58.9206 97.967 59.1245 97.9875C59.6241 98.0693 60.3684 98.1614 61.5408 98.1716C62.7439 98.1614 63.5085 98.0591 63.845 97.9977C64.1406 97.967 64.3445 97.9364 64.579 97.8955C65.2213 97.8034 65.8942 97.7216 66.6079 97.6398C69.9927 97.2511 74.1932 96.7705 79.403 94.1421L79.9842 93.8455L80.5041 94.2341C81.4523 94.9295 103.668 111.835 110.58 155.475C111.355 161.233 111.457 162.716 111.263 166.101C111.141 168.32 110.774 175.07 103.056 176.492C101.211 176.83 99.3145 176.39 97.5915 175.193C96.2661 174.273 95.1446 172.994 94.2882 171.46C92.6876 182.884 89.527 202.03 85.4693 209.802C88.1812 211.111 89.9756 213.914 89.9756 217.002C89.9756 221.41 86.4072 224.99 82.0334 224.99H68.0352C68.0352 224.99 68.0047 224.99 67.9741 224.99L67.9945 225ZM61.5306 174.805L61.7141 174.835C62.1933 174.917 62.6113 175.07 62.9274 175.275C63.5085 175.694 64.2426 176.226 64.7421 211.224V211.285L64.7218 211.48C63.9979 217.984 65.1704 220.776 66.2918 221.962C67.1584 222.893 67.9945 222.893 67.9945 222.873H82.0436C85.2552 222.873 87.8754 220.234 87.8754 217.002C87.8754 214.394 86.1422 212.083 83.6545 211.367L82.2883 210.978L83.053 209.782C87.906 202.132 91.719 174.999 92.7793 166.858L93.6561 160.128L94.8694 166.807C95.3791 169.619 96.8473 172.105 98.7946 173.444C100.049 174.303 101.384 174.641 102.669 174.395C106.869 173.618 108.868 171.02 109.143 165.978C109.316 162.736 109.235 161.397 108.47 155.782C104.942 133.486 97.1735 118.391 91.2908 109.667C85.9994 101.833 81.2382 97.5886 79.7293 96.3409C74.4583 98.8773 70.0641 99.3784 66.8322 99.7466C66.1389 99.8284 65.4966 99.9 64.8849 99.992C64.6198 100.033 64.3649 100.064 64.11 100.094C63.7022 100.166 62.8356 100.278 61.5204 100.289C60.1848 100.278 59.3182 100.166 58.8187 100.084C58.6453 100.074 58.3905 100.033 58.1152 99.992C57.5238 99.9102 56.8815 99.8284 56.1883 99.7568C52.9563 99.3886 48.5621 98.8875 43.2912 96.3511C41.7822 97.5989 37.021 101.853 31.7296 109.677C25.8367 118.401 18.0781 133.497 14.5403 155.813C13.7858 161.407 13.7043 162.736 13.8776 165.989C14.1529 171.041 16.1512 173.628 20.3516 174.406C21.6363 174.641 22.982 174.314 24.2361 173.444C26.1834 172.105 27.6515 169.619 28.1613 166.807L29.3745 160.128L30.2513 166.868C31.3014 174.999 35.1145 202.132 39.9777 209.792L40.7423 210.989L39.3761 211.377C36.8885 212.093 35.1553 214.405 35.1553 217.013C35.1553 220.244 37.7653 222.883 40.987 222.883H54.9852C55.0668 222.883 55.9436 222.862 56.7898 221.911C57.8705 220.694 59.0124 217.902 58.2987 211.5L58.2783 211.244C58.7677 176.247 59.5425 175.684 60.0523 175.316C60.3683 175.091 60.7864 174.938 61.3267 174.845L61.5102 174.815L61.5306 174.805Z" fill="#192347"/>
<path d="M94.4105 171.041C93.8395 171.041 93.3706 170.591 93.3502 170.008C93.3502 169.732 92.3714 142.558 81.0342 120.937C80.7589 120.416 80.9628 119.772 81.4726 119.506C81.9824 119.24 82.6349 119.434 82.8999 119.945C94.4717 142.006 95.4504 169.66 95.4606 169.936C95.481 170.519 95.0222 171.01 94.4309 171.031C94.4207 171.031 94.4105 171.031 94.4003 171.031L94.4105 171.041Z" fill="#192347"/>
<path d="M28.6506 171.041C28.6506 171.041 28.6302 171.041 28.62 171.041C28.0388 171.02 27.5801 170.529 27.5903 169.947C27.5903 169.67 28.5792 142.016 40.1509 119.956C40.4262 119.434 41.0583 119.24 41.5783 119.516C42.0982 119.792 42.2919 120.426 42.0167 120.948C30.6794 142.568 29.7007 169.742 29.7007 170.018C29.6803 170.591 29.2113 171.051 28.6404 171.051L28.6506 171.041Z" fill="#192347"/>
<g opacity="0.3">
<path d="M38.6116 99.3376C38.6116 99.3376 58.1662 114.218 84.4396 99.3376L73.8671 86.6353L49.8468 82.4524L38.6116 99.3376Z" fill="#192347"/>
</g>
<path d="M119.868 52.5886L119.613 56.4546C118.767 69.208 111.253 79.8239 100.935 84.733C98.9678 85.6739 96.8778 86.4102 94.7163 86.9011H94.7061C91.9228 87.5455 89.0171 87.7909 86.0401 87.5966L82.4004 87.3511C75.4471 86.8807 69.1974 84.0477 64.2629 79.65C56.9018 73.0841 52.5178 63 53.2519 52.0057L53.5068 48.1398C54.1491 38.5364 58.5637 30.1296 65.1295 24.4841C66.0674 23.6659 67.0564 22.9091 68.0759 22.2136H68.0861C68.4327 21.9784 68.7794 21.7534 69.1158 21.5386C69.4319 21.3341 69.7683 21.15 70.0946 20.9455C75.1311 18.0614 80.9628 16.5886 87.08 16.9977L90.7198 17.2432C93.5643 17.4375 96.2762 18.0205 98.8454 18.9511C100.375 19.5136 101.863 20.1784 103.28 20.9761C104.585 21.7023 105.839 22.5102 107.032 23.4307C107.297 23.625 107.542 23.8296 107.797 24.0341C107.848 24.0648 107.899 24.1159 107.95 24.1568C109.082 25.0977 110.152 26.1102 111.141 27.2046C111.263 27.3375 111.376 27.4602 111.498 27.6034C112.742 28.9943 113.863 30.508 114.842 32.1136C117.534 36.4296 119.267 41.4511 119.787 46.8205C119.97 48.7125 120.001 50.6455 119.868 52.5989V52.5886Z" fill="white"/>
<path d="M85.9587 88.65L82.319 88.4045C75.3556 87.9341 68.8611 85.1829 63.5494 80.4375C55.7091 73.442 51.4679 62.7852 52.1917 51.9341L52.4466 48.0682C53.0787 38.5772 57.4423 29.6897 64.4364 23.6761C65.3437 22.8784 66.3429 22.1113 67.4848 21.3341L67.8008 21.1295C68.0557 20.9557 68.3106 20.792 68.5655 20.6284C68.7694 20.5057 68.9733 20.3727 69.1874 20.25L69.5544 20.025C74.9579 16.9261 81.0344 15.5147 87.1618 15.9341L90.8015 16.1795C93.6766 16.3738 96.5109 16.967 99.2126 17.9488C100.854 18.5522 102.404 19.2579 103.811 20.0454C105.228 20.8329 106.492 21.6613 107.685 22.5818C107.95 22.7863 108.215 22.9909 108.48 23.2057C108.501 23.2159 108.592 23.2977 108.674 23.3693C109.795 24.3 110.907 25.3534 111.926 26.4784L112.293 26.8875C113.557 28.3091 114.72 29.8738 115.749 31.5409C118.553 36.0511 120.327 41.2875 120.847 46.6977C121.041 48.6613 121.061 50.6659 120.929 52.65L120.674 56.5159C119.828 69.2591 112.436 80.4375 101.394 85.6841C99.335 86.6659 97.1634 87.4227 94.951 87.9238L94.7879 87.9545C91.9026 88.6091 88.9357 88.8341 85.9689 88.6397L85.9587 88.65ZM107.175 24.8829C106.89 24.6477 106.645 24.4534 106.4 24.2693C105.279 23.4 104.096 22.6329 102.771 21.8966C101.445 21.15 100.038 20.5159 98.4888 19.9432C95.9705 19.0329 93.3299 18.4807 90.6588 18.2966L87.019 18.0511C81.3198 17.6727 75.6512 18.9818 70.6249 21.8557L70.2681 22.0704C70.0744 22.1829 69.8705 22.3057 69.6768 22.4284C69.3403 22.6329 69.0039 22.8579 68.6776 23.0829L68.3717 23.2875C67.4338 23.942 66.5876 24.5966 65.8229 25.2716C59.2571 30.917 55.1586 39.2727 54.5673 48.2011L54.3124 52.067C53.6293 62.2636 57.6157 72.2761 64.9665 78.842C69.9316 83.2704 75.9775 85.8477 82.4719 86.2773L86.1116 86.5227C88.9256 86.7068 91.7395 86.4818 94.4718 85.8477L94.6349 85.817C96.6434 85.3466 98.6111 84.6613 100.487 83.7613C110.846 78.842 117.768 68.3488 118.563 56.3727L118.818 52.5068C118.941 50.6352 118.92 48.7534 118.737 46.9022C118.247 41.8193 116.586 36.9 113.945 32.6557C112.987 31.0909 111.896 29.6182 110.713 28.2886L110.346 27.8795C109.408 26.8466 108.368 25.8545 107.277 24.9545" fill="#192347"/>
<path d="M119.766 48.549L111.294 47.9762C110.713 47.9353 110.274 47.4342 110.305 46.8512C110.336 46.2683 110.845 45.8285 111.426 45.8592L119.899 46.4319C120.48 46.4728 120.918 46.974 120.888 47.5569C120.857 48.1399 120.347 48.5796 119.766 48.549Z" fill="#192347"/>
<path d="M119.257 60.2181L110.407 59.6249C109.826 59.584 109.387 59.0829 109.418 58.4999C109.449 57.917 109.958 57.4772 110.539 57.5079L119.389 58.101C119.97 58.142 120.409 58.6431 120.378 59.226C120.347 59.809 119.838 60.2488 119.257 60.2181Z" fill="#192347"/>
<path d="M119.532 47.475L115.821 47.2295C115.821 47.2295 113.466 40.6739 111.845 36.5523C110.234 32.4205 113.037 32.1852 113.037 32.1852L114.077 32.0625C116.983 36.3989 118.941 42.1159 119.522 47.4852L119.532 47.475Z" fill="#31FF7B"/>
<path d="M120.725 48.6204L115.066 48.242L114.832 47.5875C114.811 47.5261 112.466 41.0011 110.876 36.9307C110.142 35.0591 110.111 33.5659 110.784 32.4818C111.539 31.275 112.823 31.1318 112.966 31.1216L114.618 30.9272L114.975 31.4591C117.921 35.8466 119.97 41.6454 120.592 47.3522L120.735 48.6102L120.725 48.6204ZM116.585 46.217L118.319 46.3295C117.625 41.6454 115.892 36.8488 113.557 33.1875L113.16 33.2386C113.16 33.2386 112.752 33.3 112.558 33.6272C112.283 34.0875 112.385 35.0182 112.834 36.1636C114.139 39.4977 115.943 44.4579 116.575 46.217H116.585Z" fill="#192347"/>
<path d="M119.145 60.3614C118.594 62.9592 116.993 66.9683 116.269 68.7171C116.066 69.208 115.525 69.4739 115.015 69.3308L113.374 68.8808C112.803 68.7274 112.467 68.1239 112.64 67.5512L115.015 59.6967C115.158 59.2262 115.607 58.9092 116.096 58.9501L118.176 59.0933C118.818 59.1342 119.277 59.7376 119.145 60.3717V60.3614Z" fill="#31FF7B"/>
<path d="M115.148 70.4249C115.005 70.4249 114.873 70.3942 114.73 70.3533L113.088 69.9033C112.538 69.7499 112.069 69.3919 111.794 68.8806C111.518 68.3692 111.457 67.7863 111.62 67.234L113.996 59.3795C114.281 58.4283 115.178 57.8147 116.157 57.876L118.237 58.0192C118.849 58.0601 119.42 58.367 119.787 58.8579C120.154 59.3488 120.296 59.9726 120.164 60.576C119.613 63.184 118.094 67.0397 117.238 69.1158C116.881 69.9647 116.035 70.476 115.138 70.4147L115.148 70.4249ZM118.104 60.1363L116.025 60.0033L113.649 67.8579L115.291 68.3079C115.953 66.692 117.564 62.6726 118.104 60.1465V60.1363Z" fill="#192347"/>
<path d="M3.21316 53.458L3.57 57.3137C4.75266 70.0364 12.5317 80.458 22.9819 85.0909C24.9802 85.9807 27.0805 86.6557 29.2521 87.0955H29.2623C32.0558 87.6682 34.9716 87.8421 37.9487 87.5659L41.5782 87.2284C48.5213 86.5841 54.6894 83.5875 59.5118 79.0569C66.6995 72.2966 70.8185 62.1103 69.7989 51.1364L69.4421 47.2807C68.5551 37.6978 63.9162 29.4137 57.2179 23.9421C56.2595 23.1444 55.2502 22.4182 54.2103 21.7534H54.2001C53.8534 21.5284 53.4966 21.3034 53.1499 21.1091C52.8237 20.9148 52.4872 20.7307 52.1508 20.5466C47.0429 17.7955 41.1704 16.4762 35.0736 17.0489L31.4441 17.3864C28.6098 17.6523 25.908 18.3069 23.3693 19.2989C21.8502 19.9023 20.3821 20.5978 18.9854 21.4364C17.7007 22.1932 16.4671 23.0319 15.3048 23.983C15.05 24.1875 14.8053 24.3921 14.5504 24.6069C14.4994 24.6478 14.4484 24.6887 14.4076 24.7398C13.2964 25.7114 12.2564 26.7546 11.2981 27.8694C11.1859 28.0125 11.0636 28.1353 10.9514 28.2784C9.74837 29.7 8.66767 31.2444 7.7195 32.8705C5.14008 37.258 3.53941 42.3205 3.15199 47.7C3.01945 49.6023 3.03984 51.525 3.22336 53.4784L3.21316 53.458Z" fill="white"/>
<path d="M41.6802 88.2819L38.0506 88.6194C35.0838 88.8955 32.117 88.7421 29.2011 88.1591L29.0482 88.1285C26.8256 87.6785 24.6438 86.983 22.5537 86.0523C11.3694 81.1126 3.69235 70.1285 2.51989 57.416L2.16305 53.5603C1.97954 51.5762 1.95915 49.5819 2.09169 47.608C2.47911 42.1876 4.11036 36.9001 6.80193 32.3182C7.77049 30.6307 8.90217 29.0353 10.1358 27.5728L10.4723 27.1739C11.4714 26.008 12.5623 24.9239 13.7042 23.9217C13.745 23.8807 13.8265 23.7989 13.9081 23.7376C14.1018 23.5637 14.3669 23.3489 14.632 23.1342C15.7942 22.1932 17.0381 21.3239 18.4348 20.5057C19.8112 19.6876 21.3405 18.941 22.9615 18.2967C25.6429 17.2432 28.4568 16.5785 31.3319 16.3126L34.9615 15.9751C41.0685 15.4023 47.1857 16.6603 52.6402 19.5955L53.0378 19.8205C53.2519 19.9432 53.466 20.066 53.6801 20.1887C53.935 20.3319 54.1899 20.4955 54.4549 20.6592L54.771 20.8535C55.9231 21.6001 56.9426 22.3364 57.8806 23.1239C65.0071 28.9432 69.6052 37.7182 70.482 47.1887L70.8389 51.0444C71.8482 61.8751 67.872 72.6342 60.2153 79.8342C55.0259 84.7228 48.6028 87.6478 41.6598 88.2921L41.6802 88.2819ZM29.3132 86.0217L29.4764 86.0523C32.2291 86.6148 35.043 86.7682 37.8467 86.5023L41.4763 86.1648C47.9503 85.5614 53.935 82.8307 58.788 78.2694C65.9655 71.5194 69.6868 61.4046 68.7488 51.2285L68.392 47.3728C67.5662 38.4648 63.2535 30.2217 56.5552 24.7501C55.7294 24.0648 54.8526 23.4205 53.8534 22.766L53.6291 22.633C53.2927 22.4182 52.9562 22.2035 52.6198 22.0092C52.4159 21.8864 52.2222 21.7739 52.0183 21.6614L51.6308 21.4467C46.5638 18.716 40.8646 17.5501 35.1756 18.0819L31.546 18.4194C28.8748 18.6648 26.2546 19.2887 23.7568 20.2705C22.2173 20.8842 20.8307 21.5489 19.5257 22.3262C18.2207 23.0932 17.0584 23.9012 15.9675 24.791C15.7127 24.9955 15.4782 25.1898 15.2437 25.3944L15.0907 25.5273C14.0202 26.458 13.0109 27.4705 12.0831 28.5444L11.7569 28.933C10.5946 30.3035 9.54448 31.7967 8.6269 33.3819C6.08826 37.6876 4.56915 42.658 4.20212 47.7512C4.06958 49.6023 4.10017 51.4944 4.27349 53.3557L4.63033 57.2114C5.74162 69.1671 12.9395 79.4762 23.4101 84.1194C25.3065 84.9682 27.2946 85.6126 29.3132 86.0217Z" fill="#192347"/>
<path d="M11.655 48.6307L3.20307 49.4182C2.62193 49.4693 2.10197 49.0398 2.05099 48.4568C2.00002 47.8739 2.42822 47.3523 3.00935 47.3012L11.4613 46.5137C12.0424 46.4625 12.5624 46.8921 12.6134 47.475C12.6643 48.058 12.2361 48.5796 11.655 48.6307Z" fill="#192347"/>
<path d="M12.8479 60.2386L4.01874 61.067C3.43761 61.1182 2.91764 60.6886 2.86667 60.1057C2.81569 59.5227 3.24389 59.0011 3.82503 58.95L12.6542 58.1216C13.2353 58.0704 13.7553 58.5 13.8063 59.0829C13.8572 59.6659 13.429 60.1875 12.8479 60.2386Z" fill="#192347"/>
<path d="M3.41718 48.334L7.11809 47.9863C7.11809 47.9863 9.29989 41.3795 10.8088 37.2067C12.3177 33.034 9.5038 32.8704 9.5038 32.8704L8.45367 32.7783C5.66015 37.1863 3.85558 42.9545 3.40698 48.334H3.41718Z" fill="#31FF7B"/>
<path d="M7.9031 48.9784L2.25488 49.5102L2.35684 48.2522C2.83602 42.525 4.73235 36.675 7.56666 32.2159L7.9133 31.6738L9.60572 31.8272C9.71787 31.8272 11.0025 31.9397 11.7875 33.1261C12.4808 34.1897 12.491 35.6829 11.8079 37.575C10.3194 41.6863 8.14779 48.2625 8.1274 48.3341L7.9133 48.9886L7.9031 48.9784ZM4.59981 47.1579L6.33302 46.9943C6.92435 45.2147 8.59638 40.2136 9.81983 36.8386C10.248 35.6625 10.3194 34.7318 10.0237 34.2818C9.83002 33.975 9.45279 33.9238 9.45279 33.9238L9.02459 33.8829C6.79181 37.6159 5.18095 42.4431 4.61001 47.1477L4.59981 47.1579Z" fill="#192347"/>
<path d="M4.14105 61.2103C4.76297 63.7876 6.45539 67.7557 7.23024 69.4842C7.44434 69.9751 7.99489 70.2205 8.50466 70.0671L10.1359 69.566C10.7069 69.3921 11.0229 68.7785 10.8292 68.216L8.24977 60.433C8.09684 59.9626 7.63805 59.666 7.14868 59.7069L5.07902 59.9012C4.43672 59.9626 3.99832 60.5762 4.14105 61.2103Z" fill="#31FF7B"/>
<path d="M8.38216 71.1614C7.49517 71.2432 6.62857 70.7523 6.25134 69.9137C5.34395 67.8682 3.72289 64.0432 3.10098 61.4557C2.95824 60.8523 3.08059 60.2284 3.43742 59.7273C3.79426 59.2262 4.35501 58.9091 4.96673 58.8477L7.03638 58.6534C8.02533 58.5614 8.93271 59.1546 9.23857 60.0955L11.818 67.8784C12.0015 68.4307 11.9505 69.0137 11.6855 69.525C11.4204 70.0364 10.9718 70.4148 10.4212 70.5784L8.78998 71.0796C8.64724 71.1205 8.5147 71.1512 8.37197 71.1614H8.38216ZM5.16044 60.9546C5.76196 63.4705 7.47478 67.4489 8.18845 69.0443L9.81971 68.5432L7.24029 60.7602L5.17063 60.9546H5.16044Z" fill="#192347"/>
<path d="M110.285 47.2603V52.6296C110.285 64.5035 105.809 75.3342 98.4684 83.516C96.5619 84.5898 94.533 85.4591 92.4021 86.0932H92.392C89.6596 86.9216 86.7743 87.3717 83.7871 87.3717H80.1372C73.1635 87.3717 66.7405 84.958 61.5307 80.8978C56.3106 84.958 49.8672 87.3717 42.914 87.3717H39.264C36.2768 87.3717 33.3915 86.9216 30.649 86.0932H30.6388C28.5182 85.4591 26.4893 84.5898 24.5726 83.516C17.2319 75.3342 12.7664 64.5035 12.7664 52.6296V47.2603C12.7664 39.3648 14.7341 31.9398 18.2107 25.4455C19.2608 23.4716 20.4434 21.5898 21.7688 19.8103C23.4715 17.5091 25.3678 15.3819 27.4476 13.4387C29.1605 11.8228 31.016 10.3501 32.9735 9.01029C33.4425 8.68301 33.9013 8.38642 34.3907 8.0796C36.2054 6.93415 38.1222 5.91142 40.1001 5.03188C42.2615 4.07051 44.4942 3.28301 46.7984 2.65915C50.642 1.61597 54.6692 1.05347 58.8493 1.05347H64.1916C73.1737 1.05347 81.5747 3.62051 88.6605 8.0796C89.1294 8.38642 89.578 8.68301 90.0368 8.98983C92.0045 10.3398 93.8703 11.8126 95.5933 13.4387C97.6731 15.3819 99.5797 17.4989 101.272 19.8103C102.587 21.5796 103.77 23.4614 104.82 25.4251C108.307 31.9194 110.275 39.3648 110.275 47.2603H110.285Z" fill="white"/>
<path d="M83.7971 88.435H80.1472C73.4386 88.435 67.0156 86.2975 61.5407 82.2271C56.0556 86.2873 49.6427 88.435 42.924 88.435H39.2741C36.3072 88.435 33.3608 88.0055 30.5061 87.1566L30.3429 87.1157C28.1815 86.4611 26.0711 85.5714 24.0728 84.4464L23.9199 84.3645L23.7975 84.2316C16.0083 75.5486 11.7161 64.3293 11.7161 52.6396V47.2702C11.7161 39.4771 13.643 31.7657 17.2929 24.9543C18.3634 22.9396 19.5869 20.9964 20.9327 19.1861C22.6659 16.8441 24.6234 14.6452 26.744 12.6714C28.4568 11.0657 30.3531 9.54183 32.3922 8.15092C32.8612 7.82365 33.3404 7.51683 33.84 7.19978C35.6853 6.03387 37.653 4.99069 39.6819 4.08046C41.8331 3.1191 44.1474 2.30092 46.5331 1.64637C50.5501 0.552055 54.6996 0.0100098 58.8593 0.0100098H64.2017C73.1022 0.0100098 81.758 2.49524 89.2312 7.19978L89.639 7.46569C89.9755 7.69069 90.3119 7.90546 90.6382 8.13046C92.7078 9.55205 94.6246 11.0759 96.3272 12.6816C98.4784 14.6861 100.436 16.885 102.139 19.1964C103.474 20.9964 104.698 22.9293 105.768 24.9441C109.418 31.735 111.355 39.4566 111.355 47.2805V52.6498C111.355 64.3396 107.063 75.5589 99.2634 84.2418L99.1513 84.3748L98.9984 84.4566C97.0103 85.5816 94.8896 86.4816 92.718 87.1259L92.5549 87.1668C89.7206 88.0157 86.7742 88.4452 83.7971 88.4452V88.435ZM61.5407 79.5577L62.1932 80.0589C67.4438 84.1498 73.6528 86.3077 80.1574 86.3077H83.8073C86.6212 86.3077 89.4147 85.8986 92.1063 85.0805L92.2694 85.0396C94.1862 84.4566 96.0519 83.6589 97.8157 82.677C105.187 74.393 109.245 63.7361 109.245 52.6293V47.26C109.245 39.7941 107.399 32.4202 103.913 25.9361C102.893 24.0236 101.731 22.1725 100.446 20.4543C98.825 18.2452 96.9593 16.1486 94.8896 14.2259C93.2584 12.6918 91.4334 11.2293 89.4555 9.87933C89.1293 9.66455 88.8132 9.44978 88.4768 9.23501L88.0893 8.97933C80.973 4.49978 72.7046 2.12706 64.2017 2.12706H58.8593C54.8831 2.12706 50.9171 2.65887 47.0837 3.69183C44.7999 4.31569 42.5977 5.09296 40.5383 6.01342C38.591 6.88274 36.715 7.88501 34.9614 8.98955C34.4925 9.28615 34.0439 9.57251 33.5851 9.88955C31.6276 11.2293 29.8128 12.6816 28.1815 14.2259C26.1527 16.118 24.2869 18.2146 22.6251 20.4543C21.3405 22.1827 20.1782 24.0339 19.1587 25.9566C15.6719 32.4611 13.8367 39.8248 13.8367 47.2702V52.6396C13.8367 63.7464 17.8944 74.4134 25.2555 82.6873C27.0397 83.6691 28.9054 84.4668 30.8119 85.0498L30.9649 85.0907C33.6666 85.9089 36.4602 86.318 39.2741 86.318H42.924C49.4388 86.318 55.6478 84.16 60.8984 80.0691L61.5509 79.568L61.5407 79.5577Z" fill="#192347"/>
<path d="M106.288 52.0056V56.9453C106.288 80.3658 87.3451 99.3476 63.9774 99.3476H59.0836C38.3973 99.3476 21.1977 84.4874 17.507 64.8408C17.0278 62.284 16.7729 59.6453 16.7729 56.9453V52.0056C16.7729 39.7533 21.9522 28.7078 30.2512 20.976C31.8315 19.5033 33.5341 18.1328 35.3183 16.9158C35.7567 16.6192 36.1849 16.3431 36.6335 16.0669C38.3055 15.0033 40.0591 14.0726 41.8841 13.2647C43.8518 12.3749 45.901 11.6488 48.0217 11.076C51.5493 10.1249 55.2502 9.61353 59.0836 9.61353H63.9774C72.2152 9.61353 79.9433 11.9658 86.4377 16.0669C86.8557 16.3431 87.2941 16.609 87.7121 16.8953C89.5065 18.1226 91.2295 19.4931 92.8098 20.9863C95.6849 23.6863 98.1929 26.7647 100.232 30.1703C104.076 36.5522 106.288 44.0283 106.288 52.026V52.0056Z" fill="#232D60"/>
<path d="M63.9774 100.401H59.0837C38.2444 100.401 20.3108 85.5308 16.4672 65.0353C15.9676 62.366 15.7229 59.6455 15.7229 56.9455V52.016C15.7229 39.9887 20.7594 28.391 29.5376 20.2092C31.1586 18.6853 32.9122 17.2842 34.727 16.0467C35.1756 15.7398 35.6242 15.4535 36.0728 15.1773C37.755 14.1137 39.5698 13.1421 41.4457 12.3035C43.4032 11.4137 45.5137 10.6671 47.7363 10.0637C51.4066 9.07167 55.2298 8.5603 59.0837 8.5603H63.9774C72.1745 8.5603 80.1371 10.8512 86.9985 15.1773L87.4267 15.4535C87.7224 15.6478 88.0181 15.8319 88.3137 16.0364C90.1693 17.3046 91.9229 18.716 93.5337 20.2194C96.521 23.0114 99.08 26.1819 101.15 29.6285C105.207 36.3683 107.348 44.1103 107.348 52.0262V56.9558C107.348 80.9183 87.8957 100.422 63.9774 100.422V100.401ZM59.0837 10.6671C55.4134 10.6671 51.7838 11.1478 48.297 12.0989C46.1866 12.6717 44.1781 13.3876 42.3225 14.2262C40.5282 15.0239 38.8051 15.9444 37.2045 16.9569C36.7661 17.233 36.3481 17.4989 35.9199 17.7853C34.1867 18.9717 32.5248 20.3012 30.9751 21.7535C22.6251 29.5467 17.8333 40.5717 17.8333 52.016V56.9455C17.8333 59.5126 18.078 62.1103 18.547 64.6467C22.2071 84.1398 39.2537 98.2842 59.0837 98.2842H63.9774C86.7233 98.2842 105.228 79.7421 105.228 56.9455V52.016C105.228 44.4887 103.189 37.1251 99.3247 30.7126C97.357 27.4296 94.9203 24.4228 92.0758 21.7535C90.5465 20.3217 88.8745 18.9819 87.1005 17.7648C86.8252 17.5808 86.5499 17.3967 86.2848 17.2228L85.8566 16.9467C79.3418 12.8455 71.7769 10.6671 63.9672 10.6671H59.0735H59.0837Z" fill="#192347"/>
<path d="M106.563 55.6977C106.563 79.0159 87.0292 98.9591 63.7635 98.9591H58.8901C38.3057 98.9591 21.1673 84.1704 17.497 64.6159V60.8522L17.0178 57.4159C17.0178 56.8227 17.028 56.2295 17.0586 55.6466C20.8003 75.1091 38.3669 89.867 58.8799 89.867H63.7533C69.3301 89.867 74.6725 88.7829 79.5764 86.8193C78.404 84.0886 80.2595 80.0488 84.0726 77.3795C87.9978 74.6488 92.5653 74.3522 94.6349 76.6227C101.802 69.1568 106.237 59.1341 106.36 48.0784L106.553 55.6977H106.563Z" fill="#192347"/>
<path d="M32.9834 40.192C34.3179 37.8733 34.1821 35.2886 32.6802 34.4187C31.1783 33.5489 28.879 34.7233 27.5445 37.042C26.21 39.3606 26.3457 41.9454 27.8476 42.8152C29.3496 43.6851 31.6489 42.5106 32.9834 40.192Z" fill="#313E88"/>
<path d="M106.288 52.5681V57.5078C106.288 58.0294 106.278 58.551 106.258 59.0726C105.982 51.6987 103.811 44.7851 100.242 38.8431C98.2032 35.4374 95.6952 32.359 92.8201 29.659C91.2296 28.176 89.5168 26.8056 87.7224 25.5681C87.3146 25.2817 86.8762 25.0158 86.448 24.7397C79.9536 20.6385 72.2255 18.2863 63.9877 18.2863H59.0939C55.2503 18.2863 51.5494 18.7976 48.032 19.7488C47.8485 19.7999 47.6751 19.8408 47.5018 19.9124C48.8986 22.4999 47.512 26.6624 44.0864 29.7203C40.3141 33.0851 35.4713 33.8113 33.2997 31.3465C32.5045 30.4465 32.168 29.2499 32.2598 27.9203C31.5767 28.4828 30.914 29.0556 30.2717 29.659C22.3295 37.0635 17.2421 47.5056 16.824 59.134C16.8037 58.5919 16.7935 58.0499 16.7935 57.5078V52.5681C16.7935 40.3158 21.9727 29.2703 30.2717 21.5385C31.852 20.0658 33.5546 18.6953 35.3388 17.4783C35.7772 17.1817 36.2054 16.9056 36.654 16.6294C38.326 15.5658 40.0796 14.6351 41.9046 13.8272C43.8723 12.9374 45.9215 12.2113 48.0422 11.6385C51.5698 10.6874 55.2707 10.176 59.1041 10.176H63.9979C72.2357 10.176 79.9638 12.5283 86.4582 16.6294C86.8762 16.9056 87.3146 17.1715 87.7326 17.4578C89.527 18.6851 91.25 20.0556 92.8303 21.5488C95.7054 24.2488 98.2134 27.3272 100.253 30.7328C104.096 37.1147 106.309 44.5908 106.309 52.5885L106.288 52.5681Z" fill="#313E88"/>
<path d="M56.7897 132.28H49.4286C48.4602 132.28 47.675 133.067 47.675 134.039V143.305C47.675 144.276 48.4602 145.064 49.4286 145.064H56.7897C57.7582 145.064 58.5433 144.276 58.5433 143.305V134.039C58.5433 133.067 57.7582 132.28 56.7897 132.28Z" fill="white"/>
<path d="M56.7898 146.127H49.4389C47.8892 146.127 46.625 144.859 46.625 143.304V134.049C46.625 132.494 47.8892 131.226 49.4389 131.226H56.7898C58.3394 131.226 59.6037 132.494 59.6037 134.049V143.304C59.6037 144.859 58.3394 146.127 56.7898 146.127ZM49.4389 133.343C49.0515 133.343 48.7456 133.66 48.7456 134.039V143.294C48.7456 143.683 49.0617 143.99 49.4389 143.99H56.7898C57.1772 143.99 57.483 143.673 57.483 143.294V134.039C57.483 133.65 57.167 133.343 56.7898 133.343H49.4389Z" fill="#192347"/>
<g opacity="0.3">
<path d="M58.6454 134.57V143.826C58.6454 144.798 57.8502 145.585 56.8918 145.585H49.541C48.5724 145.585 47.7874 144.798 47.7874 143.826V142.854H54.5163C55.4848 142.854 56.2699 142.067 56.2699 141.095V132.822H56.8918C57.8502 132.822 58.6454 133.609 58.6454 134.581V134.57Z" fill="#192347"/>
</g>
<path d="M53.1091 139.95C54.4718 139.95 55.5764 138.842 55.5764 137.475C55.5764 136.108 54.4718 135 53.1091 135C51.7465 135 50.6418 136.108 50.6418 137.475C50.6418 138.842 51.7465 139.95 53.1091 139.95Z" fill="#31FF7B"/>
<path d="M47.2978 203.165C48.6605 203.165 49.7651 202.057 49.7651 200.69C49.7651 199.323 48.6605 198.215 47.2978 198.215C45.9352 198.215 44.8306 199.323 44.8306 200.69C44.8306 202.057 45.9352 203.165 47.2978 203.165Z" fill="#31FF7B"/>
<path d="M76.5278 203.165C77.8905 203.165 78.9951 202.057 78.9951 200.69C78.9951 199.323 77.8905 198.215 76.5278 198.215C75.1652 198.215 74.0605 199.323 74.0605 200.69C74.0605 202.057 75.1652 203.165 76.5278 203.165Z" fill="#31FF7B"/>
<path d="M77.8839 120.232H68.1983C67.8267 120.232 67.5254 120.534 67.5254 120.907V126.941C67.5254 127.314 67.8267 127.616 68.1983 127.616H77.8839C78.2555 127.616 78.5567 127.314 78.5567 126.941V120.907C78.5567 120.534 78.2555 120.232 77.8839 120.232Z" fill="white"/>
<path d="M77.8838 127.871H68.188C67.6783 127.871 67.2603 127.452 67.2603 126.941V120.896C67.2603 120.385 67.6783 119.966 68.188 119.966H77.8838C78.3936 119.966 78.8218 120.385 78.8218 120.896V126.941C78.8218 127.452 78.4038 127.871 77.8838 127.871ZM68.188 120.487C67.9637 120.487 67.7802 120.671 67.7802 120.896V126.941C67.7802 127.166 67.9637 127.35 68.188 127.35H77.8838C78.1081 127.35 78.2916 127.166 78.2916 126.941V120.896C78.2916 120.671 78.1081 120.487 77.8838 120.487H68.188Z" fill="#192347"/>
<path d="M75.4686 121.184L75.2227 121.349L76.2471 122.889L76.493 122.724L75.4686 121.184Z" fill="#1D1D1B"/>
<path d="M76.2426 122.901V122.881L75.2026 121.326L75.4779 121.142V121.163L76.5178 122.717L76.2426 122.901ZM75.2536 121.347L76.2528 122.85L76.4669 122.707L75.4677 121.203L75.2536 121.347Z" fill="#1D1D1B"/>
<path d="M76.4139 121.766L76.168 121.93L76.6321 122.628L76.878 122.463L76.4139 121.766Z" fill="#1D1D1B"/>
<path d="M76.6298 122.646L76.1506 121.919L76.4259 121.735L76.9051 122.461L76.6298 122.646ZM76.2016 121.93L76.64 122.594L76.8541 122.451L76.4157 121.786L76.2016 121.93Z" fill="#1D1D1B"/>
<path d="M75.8446 120.922L75.5986 121.086L76.0627 121.784L76.3087 121.619L75.8446 120.922Z" fill="#1D1D1B"/>
<path d="M76.069 121.807L75.5898 121.081L75.8651 120.896L76.3443 121.623L76.069 121.807ZM75.6408 121.091L76.0792 121.756L76.2933 121.612L75.8549 120.948L75.6408 121.091Z" fill="#1D1D1B"/>
<path d="M75.6529 122.279L75.407 122.444L75.8711 123.141L76.117 122.977L75.6529 122.279Z" fill="#1D1D1B"/>
<path d="M75.8652 123.167L75.386 122.441L75.6613 122.257L76.1404 122.983L75.8652 123.167ZM75.437 122.451L75.8754 123.116L76.0895 122.973L75.6511 122.308L75.437 122.451Z" fill="#1D1D1B"/>
<path d="M75.0894 121.434L74.8435 121.598L75.3076 122.296L75.5535 122.131L75.0894 121.434Z" fill="#1D1D1B"/>
<path d="M75.3044 122.318L74.8252 121.592L75.1005 121.408L75.5796 122.134L75.3044 122.318ZM74.8762 121.602L75.3146 122.267L75.5287 122.124L75.0903 121.459L74.8762 121.602Z" fill="#1D1D1B"/>
<path d="M70.2033 124.712L69.9573 124.876L70.9812 126.417L71.2271 126.252L70.2033 124.712Z" fill="#1D1D1B"/>
<path d="M70.9918 126.43V126.409L69.9519 124.855L70.2272 124.67V124.691L71.2671 126.245L70.9918 126.43ZM70.0029 124.875L71.002 126.378L71.2161 126.235L70.217 124.732L70.0029 124.875Z" fill="#1D1D1B"/>
<path d="M69.4517 125.209L69.2058 125.373L70.2305 126.913L70.4764 126.748L69.4517 125.209Z" fill="#1D1D1B"/>
<path d="M70.2169 126.941V126.921L69.177 125.366L69.4523 125.182V125.202L70.4922 126.757L70.2169 126.941ZM69.228 125.386L70.2271 126.89L70.4412 126.747L69.4421 125.243L69.228 125.386Z" fill="#1D1D1B"/>
<path d="M70.9927 121.423L69.9685 122.962L70.2229 123.133L71.2471 121.593L70.9927 121.423Z" fill="#1D1D1B"/>
<path d="M70.2271 123.167L69.9417 122.983V122.963L70.9816 121.408H71.002L71.267 121.592V121.613L70.2271 123.167ZM69.9926 122.973L70.2169 123.116L71.2161 121.613L70.9918 121.469L69.9926 122.973Z" fill="#1D1D1B"/>
<path d="M70.2217 120.9L69.1975 122.44L69.4435 122.605L70.4676 121.065L70.2217 120.9Z" fill="#1D1D1B"/>
<path d="M69.4525 122.646H69.4321L69.167 122.461V122.441L70.2069 120.886H70.2273L70.4924 121.071V121.091L69.4525 122.646ZM69.2282 122.451L69.4423 122.594L70.4414 121.091L70.2273 120.948L69.2282 122.451Z" fill="#1D1D1B"/>
<path d="M70.6081 121.16L69.5842 122.7L69.8302 122.865L70.8541 121.325L70.6081 121.16Z" fill="#1D1D1B"/>
<path d="M69.8397 122.901H69.8193L69.5542 122.717V122.697L70.5941 121.142H70.6145L70.8796 121.326V121.347L69.8397 122.901ZM69.6154 122.707L69.8295 122.85L70.8286 121.347L70.6145 121.203L69.6154 122.707Z" fill="#1D1D1B"/>
<path d="M69.8379 124.946L69.592 125.111L70.0563 125.808L70.3022 125.643L69.8379 124.946Z" fill="#1D1D1B"/>
<path d="M70.0436 125.847L69.5645 125.12L69.8397 124.936L70.3189 125.662L70.0436 125.847ZM69.6154 125.131L70.0538 125.795L70.2679 125.652L69.8295 124.987L69.6154 125.131Z" fill="#1D1D1B"/>
<path d="M70.39 125.783L70.144 125.948L70.6081 126.645L70.8541 126.48L70.39 125.783Z" fill="#1D1D1B"/>
<path d="M70.6044 126.685L70.1252 125.959L70.4005 125.775L70.8797 126.501L70.6044 126.685ZM70.1762 125.969L70.6146 126.634L70.8287 126.491L70.3903 125.826L70.1762 125.969Z" fill="#1D1D1B"/>
<path d="M76.6361 125.2L76.1721 125.897L76.4266 126.067L76.8905 125.37L76.6361 125.2Z" fill="#1D1D1B"/>
<path d="M76.4261 126.102L76.1406 125.918V125.898L76.63 125.182H76.6504L76.9155 125.366V125.386L76.4261 126.102ZM76.1916 125.908L76.4159 126.051L76.8543 125.386L76.63 125.243L76.1916 125.908Z" fill="#1D1D1B"/>
<path d="M76.0712 126.041L75.6062 126.738L75.8604 126.908L76.3254 126.211L76.0712 126.041Z" fill="#1D1D1B"/>
<path d="M75.8653 126.941L75.5798 126.757L76.059 126.031H76.0794L76.3445 126.215V126.235L75.8653 126.951V126.941ZM75.6308 126.747L75.8551 126.89L76.2935 126.225L76.0692 126.082L75.6308 126.747Z" fill="#1D1D1B"/>
<path d="M75.3053 125.536L74.8413 126.234L75.0873 126.398L75.5512 125.701L75.3053 125.536Z" fill="#1D1D1B"/>
<path d="M75.1007 126.419H75.0803L74.8152 126.235V126.215L75.2944 125.509H75.3148L75.5798 125.693V125.714L75.1007 126.419ZM74.8764 126.225L75.0905 126.368L75.5289 125.703L75.3148 125.56L74.8764 126.225Z" fill="#1D1D1B"/>
<path d="M75.8636 124.714L75.3997 125.411L75.6456 125.576L76.1096 124.878L75.8636 124.714Z" fill="#1D1D1B"/>
<path d="M75.6512 125.581H75.6308L75.3657 125.397L75.8551 124.67H75.8755L76.1406 124.855L75.6512 125.581ZM75.4269 125.386L75.641 125.529L76.0794 124.865L75.8653 124.722L75.4269 125.386Z" fill="#1D1D1B"/>
<path d="M75.6875 125.798L75.2236 126.496L75.4696 126.66L75.9335 125.962L75.6875 125.798Z" fill="#1D1D1B"/>
<path d="M75.4779 126.675L75.2026 126.491V126.47L75.6818 125.765H75.7022L75.9673 125.949V125.969L75.4881 126.675H75.4779ZM75.2536 126.481L75.4677 126.624L75.9061 125.959L75.692 125.816L75.2536 126.481Z" fill="#1D1D1B"/>
<path d="M76.2488 124.967L75.7847 125.664L76.0306 125.829L76.4947 125.131L76.2488 124.967Z" fill="#1D1D1B"/>
<path d="M76.0386 125.836H76.0183L75.7532 125.652V125.632L76.2426 124.916H76.2629L76.528 125.1V125.121L76.0386 125.836ZM75.8144 125.642L76.0285 125.785L76.4669 125.121L76.2528 124.977L75.8144 125.642Z" fill="#1D1D1B"/>
<path d="M71.5219 123.893C71.5219 123.893 71.7055 124.19 72.0623 124.272C72.0623 124.272 72.2764 124.343 72.5415 124.272C72.5415 124.272 72.7658 124.22 72.9391 124.036C72.9391 124.036 72.9595 124.016 73.0308 123.914C73.0308 123.914 73.092 123.822 73.1532 123.77C73.1532 123.77 73.3061 123.617 73.51 123.556C73.51 123.556 73.7037 123.484 73.9382 123.525C73.9382 123.525 74.1727 123.556 74.3664 123.719C74.3664 123.719 74.5602 123.873 74.6519 124.118C74.6519 124.118 74.7335 124.333 74.7029 124.548C74.7029 124.548 74.6927 124.732 74.5907 124.885C74.5907 124.885 74.5703 124.926 74.55 124.947C74.7539 124.65 74.8762 124.292 74.8762 123.903C74.8762 122.891 74.0504 122.062 73.041 122.062C72.4089 122.062 71.8482 122.38 71.5219 122.87C71.4812 122.932 71.3588 123.136 71.369 123.402C71.369 123.402 71.369 123.648 71.5219 123.883V123.893Z" fill="#E20613"/>
<path d="M74.5399 124.977C74.5399 124.977 74.5399 124.967 74.5501 124.957C74.5705 124.926 74.5909 124.895 74.5909 124.895C74.6929 124.732 74.7031 124.558 74.7031 124.558C74.7438 124.343 74.6521 124.128 74.6521 124.128C74.5705 123.883 74.3666 123.73 74.3666 123.73C74.1729 123.566 73.9384 123.535 73.9384 123.535C73.7039 123.494 73.5102 123.566 73.5102 123.566C73.3063 123.627 73.1534 123.781 73.1534 123.781C73.0922 123.832 73.031 123.924 73.031 123.924C72.9597 124.026 72.9393 124.047 72.9393 124.047C72.7659 124.231 72.5416 124.282 72.5416 124.282C72.2766 124.364 72.0625 124.282 72.0625 124.282C71.6954 124.2 71.5221 123.903 71.5221 123.903C71.3692 123.668 71.3692 123.423 71.3692 123.423C71.3692 123.157 71.4813 122.942 71.5221 122.891C71.3182 123.187 71.2061 123.545 71.2061 123.924C71.2061 124.936 72.0319 125.765 73.0412 125.765C73.6529 125.765 74.2035 125.458 74.5297 124.998L74.5399 124.977Z" fill="#312782"/>
<path d="M83.0325 152.775H80.9119C80.9119 144.154 89.894 141.719 89.9857 141.689L90.5159 143.744C90.21 143.826 83.0223 145.81 83.0223 152.775H83.0325Z" fill="#192347"/>
<path d="M41.7006 152.775H39.58C39.58 145.81 32.3923 143.826 32.0864 143.744L32.6166 141.689C32.7083 141.709 41.6904 144.154 41.6904 152.775H41.7006Z" fill="#192347"/>
<path d="M59.1856 197.887C46.5433 191.71 35.0634 197.806 34.9512 197.867L33.9419 196.006C34.4517 195.729 46.5127 189.327 60.1133 195.985L59.1856 197.887Z" fill="#192347"/>
<path d="M87.7734 197.887C75.1312 191.71 63.6513 197.806 63.5391 197.867L62.5298 196.006C63.0396 195.729 75.1006 189.327 88.7012 195.985L87.7734 197.887Z" fill="#192347"/>
<path d="M88.3546 125.376C88.008 125.376 87.6715 125.202 87.4676 124.895C87.1516 124.405 87.2841 123.75 87.7735 123.423C91.0054 121.295 98.0402 119.281 98.3359 119.199C98.8966 119.035 99.4777 119.362 99.6409 119.935C99.804 120.498 99.4777 121.081 98.9068 121.244C98.8354 121.265 91.8924 123.259 88.9256 125.202C88.7421 125.325 88.5483 125.376 88.3444 125.376H88.3546Z" fill="#192347"/>
<path d="M98.1624 137.516C97.6221 137.516 97.1633 137.107 97.1123 136.565C96.5516 131.042 92.7283 122.38 92.6875 122.298C92.453 121.766 92.6875 121.132 93.2177 120.897C93.758 120.651 94.38 120.897 94.6144 121.428C94.7776 121.797 98.611 130.479 99.2125 136.34C99.2737 136.923 98.8455 137.444 98.2644 137.506C98.2236 137.506 98.193 137.506 98.1522 137.506L98.1624 137.516Z" fill="#192347"/>
<path d="M34.8697 125.376C34.6658 125.376 34.4721 125.325 34.2886 125.202C31.332 123.259 24.3787 121.265 24.3074 121.244C23.7466 121.081 23.4204 120.498 23.5733 119.935C23.7364 119.373 24.3176 119.046 24.8783 119.199C25.174 119.281 32.2088 121.296 35.4407 123.423C35.9301 123.74 36.0626 124.405 35.7465 124.896C35.5426 125.202 35.2062 125.376 34.8596 125.376H34.8697Z" fill="#192347"/>
<path d="M25.0617 137.516C25.0617 137.516 24.9904 137.516 24.9496 137.516C24.3685 137.455 23.9403 136.933 24.0014 136.35C24.5928 130.48 28.4262 121.797 28.5893 121.439C28.8238 120.907 29.4457 120.661 29.9861 120.907C30.5162 121.142 30.7609 121.776 30.5162 122.308C30.4755 122.39 26.6624 131.052 26.1017 136.575C26.0507 137.117 25.5817 137.526 25.0515 137.526L25.0617 137.516Z" fill="#192347"/>
<path d="M64.2119 57.3546C64.2119 58.2648 62.6113 59.0012 60.6436 59.0012C58.6759 59.0012 57.0752 58.2648 57.0752 57.3546C57.0752 56.4444 58.6759 55.708 60.6436 55.708C62.6113 55.708 64.2119 56.4444 64.2119 57.3546Z" fill="#192347"/>
<path d="M43.4951 49.9399C45.0491 49.9399 46.309 48.6761 46.309 47.1172C46.309 45.5582 45.0491 44.2944 43.4951 44.2944C41.941 44.2944 40.6812 45.5582 40.6812 47.1172C40.6812 48.6761 41.941 49.9399 43.4951 49.9399Z" fill="#192347"/>
<path d="M79.5151 49.9399C81.0692 49.9399 82.329 48.6761 82.329 47.1172C82.329 45.5582 81.0692 44.2944 79.5151 44.2944C77.961 44.2944 76.7012 45.5582 76.7012 47.1172C76.7012 48.6761 77.961 49.9399 79.5151 49.9399Z" fill="#192347"/>
<path d="M46.9819 41.1853C43.0567 38.6387 38.0508 38.158 33.4833 37.6773C31.6074 37.483 30.751 36.1228 30.9447 34.5989C31.1486 33.0751 32.0968 31.9501 34.1256 32.1239C39.05 32.5535 44.8613 33.3512 49.1332 36.0512C50.8868 37.166 51.2334 38.5364 50.6217 40.0092C49.9998 41.4819 48.5928 42.2387 46.9819 41.1853Z" fill="#192347"/>
<path d="M75.4677 40.8681C79.5254 38.526 84.5518 38.3215 89.1295 38.0862C91.0156 37.984 91.9434 36.6851 91.821 35.151C91.6987 33.6169 90.8117 32.4408 88.7726 32.5124C83.8381 32.676 77.9859 33.1669 73.5714 35.6317C71.7566 36.6442 71.3386 38.0044 71.8789 39.5078C72.4193 41.0112 73.7855 41.8397 75.4575 40.8783L75.4677 40.8681Z" fill="#192347"/>
<path d="M52.2224 78.3818C52.5282 78.3818 52.8341 78.4637 53.1094 78.6477C60.3277 83.3012 70.0744 79.0977 70.1662 79.0466C70.992 78.6784 71.9707 79.0466 72.3378 79.8852C72.7048 80.7137 72.3378 81.6955 71.5018 82.0637C71.043 82.2682 60.0626 87.0341 51.3354 81.4193C50.5707 80.9284 50.3464 79.9057 50.8358 79.1387C51.1519 78.6477 51.682 78.3818 52.2224 78.3818Z" fill="#192347"/>
<g opacity="0.3">
<path d="M92.6671 160.578C92.6671 160.578 81.3503 166.275 78.2407 166.643C78.2407 166.643 77.7717 170.99 71.7361 171.46H50.6725C44.6267 170.99 44.1679 166.643 44.1679 166.643C41.0583 166.285 29.7415 160.578 29.7415 160.578L30.4755 156.753C43.6683 163.268 59.7871 163.882 61.1635 163.933H61.2552C62.6316 163.892 78.7505 163.278 91.9432 156.753L92.6773 160.578H92.6671Z" fill="#192347"/>
</g>
<path d="M60.664 165.252C49.2962 165.252 38.9479 162.481 29.9148 156.999L29.2827 156.62L31.179 146.516L33.8502 148.387C39.9674 152.08 62.0098 162.849 90.8524 147.682L92.0962 147.027L94.0537 156.59L93.3502 156.958C82.4616 162.685 72.3784 165.242 60.664 165.242V165.252ZM31.6378 155.557C40.1815 160.578 49.9487 163.125 60.664 163.125C68.1677 163.125 78.4446 162.245 91.6578 155.444L90.5873 150.198C61.3267 164.945 38.9479 153.951 32.7287 150.177L32.6574 150.126L31.6378 155.547V155.557Z" fill="#192347"/>
<path d="M71.8585 151.374H50.5502C48.5739 151.374 46.9717 152.981 46.9717 154.964V164.956C46.9717 166.938 48.5739 168.545 50.5502 168.545H71.8585C73.8349 168.545 75.4371 166.938 75.4371 164.956V154.964C75.4371 152.981 73.8349 151.374 71.8585 151.374Z" fill="white"/>
<path d="M71.8585 169.609H50.5401C47.981 169.609 45.9114 167.523 45.9114 164.966V154.964C45.9114 152.397 47.9912 150.321 50.5401 150.321H71.8585C74.4175 150.321 76.4872 152.407 76.4872 154.964V164.966C76.4872 167.533 74.4073 169.609 71.8585 169.609ZM50.5401 152.427C49.1535 152.427 48.0218 153.563 48.0218 154.954V164.956C48.0218 166.347 49.1535 167.482 50.5401 167.482H71.8585C73.2451 167.482 74.3768 166.347 74.3768 164.956V154.954C74.3768 153.563 73.2451 152.427 71.8585 152.427H50.5401Z" fill="#192347"/>
<g opacity="0.3">
<path d="M74.8559 155.035V164.639C74.8559 166.531 73.3266 168.085 71.4201 168.085H50.9682C49.5205 168.085 48.2767 167.175 47.7771 165.907C48.1747 166.07 48.6029 166.162 49.0413 166.162H69.5034C71.3997 166.162 72.9392 164.628 72.9392 162.726V153.123C72.9392 152.673 72.8474 152.243 72.6843 151.854C73.9485 152.345 74.8457 153.583 74.8457 155.045L74.8559 155.035Z" fill="#192347"/>
</g>
<path d="M61.9385 157.285H51.4883C50.9072 157.285 50.428 156.815 50.428 156.222C50.428 155.628 50.897 155.158 51.4883 155.158H61.9385C62.5197 155.158 62.9988 155.628 62.9988 156.222C62.9988 156.815 62.5298 157.285 61.9385 157.285Z" fill="#192347"/>
<path d="M61.9385 162.675H51.4883C50.9072 162.675 50.428 162.205 50.428 161.611C50.428 161.018 50.897 160.548 51.4883 160.548H61.9385C62.5197 160.548 62.9988 161.018 62.9988 161.611C62.9988 162.205 62.5298 162.675 61.9385 162.675Z" fill="#192347"/>
<g opacity="0.3">
<path d="M94.3697 154.186C96.7146 161.765 98.2133 163.156 100.895 162.624C105.727 161.673 108.562 157.766 105.727 142.497C106.92 146.905 107.848 151.139 108.643 156.375C109.316 161.56 109.398 162.88 109.234 165.917C109.041 169.64 107.889 173.557 102.771 174.549C99.9669 175.091 97.153 173.005 95.6747 169.65C95.43 169.087 95.2771 168.484 95.2261 167.86C95.012 165.119 94.176 155.577 92.3408 147.15L94.3595 154.186H94.3697Z" fill="#192347"/>
</g>
<g opacity="0.3">
<path d="M28.7016 154.186C26.3566 161.765 24.8579 163.156 22.1765 162.624C17.344 161.673 14.5097 157.766 17.344 142.497C16.1511 146.905 15.2233 151.139 14.4281 156.375C13.7552 161.56 13.6736 162.88 13.8368 165.917C14.0305 169.64 15.1825 173.557 20.3006 174.549C23.1043 175.091 25.9182 173.005 27.3966 169.65C27.6412 169.087 27.7942 168.484 27.8452 167.86C28.0593 165.119 28.8953 155.577 30.7304 147.15L28.7118 154.186H28.7016Z" fill="#192347"/>
</g>
<g opacity="0.3">
<path d="M89.8023 218.107C89.2823 221.41 86.4378 223.936 83.0122 223.936H69.014C69.014 223.936 63.2129 224.192 64.6402 211.367V211.255L64.6504 211.234C64.6198 208.943 64.1202 176.748 63.3148 176.165C63.1517 176.063 62.9274 175.971 62.6317 175.909L62.0608 175.296C62.0608 175.296 62.2239 176.38 69.6767 174.805C76.6197 173.332 74.1525 178.527 74.1525 178.527C74.1525 178.527 72.0012 185.328 71.3284 204.74C70.8288 219.027 83.2263 219.078 89.8125 218.107H89.8023Z" fill="#192347"/>
</g>
<g opacity="0.3">
<path d="M33.1874 218.107C33.7074 221.41 36.5519 223.936 39.9775 223.936H53.9757C53.9757 223.936 59.7769 224.192 58.3495 211.367V211.255L58.3393 211.234C58.3699 208.943 58.8695 176.748 59.6749 176.165C59.8381 176.063 60.0624 175.971 60.358 175.909L60.929 175.296C60.929 175.296 60.7658 176.38 53.313 174.805C46.37 173.332 48.8373 178.527 48.8373 178.527C48.8373 178.527 50.9885 185.328 51.6614 204.74C52.161 219.027 39.7634 219.078 33.1772 218.107H33.1874Z" fill="#192347"/>
</g>
<path d="M60.5518 176.799C54.1491 176.799 50.6419 175.316 50.4278 175.224C49.8875 174.989 49.6428 174.365 49.8773 173.833C50.1118 173.291 50.7337 173.056 51.2639 173.281C51.3556 173.322 58.839 176.41 71.9706 173.23C72.5415 173.086 73.1125 173.444 73.245 174.007C73.3775 174.58 73.0309 175.152 72.4702 175.285C67.7905 176.42 63.8041 176.799 60.5518 176.799Z" fill="#192347"/>
</g>
<defs>
<clipPath id="clip0_775_11351">
<rect width="119" height="225" fill="white" transform="translate(2)"/>
</clipPath>
</defs>
</svg>
