<svg width="119" height="225" viewBox="0 0 119 225" fill="none" xmlns="http://www.w3.org/2000/svg">
<g clip-path="url(#clip0_775_11621)">
<path d="M59.7747 117.733H0.762939V100.578C0.762939 55.3541 14.9819 27.7737 20.3318 18.9977C20.6675 18.4479 20.9726 17.9593 21.2269 17.552C21.9185 16.4728 22.3253 15.9332 22.3253 15.9332C28.672 7.30994 38.9548 0.509033 59.4594 0.509033V4.35745L59.5103 19.0079L59.7747 117.743V117.733Z" fill="#D3D3D3"/>
<path d="M118.186 100.568V117.723H59.1746L59.4288 18.9875H98.6175C103.967 27.7636 118.186 55.3541 118.186 100.568Z" fill="#A8A8A8"/>
<path d="M53.9873 107.796C50.3461 107.959 47.6406 108.163 47.6406 108.163C50.2546 107.908 52.3294 107.817 53.9873 107.796Z" fill="#FDE2D2"/>
<path d="M66.4975 87.6074H52.421C53.9975 105.424 47.6406 108.926 47.6406 108.926C47.6406 108.926 51.0174 113.549 59.2355 113.549H59.6932C67.9011 113.549 71.2881 108.926 71.2881 108.926C71.2881 108.926 64.9312 105.424 66.5077 87.6074H66.4975Z" fill="#FDE2D2"/>
<path d="M66.4975 87.6074H52.421C53.9975 105.424 47.6406 108.926 47.6406 108.926C47.6406 108.926 47.661 108.957 47.7017 109.008C54.6281 108.285 61.4934 105.892 67.1993 101.708C66.3857 98.5011 65.9381 93.9807 66.4975 87.6176V87.6074Z" fill="#EDCCC0"/>
<path d="M109.185 50.9661V56.3315C109.185 81.8247 88.2837 102.482 62.5003 102.482H57.0894C31.2959 102.482 10.4048 81.8247 10.4048 56.3315V50.9661C10.4048 37.629 16.1209 25.6053 25.2849 17.1856C27.0241 15.577 28.9057 14.1007 30.8789 12.767C31.3468 12.4412 31.8248 12.146 32.313 11.8406C34.1539 10.6901 36.0966 9.67201 38.1003 8.79644C40.287 7.82925 42.545 7.04531 44.8843 6.41409C48.7696 5.37563 52.8583 4.81567 57.0894 4.81567H62.5003C71.5932 4.81567 80.1062 7.38128 87.2869 11.8406C87.7548 12.146 88.2227 12.4311 88.6804 12.7467C90.6637 14.0906 92.5555 15.5668 94.3049 17.1856C103.459 25.6053 109.185 37.629 109.185 50.9661Z" fill="#F7DBCF"/>
<path d="M42.9417 51.8723C44.4415 51.8723 45.6574 50.6735 45.6574 49.1947C45.6574 47.7159 44.4415 46.5171 42.9417 46.5171C41.4419 46.5171 40.2261 47.7159 40.2261 49.1947C40.2261 50.6735 41.4419 51.8723 42.9417 51.8723Z" fill="#505050"/>
<path d="M77.6551 51.8723C79.1549 51.8723 80.3707 50.6735 80.3707 49.1947C80.3707 47.7159 79.1549 46.5171 77.6551 46.5171C76.1553 46.5171 74.9395 47.7159 74.9395 49.1947C74.9395 50.6735 76.1553 51.8723 77.6551 51.8723Z" fill="#505050"/>
<path d="M62.897 58.9275C62.897 59.7929 61.3612 60.4954 59.4593 60.4954C57.5573 60.4954 56.0215 59.7929 56.0215 58.9275C56.0215 58.0621 57.5573 57.3596 59.4593 57.3596C61.3612 57.3596 62.897 58.0621 62.897 58.9275Z" fill="#E9B7A8"/>
<path d="M46.2982 43.5644C42.5146 41.1414 37.6936 40.6832 33.2896 40.2353C31.4792 40.052 30.6553 38.759 30.8486 37.3133C31.0418 35.8574 31.9572 34.7884 33.91 34.9615C38.6497 35.3687 44.2539 36.1221 48.3731 38.6877C50.0615 39.7466 50.3971 41.0497 49.8072 42.4445C49.2071 43.8393 47.8544 44.5622 46.2982 43.5644Z" fill="#505050"/>
<path d="M73.7598 43.2592C77.6654 41.0397 82.5068 40.8361 86.9311 40.6121C88.7517 40.5205 89.6366 39.2784 89.5247 37.8225C89.4128 36.3666 88.5483 35.2467 86.5955 35.3078C81.8355 35.4605 76.2008 35.9288 71.9493 38.2807C70.1999 39.2478 69.8033 40.5408 70.322 41.9662C70.8407 43.3915 72.1629 44.1856 73.7699 43.2693L73.7598 43.2592Z" fill="#505050"/>
<path d="M88.6804 12.7466C84.3272 14.3654 72.773 14.0192 59.4389 14.0192C46.1048 14.0192 35.0897 14.3756 30.8789 12.767C32.9945 11.3416 35.2321 10.0995 37.5816 9.04071C37.7545 8.94909 37.9375 8.87782 38.1104 8.79637C40.2972 7.82918 42.5551 7.03506 44.8945 6.40384C46.9693 5.85406 49.1052 5.43664 51.3022 5.16176C53.1939 4.92759 55.1264 4.80542 57.0894 4.80542H62.5004C72.1933 4.80542 81.2251 7.72737 88.6905 12.7364L88.6804 12.7466Z" fill="#4E4A4B"/>
<path d="M51.353 78.9128C51.6479 78.9128 51.9429 78.9943 52.2073 79.1572C59.1643 83.5757 68.552 79.5848 68.6436 79.5441C69.4369 79.1979 70.3828 79.5441 70.7388 80.3484C71.0948 81.1425 70.7388 82.0689 69.9353 82.4151C69.4878 82.6085 58.91 87.1391 50.4986 81.8042C49.7561 81.3359 49.5426 80.3687 50.0206 79.6357C50.3257 79.1674 50.8343 78.9128 51.353 78.9128Z" fill="#E9B7A8"/>
<path d="M108.951 47.0667C107.71 60.1492 100.936 71.6334 90.969 79.2386C90.969 79.2386 85.5885 82.8732 83.9714 83.6571C77.5331 86.966 70.2304 88.8291 62.4802 88.8291H57.0692C49.7258 88.8291 42.7892 87.1594 36.6155 84.1662C34.5813 83.2397 29.3941 79.8495 29.3941 79.8495C18.9892 72.2544 11.8899 60.5056 10.6084 47.0667C10.466 48.5225 10.3948 49.9886 10.3948 51.4852V56.8404C10.3948 82.3336 31.2859 103.001 57.0692 103.001H62.4802C88.2635 103.001 109.165 82.3336 109.165 56.8404V51.4852C109.165 49.9886 109.094 48.5225 108.951 47.0667Z" fill="#4E4A4B"/>
<path d="M98.6276 18.9977C85.263 22.4491 72.1933 22.4491 59.439 18.9977L59.4796 4.34727V0.509033C80.0046 0.509033 90.2874 7.32012 96.6341 15.9434C96.6341 15.9434 97.3969 16.9615 98.6276 18.9977Z" fill="#D8D8D8"/>
<path d="M59.4696 4.34727L59.4289 18.9977C46.288 17.0837 33.137 17.0022 20.3318 18.9977C21.5625 16.9615 22.3253 15.9434 22.3253 15.9434C28.672 7.30994 38.9548 0.509033 59.4594 0.509033V4.35745L59.4696 4.34727Z" fill="#F1F1F1"/>
<path d="M30.8689 17.552L0.762939 117.733V100.578C0.762939 55.354 14.9819 27.7737 20.3318 18.9977C20.6675 18.4479 20.9726 17.9592 21.2269 17.552H30.8689Z" fill="#F1F1F1"/>
<path d="M88.0803 17.552L118.186 117.733V100.578C118.186 55.3642 103.978 27.7737 98.6174 18.9977C98.2818 18.4479 97.9767 17.9592 97.7224 17.552H88.0803Z" fill="#D8D8D8"/>
<path d="M103.855 23.8338C103.418 23.8338 102.981 23.7524 102.543 23.5895C58.7269 6.46504 16.9956 23.3859 16.5786 23.5589C14.758 24.3123 12.6729 23.4673 11.9101 21.6754C11.1473 19.8836 12.0016 17.8067 13.8121 17.0533C15.6225 16.2999 58.5642 -1.19107 105.167 17.0227C106.998 17.7354 107.903 19.792 107.171 21.6042C106.622 22.9888 105.269 23.844 103.855 23.844V23.8338Z" fill="#F7D959"/>
<path d="M103.855 29.922C103.418 29.922 102.981 29.8405 102.543 29.6776C58.7269 12.5532 16.9956 29.474 16.5786 29.6471C14.758 30.4005 12.6729 29.5554 11.9101 27.7636C11.1473 25.9717 12.0016 23.8948 13.8121 23.1414C15.6225 22.388 58.5642 4.89707 105.167 23.1109C106.998 23.8235 107.903 25.8801 107.171 27.6923C106.622 29.0769 105.269 29.9321 103.855 29.9321V29.922Z" fill="#E5B900"/>
<path d="M119 118.792H0V101.046C0 68.1923 7.42479 44.552 13.7613 30.3597C12.6323 30.0034 11.7068 29.1889 11.2491 28.0792C10.5574 26.4502 11.0355 24.5769 12.3577 23.457C11.8695 23.0498 11.4932 22.5407 11.2491 21.9604C10.3744 19.9038 11.3508 17.5215 13.4256 16.6561C13.8325 16.483 17.5856 14.9457 23.739 13.2455C31.5909 4.21493 42.9519 0 59.4797 0V1.00792C43.196 1.00792 32.0486 5.1414 24.4001 14.0192L24.2984 14.1414L24.1458 14.1821C17.9619 15.8824 14.219 17.4197 13.8121 17.5928C12.256 18.2443 11.5135 20.026 12.1746 21.5735C12.4289 22.1844 12.8866 22.6833 13.4765 23.0192L14.2495 23.457L13.4765 23.8948C12.1339 24.6584 11.5745 26.2975 12.1746 27.6923C12.5916 28.6697 13.4765 29.3518 14.5444 29.5147L15.2056 29.6165L14.9309 30.2172C8.58427 44.2568 1.01709 67.9378 1.01709 101.046V117.784H117.983V101.046C117.983 67.9581 110.416 44.2771 104.079 30.2376L103.794 29.6165L104.476 29.5351C105.595 29.3925 106.541 28.6697 106.958 27.6414C107.517 26.2364 106.958 24.6686 105.635 23.905L104.873 23.4672L105.635 23.0294C106.246 22.6833 106.703 22.1538 106.958 21.5226C107.263 20.7692 107.242 19.9446 106.917 19.1912C106.591 18.448 105.991 17.8676 105.229 17.5724C101.811 16.2387 98.2615 15.0373 94.7016 14.0192L94.5592 13.9785L94.4575 13.8665C86.7988 5.0905 75.7023 1.00792 59.5 1.00792V0C75.9464 0 87.2667 4.16403 95.1186 13.0826C98.6683 14.1007 102.187 15.2919 105.595 16.6256C106.612 17.0226 107.415 17.7862 107.853 18.7839C108.29 19.7817 108.31 20.8812 107.904 21.879C107.659 22.5 107.273 23.0294 106.764 23.457C108.076 24.5667 108.554 26.3688 107.904 27.9977C107.436 29.1686 106.459 30.0339 105.259 30.3903C111.596 44.5826 119 68.2127 119 101.046V118.792Z" fill="#E5B900"/>
<path d="M72.6206 68.3349C72.6206 68.3349 68.7862 69.1392 64.9415 67.7444C62.9277 67.0114 61.1986 66.1053 60.0697 65.2501H60.0595C58.9305 66.1053 57.2015 67.0012 55.1876 67.7444C51.343 69.1494 47.5085 68.3349 47.5085 68.3349C47.5085 68.3349 49.9089 65.2704 53.7433 63.8654C56.2861 62.939 58.6457 62.5012 60.0697 62.6234C61.4936 62.5012 63.8532 62.939 66.3858 63.8654C70.2304 65.2704 72.6308 68.3349 72.6308 68.3349H72.6206Z" fill="#4E4A4B"/>
<path d="M33.1979 162.051L33.5132 137.596C33.2996 138.126 32.3232 141.333 32.0892 141.862C28.9464 149.05 28.8447 158.63 25.7222 166.276C25.7222 166.693 25.8341 167.121 25.885 167.61C26.0985 170.44 24.461 177.068 22.3862 176.335C21.2368 175.928 22.4573 173.291 21.6335 173.912C20.3825 174.869 20.952 178.483 16.7514 177.159C13.1306 176.029 13.8426 170.318 15.0529 166.592C15.7649 164.342 17.3312 162.366 18.9077 161.501C21.5013 151.198 21.6742 148.704 24.8373 138.502C25.9256 135 31.0823 118.262 34.5303 114.557C34.5303 114.557 34.5913 114.485 34.7235 114.353C35.6491 113.426 39.8293 109.67 47.6406 108.937C47.6406 108.937 50.3461 108.733 53.9873 108.57C54.0483 108.57 54.1093 108.57 54.1703 108.57C59.8254 108.305 67.657 108.143 71.2779 108.937C79.0891 109.67 83.2694 113.426 84.1949 114.353C84.3272 114.485 84.3882 114.557 84.3882 114.557C87.8362 118.273 93.0945 134.98 94.0811 138.502C97.1019 149.213 97.4273 151.198 100.011 161.501C101.587 162.366 103.154 164.342 103.866 166.592C105.066 170.328 105.778 176.029 102.167 177.159C97.9664 178.483 98.536 174.869 97.285 173.912C96.4611 173.291 97.6816 175.928 96.5323 176.335C94.4676 177.068 92.8199 170.44 93.0335 167.61C93.0844 167.121 93.1962 166.693 93.1962 166.276C90.0636 158.63 89.8195 148.928 86.6767 141.74C86.4529 141.21 85.6189 138.126 85.4053 137.596L85.7816 161.807" fill="#FDE2D2"/>
<path d="M45.3319 130.256C46.0846 130.256 46.6948 129.65 46.6948 128.902C46.6948 128.154 46.0846 127.548 45.3319 127.548C44.5792 127.548 43.969 128.154 43.969 128.902C43.969 129.65 44.5792 130.256 45.3319 130.256Z" fill="#E9B7A8"/>
<path d="M74.6752 130.256C75.4279 130.256 76.0381 129.65 76.0381 128.902C76.0381 128.154 75.4279 127.548 74.6752 127.548C73.9224 127.548 73.3123 128.154 73.3123 128.902C73.3123 129.65 73.9224 130.256 74.6752 130.256Z" fill="#E9B7A8"/>
<path d="M62.4698 152.43C61.7985 151.646 60.7611 151.31 59.7542 151.229C58.6659 151.137 57.5878 151.402 56.8758 152.267C56.2147 153.082 55.7672 154.324 56.2249 155.321C56.652 156.238 57.7301 156.747 58.6964 156.879C59.8355 157.032 60.9543 156.726 61.8494 156.014C62.063 155.841 62.0325 155.474 61.8494 155.301C61.6358 155.087 61.3408 155.128 61.1272 155.301C60.5882 155.729 59.8762 155.932 59.1846 155.912C58.493 155.892 57.72 155.657 57.2725 155.108C56.7843 154.507 57.1504 153.601 57.5369 153.041C58.0048 152.369 58.7371 152.186 59.5202 152.216C60.3034 152.247 61.1781 152.491 61.7273 153.132C61.9002 153.336 62.2664 153.316 62.4495 153.132C62.6529 152.929 62.6325 152.623 62.4495 152.42L62.4698 152.43Z" fill="#E9B7A8"/>
<path d="M58.5643 154.802C58.4931 154.802 58.4321 154.772 58.3914 154.71C58.3202 154.619 58.3507 154.486 58.4422 154.415L59.9679 153.377C60.0696 153.316 60.2018 153.336 60.2628 153.428C60.334 153.519 60.3035 153.652 60.212 153.723L58.6863 154.761C58.6863 154.761 58.605 154.802 58.5643 154.802Z" fill="#E9B7A8"/>
<path d="M59.856 155.036C59.7848 155.036 59.7238 155.006 59.6831 154.945L58.6355 153.428C58.5643 153.336 58.5948 153.204 58.6864 153.132C58.7881 153.071 58.9203 153.092 58.9813 153.183L60.0289 154.7C60.1001 154.792 60.0696 154.924 59.9781 154.995C59.9374 155.016 59.8967 155.036 59.856 155.036Z" fill="#E9B7A8"/>
<path d="M66.5687 219.797C66.5382 220.388 66.8433 221.304 67.3315 221.925C69.3352 223.849 71.5525 224.155 75.1326 224.715C79.9638 225.468 84.1034 224.766 84.5611 221.895C84.9476 219.451 83.066 216.764 79.3231 215.613C79.3231 215.613 78.1839 215.46 78.1839 214.687L78.5806 200.749L79.0179 185.477L65.0837 185.599L65.9279 200.637" fill="#FDE2D2"/>
<path d="M53.8348 219.797C53.8653 220.388 53.5602 221.304 53.0719 221.925C51.0683 223.849 48.851 224.155 45.2708 224.715C40.4396 225.468 36.3001 224.766 35.8424 221.895C35.4559 219.451 37.3375 216.764 41.0804 215.613C41.0804 215.613 42.2196 215.46 42.2196 214.687L41.8229 200.749L41.3855 185.477L55.3197 185.599L54.4755 200.637" fill="#FDE2D2"/>
<path d="M101.343 153.753L86.7479 157.144L86.4631 205.279C86.4936 206.348 85.5782 207.224 84.4391 207.224H34.6422C33.503 207.224 32.5876 206.348 32.6182 205.279L32.3435 157.144L17.7381 153.753C16.5481 153.478 15.8768 152.277 16.3243 151.208L26.0579 122.151C27.2072 117.967 29.7703 114.231 33.4522 111.879C34.5303 111.197 35.7406 110.576 37.0934 110.118C43.8469 107.817 59.1846 108.193 59.1846 108.193C59.1846 108.193 75.2649 107.817 82.0082 110.118C83.361 110.586 84.5815 111.197 85.6494 111.879C89.3313 114.231 91.8944 117.957 93.0539 122.151L102.777 151.208C103.225 152.277 102.564 153.478 101.364 153.753H101.343Z" fill="white"/>
<path d="M84.429 207.733H34.632C33.9201 207.733 33.2386 207.448 32.7606 206.959C32.3131 206.491 32.0791 205.9 32.0893 205.269L31.8147 157.551L17.5957 154.252C16.8532 154.079 16.243 153.611 15.9073 152.959C15.592 152.348 15.5717 151.646 15.826 151.015L25.5494 121.999C26.7699 117.56 29.4754 113.813 33.1471 111.462C34.3778 110.678 35.6085 110.087 36.9002 109.639C43.6537 107.338 58.5439 107.674 59.1745 107.684C59.8153 107.664 75.3972 107.338 82.1507 109.639C83.4526 110.087 84.7138 110.698 85.9038 111.462C89.5755 113.803 92.2809 117.56 93.5218 122.019L103.235 151.045C103.489 151.636 103.459 152.348 103.144 152.959C102.808 153.611 102.187 154.079 101.445 154.252L87.2463 157.551L86.9615 205.29C86.9819 205.9 86.7378 206.501 86.2903 206.969C85.8122 207.458 85.1308 207.743 84.4188 207.743L84.429 207.733ZM56.8454 108.682C52.299 108.682 42.2603 108.886 37.2358 110.606C36.0255 111.024 34.866 111.584 33.7065 112.317C30.2382 114.526 27.6955 118.069 26.536 122.294L16.7922 151.371C16.6295 151.758 16.6498 152.145 16.8227 152.491C17.016 152.878 17.3923 153.153 17.8398 153.255L32.842 156.736L33.1166 205.279C33.1166 205.646 33.2386 205.992 33.4929 206.257C33.7777 206.552 34.1947 206.725 34.632 206.725H84.429C84.8663 206.725 85.2833 206.552 85.5681 206.257C85.8224 205.992 85.9546 205.656 85.9444 205.3L86.2292 156.747L101.221 153.265C101.669 153.163 102.045 152.888 102.238 152.501C102.411 152.155 102.432 151.768 102.279 151.412L92.5454 122.325C91.3656 118.079 88.8126 114.536 85.3545 112.327C84.2357 111.604 83.0457 111.034 81.8252 110.617C75.2344 108.377 59.3373 108.713 59.1745 108.723C59.1338 108.723 58.249 108.702 56.8454 108.702V108.682Z" fill="#E5B900"/>
<path d="M62.4496 108.458V113.355C60.1611 113.416 58.188 113.233 56.4894 112.897C55.6249 112.724 54.8316 112.52 54.0891 112.296C53.3161 112.052 52.6245 111.777 52.004 111.502C48.9426 110.118 47.6509 108.478 47.6509 108.478L48.434 107.552L49.0952 106.758L50.6615 104.895C52.9601 106.147 57.1912 107.277 59.9069 107.908C61.402 108.265 62.4496 108.468 62.4496 108.468V108.458Z" fill="#E5B900"/>
<path d="M71.2882 108.682C71.2882 108.682 70.0779 110.23 67.2198 111.573C66.6503 111.848 66.0095 112.113 65.3077 112.337C64.9416 112.469 64.5652 112.592 64.1584 112.704V152.267C64.1584 153.875 62.8565 155.168 61.219 155.168H59.4289C57.8117 155.168 56.4895 153.865 56.4895 152.267V112.154C56.4895 110.148 57.8626 108.397 59.8357 107.918C59.8663 107.918 59.8866 107.918 59.9171 107.898C62.6226 107.226 66.2943 106.198 68.359 105.058L69.7524 106.778L70.4033 107.582L71.2882 108.682Z" fill="#F7D959"/>
<path d="M60.0695 112.307C60.62 112.307 61.0663 111.887 61.0663 111.37C61.0663 110.853 60.62 110.433 60.0695 110.433C59.519 110.433 59.0728 110.853 59.0728 111.37C59.0728 111.887 59.519 112.307 60.0695 112.307Z" fill="white"/>
<path d="M60.0696 112.561C59.378 112.561 58.8186 112.032 58.8186 111.37C58.8186 110.708 59.378 110.179 60.0696 110.179C60.7613 110.179 61.3207 110.708 61.3207 111.37C61.3207 112.032 60.7613 112.561 60.0696 112.561ZM60.0696 110.688C59.6628 110.688 59.3272 110.993 59.3272 111.37C59.3272 111.747 59.6628 112.052 60.0696 112.052C60.4765 112.052 60.8121 111.747 60.8121 111.37C60.8121 110.993 60.4765 110.688 60.0696 110.688Z" fill="white"/>
<path d="M60.0695 116.308C60.62 116.308 61.0663 115.888 61.0663 115.371C61.0663 114.854 60.62 114.434 60.0695 114.434C59.519 114.434 59.0728 114.854 59.0728 115.371C59.0728 115.888 59.519 116.308 60.0695 116.308Z" fill="white"/>
<path d="M60.0696 116.552C59.378 116.552 58.8186 116.023 58.8186 115.361C58.8186 114.699 59.378 114.17 60.0696 114.17C60.7613 114.17 61.3207 114.699 61.3207 115.361C61.3207 116.023 60.7613 116.552 60.0696 116.552ZM60.0696 114.679C59.6628 114.679 59.3272 114.984 59.3272 115.361C59.3272 115.738 59.6628 116.043 60.0696 116.043C60.4765 116.043 60.8121 115.738 60.8121 115.361C60.8121 114.984 60.4765 114.679 60.0696 114.679Z" fill="white"/>
<path d="M81.8049 125.196H70.2812C70.0453 125.196 69.854 125.387 69.854 125.623V129.462C69.854 129.698 70.0453 129.889 70.2812 129.889H81.8049C82.0408 129.889 82.232 129.698 82.232 129.462V125.623C82.232 125.387 82.0408 125.196 81.8049 125.196Z" fill="#EAEAEA"/>
<path d="M57.6183 120.553L56.7334 122.936H53.499L55.8994 120.553H57.6183Z" fill="#8EFAFD"/>
<path d="M58.9509 129.899L53.4382 123.943H56.7234L58.9509 129.899Z" fill="#8EFAFD"/>
<path d="M62.836 123.943L60.3237 130.663L57.8115 123.943H62.836Z" fill="#8EFAFD"/>
<path d="M62.836 122.936H57.8115L58.7066 120.553H61.9409L62.836 122.936Z" fill="#8EFAFD"/>
<path d="M67.1485 122.936H63.9142L63.0293 120.553H64.7482L67.1485 122.936Z" fill="#8EFAFD"/>
<path d="M67.2097 123.943L61.697 129.92L63.9245 123.943H67.2097Z" fill="#8EFAFD"/>
<path d="M60.873 119.545L64.1582 115.422L67.2298 111.574L70.4133 107.583L69.7624 106.778L65.3177 112.347L64.1684 113.803L60.0796 118.924L56.4995 114.954L54.0991 112.296L49.1052 106.748L48.4441 107.542L52.0141 111.492L56.4995 116.46L59.2761 119.535H55.4926L51.5869 123.404L60.3441 132.862L69.0911 123.404L65.1855 119.535H60.8832L60.873 119.545ZM58.7066 120.553H61.9409L62.836 122.936H57.8115L58.7066 120.553ZM62.836 123.944L60.3238 130.663L57.8014 123.944H62.8258H62.836ZM55.8994 120.553H57.6081L56.7232 122.936H53.4889L55.8994 120.553ZM53.4279 123.944H56.7131L58.9507 129.899L53.438 123.944H53.4279ZM61.6867 129.92L63.9243 123.944H67.2095L61.6968 129.92H61.6867ZM63.9141 122.936L63.0292 120.553H64.7379L67.1484 122.936H63.9141Z" fill="#3C3D79"/>
<path d="M83.1068 218.596L79.9233 222.21C79.7504 222.404 79.5063 222.526 79.2418 222.556L73.5258 223.066C72.6002 223.147 72.051 222.058 72.6816 221.375L78.774 214.839C79.1503 214.442 79.7809 214.401 80.1979 214.758L82.9949 217.171C83.4221 217.537 83.4628 218.179 83.0966 218.596H83.1068Z" fill="#E5B900"/>
<path d="M85.2833 221.223H66.0806C65.5188 221.223 65.0635 221.679 65.0635 222.241V223.982C65.0635 224.544 65.5188 225 66.0806 225H85.2833C85.845 225 86.3004 224.544 86.3004 223.982V222.241C86.3004 221.679 85.845 221.223 85.2833 221.223Z" fill="white"/>
<path d="M83.0051 213.363L82.3541 213.709L81.6523 213.098L82.6288 213.037L83.0051 213.363Z" fill="#8EFAFD"/>
<path d="M81.4998 215.633L81.449 213.302L82.1609 213.923L81.4998 215.633Z" fill="#8EFAFD"/>
<path d="M83.4831 215.074L81.6523 216.051L82.3948 214.127L83.4831 215.074Z" fill="#8EFAFD"/>
<path d="M83.6764 214.849L82.5881 213.913L83.2391 213.567L83.9409 214.167L83.6764 214.849Z" fill="#8EFAFD"/>
<path d="M84.612 215.664L83.9102 215.053L84.1746 214.371L84.5408 214.697L84.612 215.664Z" fill="#8EFAFD"/>
<path d="M84.4289 215.898L82.0896 216.153L83.7169 215.277L84.4289 215.898Z" fill="#8EFAFD"/>
<path d="M84.8357 214.554L82.7405 212.732L81.1538 212.834L81.2352 216.529L84.9476 216.122L84.8459 214.554H84.8357ZM84.5509 214.697L84.6119 215.664L83.9101 215.053L84.1746 214.371L84.5407 214.697H84.5509ZM83.249 213.567L83.9508 214.178L83.6864 214.86L82.5981 213.913L83.249 213.567ZM82.6388 213.037L83.0049 213.363L82.354 213.709L81.6522 213.098L82.6286 213.037H82.6388ZM81.4589 213.302L82.1709 213.923L81.5098 215.634L81.4589 213.312V213.302ZM82.4048 214.127L83.4931 215.074L81.6624 216.051L82.4048 214.127ZM83.7271 215.277L84.439 215.898L82.0997 216.153L83.7271 215.277Z" fill="#3C3D79"/>
<path d="M82.2014 217.385L80.2384 215.684C80.1774 215.633 80.1672 215.532 80.2283 215.47L80.4927 215.175C80.5436 215.114 80.6453 215.104 80.7063 215.165L82.6693 216.865C82.7303 216.916 82.7405 217.018 82.6795 217.079L82.415 217.374C82.3642 217.435 82.2624 217.446 82.2014 217.385Z" fill="white"/>
<path d="M37.2154 218.596L40.3989 222.21C40.5718 222.404 40.8159 222.526 41.0804 222.556L46.7965 223.066C47.722 223.147 48.2712 222.058 47.6406 221.375L41.5483 214.839C41.1719 214.442 40.5413 214.401 40.1243 214.758L37.3273 217.171C36.9001 217.537 36.8594 218.179 37.2256 218.596H37.2154Z" fill="#E5B900"/>
<path d="M35.039 225H54.2417C54.8034 225 55.2588 224.544 55.2588 223.982V222.241C55.2588 221.679 54.8034 221.223 54.2417 221.223H35.039C34.4772 221.223 34.0219 221.679 34.0219 222.241V223.982C34.0219 224.544 34.4772 225 35.039 225Z" fill="white"/>
<path d="M37.3171 213.363L37.9681 213.709L38.6699 213.098L37.6935 213.037L37.3171 213.363Z" fill="#8EFAFD"/>
<path d="M38.8225 215.633L38.8733 213.302L38.1614 213.923L38.8225 215.633Z" fill="#8EFAFD"/>
<path d="M36.8391 215.074L38.6699 216.051L37.9274 214.127L36.8391 215.074Z" fill="#8EFAFD"/>
<path d="M36.6458 214.849L37.7341 213.913L37.0831 213.567L36.3813 214.167L36.6458 214.849Z" fill="#8EFAFD"/>
<path d="M35.7102 215.664L36.412 215.053L36.1476 214.371L35.7814 214.697L35.7102 215.664Z" fill="#8EFAFD"/>
<path d="M35.8933 215.898L38.2326 216.153L36.6053 215.277L35.8933 215.898Z" fill="#8EFAFD"/>
<path d="M35.3848 216.132L39.0972 216.54L39.1785 212.844L37.5919 212.742L35.4966 214.565L35.3949 216.132H35.3848ZM36.1374 214.381L36.4019 215.063L35.7001 215.674L35.7611 214.707L36.1272 214.381H36.1374ZM37.7241 213.913L36.6358 214.86L36.3713 214.178L37.0731 213.567L37.7241 213.913ZM38.6598 213.099L37.958 213.709L37.3071 213.363L37.6732 213.037L38.6496 213.099H38.6598ZM38.8124 215.634L38.1513 213.923L38.8632 213.302L38.8124 215.623V215.634ZM38.6598 216.061L36.829 215.084L37.9173 214.137L38.6598 216.061ZM38.2225 216.153L35.8831 215.898L36.5951 215.277L38.2225 216.153Z" fill="#3C3D79"/>
<path d="M38.1206 217.385L40.0836 215.684C40.1446 215.633 40.1548 215.532 40.0938 215.47L39.8293 215.175C39.7785 215.114 39.6768 215.104 39.6157 215.165L37.6527 216.865C37.5917 216.916 37.5815 217.018 37.6426 217.079L37.907 217.374C37.9579 217.435 38.0596 217.446 38.1206 217.385Z" fill="white"/>
</g>
<defs>
<clipPath id="clip0_775_11621">
<rect width="119" height="225" fill="white"/>
</clipPath>
</defs>
</svg>
