<svg width="122" height="225" viewBox="0 0 122 225" fill="none" xmlns="http://www.w3.org/2000/svg">
<path d="M55.3098 102.774C51.7398 102.934 49.0898 103.134 49.0898 103.134C51.6498 102.884 53.6898 102.794 55.3098 102.774Z" fill="#FDE2D2"/>
<path d="M67.5801 82.6265H53.7701C55.3201 100.406 49.0801 103.902 49.0801 103.902C49.0801 103.902 52.4001 108.507 60.4501 108.507H60.9001C68.9501 108.507 72.2701 103.902 72.2701 103.902C72.2701 103.902 66.0301 100.406 67.5801 82.6265Z" fill="#FDE2D2"/>
<path d="M67.5801 82.6265H53.7701C55.3201 100.406 49.0801 103.902 49.0801 103.902C49.0801 103.902 49.1001 103.932 49.1401 103.982C55.9301 103.263 62.6601 100.876 68.2601 96.6906C67.4701 93.4942 67.0201 88.9693 67.5701 82.6265H67.5801Z" fill="#EDCCC0"/>
<path d="M34.92 156.922L35.23 132.51C35.0201 133.029 34.06 136.246 33.84 136.765C30.76 143.947 30.66 153.496 27.59 161.128C27.59 161.537 27.7 161.977 27.75 162.456C27.96 165.283 26.35 171.895 24.32 171.166C23.19 170.767 24.39 168.13 23.58 168.749C22.35 169.708 22.9101 173.314 18.7901 171.995C15.2401 170.867 15.9401 165.173 17.1201 161.447C17.8201 159.2 19.35 157.232 20.9 156.363C23.44 146.085 23.61 143.588 26.72 133.409C27.79 129.913 32.85 113.212 36.23 109.506C36.23 109.506 36.29 109.436 36.42 109.306C37.33 108.377 41.43 104.632 49.09 103.902C49.09 103.902 51.7401 103.703 55.3101 103.543C55.3701 103.543 55.43 103.533 55.4901 103.543C61.0401 103.283 68.72 103.123 72.27 103.902C79.93 104.642 84.03 108.387 84.94 109.306C85.07 109.436 85.13 109.506 85.13 109.506C88.51 113.212 93.66 129.883 94.64 133.409C97.6 144.097 97.92 146.085 100.46 156.363C102.01 157.232 103.54 159.2 104.24 161.447C105.42 165.173 106.12 170.867 102.57 171.995C98.45 173.314 99.01 169.708 97.78 168.749C96.97 168.13 98.17 170.767 97.04 171.166C95.01 171.905 93.4 165.283 93.61 162.456C93.66 161.977 93.77 161.537 93.77 161.128C90.7 153.496 90.46 143.817 87.38 136.635C87.16 136.116 86.34 133.029 86.13 132.5L86.5 156.663" fill="#FDE2D2"/>
<path d="M46.8205 125.188C47.5605 125.188 48.1605 124.585 48.1605 123.84C48.1605 123.095 47.5605 122.491 46.8205 122.491C46.0804 122.491 45.4805 123.095 45.4805 123.84C45.4805 124.585 46.0804 125.188 46.8205 125.188Z" fill="#E9B7A8"/>
<path d="M75.5998 125.188C76.3398 125.188 76.9398 124.585 76.9398 123.84C76.9398 123.095 76.3398 122.491 75.5998 122.491C74.8597 122.491 74.2598 123.095 74.2598 123.84C74.2598 124.585 74.8597 125.188 75.5998 125.188Z" fill="#E9B7A8"/>
<path d="M63.6301 147.323C62.9701 146.534 61.9601 146.205 60.9701 146.125C59.9001 146.035 58.8401 146.295 58.1501 147.164C57.5001 147.973 57.0601 149.211 57.5201 150.21C57.9401 151.129 59.0001 151.629 59.9401 151.758C61.0601 151.918 62.1601 151.599 63.0401 150.899C63.2501 150.73 63.2201 150.36 63.0401 150.19C62.8301 149.98 62.5401 150.02 62.3301 150.19C61.8001 150.62 61.1001 150.819 60.4301 150.799C59.7701 150.789 58.9901 150.54 58.5601 150C58.0901 149.401 58.4401 148.492 58.8201 147.933C59.2801 147.263 60.0001 147.074 60.7701 147.114C61.5801 147.154 62.4001 147.393 62.9301 148.033C63.1001 148.242 63.4601 148.212 63.6401 148.033C63.8401 147.823 63.8101 147.533 63.6401 147.323H63.6301Z" fill="#E9B7A8"/>
<path d="M59.8005 149.691C59.7305 149.691 59.6705 149.661 59.6305 149.601C59.5605 149.501 59.5905 149.371 59.6805 149.311L61.1805 148.272C61.2805 148.202 61.4105 148.232 61.4705 148.322C61.5405 148.422 61.5105 148.552 61.4205 148.612L59.9205 149.651C59.9205 149.651 59.8405 149.691 59.8005 149.691Z" fill="#E9B7A8"/>
<path d="M61.06 149.93C60.99 149.93 60.93 149.9 60.89 149.84L59.86 148.332C59.79 148.232 59.82 148.102 59.91 148.043C60.01 147.973 60.14 148.003 60.2 148.092L61.23 149.601C61.3 149.701 61.27 149.831 61.18 149.89C61.14 149.92 61.1 149.93 61.06 149.93Z" fill="#E9B7A8"/>
<path d="M67.6504 214.567C67.6204 215.157 67.9204 216.076 68.3904 216.685C70.3604 218.613 72.5304 218.912 76.0404 219.472C80.7804 220.231 84.8404 219.522 85.2904 216.655C85.6704 214.218 83.8204 211.531 80.1504 210.382C80.1504 210.382 79.0404 210.232 79.0404 209.453L79.4304 195.539L79.8604 180.296L66.1904 180.416L67.0204 195.429" fill="#FDE2D2"/>
<path d="M55.1595 214.567C55.1895 215.157 54.8895 216.076 54.4195 216.685C52.4495 218.613 50.2795 218.912 46.7695 219.472C42.0295 220.231 37.9695 219.522 37.5195 216.655C37.1395 214.218 38.9895 211.531 42.6595 210.382C42.6595 210.382 43.7695 210.232 43.7695 209.453L43.3795 195.539L42.9495 180.296L56.6195 180.416L55.7895 195.429" fill="#FDE2D2"/>
<path d="M14.55 62.8689C22.5857 62.8689 29.1 56.3128 29.1 48.2255C29.1 40.1381 22.5857 33.582 14.55 33.582C6.51426 33.582 0 40.1381 0 48.2255C0 56.3128 6.51426 62.8689 14.55 62.8689Z" fill="#DDC3BA"/>
<path d="M101.29 62.5092C99.0899 61.4604 97.3299 59.982 96.0099 58.284C95.5899 57.7446 95.8499 56.9754 96.4799 56.7257C97.4099 56.3661 98.2299 55.6569 98.7499 54.6381C99.4199 53.3096 99.3299 51.6814 98.5299 50.4328C97.5199 48.8646 95.7799 48.2154 94.1799 48.505C93.5299 48.6249 92.9499 48.0256 93.0299 47.3663C93.4299 44.2598 94.8099 41.2632 97.1699 38.8859C102.86 33.1624 112.07 33.1624 117.74 38.8859C123.79 44.979 123.4 55.0976 116.56 60.6713C112.28 64.1573 106.26 64.8865 101.29 62.5192V62.5092Z" fill="#DDC3BA"/>
<path d="M109.45 46.0679V51.4218C109.45 76.8631 88.9498 97.4897 63.6498 97.4897H58.3398C33.0498 97.4897 12.5498 76.8631 12.5498 51.4218V46.0679C12.5498 30.2058 20.5098 16.2216 32.6298 7.94102C34.8598 6.41275 37.2298 5.08425 39.7198 3.9755C41.8598 3.0066 44.0798 2.21749 46.3698 1.5882C50.1798 0.549379 54.1898 0 58.3298 0H63.6398C73.1498 0 81.9998 2.9167 89.3198 7.92104C101.46 16.2017 109.43 30.1958 109.43 46.0679H109.45Z" fill="#F7DBCF"/>
<path d="M44.4803 46.967C45.9494 46.967 47.1403 45.7685 47.1403 44.29C47.1403 42.8116 45.9494 41.613 44.4803 41.613C43.0112 41.613 41.8203 42.8116 41.8203 44.29C41.8203 45.7685 43.0112 46.967 44.4803 46.967Z" fill="#505050"/>
<path d="M78.5203 46.967C79.9894 46.967 81.1804 45.7685 81.1804 44.29C81.1804 42.8116 79.9894 41.613 78.5203 41.613C77.0513 41.613 75.8604 42.8116 75.8604 44.29C75.8604 45.7685 77.0513 46.967 78.5203 46.967Z" fill="#505050"/>
<path d="M64.0496 54.0089C64.0496 54.8779 62.5396 55.5771 60.6796 55.5771C58.8196 55.5771 57.3096 54.8779 57.3096 54.0089C57.3096 53.1399 58.8196 52.4407 60.6796 52.4407C62.5396 52.4407 64.0496 53.1399 64.0496 54.0089Z" fill="#E9B7A8"/>
<path d="M47.7401 38.6862C44.0501 36.259 39.3101 35.7895 35.0001 35.32C33.2301 35.1302 32.4301 33.8417 32.6301 32.3933C32.8301 30.945 33.7501 29.8862 35.6601 30.056C40.3201 30.4755 45.8101 31.2546 49.8301 33.8217C51.4801 34.8805 51.8001 36.189 51.2001 37.5775C50.6001 38.9659 49.2601 39.6851 47.7401 38.6862Z" fill="#505050"/>
<path d="M74.6998 38.3366C78.5298 36.1391 83.2898 35.9593 87.6298 35.7495C89.4098 35.6696 90.2898 34.431 90.1698 32.9726C90.0598 31.5143 89.2098 30.4055 87.2898 30.4555C82.6198 30.5953 77.0798 31.0348 72.9098 33.3522C71.1998 34.3111 70.7998 35.5897 71.3098 37.0181C71.8198 38.4365 73.1198 39.2355 74.6998 38.3366Z" fill="#505050"/>
<path d="M89.3404 7.92104C85.0704 9.53921 73.7404 9.1896 60.6604 9.1896C47.5804 9.1896 36.7804 9.53921 32.6504 7.94102C34.7204 6.52262 36.9204 5.27403 39.2204 4.21523C39.3904 4.12533 39.5704 4.05541 39.7404 3.9755C41.8804 3.0066 44.1004 2.21749 46.3904 1.5882C48.4304 1.03882 50.5204 0.619299 52.6704 0.349604C54.5304 0.119864 56.4204 0 58.3504 0H63.6604C73.1704 0 82.0204 2.9167 89.3404 7.92104Z" fill="#4E4A4B"/>
<path d="M52.7296 73.9463C53.0196 73.9463 53.3096 74.0262 53.5696 74.196C60.3996 78.601 69.5996 74.6155 69.6896 74.5756C70.4696 74.226 71.3896 74.5756 71.7396 75.3747C72.0896 76.1638 71.7396 77.0827 70.9496 77.4323C70.5096 77.6321 60.1296 82.147 51.8896 76.823C51.1696 76.3536 50.9596 75.3846 51.4196 74.6555C51.7196 74.186 52.2196 73.9363 52.7296 73.9363V73.9463Z" fill="#E9B7A8"/>
<path d="M79.2502 164.254V128.055L71.7002 104.232L71.6302 104.002L71.4002 104.072C57.6502 107.908 49.8202 104.132 49.7402 104.092L49.5702 104.002L41.6302 113.072L41.5702 113.142V164.254H35.9802L35.4902 164.264L36.0802 174.972L36.1102 180.516L36.1402 181.315L36.9102 201.502L36.9902 203.6C37.0502 205.588 37.9802 207.136 39.1002 207.156L57.0202 207.425C57.0202 207.425 57.0402 207.425 57.0502 207.425H57.5002C58.5902 207.455 59.5102 206.007 59.6302 204.099L60.7302 187.058L61.6602 201.502L61.8302 204.099C61.9602 205.997 62.8702 207.445 63.9602 207.425H64.3902C64.3902 207.425 64.4302 207.425 64.4502 207.425L82.3702 207.156C83.4902 207.136 84.4102 205.588 84.4702 203.61L85.3302 181.315L85.3602 180.516L85.5402 175.402L85.5602 174.972L86.1502 164.244H79.2602L79.2502 164.254Z" fill="#00B5BD" stroke="#007070" stroke-miterlimit="10"/>
<path d="M58.5604 197.906C57.8104 201.512 52.2204 201.132 52.2204 201.132H34.9104C33.8204 201.132 32.9304 200.263 32.9104 199.175L32.6704 157.002H32.6404L31.6904 156.683L19.0504 152.587C17.9604 152.238 17.3904 151.039 17.8104 149.97L32.3704 112.972C33.7004 108.297 48.1704 103.713 48.1704 103.713L51.8404 100.247C51.7604 100.396 51.7204 102.344 53.0704 108.417C54.6304 115.459 56.1504 132.3 58.0604 138.324C59.9704 144.357 61.2804 184.721 58.5604 197.886V197.906Z" fill="white"/>
<path d="M58.5401 138.194C57.4501 134.778 56.4901 127.805 55.5701 121.063C54.8801 116.059 54.2201 111.334 53.5601 108.318C52.2301 102.374 51.8101 101.415 51.8301 101.226L52.6201 98.3188L47.9301 103.273C46.6101 103.703 33.2401 108.108 31.9001 112.792L17.3401 149.781C17.0901 150.43 17.1201 151.129 17.4101 151.748C17.7101 152.378 18.2401 152.837 18.9001 153.047L32.1701 157.352L32.4101 199.185C32.4301 200.523 33.5501 201.632 34.9101 201.632H52.1801C52.1801 201.632 52.4101 201.632 52.7001 201.632C53.4401 201.632 54.8501 201.562 56.1701 201.063C57.4901 200.563 58.7101 199.664 59.0501 197.986C61.8401 184.491 60.4301 144.147 58.5401 138.174V138.194ZM58.0701 197.806C57.3601 200.923 52.3001 200.643 52.2201 200.643H34.9101C34.0901 200.643 33.4201 199.984 33.4101 199.175L33.1701 157.002L33.1301 156.633L32.7901 156.523L31.8401 156.213L19.2101 152.118C18.8101 151.988 18.5001 151.708 18.3201 151.339C18.1401 150.959 18.1201 150.54 18.2801 150.16L32.8501 113.122C33.8801 109.496 44.3701 105.461 48.3201 104.202L51.9801 101.415C51.8001 102.724 51.7901 104.971 52.5801 108.547C53.2401 111.524 53.8901 116.219 54.5701 121.213C55.5101 127.995 56.4701 134.997 57.5801 138.503C58.6901 141.989 59.3801 148.462 59.6201 155.924C60.3001 177.21 59.6201 191.044 58.0701 197.826V197.806Z" fill="#DBDBDB"/>
<path d="M51.3299 101.275L47.9099 103.912C47.8399 103.962 47.7799 104.042 47.7499 104.122L45.2999 110.045C45.1899 110.305 45.3199 110.615 45.5899 110.715L47.0999 111.274C47.4599 111.404 47.5499 111.863 47.2599 112.123L45.3799 113.831C45.2099 113.981 45.1699 114.231 45.2699 114.43L57.3499 137.524C57.6099 138.044 58.3999 137.794 58.3099 137.225C57.1399 129.723 54.4199 111.803 53.3999 107.588C52.7699 104.971 52.4999 103.533 52.1499 101.735C52.0599 101.295 51.6899 101.006 51.3299 101.285V101.275Z" fill="#DBDBDB"/>
<path d="M33.1404 156.663L32.1904 156.353C40.5404 129.434 36.6604 116.628 36.6204 116.498L37.5804 116.219C37.7404 116.758 41.6004 129.404 33.1404 156.663Z" fill="#DBDBDB"/>
<path d="M40.6297 161.178H49.7896C50.0597 161.178 50.2796 161.397 50.2796 161.667V167.011C50.2796 169.798 48.0097 172.065 45.2197 172.065H45.1996C42.4096 172.065 40.1396 169.798 40.1396 167.011V161.667C40.1396 161.397 40.3597 161.178 40.6297 161.178Z" fill="white" stroke="#DBDBDB" stroke-miterlimit="10"/>
<path d="M62.8403 197.906C63.5903 201.512 69.1803 201.132 69.1803 201.132H86.4903C87.5803 201.132 88.4703 200.263 88.4903 199.175L88.7303 157.002H88.7603L89.7103 156.683L102.35 152.587C103.44 152.238 104.01 151.039 103.59 149.97L89.0303 112.972C87.7003 108.297 73.2303 103.713 73.2303 103.713L69.6903 100.486C69.7703 100.636 69.6903 102.354 68.3303 108.427C66.7703 115.469 65.7703 132.5 63.3403 138.334C60.6203 144.866 60.1203 184.731 62.8403 197.896V197.906Z" fill="white"/>
<path d="M104.06 149.781L89.5101 112.832C88.1701 108.098 74.7901 103.693 73.4701 103.273L68.7501 98.3188L69.6501 101.186C69.5501 101.505 69.1701 102.374 67.8401 108.328C67.1801 111.344 66.5201 116.069 65.8301 121.083C64.9101 127.815 63.5601 134.688 62.8701 138.204C61.6601 144.337 61.6201 147.613 61.2301 155.884C60.9901 161.028 60.5101 180.676 62.3501 198.016C62.7101 201.412 67.2301 201.652 68.6901 201.652C68.9701 201.652 69.1501 201.652 69.1801 201.652H86.4901C87.8501 201.652 88.9701 200.553 88.9901 199.205L89.2301 157.372L102.5 153.067C103.16 152.857 103.69 152.388 103.99 151.768C104.29 151.139 104.31 150.45 104.06 149.801V149.781ZM103.08 151.329C102.91 151.698 102.59 151.978 102.19 152.108L89.5601 156.203L88.6201 156.523L88.2401 156.653L87.9901 199.165C87.9801 199.984 87.3101 200.633 86.4901 200.633H69.1501C69.0901 200.633 63.9801 200.933 63.3301 197.796C60.5801 184.461 61.9601 144.357 63.8201 138.483C64.9301 134.987 65.8901 127.975 66.8301 121.203C67.5101 116.209 68.1601 111.504 68.8201 108.527C69.6101 104.961 69.6001 102.714 69.4201 101.395L72.9301 104.092L73.0801 104.182C77.0301 105.431 87.5201 109.466 88.5701 113.142L103.12 150.14C103.28 150.53 103.26 150.949 103.08 151.319V151.329Z" fill="#DBDBDB"/>
<path d="M89.1804 156.333L88.2404 156.653C79.7704 129.394 83.6604 116.758 83.8204 116.229L84.7804 116.508C84.7404 116.638 80.8304 129.424 89.1804 156.343V156.333Z" fill="#DBDBDB"/>
<path d="M70.0398 101.275L73.4598 103.912C73.5298 103.962 73.5898 104.042 73.6198 104.122L76.0698 110.045C76.1798 110.305 76.0498 110.615 75.7798 110.715L74.2698 111.274C73.9098 111.404 73.8198 111.863 74.1098 112.123L75.9898 113.831C76.1598 113.981 76.1998 114.231 76.0998 114.43L64.0198 137.524C63.7598 138.044 62.9698 137.794 63.0598 137.225C64.2298 129.723 66.9498 111.803 67.9698 107.588C68.5998 104.971 68.8698 103.533 69.2198 101.735C69.3098 101.295 69.6798 101.006 70.0398 101.285V101.275Z" fill="#DBDBDB"/>
<path d="M72.7299 155.254H78.8398C79.0498 155.254 79.2299 155.424 79.2299 155.644V163.465C79.2299 163.675 79.0598 163.855 78.8398 163.855H72.7299C72.5199 163.855 72.3398 163.685 72.3398 163.465V155.644C72.3398 155.434 72.5099 155.254 72.7299 155.254Z" fill="#C83E3A"/>
<path d="M78.5402 155.894H72.9902V163.255H78.5402V155.894Z" fill="white"/>
<path d="M77.6499 158.191C77.6499 158.191 77.6299 158.241 77.5999 158.241H77.1699C77.1699 158.241 77.1199 158.261 77.1199 158.291V158.721C77.1199 158.721 77.0999 158.77 77.0699 158.77H76.7099C76.7099 158.77 76.6599 158.751 76.6599 158.721V158.291C76.6599 158.291 76.6399 158.241 76.6099 158.241H76.1799C76.1799 158.241 76.1299 158.221 76.1299 158.191V157.832C76.1299 157.832 76.1499 157.782 76.1799 157.782H76.6099C76.6099 157.782 76.6599 157.762 76.6599 157.732V157.302C76.6599 157.302 76.6799 157.252 76.7099 157.252H77.0699C77.0699 157.252 77.1199 157.272 77.1199 157.302V157.732C77.1199 157.732 77.1399 157.782 77.1699 157.782H77.5999C77.5999 157.782 77.6499 157.802 77.6499 157.832V158.191Z" fill="#C83E3A"/>
<path d="M75.4604 157.252H73.6104V157.502H75.4604V157.252Z" fill="#7A797F"/>
<path d="M77.6703 159.16H73.6104V159.41H77.6703V159.16Z" fill="#7A797F"/>
<path d="M75.4604 157.761H73.6104V157.831H75.4604V157.761Z" fill="#7A797F"/>
<path d="M75.4604 158.081H73.6104V158.151H75.4604V158.081Z" fill="#7A797F"/>
<path d="M75.4604 158.401H73.6104V158.471H75.4604V158.401Z" fill="#7A797F"/>
<path d="M77.6703 159.769H73.6104V159.839H77.6703V159.769Z" fill="#7A797F"/>
<path d="M77.6703 160.199H73.6104V160.269H77.6703V160.199Z" fill="#7A797F"/>
<path d="M77.6703 160.618H73.6104V160.688H77.6703V160.618Z" fill="#7A797F"/>
<path d="M77.6703 161.038H73.6104V161.108H77.6703V161.038Z" fill="#7A797F"/>
<path d="M77.6703 161.457H73.6104V161.527H77.6703V161.457Z" fill="#7A797F"/>
<path d="M77.6703 161.877H73.6104V161.947H77.6703V161.877Z" fill="#7A797F"/>
<path d="M77.6703 162.306H73.6104V162.376H77.6703V162.306Z" fill="#7A797F"/>
<path d="M75.1201 155.125C75.1201 154.775 75.4101 154.485 75.7701 154.485C76.1301 154.485 76.4201 154.775 76.4201 155.125C76.4201 155.474 76.1301 155.764 75.7701 155.764C75.4101 155.764 75.1201 155.474 75.1201 155.125Z" fill="#D7D7D7"/>
<path d="M77.2298 155.864C77.2298 156.143 77.0598 156.373 76.8398 156.373H74.6898C74.4798 156.373 74.2998 156.143 74.2998 155.864V155.634C74.2998 155.354 74.4698 155.125 74.6898 155.125H76.8398C77.0498 155.125 77.2298 155.354 77.2298 155.634V155.864Z" fill="#D7D7D7"/>
<path d="M75.5498 155.125C75.5498 155.005 75.6498 154.905 75.7698 154.905C75.8898 154.905 75.9898 155.005 75.9898 155.125C75.9898 155.245 75.8898 155.345 75.7698 155.345C75.6498 155.345 75.5498 155.245 75.5498 155.125Z" fill="#80B9D6"/>
<path d="M71.0496 161.178H80.2096C80.4796 161.178 80.6996 161.397 80.6996 161.667V167.011C80.6996 169.798 78.4296 172.065 75.6396 172.065H75.6196C72.8296 172.065 70.5596 169.798 70.5596 167.011V161.667C70.5596 161.397 70.7796 161.178 71.0496 161.178Z" fill="white" stroke="#DBDBDB" stroke-miterlimit="10"/>
<path d="M73.0498 116.129C73.0498 118.016 74.6198 119.545 76.5498 119.545C78.4798 119.545 80.0498 118.016 80.0498 116.129C80.0498 114.241 78.4798 112.712 76.5498 112.712C74.6198 112.712 73.0498 114.241 73.0498 116.129Z" fill="#AFAEA8"/>
<path d="M75.3198 116.338C75.4298 116.998 76.0698 117.447 76.7498 117.327C77.4298 117.217 77.8898 116.588 77.7698 115.919C77.6598 115.26 77.0098 114.81 76.3398 114.93C75.6598 115.04 75.1998 115.669 75.3198 116.338Z" fill="#6F6F6E"/>
<path d="M69.0802 99.3976C71.9202 100.237 73.7202 101.835 74.8202 104.632C75.8202 107.189 75.8002 110.076 75.8002 112.782C75.8002 113.442 76.8302 113.442 76.8202 112.782C76.8202 109.776 76.7702 106.629 75.5802 103.813C74.3602 100.936 71.6702 99.1879 68.7402 98.3188L69.0802 99.3976Z" fill="#AFAEA8"/>
<path d="M41.8799 134.118C40.7399 133.689 39.4799 133.609 38.4099 132.99C36.9599 132.161 36.9699 130.083 37.0299 128.655C37.0999 126.936 37.3499 125.288 37.7799 123.62C38.2699 121.752 38.9199 119.914 39.8199 118.206C40.4899 116.938 41.7199 114.9 43.4499 115.36C44.0899 115.529 44.3599 114.55 43.7199 114.381C39.6199 113.272 37.6199 120.374 36.8599 123.091C36.2499 125.278 35.9499 127.556 35.9899 129.823C36.0199 131.232 36.4599 132.6 37.5099 133.579C38.5899 134.578 40.2899 134.598 41.6099 135.097C42.2299 135.327 42.4899 134.348 41.8799 134.118Z" fill="#AFAEA8"/>
<path d="M41.1699 134.608C41.1699 135.477 41.8899 136.176 42.7799 136.176C43.6699 136.176 44.3899 135.477 44.3899 134.608C44.3899 133.739 43.6699 133.04 42.7799 133.04C41.8899 133.04 41.1699 133.739 41.1699 134.608Z" fill="#6F6F6E"/>
<path d="M49.79 135.107C51.13 134.598 52.6 134.538 53.79 133.669C54.88 132.87 55.26 131.491 55.4 130.223C55.65 127.985 55.19 125.518 54.62 123.35C53.9 120.594 51.84 113.262 47.69 114.391C47.05 114.56 47.32 115.549 47.96 115.369C49.61 114.92 50.76 116.768 51.46 117.977C52.42 119.655 53.05 121.523 53.57 123.37C54.02 124.999 54.23 126.587 54.36 128.265C54.48 129.783 54.47 131.401 53.44 132.63C52.56 133.669 50.73 133.669 49.53 134.128C48.92 134.358 49.18 135.347 49.8 135.107H49.79Z" fill="#AFAEA8"/>
<path d="M47.3701 134.608C47.3701 135.477 48.0901 136.176 48.9801 136.176C49.8701 136.176 50.5901 135.477 50.5901 134.608C50.5901 133.739 49.8701 133.04 48.9801 133.04C48.0901 133.04 47.3701 133.739 47.3701 134.608Z" fill="#6F6F6E"/>
<path d="M52.3698 99.3976C47.3598 100.287 46.2598 105.321 46.1998 109.736C46.1998 110.395 45.1698 110.395 45.1798 109.736C45.2498 104.881 47.1798 99.2977 52.6598 98.3188L52.3798 99.3976H52.3698Z" fill="#AFAEA8"/>
<path d="M49.1596 116.199L50.5796 114.381C50.5796 114.381 48.8596 113.102 47.1296 113.102V108.837H44.2596V113.102C42.5396 113.102 40.8096 114.381 40.8096 114.381L42.0896 116.199C42.0896 116.199 45.2396 113.592 49.1596 116.199Z" fill="#6F6F6E"/>
<path d="M99.0797 216.455C99.0797 216.545 99.0797 216.645 99.0697 216.735V216.925C98.8397 221.939 83.5397 220.64 83.5397 220.64C83.5397 220.64 82.2997 220.381 82.1597 220.181C82.1497 220.181 82.1497 220.181 82.1397 220.181C81.7397 219.981 76.8697 219.771 75.6297 220.67C74.4897 221.5 68.8597 220.73 66.6097 218.733C66.1697 218.333 65.9497 217.744 66.0097 217.154L66.1397 215.826L66.1597 215.566L66.2197 214.957L66.2397 214.707L66.2597 214.507C66.2597 214.507 66.5197 213.758 67.2797 213.818C68.5897 213.958 71.1297 214.088 73.9897 213.409C74.0497 213.399 74.1097 213.379 74.1697 213.359C74.6397 213.209 76.9397 212.45 78.2897 211.781C79.3997 211.231 80.5597 210.562 81.7597 209.723C82.3497 209.323 82.9497 208.874 83.5497 208.404C83.5497 208.404 83.6697 207.695 84.8597 208.924C84.9097 208.984 84.9697 209.044 85.0297 209.114C85.0897 209.183 85.1597 209.253 85.2197 209.333C85.5597 209.733 86.0097 210.182 86.5597 210.612C86.6297 210.672 86.6997 210.722 86.7697 210.782C88.7097 212.25 91.8797 213.588 96.3397 212.46C96.5697 212.4 96.8197 212.38 97.0597 212.42C97.7397 212.54 98.8797 213.119 99.0697 215.656C99.0797 215.746 99.0897 215.836 99.0897 215.936C99.0997 216.106 99.0997 216.285 99.0997 216.475L99.0797 216.455Z" fill="white"/>
<path d="M99.0697 215.916C95.4497 217.634 91.9897 218.183 89.0697 218.183C84.1897 218.183 80.8297 216.675 80.7797 216.645C80.7297 216.625 74.6797 214.607 71.6597 215.117C69.3997 215.506 67.2297 215.157 66.2197 214.947L66.2397 214.697C67.2197 214.907 69.3797 215.256 71.6197 214.877C74.7097 214.347 80.6297 216.325 80.8797 216.415C80.9797 216.465 89.4697 220.261 99.0597 215.646C99.0597 215.736 99.0697 215.826 99.0797 215.916H99.0697Z" fill="#DBDBDB"/>
<path d="M99.0799 216.455C99.0799 216.545 99.0799 216.645 99.0799 216.735C95.4699 218.413 91.9599 218.932 88.9899 218.932C84.0699 218.932 80.6199 217.494 80.5599 217.474C80.5099 217.454 74.4599 215.436 71.4399 215.946C69.2799 216.315 67.1999 216.016 66.1299 215.806L66.1499 215.556C67.1899 215.766 69.2499 216.066 71.3899 215.706C74.4799 215.177 80.3999 217.154 80.6499 217.244C80.7499 217.284 89.5399 220.94 99.0799 216.465V216.455Z" fill="#DBDBDB"/>
<path d="M82.1301 220.171C81.7301 219.981 76.8601 219.761 75.6201 220.66C75.7501 220.541 78.8101 217.764 82.1301 220.171Z" fill="#DBDBDB"/>
<path d="M85.0198 209.103C84.3398 209.743 83.0298 210.422 82.5998 210.652C82.5198 210.692 82.4698 210.722 82.4498 210.722L82.3398 210.492C82.3398 210.492 82.3898 210.472 82.4598 210.432C82.8598 210.222 84.1998 209.523 84.8498 208.914C84.8998 208.974 84.9598 209.033 85.0198 209.093V209.103Z" fill="#DBDBDB"/>
<path d="M86.7604 210.772C85.4804 211.721 82.9104 212.769 82.5004 212.929C82.4704 212.929 82.4603 212.949 82.4503 212.949L82.3604 212.709C82.3604 212.709 82.5203 212.649 82.7803 212.54C83.6203 212.19 85.5304 211.351 86.5704 210.602C86.6404 210.662 86.7103 210.712 86.7803 210.762L86.7604 210.772Z" fill="#DBDBDB"/>
<path d="M88.4799 214.693C88.5003 214.495 88.2942 214.312 88.0195 214.284C87.7448 214.256 87.5056 214.393 87.4852 214.591C87.4648 214.789 87.6709 214.972 87.9456 215C88.2203 215.028 88.4595 214.891 88.4799 214.693Z" fill="#DBDBDB"/>
<path d="M91.5041 214.969C91.5212 214.804 91.3123 214.647 91.0376 214.619C90.7629 214.591 90.5264 214.701 90.5094 214.866C90.4923 215.031 90.7012 215.188 90.9759 215.216C91.2506 215.244 91.4871 215.134 91.5041 214.969Z" fill="#DBDBDB"/>
<path d="M94.1789 214.674C94.196 214.509 93.9871 214.352 93.7124 214.324C93.4377 214.296 93.2012 214.406 93.1842 214.571C93.1671 214.736 93.376 214.892 93.6507 214.921C93.9254 214.949 94.1619 214.838 94.1789 214.674Z" fill="#DBDBDB"/>
<path d="M95.9977 213.997C96.0086 213.893 95.7947 213.785 95.52 213.756C95.2454 213.728 95.0139 213.789 95.0031 213.894C94.9922 213.998 95.2061 214.106 95.4807 214.134C95.7554 214.163 95.9869 214.101 95.9977 213.997Z" fill="#DBDBDB"/>
<path d="M93.1549 213.802C93.1658 213.698 92.9519 213.59 92.6773 213.562C92.4026 213.533 92.1711 213.595 92.1603 213.699C92.1494 213.804 92.3633 213.911 92.638 213.94C92.9126 213.968 93.1441 213.907 93.1549 213.802Z" fill="#DBDBDB"/>
<path d="M90.8976 213.959C90.9432 213.865 90.7785 213.691 90.5297 213.571C90.281 213.452 90.0423 213.431 89.9967 213.525C89.9511 213.62 90.1157 213.794 90.3645 213.914C90.6133 214.033 90.8519 214.054 90.8976 213.959Z" fill="#DBDBDB"/>
<path d="M88.7823 212.689C88.828 212.594 88.6633 212.42 88.4145 212.301C88.1657 212.181 87.9271 212.16 87.8814 212.255C87.8358 212.349 88.0005 212.523 88.2493 212.643C88.498 212.763 88.7367 212.783 88.7823 212.689Z" fill="#DBDBDB"/>
<path d="M78.8796 213.019C78.8796 213.019 78.9796 213.019 79.0396 213.019C79.0696 213.019 79.0896 213.019 79.1196 213.019C79.1796 213.019 79.2396 213.009 79.2996 212.999C79.5296 212.959 79.7596 212.879 79.9796 212.779C80.0096 212.759 80.0296 212.749 80.0696 212.729C81.1996 212.11 84.4696 210.302 85.1596 209.653C85.9896 208.854 85.1396 208.694 85.1396 208.694C85.2696 207.965 84.5096 207.725 84.5096 207.725C84.5096 207.186 84.0496 207.286 84.0496 207.286L79.7396 209.923L78.9996 210.372L78.3796 210.672C78.0996 210.782 77.8696 210.991 77.7296 211.271C77.6796 211.371 77.6496 211.471 77.6296 211.581C77.5796 211.801 77.6096 212.04 77.6996 212.24C77.7396 212.34 77.7896 212.44 77.8596 212.53C77.9596 212.67 78.0896 212.779 78.2396 212.859C78.4496 212.979 78.6696 213.029 78.8996 213.019H78.8796ZM78.0796 211.441C78.1196 211.361 78.1696 211.281 78.2396 211.221C78.3096 211.161 78.3796 211.111 78.4596 211.071C78.4996 211.051 78.5396 211.031 78.5896 211.021C78.7896 210.961 78.9896 210.971 79.1896 211.071C79.5996 211.271 79.7696 211.761 79.5696 212.17C79.4896 212.33 79.3696 212.45 79.2296 212.53C79.0996 212.61 78.9396 212.64 78.7896 212.63C78.6996 212.63 78.6196 212.61 78.5296 212.58H78.4796V212.56H78.4696C78.0496 212.35 77.8896 211.86 78.0896 211.461L78.0796 211.441Z" fill="#BABABA"/>
<path d="M78.4897 212.569V212.539H78.4697C78.0597 212.34 77.8897 211.85 78.0897 211.441C78.1697 211.271 78.3097 211.141 78.4597 211.061C78.4997 211.041 78.5497 211.021 78.5897 211.011C78.7797 210.951 78.9897 210.961 79.1897 211.061C79.5997 211.261 79.7697 211.75 79.5697 212.16C79.4897 212.32 79.3697 212.44 79.2297 212.519C79.0997 212.599 78.9497 212.629 78.7897 212.619C78.6997 212.619 78.6197 212.599 78.5297 212.569H78.4797H78.4897Z" fill="#FBF55B"/>
<path d="M78.4697 212.549C78.0597 212.34 77.8897 211.85 78.0897 211.441C78.1697 211.271 78.3097 211.141 78.4597 211.061C78.4997 211.041 78.5497 211.021 78.5897 211.011C78.7797 210.951 78.9897 210.961 79.1897 211.061C79.5997 211.261 79.7697 211.75 79.5697 212.16C79.4897 212.32 79.3697 212.44 79.2297 212.519C79.0997 212.599 78.9497 212.629 78.7897 212.619C78.6997 212.619 78.6197 212.599 78.5297 212.569C78.5097 212.569 78.4897 212.559 78.4697 212.549Z" fill="#DBDBDB"/>
<path d="M24.1704 216.455C24.1704 216.545 24.1704 216.645 24.1804 216.735V216.925C24.4104 221.939 39.7104 220.64 39.7104 220.64C39.7104 220.64 40.9504 220.381 41.0904 220.181C41.1004 220.181 41.1004 220.181 41.1104 220.181C41.5104 219.981 46.3804 219.771 47.6204 220.67C48.7604 221.5 54.3904 220.73 56.6404 218.733C57.0804 218.333 57.3004 217.744 57.2404 217.154L57.1104 215.826L57.0904 215.566L57.0304 214.957L57.0104 214.707L56.9904 214.507C56.9904 214.507 56.7304 213.758 55.9704 213.818C54.6604 213.958 52.1204 214.088 49.2604 213.409C49.2004 213.399 49.1404 213.379 49.0804 213.359C48.6104 213.209 46.3104 212.45 44.9604 211.781C43.8504 211.231 42.6904 210.562 41.4904 209.723C40.9004 209.323 40.3004 208.874 39.7004 208.404C39.7004 208.404 39.5804 207.695 38.3904 208.924C38.3404 208.984 38.2804 209.044 38.2204 209.114C38.1604 209.183 38.0904 209.253 38.0304 209.333C37.6904 209.733 37.2404 210.182 36.6904 210.612C36.6204 210.672 36.5504 210.722 36.4804 210.782C34.5404 212.25 31.3704 213.588 26.9104 212.46C26.6804 212.4 26.4304 212.38 26.1904 212.42C25.5104 212.54 24.3704 213.119 24.1804 215.656C24.1704 215.746 24.1604 215.836 24.1604 215.936C24.1504 216.106 24.1504 216.285 24.1504 216.475L24.1704 216.455Z" fill="white"/>
<path d="M24.1799 215.916C27.7999 217.634 31.2599 218.183 34.1799 218.183C39.0599 218.183 42.4199 216.675 42.4699 216.645C42.5199 216.625 48.5699 214.607 51.5899 215.117C53.8499 215.506 56.0199 215.157 57.0299 214.947L57.0099 214.697C56.0299 214.907 53.8699 215.256 51.6299 214.877C48.5399 214.347 42.6199 216.325 42.3699 216.415C42.2699 216.465 33.7799 220.261 24.1899 215.646C24.1899 215.736 24.1799 215.826 24.1699 215.916H24.1799Z" fill="#DBDBDB"/>
<path d="M24.1699 216.455C24.1699 216.545 24.1699 216.645 24.1699 216.735C27.7799 218.413 31.2899 218.932 34.2599 218.932C39.1799 218.932 42.6299 217.494 42.6899 217.474C42.7399 217.454 48.7899 215.436 51.8099 215.946C53.9699 216.315 56.0499 216.016 57.1199 215.806L57.0999 215.556C56.0599 215.766 53.9999 216.066 51.8599 215.706C48.7699 215.177 42.8499 217.154 42.5999 217.244C42.4999 217.284 33.7099 220.94 24.1699 216.465V216.455Z" fill="#DBDBDB"/>
<path d="M41.1104 220.171C41.5104 219.981 46.3804 219.761 47.6203 220.66C47.4903 220.541 44.4304 217.764 41.1104 220.171Z" fill="#DBDBDB"/>
<path d="M38.2305 209.103C38.9105 209.743 40.2205 210.422 40.6505 210.652C40.7305 210.692 40.7805 210.722 40.8005 210.722L40.9105 210.492C40.9105 210.492 40.8605 210.472 40.7905 210.432C40.3905 210.222 39.0505 209.523 38.4005 208.914C38.3505 208.974 38.2905 209.033 38.2305 209.093V209.103Z" fill="#DBDBDB"/>
<path d="M36.4897 210.772C37.7697 211.721 40.3397 212.769 40.7497 212.929C40.7797 212.929 40.7897 212.949 40.7997 212.949L40.8897 212.709C40.8897 212.709 40.7297 212.649 40.4697 212.54C39.6297 212.19 37.7197 211.351 36.6797 210.602C36.6097 210.662 36.5397 210.712 36.4697 210.762L36.4897 210.772Z" fill="#DBDBDB"/>
<path d="M35.3241 214.982C35.5988 214.954 35.805 214.77 35.7846 214.573C35.7642 214.375 35.525 214.237 35.2503 214.266C34.9756 214.294 34.7695 214.477 34.7899 214.675C34.8102 214.873 35.0495 215.01 35.3241 214.982Z" fill="#DBDBDB"/>
<path d="M32.2388 215.243C32.5135 215.214 32.7223 215.058 32.7053 214.893C32.6882 214.728 32.4517 214.618 32.177 214.646C31.9024 214.674 31.6935 214.831 31.7106 214.996C31.7276 215.16 31.9641 215.271 32.2388 215.243Z" fill="#DBDBDB"/>
<path d="M29.5835 214.948C29.8582 214.92 30.0671 214.763 30.05 214.598C30.033 214.434 29.7965 214.323 29.5218 214.351C29.2471 214.38 29.0382 214.536 29.0553 214.701C29.0723 214.866 29.3088 214.976 29.5835 214.948Z" fill="#DBDBDB"/>
<path d="M27.7876 214.114C28.0623 214.086 28.2761 213.978 28.2653 213.874C28.2544 213.769 28.023 213.708 27.7483 213.736C27.4736 213.765 27.2598 213.872 27.2706 213.977C27.2815 214.081 27.5129 214.143 27.7876 214.114Z" fill="#DBDBDB"/>
<path d="M30.6226 213.922C30.8972 213.894 31.1111 213.786 31.1003 213.681C31.0894 213.577 30.8579 213.516 30.5833 213.544C30.3086 213.573 30.0947 213.68 30.1056 213.785C30.1164 213.889 30.3479 213.951 30.6226 213.922Z" fill="#DBDBDB"/>
<path d="M32.8784 213.911C33.1272 213.791 33.2918 213.617 33.2462 213.523C33.2006 213.428 32.9619 213.449 32.7131 213.569C32.4644 213.689 32.2997 213.862 32.3453 213.957C32.3909 214.051 32.6296 214.031 32.8784 213.911Z" fill="#DBDBDB"/>
<path d="M34.9965 212.642C35.2453 212.522 35.41 212.348 35.3644 212.254C35.3187 212.159 35.0801 212.18 34.8313 212.3C34.5825 212.419 34.4179 212.593 34.4635 212.688C34.5091 212.782 34.7478 212.762 34.9965 212.642Z" fill="#DBDBDB"/>
<path d="M45.0201 212.859C45.1701 212.779 45.3001 212.66 45.4001 212.53C45.4701 212.44 45.5201 212.34 45.5601 212.24C45.6401 212.03 45.6701 211.8 45.6301 211.581C45.6101 211.471 45.5701 211.361 45.5301 211.271C45.3901 210.991 45.1601 210.782 44.8801 210.672L44.2601 210.372L43.5201 209.923L39.2101 207.286C39.2101 207.286 38.7501 207.176 38.7501 207.725C38.7501 207.725 38.0001 207.965 38.1201 208.694C38.1201 208.694 37.2701 208.864 38.1001 209.653C38.7901 210.302 42.0601 212.11 43.1901 212.729C43.2201 212.749 43.2401 212.759 43.2801 212.779C43.5001 212.889 43.7301 212.969 43.9601 212.999C44.0201 213.009 44.0801 213.019 44.1401 213.019C44.1701 213.019 44.2001 213.019 44.2201 213.019C44.2801 213.019 44.3301 213.019 44.3801 213.019C44.6101 213.019 44.8301 212.979 45.0401 212.859H45.0201ZM44.7801 212.54H44.7701V212.57H44.7201C44.6301 212.6 44.5401 212.62 44.4601 212.62C44.3101 212.63 44.1501 212.59 44.0201 212.52C43.8801 212.45 43.7601 212.32 43.6801 212.16C43.4801 211.751 43.6501 211.261 44.0601 211.061C44.2601 210.961 44.4701 210.951 44.6601 211.011C44.7001 211.011 44.7501 211.041 44.7901 211.061C44.8701 211.101 44.9401 211.151 45.0101 211.211C45.0701 211.271 45.1301 211.351 45.1701 211.431C45.3701 211.84 45.2001 212.33 44.7901 212.53L44.7801 212.54Z" fill="#BABABA"/>
<path d="M44.7596 212.569V212.539H44.7796C45.1896 212.34 45.3596 211.85 45.1596 211.441C45.0796 211.271 44.9396 211.141 44.7896 211.061C44.7496 211.041 44.6996 211.021 44.6596 211.011C44.4696 210.951 44.2596 210.961 44.0596 211.061C43.6496 211.261 43.4796 211.75 43.6796 212.16C43.7596 212.32 43.8796 212.44 44.0196 212.519C44.1496 212.599 44.2996 212.629 44.4596 212.619C44.5496 212.619 44.6296 212.599 44.7196 212.569H44.7696H44.7596Z" fill="#FBF55B"/>
<path d="M44.7796 212.549C45.1896 212.34 45.3596 211.85 45.1596 211.441C45.0796 211.271 44.9396 211.141 44.7896 211.061C44.7496 211.041 44.6996 211.021 44.6596 211.011C44.4696 210.951 44.2596 210.961 44.0596 211.061C43.6496 211.261 43.4796 211.75 43.6796 212.16C43.7596 212.32 43.8796 212.44 44.0196 212.519C44.1496 212.599 44.2996 212.629 44.4596 212.619C44.5496 212.619 44.6296 212.599 44.7196 212.569C44.7396 212.569 44.7596 212.559 44.7796 212.549Z" fill="#DBDBDB"/>
</svg>
