<svg width="137" height="243" viewBox="0 0 137 243" fill="none" xmlns="http://www.w3.org/2000/svg">
<g clip-path="url(#clip0_775_11478)">
<path d="M82.56 106.38H68.75C70.3 124 64.05 127.47 64.05 127.47C64.05 127.47 67.37 132.04 75.43 132.04H75.88C83.94 132.04 87.26 127.47 87.26 127.47C87.26 127.47 81.02 124 82.56 106.38Z" fill="#FDE2D2"/>
<path d="M82.56 106.38H68.75C70.3 124 64.05 127.47 64.05 127.47C64.05 127.47 64.07 127.5 64.11 127.55C70.9 126.84 77.64 124.47 83.24 120.33C82.44 117.16 82 112.68 82.55 106.39L82.56 106.38Z" fill="#EDCCC0"/>
<path d="M49.88 180.02L50.19 155.82C49.98 156.34 49.02 159.52 48.8 160.04C45.72 167.16 45.62 176.63 42.55 184.19C42.55 184.6 42.66 185.03 42.71 185.51C42.92 188.31 41.31 194.87 39.28 194.14C38.15 193.74 39.35 191.13 38.54 191.74C37.31 192.69 37.87 196.26 33.75 194.95C30.2 193.83 30.9 188.18 32.08 184.49C32.78 182.26 34.31 180.31 35.86 179.45C38.4 169.26 38.57 166.79 41.68 156.7C42.75 153.24 47.81 136.68 51.19 133.01C51.19 133.01 51.25 132.94 51.38 132.81C52.29 131.89 56.39 128.18 64.06 127.45C64.06 127.45 66.71 127.25 70.28 127.09C70.34 127.09 70.4 127.09 70.46 127.09C76.01 126.83 83.7 126.67 87.25 127.45C94.91 128.18 99.02 131.89 99.93 132.81C100.06 132.94 100.12 133.01 100.12 133.01C103.5 136.68 108.66 153.21 109.63 156.7C112.59 167.29 112.91 169.26 115.45 179.45C117 180.31 118.53 182.26 119.23 184.49C120.41 188.18 121.11 193.83 117.56 194.95C113.44 196.26 114 192.68 112.77 191.74C111.96 191.12 113.16 193.74 112.03 194.14C110 194.87 108.39 188.31 108.6 185.51C108.65 185.03 108.76 184.6 108.76 184.19C105.69 176.63 105.45 167.03 102.36 159.91C102.14 159.39 101.32 156.33 101.11 155.81L101.48 179.76" fill="#FDE2D2"/>
<path d="M61.7799 148.57C62.52 148.57 63.1199 147.97 63.1199 147.23C63.1199 146.49 62.52 145.89 61.7799 145.89C61.0399 145.89 60.4399 146.49 60.4399 147.23C60.4399 147.97 61.0399 148.57 61.7799 148.57Z" fill="#E9B7A8"/>
<path d="M90.58 148.57C91.3201 148.57 91.92 147.97 91.92 147.23C91.92 146.49 91.3201 145.89 90.58 145.89C89.8399 145.89 89.24 146.49 89.24 147.23C89.24 147.97 89.8399 148.57 90.58 148.57Z" fill="#E9B7A8"/>
<path d="M78.6 170.51C77.94 169.73 76.93 169.4 75.94 169.32C74.87 169.23 73.81 169.49 73.12 170.35C72.47 171.15 72.03 172.38 72.48 173.37C72.9 174.28 73.96 174.78 74.9 174.91C76.02 175.07 77.12 174.76 78 174.06C78.21 173.89 78.18 173.53 78 173.35C77.79 173.14 77.5 173.18 77.29 173.35C76.76 173.77 76.06 173.97 75.39 173.96C74.72 173.95 73.95 173.71 73.52 173.17C73.04 172.58 73.4 171.68 73.78 171.12C74.24 170.46 74.96 170.27 75.73 170.31C76.5 170.35 77.36 170.59 77.89 171.22C78.06 171.43 78.42 171.4 78.6 171.22C78.8 171.02 78.77 170.72 78.6 170.51Z" fill="#E9B7A8"/>
<path d="M74.77 172.86C74.7 172.86 74.64 172.83 74.6 172.77C74.53 172.67 74.56 172.54 74.65 172.48L76.15 171.45C76.25 171.38 76.38 171.41 76.44 171.5C76.51 171.6 76.48 171.73 76.39 171.79L74.89 172.82C74.89 172.82 74.81 172.86 74.77 172.86Z" fill="#E9B7A8"/>
<path d="M76.0299 173.09C75.9599 173.09 75.8999 173.06 75.8599 173L74.8299 171.5C74.7599 171.4 74.7899 171.27 74.8799 171.21C74.9799 171.14 75.1099 171.17 75.1699 171.26L76.1999 172.76C76.2699 172.86 76.2399 172.99 76.1499 173.05C76.1099 173.07 76.0699 173.09 76.0299 173.09Z" fill="#E9B7A8"/>
<path d="M29.4999 86.79C37.5412 86.79 44.0599 80.2937 44.0599 72.28C44.0599 64.2664 37.5412 57.77 29.4999 57.77C21.4587 57.77 14.9399 64.2664 14.9399 72.28C14.9399 80.2937 21.4587 86.79 29.4999 86.79Z" fill="#DDC3BA"/>
<path d="M116.28 86.4401C114.08 85.4001 112.32 83.9401 111 82.2501C110.58 81.7201 110.84 80.9501 111.47 80.7101C112.4 80.3501 113.22 79.6601 113.74 78.6401C114.41 77.3301 114.32 75.7001 113.52 74.4701C112.51 72.9101 110.77 72.2801 109.17 72.5601C108.52 72.6801 107.94 72.0901 108.02 71.4301C108.42 68.3501 109.8 65.3801 112.16 63.0201C117.85 57.3501 127.06 57.3501 132.74 63.0201C138.79 69.0601 138.41 79.0901 131.56 84.6201C127.28 88.0801 121.26 88.8001 116.28 86.4501V86.4401Z" fill="#DDC3BA"/>
<path d="M124.44 70.13V75.44C124.44 100.66 103.93 121.1 78.62 121.1H73.31C48.01 121.1 27.5 100.65 27.5 75.44V70.13C27.5 54.41 35.46 40.55 47.59 32.34C49.82 30.82 52.19 29.51 54.68 28.41C56.82 27.45 59.04 26.66 61.33 26.05C65.14 25.02 69.15 24.47 73.3 24.47H78.61C88.13 24.47 96.98 27.36 104.3 32.32C116.45 40.53 124.42 54.4 124.42 70.13H124.44Z" fill="#F7DBCF"/>
<path d="M59.44 71.03C60.9091 71.03 62.1 69.8435 62.1 68.38C62.1 66.9164 60.9091 65.73 59.44 65.73C57.971 65.73 56.78 66.9164 56.78 68.38C56.78 69.8435 57.971 71.03 59.44 71.03Z" fill="#505050"/>
<path d="M93.5001 71.03C94.9692 71.03 96.1601 69.8435 96.1601 68.38C96.1601 66.9164 94.9692 65.73 93.5001 65.73C92.031 65.73 90.8401 66.9164 90.8401 68.38C90.8401 69.8435 92.031 71.03 93.5001 71.03Z" fill="#505050"/>
<path d="M79.03 78C79.03 78.86 77.52 79.55 75.66 79.55C73.8 79.55 72.29 78.86 72.29 78C72.29 77.14 73.8 76.45 75.66 76.45C77.52 76.45 79.03 77.14 79.03 78Z" fill="#E9B7A8"/>
<path d="M63.9701 60.0599C59.5901 59.4299 55.1001 60.9999 50.9901 62.3899C49.3001 62.9599 48.03 62.1399 47.6 60.7599C47.17 59.3799 47.5501 58.0399 49.3601 57.3899C53.7601 55.8099 59.0701 54.1999 63.8001 54.8199C65.7501 55.0799 66.59 56.1199 66.63 57.6199C66.68 59.1199 65.76 60.3199 63.9601 60.0599H63.9701Z" fill="#505050"/>
<path d="M88.6601 60.0599C93.0401 59.4299 97.5301 60.9999 101.64 62.3899C103.33 62.9599 104.6 62.1399 105.03 60.7599C105.46 59.3799 105.08 58.0399 103.27 57.3899C98.8701 55.8099 93.5601 54.1999 88.8301 54.8199C86.8801 55.0799 86.0401 56.1199 86.0001 57.6199C85.9501 59.1199 86.8701 60.3199 88.6701 60.0599H88.6601Z" fill="#505050"/>
<path d="M104.32 32.32C100.05 33.93 88.7101 33.58 75.6201 33.58C62.5301 33.58 51.7301 33.93 47.5901 32.34C49.6601 30.93 51.8601 29.7 54.1601 28.65C54.3301 28.56 54.5101 28.49 54.6801 28.41C56.8201 27.45 59.0401 26.66 61.3301 26.05C63.3701 25.5 65.4601 25.09 67.6101 24.82C69.4701 24.59 71.3601 24.47 73.2901 24.47H78.6001C88.1201 24.47 96.9701 27.36 104.29 32.32H104.32Z" fill="#4E4A4B"/>
<path d="M82.6199 237.16C82.5899 237.75 82.8899 238.65 83.3599 239.26C85.3299 241.17 87.5099 241.46 91.0199 242.02C95.7599 242.77 99.8199 242.07 100.27 239.23C100.65 236.81 98.7999 234.15 95.1299 233.01C95.1299 233.01 94.0199 232.86 94.0199 232.09L94.4099 218.3L94.8399 203.19L81.1599 203.31L81.9899 218.19" fill="#FDE2D2"/>
<path d="M70.13 237.16C70.16 237.75 69.86 238.65 69.39 239.26C67.42 241.17 65.24 241.46 61.73 242.02C56.99 242.77 52.93 242.07 52.48 239.23C52.1 236.81 53.95 234.15 57.62 233.01C57.62 233.01 58.73 232.86 58.73 232.09L58.34 218.3L57.91 203.19L71.59 203.31L70.76 218.19" fill="#FDE2D2"/>
<path d="M100.52 180.58L99.9301 191.33L99.9101 191.78L99.7201 196.9L99.6901 197.7L98.9201 217.97L98.8401 220.08C98.7801 222.08 97.8501 223.63 96.7301 223.65L78.8001 223.92C77.7101 223.94 76.8001 222.48 76.6701 220.58L76.5001 217.98L75.3301 199.78L74.1501 217.98L73.9801 220.58C73.8601 222.49 72.9501 223.94 71.8601 223.92L53.9301 223.65C52.8101 223.63 51.8801 222.07 51.8201 220.08L51.7401 217.97L50.9701 197.7L50.9401 196.9L50.9101 191.33L50.3201 180.58H57.0901H58.0801H75.3301H92.5701H93.5701H100.52Z" fill="#F1001A"/>
<path d="M78.7699 224.91C77.1399 224.91 75.8399 223.12 75.6699 220.63L75.3199 215.27L74.9699 220.62C74.8099 223.13 73.5099 224.91 71.8299 224.9L53.8999 224.63C52.1799 224.6 50.8799 222.69 50.7999 220.09L49.9199 196.92L49.8899 191.32L49.2999 180.62C49.2799 180.35 49.3799 180.08 49.5699 179.88C49.7599 179.68 50.0199 179.57 50.2999 179.57H56.9299C56.9299 179.57 57.0199 179.57 57.0699 179.57H93.5499C93.5499 179.57 93.6399 179.57 93.6899 179.57H100.5C100.77 179.57 101.04 179.68 101.23 179.88C101.42 180.08 101.52 180.35 101.5 180.62L100.89 191.81L99.8199 220.09C99.7399 222.68 98.4399 224.59 96.7299 224.63L78.7999 224.9H78.7599L78.7699 224.91ZM75.3199 198.76C75.8499 198.76 76.2799 199.17 76.3199 199.7L77.6599 220.51C77.7699 222.07 78.4499 222.92 78.7699 222.92L96.6999 222.65C97.0499 222.65 97.7799 221.72 97.8299 220.05L98.9199 191.29L99.4499 181.59H93.5499C93.5499 181.59 93.4599 181.59 93.4099 181.59H57.2099C57.2099 181.59 57.1199 181.59 57.0699 181.59H51.3499L51.8799 191.28L51.9399 197.66L52.7899 220.03C52.8399 221.71 53.5599 222.63 53.9199 222.64L71.8399 222.91C72.1699 222.91 72.8499 222.07 72.9399 220.5L74.2899 199.69C74.3199 199.16 74.7599 198.75 75.2899 198.75L75.3199 198.76Z" fill="#331C06"/>
<path d="M63.5799 242.88C55.6399 242.88 53.7299 244.04 50.8999 239.06C48.0699 234.08 56.2999 231.67 56.2999 231.67V223.38H70.8499V236.48C70.8499 236.48 71.5199 242.88 63.5799 242.88Z" fill="#331C06"/>
<path d="M88.93 242.88C96.87 242.88 98.78 244.04 101.61 239.06C104.44 234.08 96.21 231.67 96.21 231.67V223.38H81.66V236.48C81.66 236.48 80.99 242.88 88.93 242.88Z" fill="#331C06"/>
<path d="M53.58 126.89L76.24 126.71L80.65 142.27C84.83 154.65 81.9 180.72 81.9 180.72C55.2 186.08 49.63 180.36 49.63 180.36C46.65 173.67 50.21 156.89 50.21 156.89C49.34 159.78 48.17 168.23 47.41 174.21C46.99 177.48 43.66 179.54 40.54 178.46L37.34 177.35C34.91 176.51 33.46 174.03 33.92 171.51C36.12 159.51 43.05 127.05 53.57 126.9L53.58 126.89Z" fill="#F1001A"/>
<path d="M62.38 183.99C51.95 183.99 49.08 181.22 48.91 181.05C48.83 180.97 48.76 180.87 48.71 180.76C48.19 179.59 47.86 178.16 47.66 176.57C47.16 177.47 46.43 178.24 45.52 178.81C43.92 179.8 41.99 180.02 40.21 179.4L37.01 178.29C34.1 177.28 32.38 174.35 32.94 171.33C40.17 131.95 48.97 125.96 53.56 125.9L76.22 125.72C76.66 125.72 77.07 126.01 77.19 126.45L81.6 142.01C85.78 154.42 83 179.77 82.88 180.84C82.83 181.27 82.51 181.62 82.08 181.71C73.58 183.41 67.17 184 62.36 184L62.38 183.99ZM50.46 179.74C51.35 180.39 57.97 184.39 80.99 179.88C81.42 175.6 83.38 153.48 79.71 142.59L75.49 127.72L53.6 127.9C45.73 128.02 38.79 150.6 34.92 171.69C34.55 173.74 35.71 175.72 37.68 176.4L40.88 177.51C42.09 177.93 43.4 177.78 44.48 177.11C45.56 176.44 46.27 175.34 46.43 174.08C47.24 167.71 48.39 159.5 49.26 156.6C49.42 156.09 49.95 155.78 50.47 155.92C50.99 156.05 51.31 156.57 51.2 157.1C51.16 157.26 47.81 173.29 50.46 179.74Z" fill="#331C06"/>
<path d="M85.95 174.18C86.21 168.79 82.21 132.89 80.76 128.98C79.85 126.54 76.93 125.51 74.66 126.8L74.56 126.85C72.75 127.89 71.95 130.07 72.67 132.03C73.71 134.83 77.81 168.02 77.9 171.21C77.94 172.85 78.14 175.05 77.18 175.17C72.19 175.81 56.73 176.12 53.92 175.03C52.21 174.37 50.26 174.63 48.91 175.87L48.8 175.97C46.47 178.12 47.13 181.79 50.05 182.98C55.54 185.22 76.85 184.31 81.11 183.31C83.79 182.68 85.72 182.03 85.68 178.94L85.95 174.18Z" fill="white"/>
<path d="M64.2 185.39C58.2 185.39 52.35 185.01 49.66 183.91C47.97 183.22 46.78 181.77 46.46 180.03C46.14 178.28 46.76 176.49 48.11 175.25L48.22 175.15C49.81 173.69 52.13 173.3 54.26 174.12C56.72 175.07 71.33 174.88 76.82 174.23C76.97 173.76 76.92 172.52 76.9 171.82L76.88 171.26C76.77 167.32 72.63 134.86 71.71 132.4C70.82 129.98 71.8 127.29 74.04 126.01L74.19 125.93C75.49 125.19 77.1 125.05 78.56 125.58C80.01 126.1 81.14 127.22 81.67 128.65C83.25 132.9 87.17 168.98 86.92 174.25L86.65 179.02C86.71 183.05 83.59 183.78 81.31 184.31C79.04 184.84 71.5 185.41 64.18 185.41L64.2 185.39ZM52.03 175.69C51.11 175.69 50.24 176.01 49.57 176.62L49.46 176.72C48.61 177.5 48.23 178.58 48.43 179.67C48.63 180.75 49.35 181.62 50.42 182.06C55.56 184.15 76.52 183.36 80.88 182.34C83.6 181.7 84.71 181.22 84.67 178.95L84.95 174.13C85.22 168.48 81.15 132.9 79.82 129.33C79.49 128.45 78.79 127.76 77.9 127.44C76.99 127.11 75.99 127.19 75.15 127.67L75 127.75C73.66 128.52 73.05 130.19 73.6 131.69C74.77 134.84 78.81 168.45 78.89 171.19L78.91 171.73C78.98 173.61 79.06 175.94 77.3 176.17C72.68 176.76 56.71 177.2 53.55 175.97C53.05 175.78 52.54 175.68 52.04 175.68L52.03 175.69Z" fill="#331C06"/>
<path d="M36.47 198.66C42.58 199 40.55 194.3 41.9 192.57C42.79 191.44 42.07 195.44 43.76 195.59C46.8 195.87 46.68 186.32 45.4 182.55C45.16 181.91 44.86 181.36 44.71 180.8C44.85 179.8 44.95 178.78 45 177.75L35.67 173.09C35.69 174.47 33.84 175.04 33.86 176.68C32.04 178.4 30.64 181.62 30.47 184.92C30.16 190.4 31.21 198.38 36.47 198.66Z" fill="#F1001A"/>
<path d="M37.06 199.68C36.86 199.68 36.65 199.68 36.43 199.66C34.86 199.58 33.51 198.92 32.41 197.7C29.22 194.15 29.36 186.98 29.48 184.86C29.65 181.57 30.98 178.24 32.9 176.23C33.04 175.24 33.64 174.56 34.09 174.05C34.46 173.63 34.69 173.36 34.69 173.09L34.67 171.45L46.05 177.14L46.02 177.79C45.97 178.73 45.88 179.72 45.75 180.71C45.82 180.93 45.93 181.17 46.04 181.43C46.15 181.67 46.25 181.92 46.35 182.18C47.42 185.32 47.92 192.93 45.83 195.57C45.27 196.29 44.5 196.64 43.68 196.56C42.96 196.5 42.49 196.12 42.17 195.62C41.87 197.41 41.03 199.65 37.06 199.65V199.68ZM36.28 174.5C36.07 174.84 35.82 175.12 35.59 175.38C35.13 175.9 34.87 176.22 34.87 176.67V177.11L34.56 177.41C32.87 179.01 31.63 182.05 31.48 184.97C31.26 188.93 31.78 193.99 33.9 196.36C34.63 197.18 35.49 197.6 36.53 197.66C39.89 197.84 40.05 196.55 40.3 194.58C40.42 193.65 40.54 192.69 41.11 191.95C41.62 191.3 42.16 191.32 42.44 191.4C43.23 191.61 43.35 192.4 43.47 193.16C43.52 193.51 43.67 194.44 43.88 194.61C43.92 194.61 44.05 194.61 44.25 194.36C45.58 192.67 45.51 185.98 44.45 182.88C44.37 182.68 44.28 182.46 44.19 182.25C44.02 181.87 43.85 181.48 43.74 181.05L43.69 180.86L43.72 180.67C43.83 179.88 43.91 179.11 43.96 178.35L36.26 174.5H36.28Z" fill="#331C06"/>
<path d="M42.1 179.55C40.32 178.27 37.65 177.92 35.58 177.91C34.13 177.91 32.91 176.86 32.67 175.44V175.37C32.37 173.59 33.73 171.94 35.55 171.94C38.44 171.94 42.61 172.44 45.79 174.81C47.48 176.07 47.35 178.65 45.53 179.73L45.44 179.78C44.39 180.4 43.09 180.27 42.1 179.55Z" fill="white"/>
<path d="M43.9799 181.17C43.1299 181.17 42.2599 180.9 41.5099 180.36C39.7699 179.11 37.0399 178.91 35.5699 178.91C33.6299 178.91 31.9899 177.51 31.6799 175.6C31.4799 174.38 31.8099 173.21 32.5599 172.32C33.3099 171.44 34.3899 170.94 35.5399 170.94C38.6099 170.94 42.9899 171.48 46.3799 174.01C47.4499 174.81 48.0399 176.07 47.9699 177.4C47.8999 178.72 47.1799 179.91 46.0299 180.59L45.9399 180.64C45.3399 181 44.6599 181.17 43.9699 181.17H43.9799ZM42.6799 178.74C43.3899 179.25 44.2499 179.32 44.9299 178.92L45.0199 178.87C45.5899 178.53 45.9399 177.96 45.9699 177.3C46.0099 176.63 45.7199 176.02 45.1799 175.62C42.2299 173.42 38.3099 172.95 35.5399 172.95C34.9699 172.95 34.4599 173.19 34.0799 173.63C33.7099 174.07 33.5399 174.65 33.6399 175.22C33.8099 176.24 34.6199 176.92 35.5799 176.93C37.6699 176.93 40.6099 177.26 42.6899 178.76L42.6799 178.74Z" fill="#331C06"/>
<path d="M98.51 126.89L75.85 126.71L71.44 142.27C67.26 154.65 70.19 180.72 70.19 180.72C96.89 186.08 102.46 180.36 102.46 180.36C105.44 173.67 101.88 156.89 101.88 156.89C102.75 159.78 103.92 168.23 104.68 174.21C105.1 177.48 108.43 179.54 111.55 178.46L114.75 177.35C117.18 176.51 118.63 174.03 118.17 171.51C115.97 159.51 109.04 127.05 98.52 126.9L98.51 126.89Z" fill="#F1001A"/>
<path d="M89.7199 183.99C84.9099 183.99 78.4999 183.4 69.9999 181.7C69.5699 181.61 69.2499 181.26 69.1999 180.83C69.0799 179.76 66.2999 154.41 70.4899 141.95L74.8899 126.44C75.0099 126.01 75.3999 125.71 75.8499 125.71L98.5099 125.89C103.11 125.96 111.9 131.95 119.13 171.32C119.69 174.35 117.97 177.27 115.06 178.28L111.86 179.39C110.08 180 108.15 179.79 106.55 178.8C105.64 178.24 104.91 177.47 104.41 176.56C104.21 178.15 103.88 179.58 103.36 180.75C103.31 180.86 103.25 180.96 103.16 181.04C102.99 181.21 100.12 183.98 89.6899 183.98L89.7199 183.99ZM71.1199 179.88C94.0499 184.37 100.71 180.42 101.65 179.74C104.3 173.28 100.95 157.26 100.91 157.1C100.8 156.58 101.12 156.06 101.64 155.92C102.16 155.79 102.69 156.09 102.85 156.6C103.72 159.51 104.87 167.71 105.68 174.08C105.84 175.33 106.55 176.44 107.63 177.11C108.71 177.78 110.03 177.93 111.23 177.51L114.43 176.4C116.4 175.72 117.56 173.73 117.19 171.69C113.32 150.6 106.37 128.01 98.5099 127.9L76.6199 127.72L72.4099 142.55C68.7199 153.48 70.6899 175.6 71.1199 179.89V179.88Z" fill="#331C06"/>
<path d="M66.1499 174.18C65.8899 168.79 71.0099 131.04 72.4599 127.13C73.3699 124.69 76.2899 123.66 78.5599 124.95L78.6599 125C80.4699 126.04 81.2699 128.22 80.5499 130.18C79.5099 132.98 74.2899 168.02 74.1999 171.22C74.1599 172.86 73.9599 175.06 74.9199 175.18C79.9099 175.82 95.3699 176.13 98.1799 175.04C99.8899 174.38 101.84 174.64 103.19 175.88L103.3 175.98C105.63 178.13 104.97 181.8 102.05 182.99C96.5599 185.23 75.2499 184.32 70.9899 183.32C68.3099 182.69 66.3799 182.04 66.4199 178.95L66.1499 174.19V174.18Z" fill="white"/>
<path d="M87.89 185.39C80.57 185.39 73.03 184.82 70.76 184.29C68.48 183.76 65.36 183.02 65.42 178.93L65.15 174.23C64.89 168.72 69.95 131.02 71.52 126.78C72.05 125.35 73.19 124.23 74.63 123.71C76.09 123.18 77.71 123.32 79.06 124.09L79.11 124.12C81.4 125.43 82.38 128.12 81.49 130.54C80.48 133.27 75.28 168.32 75.2 171.26L75.18 171.82C75.15 172.52 75.11 173.76 75.26 174.23C80.75 174.89 95.36 175.08 97.82 174.12C99.96 173.3 102.28 173.69 103.87 175.15L103.97 175.24C105.33 176.49 105.94 178.28 105.63 180.03C105.31 181.78 104.12 183.23 102.43 183.91C99.74 185 93.89 185.39 87.89 185.39ZM67.15 174.13L67.42 178.88C67.39 181.22 68.5 181.7 71.22 182.34C75.58 183.36 96.54 184.15 101.68 182.06C102.75 181.63 103.47 180.76 103.67 179.67C103.87 178.58 103.49 177.5 102.63 176.71L102.53 176.62C101.49 175.67 99.97 175.42 98.55 175.97C95.39 177.19 79.43 176.76 74.81 176.17C73.04 175.94 73.13 173.6 73.2 171.73L73.22 171.19C73.31 167.78 78.58 132.67 79.63 129.83C80.18 128.33 79.57 126.66 78.18 125.87L78.13 125.84C77.25 125.34 76.24 125.25 75.33 125.58C74.44 125.9 73.74 126.59 73.41 127.47C71.94 131.44 66.91 168.92 67.16 174.12L67.15 174.13Z" fill="#331C06"/>
<path d="M115.62 198.66C109.51 199 111.54 194.3 110.19 192.57C109.3 191.44 110.02 195.44 108.33 195.59C105.29 195.87 105.41 186.32 106.69 182.55C106.93 181.91 107.23 181.36 107.38 180.8C107.24 179.8 107.14 178.78 107.09 177.75L116.42 173.09C116.4 174.47 118.25 175.04 118.23 176.68C120.05 178.4 121.45 181.62 121.62 184.92C121.93 190.4 120.88 198.38 115.62 198.66Z" fill="#F1001A"/>
<path d="M115.04 199.68C111.07 199.68 110.23 197.44 109.93 195.65C109.61 196.14 109.14 196.52 108.42 196.59C107.61 196.66 106.84 196.31 106.27 195.6C104.19 192.96 104.68 185.35 105.74 182.24C105.85 181.95 105.96 181.7 106.06 181.45C106.17 181.19 106.28 180.95 106.35 180.73C106.22 179.73 106.13 178.75 106.08 177.81L106.05 177.16L117.43 171.47L117.4 173.12C117.4 173.38 117.62 173.65 118 174.08C118.45 174.59 119.05 175.27 119.19 176.26C121.11 178.26 122.44 181.6 122.61 184.89C122.73 187 122.87 194.17 119.68 197.72C118.59 198.94 117.24 199.6 115.66 199.68C115.44 199.69 115.23 199.7 115.03 199.7L115.04 199.68ZM109.93 191.37C110.22 191.37 110.61 191.49 110.98 191.95C111.56 192.69 111.68 193.65 111.8 194.58C112.05 196.55 112.2 197.83 115.57 197.66C116.61 197.6 117.47 197.18 118.2 196.36C120.32 193.99 120.84 188.92 120.62 184.97C120.47 182.04 119.23 179 117.54 177.4L117.22 177.1V176.66C117.22 176.21 116.97 175.89 116.51 175.37C116.28 175.11 116.03 174.83 115.82 174.49L108.12 178.34C108.17 179.09 108.26 179.87 108.36 180.66L108.39 180.86L108.34 181.05C108.23 181.47 108.06 181.86 107.9 182.24C107.81 182.45 107.71 182.67 107.63 182.9C106.59 185.97 106.51 192.66 107.84 194.35C108.04 194.61 108.17 194.6 108.24 194.59C108.42 194.44 108.57 193.51 108.62 193.16C108.74 192.4 108.86 191.61 109.65 191.4C109.73 191.38 109.82 191.36 109.94 191.36L109.93 191.37Z" fill="#331C06"/>
<path d="M109.99 179.55C111.77 178.27 114.44 177.92 116.51 177.91C117.96 177.91 119.18 176.86 119.42 175.44V175.37C119.72 173.59 118.36 171.94 116.54 171.94C113.65 171.94 109.48 172.44 106.3 174.81C104.61 176.07 104.74 178.65 106.56 179.73L106.65 179.78C107.7 180.4 109 180.27 109.99 179.55Z" fill="white"/>
<path d="M108.11 181.17C107.42 181.17 106.74 180.99 106.14 180.64C104.91 179.92 104.19 178.72 104.12 177.4C104.05 176.07 104.64 174.81 105.71 174.01C109.1 171.48 113.47 170.95 116.55 170.94C117.7 170.94 118.78 171.44 119.53 172.32C120.29 173.21 120.61 174.38 120.42 175.53C120.09 177.52 118.46 178.91 116.52 178.91C115.05 178.91 112.31 179.11 110.58 180.36C109.84 180.9 108.97 181.17 108.12 181.17H108.11ZM116.55 172.94C113.78 172.94 109.86 173.41 106.91 175.61C106.37 176.01 106.09 176.62 106.12 177.29C106.16 177.95 106.5 178.53 107.08 178.87C107.85 179.32 108.71 179.25 109.42 178.74C111.5 177.24 114.43 176.92 116.53 176.91C117.49 176.91 118.3 176.22 118.45 175.28C118.56 174.64 118.4 174.06 118.02 173.62C117.65 173.18 117.13 172.94 116.56 172.94H116.55Z" fill="#331C06"/>
<path d="M74.8599 171.22C58.1499 171.22 47.8299 168.08 47.1899 167.88L50.1699 158.35C50.3799 158.41 71.7799 164.81 102.7 158.23L104.79 167.99C93.4599 170.4 83.3399 171.21 74.8599 171.21V171.22Z" fill="#331C06"/>
<path d="M79.4899 158.26H67.82C64.9923 158.26 62.7 160.552 62.7 163.38V168.54C62.7 171.368 64.9923 173.66 67.82 173.66H79.4899C82.3176 173.66 84.61 171.368 84.61 168.54V163.38C84.61 160.552 82.3176 158.26 79.4899 158.26Z" fill="#F9C112"/>
<path d="M79.47 174.15H67.83C64.72 174.15 62.2 171.63 62.2 168.53V163.37C62.2 160.27 64.73 157.75 67.83 157.75H79.47C82.58 157.75 85.0999 160.27 85.0999 163.37V168.53C85.0999 171.63 82.57 174.15 79.47 174.15ZM67.83 158.75C65.28 158.75 63.2 160.82 63.2 163.37V168.53C63.2 171.08 65.28 173.15 67.83 173.15H79.47C82.02 173.15 84.0999 171.08 84.0999 168.53V163.37C84.0999 160.82 82.02 158.75 79.47 158.75H67.83Z" fill="#331C06"/>
<path d="M77.3 161.13H70C68.2272 161.13 66.79 162.567 66.79 164.34V167.56C66.79 169.333 68.2272 170.77 70 170.77H77.3C79.0729 170.77 80.51 169.333 80.51 167.56V164.34C80.51 162.567 79.0729 161.13 77.3 161.13Z" fill="#331C06"/>
<path d="M77.29 171.27H70C67.95 171.27 66.29 169.61 66.29 167.57V164.34C66.29 162.3 67.96 160.64 70 160.64H77.29C79.34 160.64 81 162.3 81 164.34V167.57C81 169.61 79.33 171.27 77.29 171.27ZM70 161.63C68.5 161.63 67.29 162.84 67.29 164.34V167.57C67.29 169.06 68.51 170.28 70 170.28H77.29C78.79 170.28 80 169.07 80 167.57V164.34C80 162.85 78.78 161.63 77.29 161.63H70Z" fill="#F9C112"/>
<path d="M73.0401 164.41H66.2701C65.6295 164.41 65.1101 164.929 65.1101 165.57V166.33C65.1101 166.971 65.6295 167.49 66.2701 167.49H73.0401C73.6808 167.49 74.2001 166.971 74.2001 166.33V165.57C74.2001 164.929 73.6808 164.41 73.0401 164.41Z" fill="#F9C112"/>
<path d="M73.0401 167.99H66.2801C65.3601 167.99 64.6201 167.25 64.6201 166.33V165.57C64.6201 164.65 65.3701 163.91 66.2801 163.91H73.0401C73.9601 163.91 74.7001 164.65 74.7001 165.57V166.33C74.7001 167.25 73.9501 167.99 73.0401 167.99ZM66.2801 164.91C65.9101 164.91 65.6201 165.21 65.6201 165.57V166.33C65.6201 166.7 65.9201 166.99 66.2801 166.99H73.0401C73.4101 166.99 73.7001 166.69 73.7001 166.33V165.57C73.7001 165.21 73.4001 164.91 73.0401 164.91H66.2801Z" fill="#331C06"/>
<path d="M34.69 35.0201C34.15 36.5301 34.53 38.2701 34.53 39.8701C62.39 29.5901 90.04 29.4101 117.44 39.8701C117.44 37.6101 116.88 35.4401 115.85 33.3701L112.66 24.4701C106.26 10.4301 94.43 0.770114 69.51 1.00011C44.58 1.22011 14.03 27.9101 14.03 27.9101L30.5 30.4501C30.5 30.4501 34.41 31.2001 34.69 35.0201Z" fill="#F1001A"/>
<path d="M117.43 40.87C117.31 40.87 117.19 40.85 117.07 40.8C90.26 30.57 62.6 30.57 34.86 40.8C34.55 40.91 34.21 40.87 33.94 40.68C33.67 40.49 33.51 40.19 33.51 39.86C33.51 39.42 33.48 38.97 33.45 38.51C33.37 37.32 33.29 36.09 33.66 34.89C33.33 32.03 30.33 31.43 30.3 31.42L13.87 28.89C13.49 28.83 13.17 28.55 13.06 28.18C12.95 27.81 13.06 27.4 13.36 27.15C13.44 27.08 21.18 20.35 31.88 13.68C46.32 4.7 58.97 0.1 69.5 0C69.8 0 70.09 0 70.39 0C92.38 0 106.11 7.66 113.56 24.05L116.76 32.97C117.87 35.21 118.43 37.53 118.43 39.86C118.43 40.19 118.27 40.5 118 40.68C117.83 40.8 117.63 40.86 117.43 40.86V40.87ZM16.37 27.27L30.65 29.47C32.3 29.79 35.42 31.33 35.68 34.96C35.69 35.1 35.68 35.24 35.62 35.37C35.31 36.25 35.37 37.29 35.45 38.4C35.45 38.43 35.45 38.45 35.45 38.47C62.73 28.71 89.93 28.69 116.33 38.4C116.15 36.86 115.68 35.32 114.93 33.82C114.91 33.78 114.9 33.75 114.88 33.71L111.69 24.81C107.24 15.04 98.08 2 70.33 2C70.05 2 69.78 2 69.5 2C48.52 2.18 23.06 21.78 16.35 27.26L16.37 27.27Z" fill="#331C06"/>
<path d="M35.0299 52.18C32.1799 52.18 29.5099 50.44 28.4599 47.62C27.1199 44 28.9699 39.98 32.5999 38.64C62.2099 27.71 91.7599 27.72 120.44 38.67C124.05 40.05 125.86 44.09 124.48 47.69C123.1 51.29 119.05 53.1 115.44 51.72C90.0199 42.02 63.7899 42.03 37.4599 51.75C36.6599 52.05 35.8399 52.19 35.0299 52.19V52.18Z" fill="white"/>
<path d="M35.0301 53.18C31.7001 53.18 28.6801 51.08 27.5201 47.97C26.7801 45.97 26.8601 43.8 27.7501 41.87C28.6401 39.93 30.2401 38.45 32.2501 37.71C62.0901 26.7 91.8801 26.71 120.8 37.74C122.8 38.5 124.38 40 125.25 41.95C126.12 43.9 126.18 46.06 125.41 48.05C123.83 52.16 119.19 54.22 115.08 52.65C89.8901 43.04 63.8901 43.05 37.8101 52.68C36.9201 53.01 35.9801 53.18 35.0301 53.18ZM76.8301 31.45C62.2801 31.45 47.6201 34.16 32.9501 39.58C31.4401 40.14 30.2501 41.24 29.5801 42.7C28.9101 44.15 28.8501 45.78 29.4101 47.27C30.2801 49.61 32.5401 51.18 35.0401 51.18C35.7501 51.18 36.4501 51.05 37.1201 50.81C63.6801 41.01 90.1501 41 115.8 50.79C118.89 51.97 122.37 50.42 123.55 47.34C124.12 45.85 124.08 44.23 123.43 42.77C122.78 41.31 121.59 40.19 120.09 39.61C105.86 34.18 91.4001 31.46 76.8301 31.46V31.45Z" fill="#331C06"/>
<path d="M12.28 40.29C18.5098 40.29 23.56 35.2532 23.56 29.04C23.56 22.8268 18.5098 17.79 12.28 17.79C6.05023 17.79 1 22.8268 1 29.04C1 35.2532 6.05023 40.29 12.28 40.29Z" fill="white"/>
<path d="M12.28 41.29C5.51 41.29 0 35.79 0 29.04C0 22.29 5.51 16.79 12.28 16.79C19.05 16.79 24.56 22.29 24.56 29.04C24.56 35.79 19.05 41.29 12.28 41.29ZM12.28 18.78C6.61 18.78 2 23.38 2 29.03C2 34.68 6.61 39.28 12.28 39.28C17.95 39.28 22.56 34.68 22.56 29.03C22.56 23.38 17.95 18.78 12.28 18.78Z" fill="#331C06"/>
<path d="M124.94 98.1901C124.94 103.77 120.41 108.29 114.82 108.29C114.16 108.29 113.52 108.23 112.89 108.11C113.07 108.84 113.16 109.6 113.16 110.38C113.16 115.54 109.28 119.79 104.28 120.4C104.23 123.44 102.82 126.44 100.18 128.37C97.51 130.34 94.2 130.81 91.25 129.92C90.31 134.51 86.23 137.96 81.34 137.96C78.07 137.96 75.16 136.41 73.31 134.01C71.64 135.22 69.59 135.93 67.38 135.93C62.93 135.93 59.15 133.07 57.8 129.1C57.06 129.22 56.3 129.26 55.53 129.21C50.66 128.91 46.81 125.21 46.16 120.57C45.5 120.7 44.83 120.77 44.13 120.77C38.55 120.77 34.01 116.25 34.01 110.67C34.01 108.96 34.43 107.37 35.18 105.96C30.54 105.03 27.04 100.95 27.04 96.0501C27.04 90.4801 31.58 85.9501 37.16 85.9501C40.68 85.9501 43.78 87.7501 45.6 90.4701C47.01 89.5501 48.7 89.0201 50.51 89.0201C52.92 89.0201 55.11 89.9601 56.73 91.4801C58.31 88.8501 61.19 87.0801 64.49 87.0801C67.57 87.0801 70.29 88.6201 71.93 90.9601C73.41 87.9901 76.48 85.9401 80.03 85.9401C83.79 85.9401 87.02 88.2301 88.38 91.4901C90 89.9501 92.19 89.0201 94.6 89.0201C95.17 89.0201 95.72 89.0701 96.26 89.1701C97.9 86.8601 100.6 85.3601 103.64 85.3601C106.68 85.3601 109.18 86.7501 110.82 88.9101C112.05 88.3801 113.4 88.0901 114.82 88.0901C120.41 88.0901 124.94 92.6101 124.94 98.1901Z" fill="white"/>
<path d="M81.31 138.96C78.14 138.96 75.19 137.65 73.08 135.33C71.35 136.37 69.39 136.92 67.34 136.92C62.85 136.92 58.83 134.24 57.1 130.18C56.54 130.23 55.97 130.24 55.42 130.2C50.52 129.9 46.41 126.38 45.31 121.69C44.9 121.73 44.5 121.76 44.08 121.76C37.95 121.76 32.96 116.78 32.96 110.66C32.96 109.25 33.22 107.89 33.72 106.62C29.17 105.16 25.99 100.9 25.99 96.0401C25.99 89.9201 30.98 84.9401 37.11 84.9401C40.53 84.9401 43.72 86.5001 45.83 89.1401C47.25 88.4001 48.84 88.0101 50.47 88.0101C52.66 88.0101 54.76 88.7101 56.49 90.0001C58.38 87.5201 61.29 86.0801 64.46 86.0801C67.24 86.0801 69.88 87.2301 71.77 89.2301C73.63 86.5601 76.67 84.9501 80 84.9501C83.63 84.9501 86.91 86.8701 88.69 89.9201C90.72 88.4501 93.31 87.7901 95.8 88.0901C97.7 85.7401 100.58 84.3601 103.62 84.3601C106.66 84.3601 109.22 85.5701 111.12 87.7201C112.3 87.3101 113.54 87.1001 114.81 87.1001C120.94 87.1001 125.93 92.0801 125.93 98.2001C125.93 104.32 120.94 109.3 114.81 109.3C114.57 109.3 114.33 109.3 114.09 109.28C114.13 109.64 114.15 110.01 114.15 110.39C114.15 115.71 110.37 120.24 105.22 121.27C104.93 124.45 103.34 127.3 100.75 129.19C98.18 131.08 95.02 131.77 91.95 131.14C90.54 135.73 86.22 138.97 81.31 138.97V138.96ZM73.28 133.01C73.58 133.01 73.88 133.14 74.07 133.4C75.81 135.66 78.45 136.96 81.31 136.96C85.63 136.96 89.39 133.91 90.25 129.72C90.31 129.44 90.48 129.21 90.72 129.06C90.96 128.92 91.25 128.88 91.52 128.96C94.3 129.8 97.23 129.29 99.57 127.57C101.87 125.88 103.22 123.26 103.26 120.38C103.26 119.88 103.64 119.46 104.14 119.4C108.7 118.85 112.15 114.96 112.15 110.37C112.15 109.67 112.07 108.99 111.91 108.34C111.83 108.01 111.92 107.66 112.15 107.41C112.39 107.16 112.73 107.06 113.06 107.12C113.63 107.23 114.2 107.28 114.8 107.28C119.83 107.28 123.92 103.2 123.92 98.1801C123.92 93.1601 119.83 89.0801 114.8 89.0801C113.54 89.0801 112.33 89.3301 111.19 89.8201C110.77 90.0001 110.27 89.8701 110 89.5101C108.48 87.5001 106.15 86.3501 103.61 86.3501C101.07 86.3501 98.55 87.6201 97.04 89.7401C96.82 90.0601 96.42 90.2101 96.04 90.1401C95.56 90.0501 95.07 90.0101 94.56 90.0101C92.49 90.0101 90.52 90.7901 89.02 92.2101C88.78 92.4401 88.44 92.5301 88.13 92.4601C87.81 92.3901 87.54 92.1701 87.41 91.8701C86.16 88.8701 83.24 86.9401 79.98 86.9401C76.9 86.9401 74.14 88.6501 72.77 91.4001C72.61 91.7201 72.3 91.9301 71.95 91.9501C71.6 91.9801 71.26 91.8201 71.06 91.5301C69.55 89.3701 67.07 88.0701 64.44 88.0701C61.59 88.0701 59 89.5301 57.53 91.9901C57.37 92.2501 57.11 92.4201 56.81 92.4701C56.52 92.5101 56.21 92.4201 55.99 92.2101C54.49 90.7901 52.52 90.0201 50.45 90.0201C48.89 90.0201 47.38 90.4601 46.08 91.3101C45.62 91.6101 45.01 91.4801 44.7 91.0301C42.99 88.4801 40.15 86.9501 37.09 86.9501C32.06 86.9501 27.97 91.0301 27.97 96.0501C27.97 100.37 31.06 104.13 35.31 104.98C35.62 105.04 35.88 105.25 36.02 105.53C36.15 105.82 36.15 106.15 36 106.43C35.3 107.74 34.95 109.17 34.95 110.67C34.95 115.69 39.04 119.77 44.07 119.77C44.69 119.77 45.29 119.71 45.91 119.59C46.18 119.54 46.46 119.59 46.68 119.76C46.9 119.92 47.05 120.16 47.09 120.44C47.68 124.69 51.24 127.96 55.54 128.22C56.22 128.26 56.91 128.23 57.59 128.12C58.08 128.04 58.54 128.32 58.7 128.79C59.95 132.47 63.42 134.94 67.34 134.94C69.28 134.94 71.13 134.34 72.69 133.21C72.87 133.08 73.07 133.02 73.27 133.02L73.28 133.01Z" fill="#331C06"/>
<path d="M95.53 93.5699C81.8 93.7699 77.35 90.0799 75.99 87.0599C74.63 90.0699 70.18 93.7699 56.45 93.5699C33.41 93.2399 34.91 79.5599 34.91 79.5599C34.91 79.5599 42.22 89.4299 54.78 82.4499C65.76 76.3599 74.07 81.5399 75.99 82.9599C77.91 81.5399 86.22 76.3599 97.19 82.4499C109.76 89.4299 117.07 79.5599 117.07 79.5599C117.07 79.5599 118.57 93.2399 95.53 93.5699Z" fill="white"/>
<path d="M57.4899 94.5799C57.1399 94.5799 56.7899 94.5799 56.4399 94.5799C47.2799 94.4499 40.7499 92.2499 37.0299 88.0299C33.4699 83.9999 33.8999 79.6399 33.9199 79.4599C33.9599 79.0499 34.2599 78.7099 34.6499 78.5999C35.0399 78.4899 35.4699 78.6399 35.7099 78.9699C35.9899 79.3399 42.6799 88.0399 54.2899 81.5899C64.9599 75.6699 73.3399 80.0199 75.9899 81.7599C78.6299 80.0199 87.0099 75.6799 97.6799 81.5899C109.3 88.0399 115.99 79.3499 116.27 78.9699C116.52 78.6399 116.94 78.4999 117.33 78.5999C117.73 78.7099 118.02 79.0499 118.06 79.4499C118.08 79.6299 118.51 83.9899 114.95 88.0199C111.23 92.2299 104.7 94.4399 95.5399 94.5699C83.4599 94.7199 78.2199 91.9099 75.9899 88.9899C73.8299 91.8199 68.8099 94.5699 57.4899 94.5699V94.5799ZM36.1499 82.2099C36.4699 83.5099 37.1399 85.1399 38.5599 86.7299C41.8999 90.4799 47.9299 92.4399 56.4699 92.5599C70.2399 92.7599 74.0499 88.9399 75.0799 86.6399C75.2399 86.2799 75.5999 86.0499 75.9899 86.0499C76.3799 86.0499 76.7399 86.2799 76.8999 86.6399C77.9399 88.9399 81.7299 92.7599 95.5099 92.5599C104.08 92.4399 110.11 90.4599 113.45 86.6899C114.84 85.1199 115.5 83.4999 115.82 82.2099C112.66 84.8399 105.99 88.4799 96.7099 83.3199C86.0999 77.4399 78.0899 82.6499 76.5899 83.7599C76.2399 84.0199 75.7599 84.0199 75.3999 83.7599C73.8999 82.6499 65.8799 77.4299 55.2699 83.3199C45.9899 88.4799 39.3099 84.8399 36.1599 82.2099H36.1499Z" fill="#331C06"/>
</g>
<defs>
<clipPath id="clip0_775_11478">
<rect width="137" height="243" fill="white"/>
</clipPath>
</defs>
</svg>
